<svg xmlns="http://www.w3.org/2000/svg" xmlns:xlink="http://www.w3.org/1999/xlink" width="400" zoomAndPan="magnify" viewBox="0 0 300 299.999988" height="400" preserveAspectRatio="xMidYMid meet" version="1.0"><defs><clipPath id="423ec94c9c"><path d="M 214 8.886719 L 235 8.886719 L 235 39 L 214 39 Z M 214 8.886719 " clip-rule="nonzero"/></clipPath><clipPath id="e629e933b9"><path d="M 108.828125 46.375 L 299.652344 46.375 L 299.652344 287.882812 L 108.828125 287.882812 Z M 108.828125 46.375 " clip-rule="nonzero"/></clipPath></defs><path fill="#ea2a2a" d="M 286.179688 85.617188 C 286.3125 85.8125 286.445312 86.007812 286.574219 86.203125 C 286.445312 86.007812 286.3125 85.8125 286.179688 85.617188 " fill-opacity="1" fill-rule="nonzero"/><path fill="#ea2a2a" d="M 285.164062 84.191406 C 285.300781 84.378906 285.4375 84.566406 285.574219 84.753906 C 285.4375 84.566406 285.300781 84.378906 285.164062 84.191406 " fill-opacity="1" fill-rule="nonzero"/><path fill="#ea2a2a" d="M 283.695312 82.265625 C 283.839844 82.445312 283.980469 82.625 284.121094 82.804688 C 283.980469 82.625 283.839844 82.445312 283.695312 82.265625 " fill-opacity="1" fill-rule="nonzero"/><path fill="#ea2a2a" d="M 282.621094 80.945312 C 282.910156 81.289062 283.199219 81.640625 283.484375 82 C 283.199219 81.640625 282.910156 81.289062 282.621094 80.945312 " fill-opacity="1" fill-rule="nonzero"/><path fill="#ea2a2a" d="M 281.742188 79.921875 C 281.964844 80.171875 282.183594 80.425781 282.402344 80.6875 C 282.183594 80.425781 281.964844 80.171875 281.742188 79.921875 " fill-opacity="1" fill-rule="nonzero"/><path fill="#ea2a2a" d="M 280.40625 78.441406 C 280.859375 78.921875 281.300781 79.417969 281.742188 79.921875 C 281.300781 79.417969 280.855469 78.921875 280.40625 78.441406 " fill-opacity="1" fill-rule="nonzero"/><path fill="#ea2a2a" d="M 279.730469 77.726562 C 279.882812 77.882812 280.03125 78.039062 280.183594 78.199219 C 280.03125 78.039062 279.878906 77.882812 279.730469 77.726562 " fill-opacity="1" fill-rule="nonzero"/><path fill="#ea2a2a" d="M 279.730469 77.722656 C 279.429688 77.410156 279.128906 77.101562 278.824219 76.792969 C 279.128906 77.097656 279.429688 77.410156 279.730469 77.722656 " fill-opacity="1" fill-rule="nonzero"/><path fill="#ea2a2a" d="M 277.21875 75.242188 C 277.601562 75.601562 277.984375 75.96875 278.363281 76.34375 C 277.984375 75.96875 277.601562 75.601562 277.21875 75.242188 " fill-opacity="1" fill-rule="nonzero"/><path fill="#ea2a2a" d="M 276.292969 74.398438 C 276.601562 74.671875 276.910156 74.953125 277.21875 75.242188 C 276.910156 74.957031 276.601562 74.675781 276.292969 74.398438 " fill-opacity="1" fill-rule="nonzero"/><path fill="#ea2a2a" d="M 275.832031 73.984375 C 275.984375 74.121094 276.140625 74.257812 276.292969 74.398438 C 276.140625 74.257812 275.984375 74.121094 275.832031 73.984375 " fill-opacity="1" fill-rule="nonzero"/><path fill="#ea2a2a" d="M 274.226562 72.445312 C 274.410156 72.652344 274.597656 72.847656 274.785156 73.039062 C 274.59375 72.847656 274.410156 72.652344 274.226562 72.445312 " fill-opacity="1" fill-rule="nonzero"/><path fill="#ea2a2a" d="M 272.597656 70.542969 C 273.046875 71.074219 273.492188 71.617188 273.949219 72.136719 C 273.492188 71.617188 273.046875 71.074219 272.597656 70.542969 " fill-opacity="1" fill-rule="nonzero"/><path fill="#171717" d="M 259.285156 34.558594 C 265.285156 34.152344 266.945312 38.082031 272.289062 38.324219 C 271.636719 34.527344 271.835938 29.878906 269.554688 27.714844 C 266.019531 29.886719 262.242188 31.8125 259.285156 34.558594 Z M 271.949219 23.945312 C 274.332031 30.195312 276.917969 40.113281 273.3125 46.539062 C 265.394531 45.5625 261.765625 40.292969 255.179688 37.980469 C 254.722656 36.953125 254.832031 35.363281 254.839844 33.875 C 259.730469 29.757812 264.789062 25.800781 271.949219 23.945312 Z M 271.261719 43.117188 C 271.101562 41.601562 271.734375 41.414062 271.261719 40.378906 C 266.988281 40.429688 264.957031 36.421875 260.996094 37.296875 C 264.53125 39.121094 267.566406 41.449219 271.261719 43.117188 " fill-opacity="1" fill-rule="nonzero"/><path fill="#ea2a2a" d="M 269.554688 27.710938 C 271.835938 29.878906 271.636719 34.527344 272.289062 38.324219 C 266.945312 38.082031 265.285156 34.152344 259.285156 34.558594 C 262.242188 31.808594 266.023438 29.886719 269.554688 27.710938 " fill-opacity="1" fill-rule="nonzero"/><path fill="#b22f2f" d="M 271.265625 43.117188 C 267.566406 41.449219 264.535156 39.121094 260.996094 37.296875 C 264.957031 36.421875 266.988281 40.429688 271.265625 40.378906 C 271.734375 41.414062 271.101562 41.601562 271.265625 43.117188 " fill-opacity="1" fill-rule="nonzero"/><path fill="#ea2a2a" d="M 257.230469 132.460938 C 257.679688 130.996094 256.171875 129.421875 254.839844 128.695312 C 253.390625 130.074219 255.417969 132.25 257.230469 132.460938 Z M 205.902344 184.835938 C 207.730469 185.75 210.992188 182.507812 209.324219 181.066406 C 208.519531 182.660156 205.488281 182.023438 205.902344 184.835938 Z M 149.097656 284.445312 C 145.695312 284.433594 138.917969 275.488281 136.78125 272.464844 C 135.003906 269.957031 133.3125 267.113281 131.53125 264.210938 C 131.121094 263.542969 130.703125 262.867188 130.277344 262.195312 C 130.015625 261.78125 129.757812 261.363281 129.496094 260.941406 C 129.367188 260.734375 129.238281 260.523438 129.109375 260.3125 C 128.59375 259.464844 128.082031 258.613281 127.570312 257.75 C 127.316406 257.316406 127.066406 256.882812 126.8125 256.449219 C 126.558594 256.011719 126.308594 255.574219 126.058594 255.132812 C 125.679688 254.472656 125.308594 253.808594 124.933594 253.140625 C 124.683594 252.691406 124.4375 252.246094 124.1875 251.792969 C 122.207031 248.191406 120.261719 244.460938 118.300781 240.632812 C 115.535156 235.226562 111.191406 231.121094 112.824219 222.832031 C 121.148438 225.457031 131.453125 226.105469 140.203125 228.308594 C 142.613281 215.769531 141.46875 200.628906 140.542969 187.574219 C 149.992188 187.648438 163.753906 188.546875 175.449219 187.574219 C 179.574219 183.96875 178.296875 176.214844 178.871094 168.0625 C 178.925781 167.246094 178.988281 166.429688 179.054688 165.605469 C 179.089844 165.136719 179.128906 164.667969 179.167969 164.199219 C 179.222656 163.550781 179.277344 162.898438 179.335938 162.246094 C 179.390625 161.578125 179.453125 160.90625 179.511719 160.238281 C 179.546875 159.800781 179.585938 159.367188 179.625 158.929688 C 179.65625 158.574219 179.6875 158.222656 179.71875 157.871094 C 179.757812 157.390625 179.800781 156.914062 179.839844 156.433594 C 179.898438 155.738281 179.957031 155.042969 180.011719 154.351562 C 180.023438 154.21875 180.035156 154.085938 180.042969 153.953125 C 180.054688 153.816406 180.066406 153.679688 180.078125 153.539062 C 180.117188 153.003906 180.160156 152.46875 180.195312 151.933594 C 180.214844 151.667969 180.234375 151.398438 180.25 151.132812 C 180.453125 148.128906 180.589844 145.1875 180.582031 142.386719 C 192.496094 140.082031 201.785156 134.050781 211.71875 129.378906 C 211.992188 129.25 212.261719 129.128906 212.535156 129.007812 C 212.808594 128.886719 213.082031 128.769531 213.355469 128.652344 C 213.542969 128.578125 213.726562 128.5 213.910156 128.425781 C 214.371094 128.242188 214.839844 128.0625 215.304688 127.882812 C 217.832031 126.933594 220.425781 126.117188 222.960938 125.121094 C 223.242188 125.011719 223.523438 124.898438 223.808594 124.785156 C 224.460938 124.515625 225.113281 124.234375 225.753906 123.933594 C 226.03125 123.804688 226.304688 123.671875 226.578125 123.53125 C 226.667969 123.488281 226.757812 123.441406 226.851562 123.394531 C 227.757812 122.929688 228.648438 122.421875 229.515625 121.851562 L 229.515625 121.847656 C 224.253906 104.578125 222.847656 83.777344 218.222656 67.078125 C 218.972656 66.464844 219.808594 65.9375 220.6875 65.457031 C 220.804688 65.390625 220.921875 65.324219 221.042969 65.265625 C 221.164062 65.203125 221.28125 65.140625 221.402344 65.078125 C 221.582031 64.984375 221.765625 64.894531 221.949219 64.804688 C 222.070312 64.746094 222.191406 64.6875 222.316406 64.628906 C 222.378906 64.597656 222.4375 64.570312 222.5 64.539062 C 222.625 64.480469 222.75 64.421875 222.875 64.367188 C 223.308594 64.164062 223.746094 63.964844 224.183594 63.769531 C 224.496094 63.628906 224.808594 63.484375 225.121094 63.34375 C 225.183594 63.3125 225.246094 63.285156 225.308594 63.253906 C 225.492188 63.171875 225.679688 63.082031 225.867188 62.996094 C 226.175781 62.847656 226.480469 62.699219 226.78125 62.546875 C 226.902344 62.484375 227.023438 62.425781 227.140625 62.363281 C 227.976562 61.925781 228.78125 61.453125 229.515625 60.917969 C 229.605469 57.148438 226.457031 53.722656 225.066406 50.304688 C 239.328125 50.21875 248.4375 54.851562 258.601562 60.917969 C 262.824219 63.4375 267.855469 66.128906 270.921875 68.792969 C 271.507812 69.300781 272.054688 69.910156 272.597656 70.542969 C 273.046875 71.074219 273.492188 71.617188 273.949219 72.136719 C 274.039062 72.242188 274.132812 72.347656 274.222656 72.449219 C 274.40625 72.652344 274.59375 72.851562 274.785156 73.039062 C 274.976562 73.230469 275.167969 73.410156 275.367188 73.582031 C 275.523438 73.714844 275.675781 73.851562 275.832031 73.984375 C 275.984375 74.121094 276.140625 74.261719 276.292969 74.398438 C 276.601562 74.675781 276.910156 74.957031 277.214844 75.242188 C 277.214844 75.242188 277.21875 75.242188 277.21875 75.242188 C 277.601562 75.601562 277.984375 75.96875 278.363281 76.339844 C 278.515625 76.492188 278.667969 76.644531 278.820312 76.796875 C 279.125 77.101562 279.429688 77.410156 279.730469 77.722656 C 279.882812 77.878906 280.03125 78.039062 280.183594 78.199219 C 280.257812 78.277344 280.332031 78.359375 280.40625 78.441406 C 280.855469 78.921875 281.300781 79.417969 281.742188 79.921875 C 281.746094 79.921875 281.742188 79.921875 281.742188 79.921875 C 281.964844 80.175781 282.183594 80.429688 282.402344 80.6875 C 282.472656 80.773438 282.546875 80.859375 282.621094 80.945312 C 282.910156 81.289062 283.199219 81.644531 283.484375 82 C 283.554688 82.085938 283.625 82.175781 283.695312 82.265625 C 283.835938 82.445312 283.980469 82.625 284.121094 82.808594 C 284.472656 83.261719 284.820312 83.722656 285.164062 84.191406 C 285.300781 84.378906 285.4375 84.566406 285.570312 84.757812 C 285.777344 85.042969 285.976562 85.328125 286.179688 85.617188 C 286.3125 85.8125 286.445312 86.007812 286.578125 86.203125 C 291.648438 93.730469 295.464844 102.976562 296.242188 113.632812 C 297.253906 127.539062 292.695312 140.4375 288.371094 151.628906 C 277.292969 180.3125 259.4375 197.597656 237.726562 217.695312 C 224.675781 229.777344 210.285156 241.253906 194.953125 252.613281 C 187.972656 257.785156 180.714844 263.574219 172.710938 269.386719 C 169.484375 271.726562 165.222656 273.839844 160.734375 276.917969 C 157.0625 279.433594 150.992188 284.453125 149.097656 284.445312 Z M 253.125 134.171875 C 252.238281 132.894531 252.503906 130.460938 251.074219 129.722656 C 250.722656 129.847656 250.46875 130.058594 250.300781 130.316406 C 250.242188 130.402344 250.195312 130.496094 250.15625 130.589844 C 250.152344 130.609375 250.144531 130.628906 250.136719 130.648438 C 250.101562 130.746094 250.074219 130.851562 250.054688 130.957031 C 249.960938 131.515625 250.082031 132.160156 250.347656 132.746094 C 250.367188 132.789062 250.386719 132.832031 250.40625 132.875 C 250.425781 132.917969 250.449219 132.957031 250.472656 133 C 250.496094 133.042969 250.515625 133.082031 250.542969 133.121094 C 250.554688 133.140625 250.5625 133.160156 250.578125 133.179688 C 250.601562 133.222656 250.625 133.261719 250.652344 133.300781 C 250.675781 133.339844 250.703125 133.375 250.730469 133.414062 C 250.742188 133.433594 250.757812 133.449219 250.769531 133.46875 C 250.796875 133.503906 250.824219 133.542969 250.855469 133.578125 C 250.882812 133.613281 250.914062 133.644531 250.941406 133.679688 C 250.972656 133.714844 251.003906 133.746094 251.03125 133.777344 C 251.625 134.398438 252.402344 134.679688 253.125 134.171875 Z M 203.507812 181.410156 C 206.625 180.992188 206.21875 177.046875 207.269531 174.566406 L 206.242188 174.566406 C 206.222656 177.554688 202.496094 178.515625 203.507812 181.410156 " fill-opacity="1" fill-rule="nonzero"/><path fill="#171717" d="M 257.230469 132.460938 C 255.417969 132.25 253.390625 130.074219 254.839844 128.695312 C 256.171875 129.417969 257.679688 130.996094 257.230469 132.460938 " fill-opacity="1" fill-rule="nonzero"/><path fill="#171717" d="M 253.128906 134.171875 C 252.402344 134.679688 251.628906 134.398438 251.03125 133.777344 C 251.003906 133.746094 250.972656 133.710938 250.941406 133.679688 C 250.914062 133.644531 250.882812 133.613281 250.855469 133.578125 C 250.828125 133.542969 250.796875 133.503906 250.769531 133.46875 C 250.757812 133.449219 250.742188 133.429688 250.730469 133.414062 C 250.707031 133.375 250.679688 133.339844 250.652344 133.300781 C 250.628906 133.261719 250.601562 133.222656 250.578125 133.179688 C 250.566406 133.160156 250.554688 133.140625 250.542969 133.121094 C 250.515625 133.082031 250.496094 133.039062 250.472656 133 C 250.449219 132.957031 250.429688 132.914062 250.40625 132.875 C 250.386719 132.832031 250.367188 132.789062 250.347656 132.746094 C 250.082031 132.160156 249.960938 131.511719 250.058594 130.957031 C 250.074219 130.851562 250.101562 130.746094 250.136719 130.648438 C 250.144531 130.628906 250.152344 130.609375 250.160156 130.589844 C 250.199219 130.492188 250.246094 130.402344 250.300781 130.316406 C 250.472656 130.054688 250.722656 129.847656 251.074219 129.722656 C 252.503906 130.460938 252.238281 132.890625 253.128906 134.171875 " fill-opacity="1" fill-rule="nonzero"/><path fill="#b22f2f" d="M 230.882812 30.109375 C 232.011719 30.570312 230.859375 34.324219 230.199219 35.242188 C 226.769531 34.15625 223.519531 35.238281 220.273438 34.21875 C 222.984375 32.019531 228.148438 32.277344 230.882812 30.109375 " fill-opacity="1" fill-rule="nonzero"/><g clip-path="url(#423ec94c9c)"><path fill="#171717" d="M 219.25 31.476562 C 222.902344 30.113281 227.429688 29.625 230.542969 27.714844 C 230.144531 22.0625 229.101562 17.058594 226.777344 13.335938 C 224.4375 19.550781 220.886719 24.558594 219.25 31.476562 Z M 228.488281 8.882812 C 231.769531 16.292969 238.546875 31.671875 230.882812 38.664062 C 225.214844 37.824219 218.894531 38.128906 214.457031 37.636719 C 213.746094 32.738281 216.789062 27.652344 218.90625 23.261719 C 221.101562 18.710938 223.0625 13.996094 225.410156 9.910156 C 225.527344 9.464844 226.011719 9.375 226.09375 8.882812 Z M 230.199219 35.242188 C 230.859375 34.324219 232.015625 30.570312 230.882812 30.109375 C 228.148438 32.28125 222.984375 32.019531 220.277344 34.21875 C 223.519531 35.238281 226.769531 34.15625 230.199219 35.242188 " fill-opacity="1" fill-rule="nonzero"/></g><path fill="#ea2a2a" d="M 226.777344 13.335938 C 229.097656 17.0625 230.144531 22.0625 230.542969 27.714844 C 227.429688 29.625 222.902344 30.113281 219.25 31.480469 C 220.882812 24.558594 224.433594 19.550781 226.777344 13.335938 " fill-opacity="1" fill-rule="nonzero"/><path fill="#ea2a2a" d="M 226.78125 62.546875 C 226.902344 62.484375 227.023438 62.425781 227.144531 62.363281 C 227.023438 62.425781 226.902344 62.484375 226.78125 62.546875 " fill-opacity="1" fill-rule="nonzero"/><path fill="#ea2a2a" d="M 225.867188 62.996094 C 226.175781 62.847656 226.480469 62.699219 226.78125 62.546875 C 226.480469 62.699219 226.175781 62.847656 225.867188 62.996094 " fill-opacity="1" fill-rule="nonzero"/><path fill="#b22f2f" d="M 224.382812 111.238281 C 225.878906 113.730469 226.195312 117.414062 226.777344 120.820312 C 213.390625 125.453125 202.238281 132.328125 189.136719 137.253906 C 188.84375 135.878906 190.648438 134.875 191.53125 134.171875 C 198.757812 128.429688 206.976562 124.660156 215.144531 118.765625 C 218.503906 116.34375 224.011719 114.195312 224.382812 111.238281 " fill-opacity="1" fill-rule="nonzero"/><path fill="#ea2a2a" d="M 225.308594 63.253906 C 225.496094 63.171875 225.679688 63.082031 225.867188 62.996094 C 225.679688 63.082031 225.496094 63.171875 225.308594 63.253906 " fill-opacity="1" fill-rule="nonzero"/><path fill="#ea2a2a" d="M 224.183594 63.769531 C 224.496094 63.628906 224.808594 63.484375 225.121094 63.34375 C 224.808594 63.484375 224.496094 63.628906 224.183594 63.769531 " fill-opacity="1" fill-rule="nonzero"/><path fill="#ea2a2a" d="M 222.875 64.367188 C 223.308594 64.164062 223.746094 63.964844 224.183594 63.765625 C 223.746094 63.964844 223.308594 64.164062 222.875 64.367188 " fill-opacity="1" fill-rule="nonzero"/><path fill="#ea2a2a" d="M 222.503906 64.539062 C 222.625 64.480469 222.75 64.421875 222.875 64.367188 C 222.75 64.421875 222.625 64.480469 222.503906 64.539062 " fill-opacity="1" fill-rule="nonzero"/><path fill="#ea2a2a" d="M 221.949219 64.804688 C 222.070312 64.746094 222.195312 64.6875 222.316406 64.628906 C 222.195312 64.6875 222.070312 64.746094 221.949219 64.804688 " fill-opacity="1" fill-rule="nonzero"/><path fill="#ea2a2a" d="M 221.042969 65.261719 C 221.164062 65.199219 221.28125 65.136719 221.402344 65.078125 C 221.28125 65.136719 221.164062 65.199219 221.042969 65.261719 " fill-opacity="1" fill-rule="nonzero"/><path fill="#ea2a2a" d="M 220.691406 65.453125 C 220.804688 65.390625 220.925781 65.324219 221.042969 65.261719 C 220.925781 65.324219 220.804688 65.390625 220.691406 65.453125 " fill-opacity="1" fill-rule="nonzero"/><path fill="#ea2a2a" d="M 213.910156 128.425781 C 214.371094 128.242188 214.839844 128.058594 215.304688 127.882812 C 214.839844 128.0625 214.371094 128.242188 213.910156 128.425781 " fill-opacity="1" fill-rule="nonzero"/><path fill="#ea2a2a" d="M 212.535156 129.007812 C 212.808594 128.886719 213.082031 128.769531 213.359375 128.652344 C 213.082031 128.769531 212.808594 128.886719 212.535156 129.007812 " fill-opacity="1" fill-rule="nonzero"/><path fill="#171717" d="M 209.324219 181.066406 C 210.992188 182.507812 207.730469 185.75 205.902344 184.835938 C 205.488281 182.023438 208.523438 182.660156 209.324219 181.066406 " fill-opacity="1" fill-rule="nonzero"/><path fill="#171717" d="M 207.269531 174.566406 C 206.21875 177.046875 206.625 180.992188 203.507812 181.410156 C 202.496094 178.515625 206.222656 177.550781 206.246094 174.566406 L 207.269531 174.566406 " fill-opacity="1" fill-rule="nonzero"/><path fill="#ea2a2a" d="M 89.898438 110.894531 C 88.9375 112.375 90.617188 113.703125 92.636719 113.289062 C 92.152344 112.058594 91.488281 111.019531 89.898438 110.894531 Z M 94.179688 71.308594 C 94.914062 72.074219 96.046875 72.441406 97.425781 72.554688 C 97.628906 71.226562 95.664062 69.371094 93.320312 69.472656 C 93.332031 69.539062 93.339844 69.605469 93.355469 69.667969 C 93.367188 69.726562 93.378906 69.789062 93.394531 69.847656 C 93.425781 69.96875 93.460938 70.085938 93.5 70.195312 C 93.519531 70.25 93.539062 70.304688 93.5625 70.359375 C 93.582031 70.410156 93.605469 70.460938 93.632812 70.511719 C 93.65625 70.5625 93.679688 70.613281 93.707031 70.660156 C 93.71875 70.683594 93.734375 70.710938 93.746094 70.734375 C 93.800781 70.828125 93.859375 70.917969 93.925781 71.003906 C 93.957031 71.046875 93.988281 71.089844 94.023438 71.132812 C 94.074219 71.195312 94.125 71.253906 94.179688 71.308594 Z M 85.109375 68.105469 C 84.847656 70.804688 88.617188 72.605469 89.554688 70.160156 C 87.3125 70.460938 87.613281 68.222656 86.136719 67.761719 C 86.09375 68.058594 85.8125 68.121094 85.472656 68.121094 C 85.386719 68.121094 85.296875 68.117188 85.207031 68.109375 C 85.175781 68.109375 85.140625 68.109375 85.109375 68.105469 Z M 84.765625 119.792969 C 86.175781 120.792969 88.996094 120.480469 88.871094 118.082031 C 87.617188 118.769531 86.574219 118.113281 85.109375 118.082031 C 84.820312 118.480469 84.65625 119 84.765625 119.792969 Z M 84.425781 165.320312 C 82.632812 165.515625 83.527344 163.023438 82.027344 162.925781 C 79.007812 164.261719 83.273438 168.328125 84.425781 165.320312 Z M 83.054688 196.128906 C 81.15625 195.023438 79.355469 193.816406 77.632812 192.53125 C 77.402344 192.359375 77.171875 192.1875 76.945312 192.011719 C 76.71875 191.839844 76.496094 191.664062 76.269531 191.484375 C 76.046875 191.308594 75.824219 191.128906 75.601562 190.953125 C 75.378906 190.773438 75.160156 190.589844 74.941406 190.410156 C 74.175781 189.769531 73.421875 189.121094 72.683594 188.453125 C 72.367188 188.167969 72.054688 187.878906 71.742188 187.589844 C 71.535156 187.398438 71.328125 187.203125 71.125 187.007812 C 70.816406 186.714844 70.507812 186.417969 70.203125 186.121094 C 70.003906 185.921875 69.800781 185.722656 69.601562 185.523438 C 60.765625 176.710938 53.65625 166.167969 44.730469 157.449219 C 44.335938 157.046875 44.34375 156.238281 44.386719 155.394531 C 40.113281 153.164062 36.335938 150.332031 32.980469 147.015625 C 32.5625 146.601562 32.152344 146.179688 31.746094 145.75 C 30.933594 144.894531 30.144531 144.003906 29.382812 143.089844 C 28.875 142.480469 28.378906 141.859375 27.894531 141.226562 C 27.53125 140.75 27.171875 140.269531 26.816406 139.78125 C 26.582031 139.453125 26.351562 139.125 26.121094 138.796875 C 25.890625 138.464844 25.664062 138.132812 25.4375 137.796875 C 23.191406 134.433594 21.191406 130.804688 19.40625 126.984375 C 15.324219 118.246094 12.574219 108.320312 11.878906 97.203125 C 11.144531 85.457031 14.40625 73.832031 18.039062 62.972656 C 24.824219 42.675781 39.214844 32.613281 60.8125 26.6875 C 91.691406 18.214844 120.046875 33.378906 139.519531 46.882812 C 143.832031 49.875 147.585938 54.5625 153.207031 55.441406 C 153.816406 51.945312 145.550781 50.210938 144.992188 47.566406 C 144.902344 47.136719 145.167969 46.382812 145.644531 45.453125 C 145.664062 45.414062 145.683594 45.375 145.707031 45.335938 C 145.746094 45.261719 145.785156 45.1875 145.824219 45.113281 C 145.851562 45.0625 145.882812 45.007812 145.910156 44.957031 C 145.925781 44.933594 145.9375 44.910156 145.949219 44.886719 C 145.980469 44.832031 146.011719 44.777344 146.042969 44.726562 C 146.0625 44.691406 146.078125 44.660156 146.097656 44.625 C 146.15625 44.527344 146.21875 44.425781 146.277344 44.324219 C 146.296875 44.289062 146.320312 44.253906 146.339844 44.222656 C 146.382812 44.152344 146.421875 44.082031 146.464844 44.015625 C 146.507812 43.945312 146.550781 43.875 146.597656 43.804688 C 146.707031 43.628906 146.820312 43.453125 146.933594 43.273438 C 146.9375 43.273438 146.9375 43.273438 146.9375 43.273438 C 147.074219 43.058594 147.21875 42.839844 147.367188 42.621094 C 148.175781 41.421875 149.082031 40.183594 149.898438 39.113281 C 150.023438 38.953125 150.144531 38.792969 150.261719 38.640625 C 150.359375 38.515625 150.453125 38.398438 150.542969 38.277344 C 150.679688 38.105469 150.8125 37.9375 150.941406 37.773438 C 150.960938 37.75 150.980469 37.722656 151.003906 37.695312 C 151.128906 37.539062 151.246094 37.390625 151.359375 37.253906 C 151.398438 37.207031 151.433594 37.160156 151.46875 37.117188 C 151.503906 37.074219 151.539062 37.03125 151.574219 36.988281 C 151.609375 36.945312 151.640625 36.90625 151.671875 36.867188 C 151.707031 36.828125 151.738281 36.792969 151.769531 36.753906 C 151.796875 36.71875 151.828125 36.683594 151.855469 36.648438 C 151.984375 36.496094 152.09375 36.367188 152.179688 36.269531 C 161.734375 25.449219 184.953125 17.871094 201.796875 20.523438 C 202.085938 21.699219 199.328125 23.859375 197.691406 25.316406 C 192.605469 29.835938 185.480469 33.929688 179.898438 37.980469 C 184.667969 47.585938 189.542969 57.085938 193.925781 67.078125 C 177.488281 75.507812 158.9375 81.824219 142.9375 90.699219 C 144.503906 105 148.628906 119.691406 150.125 135.199219 C 135.332031 136.3125 120.835938 136.804688 104.613281 137.9375 C 105.648438 146.414062 109.226562 154.734375 110.773438 163.609375 C 111.082031 165.382812 111.308594 167.214844 111.5 169.078125 C 111.527344 169.34375 111.554688 169.609375 111.582031 169.878906 C 111.59375 170.011719 111.605469 170.144531 111.617188 170.28125 C 111.644531 170.546875 111.667969 170.816406 111.695312 171.082031 C 111.71875 171.351562 111.742188 171.621094 111.765625 171.890625 C 111.789062 172.160156 111.8125 172.429688 111.835938 172.699219 C 111.847656 172.832031 111.859375 172.96875 111.871094 173.101562 C 112.035156 174.988281 112.191406 176.882812 112.390625 178.746094 C 112.445312 179.277344 112.507812 179.808594 112.570312 180.332031 C 112.601562 180.597656 112.636719 180.859375 112.671875 181.121094 C 112.722656 181.511719 112.777344 181.902344 112.835938 182.292969 C 112.871094 182.550781 112.910156 182.808594 112.953125 183.066406 C 112.972656 183.195312 112.996094 183.320312 113.015625 183.449219 C 113.144531 184.214844 113.289062 184.96875 113.449219 185.710938 C 113.664062 186.699219 113.910156 187.664062 114.195312 188.597656 C 102.570312 186.46875 91.316406 182.5625 80.316406 181.753906 C 80.800781 185.628906 81.8125 191.882812 83.054688 196.128906 Z M 77.578125 170.457031 C 79 170.363281 78.914062 170.90625 79.972656 170.457031 C 79.21875 169.050781 78.765625 167.332031 77.238281 166.691406 C 75.980469 167.613281 77.214844 169.203125 77.578125 170.457031 " fill-opacity="1" fill-rule="nonzero"/><path fill="#171717" d="M 184.6875 114.316406 C 187.214844 115.140625 188.453125 114.875 191.53125 114.660156 C 191.253906 112.886719 192.578125 110.929688 191.53125 109.527344 C 189.910156 111.78125 186.046875 111.796875 184.6875 114.316406 Z M 180.242188 103.703125 C 181.101562 106.988281 181.144531 108.976562 181.949219 112.265625 C 185.035156 110.328125 189.554688 109.828125 190.503906 105.757812 C 188.71875 105.234375 186.78125 104.863281 184.816406 104.519531 C 184.378906 104.441406 183.941406 104.367188 183.503906 104.292969 C 182.40625 104.105469 181.3125 103.914062 180.242188 103.703125 Z M 193.242188 103.363281 C 196.511719 105.96875 195.355469 115.171875 192.558594 117.742188 C 187.09375 118.625 182.496094 117.917969 179.214844 115.34375 C 179.273438 110.117188 175.070312 104.171875 177.503906 99.9375 C 183.976562 100.609375 187.808594 101.976562 193.242188 103.363281 " fill-opacity="1" fill-rule="nonzero"/><path fill="#b22f2f" d="M 191.53125 109.527344 C 192.578125 110.929688 191.25 112.886719 191.53125 114.660156 C 188.453125 114.875 187.214844 115.140625 184.683594 114.316406 C 186.046875 111.796875 189.910156 111.78125 191.53125 109.527344 " fill-opacity="1" fill-rule="nonzero"/><path fill="#ea2a2a" d="M 183.5 104.292969 C 183.9375 104.371094 184.378906 104.445312 184.816406 104.519531 C 184.378906 104.445312 183.9375 104.371094 183.5 104.292969 " fill-opacity="1" fill-rule="nonzero"/><path fill="#ea2a2a" d="M 190.503906 105.761719 C 189.554688 109.828125 185.035156 110.332031 181.949219 112.265625 C 181.144531 108.976562 181.101562 106.988281 180.238281 103.707031 C 181.3125 103.917969 182.40625 104.105469 183.503906 104.292969 C 183.9375 104.367188 184.378906 104.445312 184.816406 104.519531 C 186.78125 104.863281 188.71875 105.234375 190.503906 105.761719 " fill-opacity="1" fill-rule="nonzero"/><path fill="#ea2a2a" d="M 180.195312 151.933594 C 180.214844 151.667969 180.234375 151.402344 180.25 151.132812 C 180.234375 151.398438 180.214844 151.667969 180.195312 151.933594 " fill-opacity="1" fill-rule="nonzero"/><path fill="#ea2a2a" d="M 180.042969 153.953125 C 180.054688 153.816406 180.066406 153.679688 180.078125 153.539062 C 180.066406 153.679688 180.054688 153.816406 180.042969 153.953125 " fill-opacity="1" fill-rule="nonzero"/><path fill="#b22f2f" d="M 176.132812 177.304688 C 176.710938 179.007812 176.132812 182.285156 174.761719 185.175781 C 163.957031 186.058594 156.597656 184.882812 147.046875 185.175781 C 156.21875 182.03125 165.679688 179.167969 176.132812 177.304688 " fill-opacity="1" fill-rule="nonzero"/><path fill="#171717" d="M 144.992188 47.566406 C 145.550781 50.210938 153.816406 51.945312 153.207031 55.441406 C 147.585938 54.5625 143.832031 49.875 139.519531 46.882812 C 120.046875 33.378906 91.691406 18.214844 60.8125 26.683594 C 39.214844 32.613281 24.824219 42.675781 18.039062 62.96875 C 14.40625 73.832031 11.144531 85.457031 11.878906 97.203125 C 12.574219 108.320312 15.324219 118.246094 19.40625 126.980469 C 21.191406 130.804688 23.191406 134.433594 25.4375 137.796875 C 25.664062 138.128906 25.890625 138.464844 26.121094 138.796875 C 26.351562 139.125 26.582031 139.453125 26.816406 139.78125 C 27.171875 140.269531 27.53125 140.75 27.894531 141.226562 C 28.378906 141.859375 28.875 142.480469 29.382812 143.089844 C 30.144531 144.003906 30.933594 144.890625 31.746094 145.75 C 32.148438 146.179688 32.5625 146.601562 32.984375 147.015625 C 36.335938 150.332031 40.113281 153.164062 44.386719 155.394531 C 44.34375 156.238281 44.335938 157.042969 44.730469 157.449219 C 53.65625 166.167969 60.765625 176.710938 69.601562 185.523438 C 69.800781 185.722656 70.003906 185.921875 70.203125 186.121094 C 70.507812 186.417969 70.816406 186.714844 71.125 187.007812 C 71.328125 187.203125 71.535156 187.394531 71.742188 187.589844 C 72.054688 187.878906 72.367188 188.167969 72.683594 188.453125 C 73.421875 189.121094 74.175781 189.769531 74.941406 190.410156 C 75.160156 190.589844 75.378906 190.773438 75.601562 190.953125 C 75.824219 191.128906 76.046875 191.308594 76.269531 191.484375 C 76.496094 191.664062 76.71875 191.839844 76.945312 192.011719 C 77.171875 192.1875 77.402344 192.359375 77.632812 192.53125 C 79.355469 193.816406 81.15625 195.023438 83.054688 196.128906 C 81.8125 191.882812 80.800781 185.628906 80.316406 181.753906 C 91.316406 182.5625 102.570312 186.46875 114.195312 188.597656 C 113.910156 187.664062 113.664062 186.699219 113.449219 185.710938 C 113.289062 184.96875 113.144531 184.214844 113.015625 183.449219 C 112.996094 183.320312 112.972656 183.191406 112.953125 183.0625 C 112.914062 182.808594 112.871094 182.550781 112.835938 182.292969 C 112.777344 181.902344 112.722656 181.511719 112.671875 181.121094 C 112.636719 180.859375 112.605469 180.597656 112.570312 180.332031 C 112.507812 179.808594 112.449219 179.277344 112.390625 178.746094 C 112.191406 176.882812 112.035156 174.988281 111.871094 173.101562 C 111.859375 172.96875 111.847656 172.832031 111.835938 172.699219 C 111.8125 172.429688 111.789062 172.160156 111.765625 171.890625 C 111.742188 171.621094 111.71875 171.351562 111.695312 171.082031 C 111.667969 170.8125 111.644531 170.546875 111.617188 170.277344 C 111.605469 170.144531 111.59375 170.011719 111.582031 169.878906 C 111.554688 169.609375 111.527344 169.34375 111.5 169.078125 C 111.308594 167.214844 111.082031 165.378906 110.773438 163.609375 C 109.226562 154.734375 105.648438 146.414062 104.613281 137.9375 C 120.835938 136.804688 135.332031 136.3125 150.125 135.199219 C 148.628906 119.691406 144.503906 104.996094 142.9375 90.699219 C 158.9375 81.824219 177.488281 75.507812 193.925781 67.078125 C 189.542969 57.085938 184.671875 47.585938 179.898438 37.980469 C 185.480469 33.929688 192.609375 29.835938 197.691406 25.316406 C 199.332031 23.859375 202.085938 21.695312 201.796875 20.523438 C 184.953125 17.871094 161.734375 25.445312 152.179688 36.269531 C 152.09375 36.367188 151.984375 36.496094 151.855469 36.648438 C 151.828125 36.679688 151.796875 36.71875 151.769531 36.753906 C 151.738281 36.789062 151.707031 36.828125 151.675781 36.867188 C 151.640625 36.90625 151.609375 36.945312 151.574219 36.988281 C 151.539062 37.03125 151.503906 37.074219 151.46875 37.117188 C 151.433594 37.160156 151.398438 37.207031 151.359375 37.25 C 151.246094 37.390625 151.128906 37.539062 151.003906 37.695312 C 150.980469 37.722656 150.960938 37.75 150.941406 37.773438 C 150.8125 37.933594 150.679688 38.105469 150.542969 38.277344 C 150.453125 38.394531 150.359375 38.515625 150.261719 38.640625 C 150.144531 38.792969 150.023438 38.953125 149.898438 39.113281 C 149.082031 40.183594 148.175781 41.417969 147.367188 42.621094 C 147.21875 42.839844 147.074219 43.054688 146.9375 43.273438 C 146.9375 43.273438 146.9375 43.273438 146.933594 43.273438 C 146.820312 43.449219 146.707031 43.628906 146.597656 43.804688 C 146.550781 43.875 146.507812 43.945312 146.46875 44.011719 C 146.464844 44.011719 146.464844 44.011719 146.464844 44.015625 C 146.421875 44.082031 146.382812 44.152344 146.339844 44.21875 C 146.320312 44.253906 146.300781 44.289062 146.277344 44.324219 C 146.21875 44.425781 146.15625 44.527344 146.101562 44.625 C 146.082031 44.660156 146.0625 44.691406 146.042969 44.726562 C 146.011719 44.777344 145.980469 44.832031 145.949219 44.886719 C 145.9375 44.910156 145.925781 44.933594 145.910156 44.957031 C 145.882812 45.007812 145.851562 45.0625 145.824219 45.113281 C 145.785156 45.1875 145.746094 45.261719 145.707031 45.335938 C 145.683594 45.375 145.664062 45.414062 145.644531 45.457031 C 145.167969 46.378906 144.902344 47.136719 144.992188 47.566406 Z M 85.792969 195.789062 C 86.621094 192.167969 87.765625 188.863281 88.527344 185.175781 C 87.5625 184.871094 85.023438 184.753906 83.398438 184.148438 C 83.382812 184.28125 83.371094 184.417969 83.363281 184.550781 L 83.363281 184.554688 C 83.351562 184.6875 83.34375 184.824219 83.335938 184.964844 C 83.328125 185.105469 83.324219 185.246094 83.320312 185.386719 C 83.316406 185.53125 83.316406 185.671875 83.316406 185.816406 C 83.316406 189.300781 84.289062 193.457031 85.792969 195.789062 Z M 207.613281 19.15625 C 208.121094 21.757812 198.332031 28.902344 196.664062 30.109375 C 191.890625 33.558594 188 35.804688 184.003906 39.007812 C 187.914062 45.65625 190.757812 52.582031 194.269531 60.917969 C 195.035156 62.730469 197.851562 66.3125 197.347656 68.449219 C 196.789062 70.835938 190.84375 72.414062 188.109375 73.582031 C 178.054688 77.871094 167.664062 82.382812 157.996094 86.589844 C 157.210938 96.921875 156.792969 107.226562 155.601562 117.398438 C 154.742188 124.742188 155.378906 132.328125 152.863281 138.625 C 142.464844 139.308594 131.441406 139.300781 120.699219 140.332031 C 120.226562 154.675781 120.605469 169.457031 118.984375 182.4375 C 118.53125 186.097656 118.695312 190.042969 116.933594 193.046875 C 108.738281 190.867188 100.765625 188.453125 91.953125 186.886719 C 89.273438 190.824219 89.984375 198.15625 86.136719 200.921875 C 74.824219 197.488281 68.550781 188.46875 61.15625 181.066406 C 53.699219 173.613281 48.476562 164.207031 40.621094 157.105469 C 38.636719 155.3125 36.109375 154.375 34.121094 152.65625 C 28.828125 148.082031 23.59375 140.980469 19.40625 133.828125 C 15.308594 126.828125 11.414062 117.769531 9.824219 109.867188 C 5.21875 86.964844 12.453125 60.734375 22.144531 47.226562 C 29.402344 37.105469 37.375 30.703125 50.546875 26 C 62.691406 21.667969 75.835938 18.816406 91.953125 21.207031 C 111.632812 24.136719 128.832031 35.4375 142.253906 44.144531 C 149.507812 30.644531 165.1875 20.046875 184.003906 16.757812 C 188.234375 16.019531 192.449219 16.40625 198.375 16.757812 C 202.253906 16.988281 207.125 16.621094 207.613281 19.15625 Z M 151.835938 126.640625 C 152.414062 113.636719 154.425781 100.25 154.234375 87.617188 C 151.261719 88.980469 148.199219 90.253906 145.335938 91.722656 C 147.207031 103.65625 148.851562 115.820312 151.835938 126.640625 Z M 117.273438 139.648438 C 113.957031 139.636719 111.242188 140.230469 107.691406 139.992188 C 110.5625 154.121094 113.773438 167.914062 115.5625 183.121094 C 118.382812 169.734375 116.511719 151.828125 117.273438 139.648438 " fill-opacity="1" fill-rule="nonzero"/><path fill="#b22f2f" d="M 151.835938 126.640625 C 148.851562 115.820312 147.207031 103.65625 145.332031 91.726562 C 148.199219 90.253906 151.261719 88.980469 154.230469 87.617188 C 154.425781 100.25 152.410156 113.640625 151.835938 126.640625 " fill-opacity="1" fill-rule="nonzero"/><path fill="#ea2a2a" d="M 151.855469 36.648438 C 151.828125 36.679688 151.800781 36.714844 151.769531 36.753906 C 151.796875 36.714844 151.828125 36.679688 151.855469 36.648438 " fill-opacity="1" fill-rule="nonzero"/><path fill="#ea2a2a" d="M 151.675781 36.867188 C 151.640625 36.90625 151.609375 36.945312 151.574219 36.988281 C 151.609375 36.945312 151.640625 36.90625 151.675781 36.867188 " fill-opacity="1" fill-rule="nonzero"/><path fill="#ea2a2a" d="M 151.574219 36.988281 C 151.539062 37.03125 151.503906 37.074219 151.46875 37.117188 C 151.503906 37.074219 151.539062 37.03125 151.574219 36.988281 " fill-opacity="1" fill-rule="nonzero"/><path fill="#ea2a2a" d="M 151.46875 37.117188 C 151.433594 37.160156 151.398438 37.207031 151.359375 37.25 C 151.398438 37.207031 151.433594 37.160156 151.46875 37.117188 " fill-opacity="1" fill-rule="nonzero"/><path fill="#ea2a2a" d="M 151.359375 37.253906 C 151.246094 37.390625 151.128906 37.539062 151.003906 37.695312 C 151.128906 37.539062 151.246094 37.390625 151.359375 37.253906 " fill-opacity="1" fill-rule="nonzero"/><path fill="#ea2a2a" d="M 150.941406 37.777344 C 150.8125 37.933594 150.679688 38.105469 150.542969 38.277344 C 150.679688 38.105469 150.8125 37.933594 150.941406 37.777344 " fill-opacity="1" fill-rule="nonzero"/><path fill="#ea2a2a" d="M 150.542969 38.277344 C 150.453125 38.398438 150.359375 38.515625 150.261719 38.640625 C 150.359375 38.515625 150.453125 38.398438 150.542969 38.277344 " fill-opacity="1" fill-rule="nonzero"/><path fill="#ea2a2a" d="M 150.261719 38.640625 C 150.144531 38.792969 150.023438 38.953125 149.898438 39.113281 C 150.023438 38.953125 150.144531 38.792969 150.261719 38.640625 " fill-opacity="1" fill-rule="nonzero"/><g clip-path="url(#e629e933b9)"><path fill="#171717" d="M 174.761719 185.175781 C 176.132812 182.285156 176.714844 179.007812 176.132812 177.304688 C 165.679688 179.167969 156.21875 182.03125 147.046875 185.175781 C 156.597656 184.882812 163.957031 186.058594 174.761719 185.175781 Z M 118.300781 240.632812 C 120.261719 244.460938 122.207031 248.191406 124.191406 251.792969 C 124.4375 252.246094 124.683594 252.691406 124.933594 253.140625 C 125.308594 253.808594 125.679688 254.472656 126.058594 255.132812 C 126.308594 255.574219 126.558594 256.011719 126.8125 256.449219 C 127.0625 256.882812 127.316406 257.316406 127.570312 257.75 C 128.082031 258.613281 128.59375 259.464844 129.109375 260.3125 C 129.238281 260.523438 129.367188 260.734375 129.496094 260.941406 C 129.753906 261.363281 130.015625 261.78125 130.277344 262.195312 C 130.703125 262.867188 131.117188 263.542969 131.53125 264.210938 C 133.3125 267.113281 135.003906 269.957031 136.78125 272.464844 C 138.921875 275.488281 145.695312 284.433594 149.101562 284.445312 C 150.992188 284.453125 157.0625 279.433594 160.734375 276.917969 C 165.222656 273.839844 169.484375 271.726562 172.710938 269.386719 C 180.714844 263.574219 187.972656 257.785156 194.953125 252.613281 C 210.285156 241.253906 224.679688 229.777344 237.726562 217.695312 C 259.4375 197.597656 277.292969 180.3125 288.371094 151.628906 C 292.695312 140.4375 297.257812 127.539062 296.242188 113.632812 C 295.464844 102.976562 291.648438 93.730469 286.578125 86.203125 C 286.445312 86.007812 286.3125 85.8125 286.179688 85.617188 C 285.976562 85.328125 285.777344 85.042969 285.574219 84.757812 C 285.4375 84.566406 285.300781 84.378906 285.164062 84.191406 C 284.820312 83.722656 284.472656 83.261719 284.121094 82.808594 C 283.980469 82.625 283.839844 82.445312 283.695312 82.265625 C 283.625 82.175781 283.554688 82.085938 283.480469 82 C 283.199219 81.640625 282.910156 81.292969 282.621094 80.945312 C 282.546875 80.859375 282.476562 80.773438 282.402344 80.6875 C 282.183594 80.429688 281.964844 80.175781 281.742188 79.921875 C 281.304688 79.417969 280.855469 78.921875 280.40625 78.4375 C 280.332031 78.359375 280.257812 78.277344 280.183594 78.199219 C 280.035156 78.039062 279.882812 77.882812 279.730469 77.722656 C 279.429688 77.410156 279.128906 77.097656 278.824219 76.792969 C 278.671875 76.640625 278.519531 76.492188 278.363281 76.34375 C 277.984375 75.96875 277.601562 75.601562 277.21875 75.242188 C 276.910156 74.953125 276.601562 74.671875 276.292969 74.398438 C 276.292969 74.398438 276.292969 74.394531 276.292969 74.398438 C 276.140625 74.257812 275.984375 74.121094 275.832031 73.988281 C 275.675781 73.851562 275.523438 73.714844 275.367188 73.582031 C 275.171875 73.410156 274.976562 73.230469 274.785156 73.039062 C 274.59375 72.847656 274.410156 72.652344 274.226562 72.449219 C 274.132812 72.347656 274.039062 72.242188 273.949219 72.136719 C 273.492188 71.617188 273.050781 71.074219 272.597656 70.542969 C 272.058594 69.910156 271.507812 69.300781 270.921875 68.789062 C 267.855469 66.128906 262.824219 63.4375 258.601562 60.917969 C 248.4375 54.851562 239.328125 50.21875 225.066406 50.304688 C 226.457031 53.722656 229.605469 57.148438 229.515625 60.917969 C 228.78125 61.453125 227.980469 61.925781 227.144531 62.359375 C 227.023438 62.421875 226.902344 62.484375 226.78125 62.546875 C 226.480469 62.699219 226.175781 62.847656 225.867188 62.996094 C 225.679688 63.082031 225.496094 63.167969 225.308594 63.257812 C 225.246094 63.285156 225.183594 63.3125 225.121094 63.34375 C 224.808594 63.484375 224.5 63.625 224.183594 63.769531 C 223.746094 63.964844 223.308594 64.164062 222.871094 64.367188 C 222.75 64.421875 222.625 64.480469 222.503906 64.539062 C 222.441406 64.570312 222.378906 64.597656 222.316406 64.628906 C 222.195312 64.6875 222.070312 64.746094 221.949219 64.804688 C 221.765625 64.894531 221.585938 64.984375 221.402344 65.078125 C 221.28125 65.136719 221.164062 65.203125 221.042969 65.265625 C 220.925781 65.328125 220.804688 65.390625 220.6875 65.453125 C 219.808594 65.9375 218.972656 66.464844 218.222656 67.078125 C 222.847656 83.777344 224.253906 104.574219 229.515625 121.847656 C 228.648438 122.417969 227.757812 122.929688 226.851562 123.394531 C 226.761719 123.441406 226.667969 123.488281 226.578125 123.53125 C 226.304688 123.667969 226.03125 123.800781 225.753906 123.929688 C 225.113281 124.234375 224.460938 124.515625 223.808594 124.785156 C 223.527344 124.898438 223.246094 125.011719 222.960938 125.121094 C 220.425781 126.113281 217.832031 126.933594 215.304688 127.882812 C 214.839844 128.058594 214.371094 128.242188 213.910156 128.425781 C 213.726562 128.5 213.542969 128.578125 213.359375 128.652344 C 213.082031 128.769531 212.808594 128.886719 212.535156 129.007812 C 212.261719 129.128906 211.992188 129.25 211.71875 129.378906 C 201.785156 134.050781 192.496094 140.082031 180.582031 142.386719 C 180.589844 145.1875 180.457031 148.128906 180.25 151.132812 C 180.234375 151.398438 180.214844 151.664062 180.195312 151.933594 C 180.160156 152.46875 180.117188 153.003906 180.078125 153.539062 C 180.066406 153.679688 180.054688 153.816406 180.042969 153.953125 C 180.035156 154.085938 180.023438 154.21875 180.011719 154.351562 C 179.957031 155.042969 179.902344 155.738281 179.839844 156.433594 C 179.800781 156.910156 179.757812 157.390625 179.71875 157.871094 C 179.6875 158.222656 179.65625 158.574219 179.625 158.929688 C 179.585938 159.367188 179.550781 159.800781 179.511719 160.238281 C 179.453125 160.90625 179.394531 161.578125 179.335938 162.246094 C 179.277344 162.898438 179.222656 163.550781 179.167969 164.199219 C 179.128906 164.671875 179.09375 165.136719 179.054688 165.605469 C 178.988281 166.429688 178.929688 167.246094 178.871094 168.058594 C 178.296875 176.214844 179.574219 183.96875 175.449219 187.574219 C 163.757812 188.546875 149.992188 187.648438 140.542969 187.574219 C 141.46875 200.628906 142.613281 215.769531 140.203125 228.308594 C 131.453125 226.105469 121.148438 225.457031 112.824219 222.832031 C 111.191406 231.121094 115.535156 235.226562 118.300781 240.632812 Z M 297.957031 103.363281 C 304.121094 127.804688 292.15625 152.632812 283.242188 169.773438 C 273.949219 187.640625 258.976562 201.234375 244.574219 215.644531 C 237.453125 222.761719 229.261719 228.90625 221.644531 235.152344 C 213.96875 241.449219 206.796875 248.265625 198.71875 254.324219 C 187.636719 262.632812 174.605469 272.039062 161.761719 280.683594 C 158.238281 283.054688 151.6875 288.171875 148.070312 287.871094 C 144.027344 287.535156 139.101562 280.0625 135.753906 275.890625 C 126.535156 264.398438 120.375 252.1875 113.167969 238.578125 C 111.757812 235.910156 109.363281 232.375 109.0625 230.703125 C 108.804688 229.269531 109.878906 227.074219 109.746094 224.882812 C 109.597656 222.414062 108.023438 221.457031 109.402344 219.75 C 110.550781 218.328125 115.839844 218.203125 119.328125 217.695312 C 126.199219 216.695312 130.96875 216.382812 138.148438 215.984375 C 139.480469 205.296875 137.460938 194.992188 137.121094 184.835938 C 142.054688 181.097656 149.257812 180.941406 155.597656 178.671875 C 161.964844 176.394531 168.703125 175.222656 175.449219 173.878906 C 176.164062 162.617188 176.882812 151.351562 177.5 139.992188 C 186.355469 135.074219 193.605469 128.074219 202.824219 122.535156 C 206.035156 120.605469 209.011719 118.601562 212.746094 116.027344 C 215.460938 114.164062 221.5625 111.292969 222.328125 109.183594 C 223.167969 106.871094 221.441406 100.964844 220.960938 97.886719 C 220.316406 93.765625 219.804688 89.726562 219.25 86.589844 C 217.792969 78.382812 215 72.625 215.144531 65.023438 C 217.683594 62.089844 222.265625 61.199219 225.75 59.207031 C 225.375 56.851562 224.460938 55.6875 223.011719 53.726562 C 221.035156 51.050781 217.113281 48.292969 222.671875 46.882812 C 224.300781 46.46875 227.988281 46.292969 230.882812 46.539062 C 239.433594 47.265625 247.074219 50.457031 253.46875 54.070312 C 259.410156 57.425781 267.429688 61.457031 272.289062 65.367188 C 274.285156 66.972656 276.332031 69.710938 278.789062 71.871094 C 287.675781 79.675781 294.503906 89.6875 297.957031 103.363281 Z M 226.777344 120.820312 C 226.195312 117.414062 225.878906 113.730469 224.378906 111.238281 C 224.011719 114.195312 218.503906 116.34375 215.144531 118.765625 C 206.976562 124.660156 198.757812 128.433594 191.53125 134.171875 C 190.644531 134.875 188.84375 135.878906 189.136719 137.253906 C 202.238281 132.328125 213.386719 125.457031 226.777344 120.820312 Z M 138.832031 225.226562 C 138.917969 223.371094 139.378906 221.898438 139.175781 219.75 C 132.320312 219.890625 123.578125 219.945312 117.960938 221.804688 C 125.664062 222.199219 131.183594 224.777344 138.832031 225.226562 " fill-opacity="1" fill-rule="nonzero"/></g><path fill="#ea2a2a" d="M 147.367188 42.621094 C 148.175781 41.417969 149.082031 40.183594 149.898438 39.113281 C 149.082031 40.183594 148.175781 41.421875 147.367188 42.621094 " fill-opacity="1" fill-rule="nonzero"/><path fill="#ea2a2a" d="M 147.367188 42.621094 C 147.21875 42.839844 147.074219 43.054688 146.9375 43.273438 C 147.074219 43.054688 147.21875 42.839844 147.367188 42.621094 " fill-opacity="1" fill-rule="nonzero"/><path fill="#ea2a2a" d="M 146.933594 43.273438 C 146.820312 43.453125 146.707031 43.628906 146.597656 43.804688 C 146.707031 43.628906 146.820312 43.453125 146.933594 43.273438 " fill-opacity="1" fill-rule="nonzero"/><path fill="#ea2a2a" d="M 146.597656 43.804688 C 146.550781 43.875 146.507812 43.945312 146.464844 44.011719 C 146.507812 43.945312 146.550781 43.875 146.597656 43.804688 " fill-opacity="1" fill-rule="nonzero"/><path fill="#ea2a2a" d="M 146.464844 44.015625 C 146.421875 44.082031 146.382812 44.152344 146.339844 44.222656 C 146.378906 44.152344 146.421875 44.082031 146.464844 44.015625 " fill-opacity="1" fill-rule="nonzero"/><path fill="#ea2a2a" d="M 146.277344 44.324219 C 146.21875 44.425781 146.15625 44.527344 146.101562 44.625 C 146.15625 44.527344 146.21875 44.425781 146.277344 44.324219 " fill-opacity="1" fill-rule="nonzero"/><path fill="#ea2a2a" d="M 146.042969 44.726562 C 146.011719 44.78125 145.980469 44.832031 145.949219 44.886719 C 145.980469 44.832031 146.011719 44.78125 146.042969 44.726562 " fill-opacity="1" fill-rule="nonzero"/><path fill="#ea2a2a" d="M 145.910156 44.957031 C 145.882812 45.007812 145.851562 45.0625 145.824219 45.113281 C 145.851562 45.0625 145.882812 45.007812 145.910156 44.957031 " fill-opacity="1" fill-rule="nonzero"/><path fill="#ea2a2a" d="M 145.707031 45.335938 C 145.683594 45.375 145.664062 45.414062 145.644531 45.453125 C 145.664062 45.414062 145.683594 45.375 145.707031 45.335938 " fill-opacity="1" fill-rule="nonzero"/><path fill="#b22f2f" d="M 139.175781 219.75 C 139.382812 221.898438 138.917969 223.371094 138.835938 225.226562 C 131.183594 224.777344 125.664062 222.199219 117.960938 221.804688 C 123.578125 219.945312 132.320312 219.890625 139.175781 219.75 " fill-opacity="1" fill-rule="nonzero"/><path fill="#b22f2f" d="M 115.5625 183.121094 C 113.773438 167.914062 110.5625 154.121094 107.691406 139.992188 C 111.242188 140.230469 113.957031 139.636719 117.273438 139.648438 C 116.511719 151.828125 118.382812 169.734375 115.5625 183.121094 " fill-opacity="1" fill-rule="nonzero"/><path fill="#ea2a2a" d="M 114.195312 188.597656 C 113.910156 187.664062 113.664062 186.699219 113.449219 185.710938 C 113.664062 186.699219 113.910156 187.664062 114.195312 188.597656 " fill-opacity="1" fill-rule="nonzero"/><path fill="#ea2a2a" d="M 113.015625 183.449219 C 113.144531 184.214844 113.289062 184.96875 113.449219 185.710938 C 113.289062 184.96875 113.144531 184.214844 113.015625 183.449219 " fill-opacity="1" fill-rule="nonzero"/><path fill="#ea2a2a" d="M 112.835938 182.292969 C 112.875 182.550781 112.914062 182.808594 112.953125 183.0625 C 112.914062 182.808594 112.875 182.550781 112.835938 182.292969 " fill-opacity="1" fill-rule="nonzero"/><path fill="#ea2a2a" d="M 112.671875 181.121094 C 112.722656 181.511719 112.777344 181.902344 112.835938 182.292969 C 112.777344 181.902344 112.722656 181.511719 112.671875 181.121094 " fill-opacity="1" fill-rule="nonzero"/><path fill="#ea2a2a" d="M 112.570312 180.332031 C 112.605469 180.597656 112.636719 180.859375 112.671875 181.121094 C 112.636719 180.859375 112.601562 180.597656 112.570312 180.332031 " fill-opacity="1" fill-rule="nonzero"/><path fill="#ea2a2a" d="M 112.390625 178.746094 C 112.449219 179.277344 112.507812 179.808594 112.570312 180.332031 C 112.507812 179.808594 112.449219 179.277344 112.390625 178.746094 " fill-opacity="1" fill-rule="nonzero"/><path fill="#ea2a2a" d="M 111.871094 173.101562 C 112.035156 174.988281 112.191406 176.882812 112.390625 178.746094 C 112.191406 176.882812 112.035156 174.988281 111.871094 173.101562 " fill-opacity="1" fill-rule="nonzero"/><path fill="#ea2a2a" d="M 111.765625 171.890625 C 111.789062 172.160156 111.8125 172.429688 111.835938 172.699219 C 111.8125 172.429688 111.789062 172.160156 111.765625 171.890625 " fill-opacity="1" fill-rule="nonzero"/><path fill="#ea2a2a" d="M 111.621094 170.277344 C 111.644531 170.546875 111.667969 170.8125 111.695312 171.082031 C 111.667969 170.8125 111.644531 170.546875 111.621094 170.277344 " fill-opacity="1" fill-rule="nonzero"/><path fill="#ea2a2a" d="M 111.5 169.078125 C 111.527344 169.34375 111.554688 169.609375 111.582031 169.878906 C 111.554688 169.609375 111.527344 169.34375 111.5 169.078125 " fill-opacity="1" fill-rule="nonzero"/><path fill="#171717" d="M 94.023438 71.132812 C 94.074219 71.195312 94.125 71.253906 94.179688 71.308594 C 94.125 71.253906 94.074219 71.195312 94.023438 71.132812 " fill-opacity="1" fill-rule="nonzero"/><path fill="#171717" d="M 93.746094 70.734375 C 93.800781 70.828125 93.859375 70.917969 93.925781 71.003906 C 93.859375 70.917969 93.800781 70.828125 93.746094 70.734375 " fill-opacity="1" fill-rule="nonzero"/><path fill="#171717" d="M 93.632812 70.511719 C 93.65625 70.5625 93.679688 70.613281 93.707031 70.660156 C 93.679688 70.613281 93.65625 70.5625 93.632812 70.511719 " fill-opacity="1" fill-rule="nonzero"/><path fill="#171717" d="M 97.425781 72.554688 C 96.046875 72.4375 94.914062 72.074219 94.179688 71.308594 C 94.125 71.253906 94.074219 71.191406 94.023438 71.132812 C 93.988281 71.089844 93.957031 71.046875 93.925781 71.003906 C 93.859375 70.917969 93.800781 70.828125 93.746094 70.734375 C 93.734375 70.707031 93.71875 70.683594 93.707031 70.660156 C 93.679688 70.613281 93.65625 70.5625 93.632812 70.511719 C 93.609375 70.460938 93.585938 70.410156 93.5625 70.355469 C 93.542969 70.304688 93.519531 70.25 93.5 70.195312 C 93.460938 70.082031 93.425781 69.96875 93.394531 69.847656 C 93.382812 69.789062 93.367188 69.726562 93.355469 69.667969 C 93.339844 69.601562 93.332031 69.539062 93.320312 69.472656 C 95.664062 69.371094 97.628906 71.226562 97.425781 72.554688 " fill-opacity="1" fill-rule="nonzero"/><path fill="#171717" d="M 93.5625 70.359375 C 93.585938 70.410156 93.605469 70.460938 93.632812 70.511719 C 93.605469 70.460938 93.582031 70.410156 93.5625 70.359375 " fill-opacity="1" fill-rule="nonzero"/><path fill="#171717" d="M 93.5 70.195312 C 93.519531 70.25 93.542969 70.304688 93.5625 70.355469 C 93.539062 70.304688 93.519531 70.25 93.5 70.195312 " fill-opacity="1" fill-rule="nonzero"/><path fill="#171717" d="M 93.355469 69.664062 C 93.367188 69.726562 93.382812 69.789062 93.394531 69.847656 C 93.382812 69.789062 93.367188 69.726562 93.355469 69.664062 " fill-opacity="1" fill-rule="nonzero"/><path fill="#171717" d="M 92.636719 113.289062 C 90.617188 113.703125 88.9375 112.375 89.898438 110.894531 C 91.488281 111.015625 92.152344 112.0625 92.636719 113.289062 " fill-opacity="1" fill-rule="nonzero"/><path fill="#171717" d="M 85.109375 68.105469 C 85.140625 68.105469 85.175781 68.109375 85.207031 68.109375 C 85.296875 68.117188 85.386719 68.121094 85.472656 68.121094 C 85.8125 68.121094 86.09375 68.058594 86.136719 67.761719 C 87.613281 68.222656 87.3125 70.460938 89.554688 70.160156 C 88.617188 72.601562 84.847656 70.804688 85.109375 68.105469 " fill-opacity="1" fill-rule="nonzero"/><path fill="#171717" d="M 85.109375 118.082031 C 86.574219 118.117188 87.613281 118.769531 88.871094 118.082031 C 88.996094 120.480469 86.175781 120.792969 84.765625 119.792969 C 84.65625 119 84.820312 118.480469 85.109375 118.082031 " fill-opacity="1" fill-rule="nonzero"/><path fill="#b22f2f" d="M 85.792969 195.789062 C 84.289062 193.457031 83.316406 189.300781 83.316406 185.816406 C 83.316406 185.671875 83.316406 185.53125 83.320312 185.386719 C 83.324219 185.242188 83.328125 185.105469 83.335938 184.964844 C 83.34375 184.824219 83.351562 184.6875 83.363281 184.554688 L 83.363281 184.550781 C 83.371094 184.417969 83.382812 184.28125 83.398438 184.148438 C 85.023438 184.753906 87.5625 184.871094 88.527344 185.175781 C 87.765625 188.863281 86.621094 192.167969 85.792969 195.789062 " fill-opacity="1" fill-rule="nonzero"/><path fill="#171717" d="M 82.027344 162.925781 C 83.527344 163.023438 82.632812 165.515625 84.425781 165.320312 C 83.273438 168.328125 79.007812 164.261719 82.027344 162.925781 " fill-opacity="1" fill-rule="nonzero"/><path fill="#171717" d="M 76.894531 236.179688 C 81.492188 236.535156 83.414062 231.417969 81.34375 227.28125 C 80.179688 230.566406 78.375 233.214844 76.894531 236.179688 Z M 64.574219 228.992188 C 67.394531 231.648438 68.851562 235.671875 72.445312 237.550781 C 76.230469 234.601562 78.960938 228.78125 79.289062 223.515625 C 75.867188 226.6875 68.046875 225.1875 64.574219 228.992188 Z M 82.371094 220.09375 C 84.527344 223.90625 85.914062 230.191406 84.765625 236.179688 C 80.246094 238.507812 75.957031 241.058594 70.394531 242.34375 C 69.117188 239.027344 67.460938 237.222656 64.574219 233.785156 C 63.175781 232.109375 60.015625 229.628906 60.46875 227.621094 C 61.191406 224.417969 71.128906 223.441406 74.84375 222.488281 C 78.152344 221.640625 78.78125 219.605469 82.371094 220.09375 " fill-opacity="1" fill-rule="nonzero"/><path fill="#b22f2f" d="M 81.34375 227.28125 C 83.414062 231.417969 81.492188 236.535156 76.894531 236.179688 C 78.375 233.214844 80.179688 230.566406 81.34375 227.28125 " fill-opacity="1" fill-rule="nonzero"/><path fill="#ea2a2a" d="M 79.289062 223.515625 C 78.960938 228.78125 76.230469 234.601562 72.445312 237.550781 C 68.851562 235.671875 67.394531 231.648438 64.574219 228.992188 C 68.046875 225.1875 75.867188 226.6875 79.289062 223.515625 " fill-opacity="1" fill-rule="nonzero"/><path fill="#171717" d="M 77.238281 166.691406 C 78.765625 167.332031 79.21875 169.050781 79.972656 170.457031 C 78.914062 170.90625 79 170.363281 77.578125 170.457031 C 77.214844 169.203125 75.980469 167.613281 77.238281 166.691406 " fill-opacity="1" fill-rule="nonzero"/><path fill="#171717" d="M 45.070312 203.664062 C 44.699219 205.519531 45.761719 205.9375 45.753906 207.425781 C 48.355469 206.71875 50.046875 205.101562 50.890625 202.632812 C 48.691406 202.71875 47.5 203.808594 45.070312 203.664062 Z M 51.574219 198.871094 C 54.011719 199.222656 54.753906 202.480469 53.625 205.371094 C 52.585938 208.050781 48.394531 209.617188 47.125 211.535156 C 42.515625 210.914062 39.78125 203.503906 43.019531 201.265625 C 43.519531 200.917969 50.890625 198.769531 51.574219 198.871094 " fill-opacity="1" fill-rule="nonzero"/><path fill="#ea2a2a" d="M 50.890625 202.632812 C 50.046875 205.101562 48.355469 206.71875 45.753906 207.425781 C 45.761719 205.9375 44.699219 205.519531 45.070312 203.664062 C 47.5 203.808594 48.691406 202.71875 50.890625 202.632812 " fill-opacity="1" fill-rule="nonzero"/></svg>