<svg xmlns="http://www.w3.org/2000/svg" xmlns:xlink="http://www.w3.org/1999/xlink" width="400" zoomAndPan="magnify" viewBox="0 0 300 299.999988" height="400" preserveAspectRatio="xMidYMid meet" version="1.0"><defs><clipPath id="8c466ce8ae"><path d="M 30 34.132812 L 185 34.132812 L 185 265.882812 L 30 265.882812 Z M 30 34.132812 " clip-rule="nonzero"/></clipPath><clipPath id="a54bd89a41"><path d="M 159 62 L 291.75 62 L 291.75 252 L 159 252 Z M 159 62 " clip-rule="nonzero"/></clipPath></defs><path fill="#ff2727" d="M 151.355469 182.046875 C 147.714844 188.433594 144.539062 192.746094 140.785156 197.988281 C 139.894531 198.046875 139.0625 198.101562 138.382812 198.179688 L 171.917969 152.492188 L 134.996094 144.542969 C 140.222656 145.605469 145.488281 146.667969 150.8125 147.753906 C 157.996094 149.261719 165.21875 150.769531 172.460938 152.296875 C 168.820312 157.347656 165.179688 162.394531 161.578125 167.425781 C 158.074219 172.320312 154.648438 177.210938 151.355469 182.046875 Z M 142.277344 199.824219 C 141.308594 199.824219 140.417969 199.84375 139.660156 199.863281 C 139.816406 199.691406 139.953125 199.535156 140.105469 199.359375 C 140.765625 199.496094 141.480469 199.652344 142.277344 199.824219 Z M 92.515625 39.195312 C 94.140625 39.0625 95.824219 38.714844 97.566406 38.828125 C 99.292969 38.867188 101.074219 38.90625 102.875 38.945312 C 103.765625 38.984375 104.675781 39.023438 105.566406 39.0625 C 106.476562 39.175781 107.382812 39.292969 108.292969 39.410156 C 110.09375 39.679688 111.933594 39.933594 113.753906 40.183594 C 115.070312 40.394531 116.367188 40.726562 117.667969 41.035156 C 111.082031 39.835938 103.976562 39.234375 96.328125 39.546875 C 94.972656 39.582031 93.675781 39.679688 92.378906 39.796875 C 91.3125 39.816406 90.269531 39.816406 89.457031 39.835938 C 88.449219 39.796875 87.828125 39.96875 87.828125 39.933594 C 89.28125 39.507812 90.886719 39.429688 92.515625 39.195312 Z M 141.347656 48.695312 C 142.277344 49.121094 143.203125 49.566406 144.132812 49.992188 C 145.023438 50.492188 145.914062 50.996094 146.804688 51.5 C 148.800781 52.5625 150.621094 53.742188 152.226562 54.882812 C 147.425781 51.75 141.964844 48.8125 135.847656 46.335938 C 135.925781 46.355469 136.003906 46.375 136.058594 46.375 C 137.765625 46.953125 139.507812 47.882812 141.347656 48.695312 Z M 137.085938 199.941406 L 137.9375 198.78125 C 138.5 198.953125 139.140625 199.128906 139.855469 199.300781 C 139.738281 199.476562 139.605469 199.671875 139.46875 199.863281 C 137.996094 199.902344 137.085938 199.941406 137.085938 199.941406 Z M 168.878906 160.691406 C 170.117188 159.28125 171.183594 158.0625 172.035156 157.09375 C 173.003906 156.03125 173.738281 155.316406 174.070312 155.199219 L 176.507812 150.886719 L 174.398438 150.613281 C 163.515625 148.273438 158.65625 147.132812 151.589844 145.488281 C 148.492188 144.753906 145.335938 144.019531 142.121094 143.246094 C 140.804688 142.898438 139.488281 142.550781 138.132812 142.199219 C 138.925781 141.757812 139.738281 141.3125 140.570312 140.847656 C 141.460938 140.34375 141.5 140.363281 144.191406 138.738281 C 143.6875 139.125 143.222656 139.492188 142.777344 139.839844 C 142.585938 139.976562 142.257812 140.226562 142.199219 140.285156 L 142.0625 140.441406 C 141.886719 140.652344 141.753906 140.828125 141.597656 140.960938 C 141.25 141.253906 140.863281 141.445312 139.816406 141.929688 C 139.972656 141.988281 140.125 142.066406 140.300781 142.144531 C 142.488281 142.007812 142.46875 141.757812 142.585938 141.699219 C 142.605469 141.640625 142.3125 141.679688 141.558594 141.660156 C 141.480469 141.542969 141.773438 141.175781 142.296875 140.808594 C 142.644531 140.613281 142.992188 140.402344 143.320312 140.207031 C 144 139.820312 144.65625 139.453125 145.277344 139.125 C 146.496094 138.46875 147.582031 137.945312 148.433594 137.675781 C 147.195312 137.847656 155.324219 132.972656 159.742188 130.285156 L 155.558594 132.257812 L 150.117188 136.070312 C 137.804688 142.898438 150.136719 134.367188 150.503906 133.726562 C 155.695312 130.496094 159.449219 128.46875 162.78125 126.785156 C 164.425781 125.992188 165.996094 125.21875 167.5625 124.460938 C 168.355469 124.074219 169.152344 123.6875 169.964844 123.300781 L 170.5625 122.992188 L 171.550781 122.46875 C 172.269531 122.082031 172.984375 121.695312 173.71875 121.289062 C 174.339844 118.96875 175.015625 116.433594 175.792969 113.496094 C 176.429688 111.019531 177.070312 108.117188 177.765625 104.636719 C 177.378906 103.957031 176.703125 107.152344 176.566406 105.640625 C 177.496094 100.109375 176.761719 101.019531 178.851562 92.21875 C 179.042969 91.578125 179.199219 90.980469 179.394531 90.378906 C 179.527344 89.820312 179.664062 89.257812 179.800781 88.714844 C 180.109375 87.863281 180.417969 87.035156 180.710938 86.203125 L 181.679688 83.242188 C 182.125 81.90625 182.550781 80.574219 182.976562 79.21875 L 183.050781 78.96875 C 183.050781 78.929688 183.015625 78.929688 182.976562 78.929688 L 182.800781 78.871094 L 182.605469 78.8125 L 182.066406 78.695312 C 180.226562 78.523438 180.246094 77.691406 179.859375 77.382812 C 177.1875 74.074219 174.164062 70.84375 170.757812 67.011719 C 169.34375 64.941406 171.917969 67.070312 174.457031 69.703125 C 177.050781 72.3125 179.605469 75.445312 179.238281 74.421875 C 179.238281 74.421875 178.464844 73.242188 177.613281 72.121094 C 176.777344 70.976562 175.925781 69.855469 175.925781 69.855469 C 174.804688 68.714844 173.679688 67.398438 172.480469 66.105469 C 171.242188 64.808594 169.945312 63.472656 168.707031 62.175781 C 166.03125 59.71875 163.417969 57.378906 161.058594 56.140625 L 161.152344 55.695312 C 160.222656 55.039062 159.199219 54.34375 158.152344 53.609375 C 157.050781 52.910156 155.886719 52.175781 154.707031 51.441406 C 152.402344 49.894531 149.75 48.558594 147.308594 47.207031 C 144.832031 45.871094 142.296875 44.863281 140.183594 43.917969 C 138.035156 43.007812 136.117188 42.523438 134.820312 42.195312 C 131.433594 40.667969 127.753906 39.757812 124.113281 38.636719 C 122.253906 38.171875 120.359375 37.84375 118.480469 37.457031 C 116.601562 37.089844 114.703125 36.683594 112.765625 36.546875 C 110.851562 36.371094 108.914062 36.179688 106.976562 35.984375 C 105.042969 35.753906 103.105469 35.929688 101.148438 35.871094 C 99.195312 35.910156 97.257812 35.8125 95.300781 35.964844 L 89.398438 36.566406 C 81.59375 37.707031 74.003906 40.085938 67.226562 43.664062 C 60.488281 47.359375 54.71875 52.15625 49.820312 57.476562 L 45.636719 61.363281 C 40.625 68.097656 39.695312 71.152344 38.957031 73.007812 C 38.320312 74.90625 38.453125 75.910156 37.175781 79.394531 C 36.363281 80.960938 36.265625 80.222656 35.761719 81.054688 C 33.554688 89.082031 37.097656 78.5625 36.402344 81.753906 C 33.515625 89.703125 32.472656 100.417969 31.832031 105.777344 C 31.832031 105.777344 32.199219 106.472656 32.550781 107.152344 C 32.9375 107.828125 33.363281 108.523438 33.363281 108.523438 C 33.421875 106.761719 33.90625 105.121094 34.195312 103.648438 C 34.542969 102.257812 34.777344 101.058594 35.203125 100.070312 C 34.796875 104.34375 34.738281 108.621094 35.046875 112.816406 C 35.046875 112.855469 35.046875 112.894531 35.027344 112.933594 C 34.835938 115.449219 35.007812 118.96875 34.058594 115.023438 C 34.292969 117.246094 34.371094 119.183594 34.640625 120.84375 C 34.929688 122.527344 35.183594 123.960938 35.414062 125.199219 C 35.820312 127.710938 36.460938 129.414062 36.75 130.902344 C 37.042969 132.394531 37.371094 133.59375 37.796875 134.984375 C 37.972656 135.703125 38.183594 136.476562 38.417969 137.34375 C 38.648438 138.234375 38.917969 139.242188 39.363281 140.304688 C 45.347656 149.859375 44.726562 146.6875 46.878906 149.164062 C 50.402344 153.941406 53.265625 158.332031 55.917969 162.667969 C 58.667969 166.902344 61.417969 170.945312 64.59375 174.988281 C 61.496094 172.339844 63.664062 176.011719 67.691406 181.46875 C 71.816406 186.863281 77.488281 194.214844 81.4375 198.859375 C 91.351562 211.003906 86.203125 202.03125 96.636719 214.914062 C 101.148438 221.761719 84.925781 202.589844 91.0625 211.527344 L 96.25 217.214844 C 99.96875 220.5625 103.222656 223.035156 107.382812 227.253906 C 109.59375 229.921875 112.921875 233.925781 112.785156 234.199219 C 108.179688 229.109375 108.914062 231.101562 113.15625 236.867188 C 115.515625 239.265625 116.117188 239.867188 117.375 240.929688 C 113.753906 234.953125 116.097656 237.796875 120.320312 242.941406 C 122.488281 245.496094 125.140625 248.589844 127.636719 251.53125 C 128.914062 253 130.175781 254.394531 131.335938 255.648438 C 132.011719 256.386719 132.671875 257.0625 133.292969 257.71875 C 133.949219 258.398438 134.550781 258.996094 135.074219 259.5 C 136.503906 261.027344 137.820312 262.421875 138.984375 263.660156 L 139.410156 264.121094 L 139.621094 264.335938 C 139.699219 264.433594 139.757812 264.507812 139.777344 264.355469 C 139.914062 263.949219 140.03125 263.582031 140.144531 263.195312 C 140.378906 262.476562 140.609375 261.78125 140.824219 261.125 C 141.675781 258.53125 142.390625 256.617188 143.03125 254.972656 C 144.230469 252.050781 145.101562 250.601562 146.050781 249.054688 C 147.949219 246.015625 149.828125 243.019531 153.949219 230.425781 C 151.761719 233.773438 152.828125 230.136719 154.765625 224.507812 C 155.75 221.703125 156.894531 218.316406 158.09375 215.203125 C 158.695312 213.636719 159.277344 212.089844 159.816406 210.675781 C 160.359375 209.128906 160.863281 207.699219 161.308594 206.460938 C 161.523438 205.859375 161.675781 205.335938 161.773438 204.855469 C 162.140625 203.867188 161.851562 202.746094 161.152344 202.03125 C 160.476562 201.3125 159.605469 200.871094 158.792969 200.484375 C 157.085938 199.765625 155.382812 199.398438 154.242188 199.109375 C 151.6875 198.546875 149.476562 198.140625 146.554688 197.753906 C 145.414062 197.792969 143.28125 197.851562 141.308594 197.96875 C 148.78125 189.28125 158.964844 176.34375 168.472656 163.886719 C 175.347656 152.277344 158.367188 175.703125 158.851562 174.292969 C 157.941406 174.890625 160.476562 171.5625 162.257812 168.855469 C 164.5625 165.878906 166.960938 162.898438 168.878906 160.691406 " fill-opacity="1" fill-rule="nonzero"/><path fill="#ff2727" d="M 213.566406 222.59375 C 211.941406 223.441406 212.386719 223.035156 213.375 222.359375 C 214.011719 221.972656 214.691406 221.644531 215.234375 221.394531 C 216.570312 220.367188 216.105469 220.601562 215.308594 221.101562 C 215.542969 220.910156 215.773438 220.734375 216.066406 220.523438 C 215.714844 220.753906 215.269531 221.0625 214.789062 221.414062 C 213.566406 222.089844 212.269531 222.863281 214.050781 221.664062 C 215.679688 220.621094 217.304688 219.554688 218.949219 218.472656 C 219.007812 218.644531 219.800781 218.472656 213.566406 222.59375 Z M 191.457031 235.050781 C 192.984375 234.21875 194.554688 233.347656 196.140625 232.4375 C 194.941406 233.152344 194.070312 233.695312 193.390625 234.160156 C 192.597656 234.585938 191.6875 235.089844 190.796875 235.570312 Z M 175.421875 201.625 C 175.054688 201.238281 174.667969 200.792969 174.222656 200.230469 Z M 176.277344 203.152344 C 174.589844 201.21875 172.363281 198.625 170.332031 196.246094 C 169.847656 195.609375 169.402344 195.027344 168.878906 194.332031 C 168.917969 194.46875 169.054688 194.679688 169.152344 194.835938 C 168.6875 194.273438 168.242188 193.75 167.851562 193.265625 C 168.550781 192.53125 169.1875 191.914062 169.710938 191.449219 L 168.722656 192.222656 C 169.34375 191.546875 169.964844 190.867188 170.582031 190.191406 C 171.300781 189.554688 171.746094 189.207031 173.351562 187.5625 C 172.519531 188.355469 171.996094 188.78125 171.648438 189.050781 L 171.6875 189.011719 C 172.25 188.449219 172.769531 187.949219 173.410156 187.328125 C 173.253906 187.445312 173.0625 187.582031 172.886719 187.714844 C 174.125 186.421875 175.25 185.257812 176.140625 184.464844 L 175.09375 185.257812 L 176.410156 183.730469 C 177.476562 182.726562 177.824219 182.511719 179.21875 181.160156 C 179.335938 181.121094 179.605469 180.925781 180.050781 180.558594 L 168.296875 193.285156 L 173.160156 198.972656 C 173.679688 200.078125 175.441406 202.089844 176.277344 203.152344 Z M 185.492188 174.15625 C 185.859375 173.769531 186.132812 173.480469 186.382812 173.207031 C 186.382812 173.363281 186.671875 173.207031 187.351562 172.648438 L 181.175781 179.339844 C 182.046875 178.082031 182.316406 177.5625 182.492188 177.171875 L 184.796875 174.503906 C 183.710938 175.683594 183.070312 176.34375 182.703125 176.671875 C 182.976562 176.128906 183.554688 175.238281 185.742188 172.511719 C 187.15625 171.449219 187.449219 171.582031 185.492188 174.15625 Z M 176.585938 127.5 C 176.488281 127.597656 176.410156 127.691406 176.332031 127.769531 L 176.566406 127.5 Z M 210.585938 224.003906 C 210.296875 224.21875 210.023438 224.46875 209.773438 224.738281 C 209.558594 224.875 209.289062 225.066406 208.980469 225.300781 C 207.644531 225.898438 205.453125 227.429688 204.601562 227.816406 C 204.777344 227.679688 205.046875 227.464844 205.453125 227.195312 C 205.027344 227.449219 204.640625 227.660156 204.292969 227.871094 C 204.292969 227.835938 204.3125 227.777344 204.390625 227.679688 C 201.871094 229.226562 200.632812 229.980469 199.570312 230.773438 C 198.734375 231.238281 197.902344 231.742188 197.378906 232.011719 L 198.347656 231.179688 C 202.28125 228.917969 206.363281 226.5 210.527344 223.886719 C 210.546875 223.925781 210.605469 223.945312 210.585938 224.003906 Z M 201.796875 156.84375 C 202.492188 156.128906 203.035156 155.585938 203.441406 155.21875 L 201.699219 157.113281 C 201.796875 156.960938 201.835938 156.863281 201.796875 156.84375 Z M 196.664062 162.203125 L 197.207031 161.601562 C 197.378906 161.253906 197.1875 161.3125 196.820312 161.601562 L 198.601562 159.878906 C 198.851562 159.785156 199.160156 159.667969 199.433594 159.570312 L 196.546875 162.683594 Z M 200.535156 230.753906 L 200.460938 230.792969 Z M 188.667969 171.214844 C 189.34375 170.269531 189.675781 169.6875 189.867188 169.320312 L 192.328125 166.960938 L 190.351562 168.449219 C 191.496094 167.269531 192.597656 166.207031 193.644531 165.199219 C 193.527344 165.355469 193.449219 165.492188 193.316406 165.644531 C 195.445312 163.363281 195.65625 163.363281 195.578125 163.75 Z M 180.710938 207.8125 C 180.34375 207.445312 179.933594 206.941406 179.488281 206.382812 Z M 286.699219 142.066406 C 287.105469 139.667969 287.511719 137.34375 287.878906 135.199219 C 288.132812 133.03125 288.382812 131.039062 288.578125 129.355469 L 288.65625 129.703125 C 288.730469 128.621094 288.808594 127.578125 288.886719 126.570312 C 288.925781 125.566406 288.964844 124.578125 288.984375 123.613281 L 289.101562 123.378906 C 289.660156 118.351562 289.429688 114.984375 289.273438 110.960938 C 289.15625 110.785156 289.042969 110.691406 288.90625 110.613281 C 288.75 109.355469 288.558594 108.117188 288.324219 106.839844 C 288.210938 106.203125 288.09375 105.5625 287.976562 104.886719 C 287.785156 104.25 287.570312 103.589844 287.355469 102.914062 L 287.609375 101.675781 C 286.582031 96.046875 284.898438 92.488281 282.847656 88.328125 C 282.246094 87.902344 281.878906 88.019531 281.664062 88.523438 C 281.21875 87.882812 280.347656 86.414062 279.457031 85.117188 C 278.0625 83.144531 276.746094 81.597656 277.945312 83.667969 C 276.203125 80.628906 273.125 77.285156 268.363281 74.015625 C 269.816406 75.175781 270.394531 75.871094 271.402344 77.011719 L 273.183594 77.863281 C 275.332031 79.953125 275.933594 80.882812 275.605469 80.882812 C 275.332031 80.863281 274.054688 79.972656 272.3125 78.484375 C 274.269531 80.339844 275.292969 81.171875 276.242188 82.121094 C 277.230469 83.027344 278.101562 84.054688 279.496094 86.335938 L 279.863281 86.027344 L 281.296875 88.675781 C 281.160156 88.328125 281.375 88.542969 281.625 88.773438 C 281.453125 89.414062 281.453125 90.4375 281.566406 91.636719 C 281.179688 90.882812 280.773438 90.148438 280.367188 89.414062 C 275.179688 80.359375 267.375 74.59375 258.507812 71.074219 C 262.207031 72.195312 266.039062 73.976562 268.574219 74.828125 C 263.117188 71.578125 266.40625 72.894531 261.761719 70.339844 C 261.761719 70.339844 260.65625 69.835938 259.554688 69.335938 C 258.429688 68.851562 257.269531 68.425781 257.269531 68.425781 C 257.269531 68.425781 257.617188 68.617188 258.140625 68.890625 C 258.664062 69.160156 259.359375 69.546875 260.019531 69.972656 C 260.675781 70.378906 261.355469 70.785156 261.835938 71.09375 C 262.320312 71.421875 262.652344 71.65625 262.652344 71.65625 C 260.558594 70.6875 258.855469 69.953125 257.328125 69.351562 C 257.773438 69.410156 258.332031 69.488281 257.578125 69.082031 C 258.121094 69.527344 256.511719 68.851562 254.671875 68.308594 C 251.519531 67.109375 248.710938 66.121094 243.578125 65.484375 C 243.480469 65.484375 243.40625 65.503906 243.308594 65.503906 C 242.03125 65.3125 240.65625 65.117188 239.183594 64.960938 C 240.847656 65.214844 241.644531 65.601562 243 65.96875 L 243.289062 65.949219 C 244.023438 66.296875 245.128906 66.511719 240.984375 66.433594 C 238.527344 66.121094 237.246094 66.027344 236.589844 65.871094 C 237.769531 65.792969 238.875 65.699219 239.746094 65.503906 C 239.183594 65.464844 238.71875 65.425781 238.3125 65.40625 C 236.800781 64.691406 236.6875 64.886719 231.457031 64.035156 C 229.753906 64.226562 231.863281 64.34375 234.015625 64.652344 C 233.53125 64.613281 232.832031 64.59375 232.328125 64.59375 L 234.402344 64.691406 C 235.890625 64.847656 237.285156 65.117188 237.363281 65.3125 C 234.886719 65.078125 236.261719 64.847656 232.328125 64.59375 C 232.328125 64.5 227.894531 64.652344 227.894531 64.652344 L 229.058594 64.769531 C 228.863281 64.769531 228.671875 64.769531 228.4375 64.789062 L 230.953125 65.019531 C 225.011719 65.273438 224.0625 65.195312 225.902344 64.574219 C 221.351562 65.15625 219.9375 65.367188 218.738281 65.445312 C 217.535156 65.503906 216.605469 65.660156 213.296875 66.761719 C 215.714844 66.355469 217.441406 66.257812 219.800781 65.910156 C 219.800781 65.910156 219.027344 66.066406 218.253906 66.199219 C 217.480469 66.335938 216.722656 66.546875 216.722656 66.546875 L 217.421875 66.472656 C 216.820312 66.625 216.21875 66.800781 215.523438 66.992188 C 215.328125 67.089844 215.234375 67.167969 215.15625 67.246094 C 213.78125 67.496094 214.167969 67.167969 213.800781 67.070312 C 213.414062 66.992188 212.210938 67.128906 207.835938 68.8125 C 210.761719 67.710938 208.746094 68.773438 208.144531 69.199219 C 207.875 69.277344 207.566406 69.371094 207.273438 69.449219 C 206.675781 69.585938 205.9375 69.757812 205.046875 70.011719 C 204.757812 70.183594 204.601562 70.28125 204.582031 70.339844 C 201.679688 71.363281 199.238281 72.601562 199.625 71.886719 C 201.949219 70.648438 202.648438 70.476562 203.671875 70.203125 C 203.285156 70.28125 203.1875 70.222656 203.113281 70.164062 C 199.605469 71.675781 198.425781 72.582031 197.574219 73.261719 C 196.742188 73.957031 196.21875 74.460938 194.300781 75.679688 C 193.992188 75.851562 193.644531 76.066406 193.179688 76.375 C 193.003906 76.492188 192.832031 76.585938 192.636719 76.722656 L 192.65625 76.761719 C 192.171875 77.128906 191.746094 77.476562 190.972656 78.136719 C 191.4375 77.84375 191.648438 77.730469 191.996094 77.535156 C 191.4375 77.960938 189.925781 78.792969 189.304688 79.78125 C 189.113281 80.804688 188.9375 81.773438 188.765625 82.738281 C 188.53125 84.226562 188.300781 85.640625 188.066406 87.015625 C 188.046875 87.070312 188.027344 87.148438 188.007812 87.207031 C 187.875 87.515625 187.777344 87.554688 187.679688 87.554688 C 187.15625 90.417969 187.097656 91.675781 187.117188 92.585938 C 186.886719 93.785156 186.632812 95.003906 186.34375 96.28125 L 186.671875 97.613281 C 186.652344 97.691406 186.652344 97.769531 186.632812 97.867188 L 186.769531 97.941406 L 186.769531 98 C 186.015625 99.066406 185.414062 102.566406 184.621094 106.027344 C 184.3125 108.445312 184 110.882812 183.691406 113.300781 L 183.691406 113.320312 C 183.671875 113.457031 183.671875 113.574219 183.652344 113.707031 C 183.671875 113.574219 183.671875 113.457031 183.691406 113.320312 C 183.402344 114.964844 183.128906 116.222656 183.207031 114.308594 C 182.9375 117.054688 183.167969 115.933594 183.1875 117.558594 L 183.1875 117.597656 C 183.109375 118.3125 183.015625 119.046875 182.9375 119.742188 L 182.820312 120.808594 L 182.820312 121.195312 C 182.820312 121.195312 182.800781 121.214844 182.800781 121.234375 C 182.625 121.347656 182.585938 121.347656 182.335938 121.5625 L 181.328125 122.449219 L 179.042969 124.886719 C 176.003906 127.460938 175.328125 126.976562 172.289062 129.898438 C 171.046875 131.078125 170.488281 131.621094 168.046875 134.058594 C 166.070312 136.070312 164.230469 137.925781 162.507812 139.628906 C 165.027344 140.710938 167.386719 141.71875 169.632812 142.683594 C 170.757812 143.167969 171.839844 143.613281 172.90625 144.078125 C 173.488281 144.308594 174.050781 144.542969 174.609375 144.773438 C 176.644531 145.546875 178.523438 146.28125 180.359375 146.996094 C 185.492188 149.28125 189.421875 150.886719 193.023438 152.277344 C 194.824219 152.957031 196.527344 153.59375 198.269531 154.234375 C 198.792969 154.347656 199.199219 154.40625 199.917969 154.601562 C 199.78125 154.910156 199.570312 155.277344 199.144531 155.855469 C 197.902344 157.308594 196.527344 158.855469 195.019531 160.617188 C 194.476562 161.46875 193.605469 162.316406 192.597656 163.324219 C 192.054688 163.886719 191.476562 164.484375 190.894531 165.160156 C 190.972656 165.101562 191.011719 165.066406 191.089844 165.007812 C 194.980469 161.253906 188.765625 168.585938 193.566406 163.671875 C 193.003906 164.097656 192.714844 164.308594 192.851562 164.039062 C 194.535156 162.394531 196.898438 160.035156 197.75 159.398438 C 195.597656 162.066406 194.613281 162.375 193.796875 163.59375 C 192.308594 165.121094 190.738281 166.746094 189.964844 167.425781 C 189.925781 167.773438 189.421875 168.585938 188.804688 169.496094 C 187.507812 170.539062 183.75 174.621094 182.394531 175.800781 C 182.394531 175.820312 182.375 175.878906 182.375 175.917969 C 182.085938 176.207031 181.734375 176.535156 181.289062 177 L 181.929688 176.785156 C 181.8125 176.960938 181.679688 177.15625 181.5625 177.367188 C 180.882812 178.082031 180.070312 178.894531 179.625 179.242188 C 179.878906 179.128906 180.496094 178.585938 181.097656 178.042969 C 180.128906 179.4375 179.042969 180.925781 179.121094 181.140625 C 177.359375 182.6875 177.574219 182.085938 176.332031 182.957031 C 176.46875 182.648438 176.316406 182.6875 175.269531 183.730469 C 175.308594 183.671875 175.367188 183.578125 175.480469 183.441406 L 175.054688 183.90625 C 175.132812 183.867188 175.171875 183.828125 175.210938 183.789062 C 174.996094 184.019531 174.765625 184.253906 174.457031 184.5625 L 175.308594 184.273438 C 174.589844 184.988281 173.488281 186.207031 172.925781 186.632812 C 173.082031 186.554688 173.351562 186.34375 173.660156 186.050781 C 172.675781 187.078125 171.6875 188.0625 170.660156 189.050781 C 170.777344 188.820312 170.894531 188.605469 170.988281 188.433594 L 171.394531 187.988281 C 171.242188 188.140625 171.125 188.257812 171.007812 188.394531 C 171.378906 187.753906 171.570312 187.425781 170.042969 188.722656 L 166.324219 193.191406 L 166.960938 193.886719 C 166.808594 193.65625 166.652344 193.421875 166.476562 193.210938 C 167.503906 192.28125 168.492188 191.390625 169.441406 190.519531 C 169.90625 190.152344 170.332031 189.824219 170.5625 189.707031 C 169.363281 190.945312 168.242188 192.105469 167.15625 193.230469 C 167.699219 193.90625 168.222656 194.5625 168.761719 195.222656 C 169.226562 195.839844 169.710938 196.441406 170.195312 197.078125 C 170.023438 196.941406 169.847656 196.808594 169.691406 196.691406 L 166.769531 193.210938 L 166.886719 193.09375 L 166.75 193.210938 L 169.113281 196.246094 C 168.996094 196.1875 169.015625 196.285156 169.207031 196.574219 L 168.898438 196.226562 L 169.34375 196.808594 C 169.460938 196.980469 169.597656 197.214844 169.808594 197.503906 L 170.195312 197.910156 L 173.121094 201.703125 L 174.457031 202.4375 C 174.824219 202.863281 175.132812 203.269531 175.460938 203.636719 L 175.578125 203.789062 L 174.648438 202.804688 L 178.445312 207.71875 L 178.695312 207.851562 C 178.910156 208.199219 179.21875 208.683594 179.257812 208.859375 C 179.449219 208.917969 179.914062 209.265625 179.742188 208.898438 L 180.476562 209.785156 L 180.128906 210.40625 L 180.652344 210 C 180.304688 210.617188 180.089844 210.929688 179.761719 211.429688 C 179.433594 211.953125 179.140625 212.339844 178.851562 212.707031 C 179.042969 212.183594 179.199219 211.664062 179.449219 211.082031 C 179.625 210.65625 179.742188 210.367188 180.070312 209.863281 C 179.722656 210.269531 179.433594 210.597656 179.160156 210.910156 C 178.773438 211.488281 178.40625 211.992188 178.039062 212.515625 C 177.28125 213.597656 176.527344 214.71875 175.308594 216.5 C 175.441406 217 174.667969 218.570312 173.894531 220.230469 C 173.566406 220.714844 173.234375 221.21875 172.808594 221.835938 C 173.003906 222.535156 171.164062 225.648438 170.46875 227.738281 C 171.785156 225.804688 174.4375 220.949219 174.6875 221.335938 L 174.203125 222.1875 C 176.042969 219.246094 175.925781 218.355469 176.777344 216.5 C 177.070312 216.09375 177.28125 215.859375 177.339844 215.957031 L 176.835938 216.886719 C 177.089844 216.460938 177.300781 216.074219 177.515625 215.726562 L 177.457031 215.859375 L 178.8125 214.585938 C 179.199219 213.695312 179.585938 212.824219 179.972656 211.953125 C 180.148438 211.566406 180.324219 211.179688 180.476562 210.773438 C 180.652344 210.445312 180.789062 210.097656 180.960938 209.75 L 180.921875 209.710938 L 180.824219 209.226562 C 180.246094 208.625 179.664062 208.027344 179.082031 207.425781 C 178.832031 207.078125 178.558594 206.75 178.289062 206.382812 C 178.851562 206.554688 178.25 205.609375 177.050781 204.121094 C 176.449219 203.074219 175.308594 201.46875 178.171875 204.988281 C 178.308594 205.125 178.445312 205.222656 178.542969 205.320312 C 178.96875 206.167969 180.1875 207.621094 180.902344 208.511719 L 180.691406 208.625 L 181.542969 209.515625 C 181.445312 209.515625 181.15625 209.34375 180.632812 208.972656 C 180.960938 209.304688 181.195312 209.535156 181.367188 209.730469 C 181.175781 210.308594 181.289062 210.308594 181.542969 210.039062 L 181.25 210.695312 L 181.96875 209.671875 L 181.347656 208.761719 C 181.328125 208.664062 181.542969 208.878906 182.199219 209.671875 C 182.027344 209.941406 181.832031 210.308594 181.582031 210.753906 C 181.484375 211.042969 181.425781 211.238281 181.386719 211.390625 L 180.75 212.609375 L 180.457031 212.976562 C 180.398438 213.152344 180.359375 213.328125 180.34375 213.421875 L 177.84375 218.21875 L 177.535156 218.609375 C 177.476562 218.800781 177.4375 218.957031 177.417969 219.03125 L 161.328125 250.019531 C 161.328125 250.019531 173.234375 244.953125 189.65625 236.035156 C 189.695312 236.074219 189.964844 236.015625 189.90625 236.113281 C 189.734375 236.230469 189.558594 236.34375 189.402344 236.441406 C 189.558594 236.34375 189.675781 236.289062 189.808594 236.210938 C 189.65625 236.34375 189.210938 236.617188 188.203125 237.175781 C 188.6875 236.714844 184.640625 238.6875 183.015625 239.828125 C 190.894531 235.222656 184.832031 239.789062 186.691406 238.859375 C 186.304688 239.09375 185.609375 239.421875 184.851562 239.828125 C 183.789062 240.214844 184.679688 239.421875 182.722656 240.332031 C 180.574219 241.472656 181.851562 241.238281 183.730469 240.445312 L 183.671875 240.464844 C 183.867188 240.386719 184.019531 240.332031 184.195312 240.234375 C 184.425781 240.136719 184.660156 240.039062 184.910156 239.925781 C 188.707031 238.164062 188.726562 237.390625 193.371094 234.992188 C 193.082031 235.320312 192.851562 235.589844 193.140625 235.496094 C 193.140625 235.496094 193.160156 235.496094 193.179688 235.496094 C 192.519531 235.902344 191.28125 236.460938 190.140625 237.136719 C 192.152344 236.308594 193.351562 235.648438 194.300781 234.992188 C 195.484375 234.429688 197.011719 233.65625 196.453125 234.238281 C 200.730469 231.527344 197.265625 233.367188 195.636719 234.082031 C 196.761719 233.269531 197.980469 232.378906 200.460938 231.027344 C 200.960938 230.753906 201.445312 230.503906 201.910156 230.273438 C 201.253906 230.714844 200.847656 231.027344 200.59375 231.21875 C 200.050781 231.507812 199.492188 231.820312 198.96875 232.109375 C 199.335938 232.457031 201.3125 231.375 203.480469 230.097656 C 203.984375 229.882812 204.253906 229.828125 203.945312 230.136719 C 206.035156 228.742188 206.363281 228.414062 205.976562 228.570312 C 206.578125 228.183594 207.160156 227.855469 207.699219 227.5625 C 208.03125 227.371094 208.339844 227.214844 208.609375 227.097656 C 208.960938 226.925781 209.289062 226.808594 209.539062 226.75 L 208.980469 227.136719 L 211.574219 225.917969 C 212.269531 225.203125 211.417969 225.550781 210.023438 226.285156 C 211.4375 225.398438 213.140625 224.332031 214.632812 223.40625 C 216.238281 222.632812 215.910156 222.765625 215.890625 222.667969 C 216.742188 222.167969 217.480469 221.78125 217.980469 221.644531 L 217.402344 222.089844 L 220.132812 220.65625 C 221.253906 219.457031 218.660156 220.96875 215.910156 222.648438 C 215.949219 222.535156 216.277344 222.207031 217.925781 221.101562 C 216.644531 221.683594 215.523438 222.765625 214.128906 223.617188 C 212.832031 224.351562 211.671875 224.972656 211.011719 225.28125 C 212.308594 224.390625 214.167969 223.171875 215.175781 222.4375 C 215.175781 222.4375 216.027344 222.03125 216.878906 221.585938 C 217.710938 221.160156 218.542969 220.734375 218.542969 220.734375 C 220.265625 219.363281 225.535156 215.726562 224.625 215.957031 C 224.992188 215.609375 224.507812 215.878906 223.769531 216.324219 L 223.753906 216.324219 C 224.46875 215.839844 224.992188 215.511719 225.476562 215.183594 C 224.121094 215.996094 222.746094 216.847656 221.371094 217.679688 C 221.292969 217.679688 221.390625 217.542969 221.816406 217.15625 L 220.617188 218.164062 C 220.035156 218.511719 219.472656 218.878906 218.910156 219.226562 C 218.292969 219.167969 221.796875 216.558594 223.945312 215.589844 C 227.101562 213.152344 221.003906 217.214844 221.816406 216.558594 C 223.460938 215.414062 225.125 214.273438 226.792969 213.113281 C 237.324219 205.648438 247.703125 197.253906 256.746094 188.160156 C 255.914062 189.1875 255.992188 189.320312 258.488281 187.097656 C 259.203125 186.421875 259.902344 185.78125 260.558594 185.164062 C 260.152344 185.644531 259.726562 186.167969 259.164062 186.710938 C 259.164062 186.710938 259.863281 186.070312 260.519531 185.414062 C 261.179688 184.777344 261.835938 184.117188 261.835938 184.117188 C 261.644531 184.273438 261.566406 184.292969 261.527344 184.273438 C 266.253906 179.960938 270.164062 176.980469 274.035156 171.003906 C 275.625 168.796875 277.09375 166.1875 278.585938 163.574219 C 280.019531 161.410156 281.453125 159.066406 282.574219 156.089844 C 283.5625 154.058594 284.203125 151.699219 285.054688 149.359375 C 285.613281 146.941406 286.371094 144.464844 286.699219 142.066406 " fill-opacity="1" fill-rule="nonzero"/><path fill="#1d2128" d="M 153.601562 55.8125 C 154.125 55.097656 153.949219 54.089844 153.195312 53.570312 C 151.257812 52.195312 149.421875 51.054688 147.621094 50.085938 L 144.851562 48.539062 L 142.023438 47.222656 C 141.421875 46.953125 140.824219 46.664062 140.222656 46.394531 C 139.042969 45.832031 137.820312 45.25 136.5625 44.824219 C 136.449219 44.789062 136.3125 44.75 136.195312 44.75 C 135.34375 44.554688 134.511719 45.039062 134.257812 45.832031 C 133.988281 46.644531 134.414062 47.515625 135.226562 47.824219 C 140.804688 50.085938 146.226562 52.929688 151.296875 56.21875 C 151.492188 56.335938 151.6875 56.433594 151.878906 56.46875 C 152.519531 56.605469 153.214844 56.375 153.601562 55.8125 " fill-opacity="1" fill-rule="nonzero"/><g clip-path="url(#8c466ce8ae)"><path fill="#1d2128" d="M 160.128906 204.5625 C 160.050781 204.894531 159.933594 205.320312 159.722656 205.917969 L 156.546875 214.601562 C 155.617188 216.964844 154.746094 219.496094 153.96875 221.722656 L 153.175781 223.964844 C 150.738281 231.027344 150.832031 231.625 151.316406 232.457031 C 151.355469 232.515625 151.394531 232.574219 151.433594 232.632812 C 148.027344 242.730469 146.304688 245.476562 144.617188 248.203125 C 143.632812 249.808594 142.722656 251.316406 141.480469 254.375 C 140.765625 256.152344 140.050781 258.144531 139.214844 260.621094 L 139.003906 261.277344 L 136.234375 258.339844 C 135.710938 257.855469 135.132812 257.273438 134.511719 256.636719 L 132.574219 254.566406 C 131.414062 253.328125 130.175781 251.9375 128.933594 250.503906 L 121.617188 241.9375 C 117.164062 236.5 116.851562 236.171875 115.980469 235.996094 C 115.574219 235.902344 115.128906 235.976562 114.761719 236.171875 C 114.664062 236.054688 114.546875 235.957031 114.433594 235.824219 C 114.296875 235.648438 114.160156 235.457031 114.046875 235.28125 C 114.121094 235.203125 114.179688 235.105469 114.238281 234.992188 C 114.9375 233.8125 114.78125 233.558594 108.585938 226.132812 C 105.777344 223.289062 103.339844 221.199219 100.976562 219.167969 C 100.257812 218.550781 99.542969 217.929688 98.828125 217.3125 C 99.542969 216.304688 98.882812 215.300781 98.050781 214.042969 C 98.011719 214.003906 97.992188 213.945312 97.957031 213.90625 C 92.496094 207.175781 91.160156 206.246094 89.765625 205.242188 C 88.640625 204.449219 87.480469 203.636719 82.71875 197.8125 C 78.882812 193.324219 73.402344 186.207031 69.066406 180.539062 C 67.574219 178.527344 66.570312 177.078125 65.890625 176.03125 C 66.375 175.472656 66.414062 174.621094 65.929688 174.019531 C 62.523438 169.6875 59.675781 165.414062 57.371094 161.835938 C 54.292969 156.84375 51.410156 152.53125 48.15625 148.121094 C 47.363281 147.210938 46.800781 146.863281 46.21875 146.535156 C 45.582031 146.1875 44.691406 145.703125 40.875 139.589844 C 40.488281 138.679688 40.273438 137.828125 40.042969 136.957031 L 39.402344 134.558594 C 38.976562 133.109375 38.667969 132.007812 38.398438 130.613281 C 38.28125 129.976562 38.085938 129.296875 37.894531 128.542969 C 37.601562 127.539062 37.292969 126.378906 37.0625 124.945312 L 36.285156 120.632812 C 36.171875 119.800781 36.074219 118.890625 35.996094 117.867188 C 36.519531 117.304688 36.539062 116.511719 36.617188 114.734375 C 36.636719 114.191406 36.652344 113.609375 36.710938 112.992188 C 36.730469 112.894531 36.730469 112.796875 36.710938 112.722656 C 36.421875 108.601562 36.480469 104.402344 36.867188 100.246094 C 36.945312 99.453125 36.421875 98.714844 35.609375 98.503906 C 35.183594 98.367188 34.757812 98.464844 34.410156 98.640625 C 35.105469 93.476562 36.171875 87.304688 37.992188 82.3125 C 38.007812 82.234375 38.027344 82.179688 38.046875 82.101562 C 38.144531 81.695312 38.164062 81.347656 38.125 81.035156 C 38.300781 80.804688 38.472656 80.515625 38.667969 80.148438 C 38.707031 80.089844 38.726562 80.03125 38.765625 79.953125 C 39.558594 77.75 39.847656 76.453125 40.0625 75.40625 C 40.21875 74.75 40.332031 74.1875 40.527344 73.609375 L 40.71875 73.105469 C 41.398438 71.328125 42.519531 68.367188 46.917969 62.449219 L 51.078125 58.558594 C 56.191406 52.988281 61.902344 48.460938 68.039062 45.097656 C 73.734375 42.078125 80.046875 39.914062 86.785156 38.65625 C 86.320312 39.003906 86.066406 39.621094 86.183594 40.222656 C 86.300781 40.878906 86.820312 41.382812 87.480469 41.539062 C 87.691406 41.578125 88.0625 41.558594 88.273438 41.539062 C 88.488281 41.5 88.875 41.441406 89.492188 41.460938 L 92.554688 41.421875 C 93.8125 41.304688 95.109375 41.207031 96.40625 41.171875 C 103.492188 40.878906 110.539062 41.382812 117.375 42.640625 C 118.265625 42.792969 119.136719 42.253906 119.3125 41.382812 C 119.484375 40.53125 118.945312 39.679688 118.054688 39.46875 L 117.722656 39.371094 C 116.484375 39.082031 115.304688 38.789062 113.96875 38.578125 L 107.460938 37.667969 L 112.691406 38.171875 C 114.277344 38.269531 115.847656 38.597656 117.511719 38.925781 L 118.148438 39.042969 C 118.769531 39.175781 119.390625 39.292969 120.007812 39.410156 C 121.25 39.660156 122.601562 39.933594 123.628906 40.183594 C 124.519531 40.453125 125.410156 40.726562 126.320312 40.996094 C 129.070312 41.789062 131.683594 42.5625 134.144531 43.664062 C 134.222656 43.703125 134.316406 43.742188 134.414062 43.761719 L 134.742188 43.839844 C 135.984375 44.167969 137.6875 44.613281 139.488281 45.386719 C 140.085938 45.65625 140.707031 45.929688 141.347656 46.199219 C 143.03125 46.933594 144.773438 47.6875 146.476562 48.617188 C 147.117188 48.964844 147.773438 49.3125 148.433594 49.679688 C 150.253906 50.648438 152.113281 51.671875 153.796875 52.796875 L 157.183594 54.921875 L 159.410156 56.46875 C 159.527344 56.914062 159.816406 57.320312 160.261719 57.554688 C 162.488281 58.734375 165.085938 61.054688 167.484375 63.300781 L 169.167969 65.039062 C 169.113281 65.117188 169.035156 65.195312 168.976562 65.273438 C 168.261719 66.296875 168.976562 67.339844 169.363281 67.902344 C 169.402344 67.960938 169.460938 68.019531 169.5 68.058594 C 170.410156 69.101562 171.300781 70.089844 172.171875 71.035156 C 174.457031 73.589844 176.625 75.988281 178.542969 78.367188 C 178.578125 78.425781 178.617188 78.484375 178.675781 78.523438 C 178.675781 78.523438 178.675781 78.542969 178.695312 78.542969 C 178.949219 78.949219 179.488281 79.761719 180.921875 80.148438 L 179.140625 85.640625 L 178.484375 87.441406 L 177.222656 91.832031 C 175.851562 97.613281 175.675781 99.316406 175.460938 101.269531 C 175.347656 102.351562 175.230469 103.4375 174.902344 105.371094 C 174.882812 105.507812 174.863281 105.640625 174.882812 105.777344 C 174.960938 106.492188 175.210938 106.957031 175.519531 107.226562 C 175.09375 109.316406 174.648438 111.25 174.183594 113.070312 L 172.289062 120.207031 L 161.988281 125.351562 C 157.941406 127.382812 154.125 129.550781 149.59375 132.355469 C 149.421875 132.453125 149.285156 132.566406 149.167969 132.722656 C 148.917969 132.953125 147.96875 133.691406 147.25 134.230469 C 145.394531 135.664062 144.269531 136.53125 143.632812 137.210938 C 143.515625 137.25 143.417969 137.289062 143.300781 137.363281 C 141.210938 138.601562 140.746094 138.855469 140.203125 139.164062 L 137.28125 140.789062 C 136.699219 141.097656 136.371094 141.738281 136.46875 142.394531 C 136.503906 142.722656 136.660156 143.03125 136.894531 143.265625 L 135.304688 142.957031 C 134.414062 142.761719 133.523438 143.324219 133.347656 144.191406 C 133.15625 145.082031 133.738281 145.933594 134.648438 146.128906 L 169.074219 153.535156 L 137.007812 197.214844 C 136.949219 197.328125 136.875 197.445312 136.835938 197.542969 C 136.738281 197.640625 136.640625 197.734375 136.5625 197.832031 L 135.730469 198.992188 C 135.34375 199.496094 135.324219 200.171875 135.632812 200.714844 C 135.945312 201.277344 136.5625 201.605469 137.203125 201.566406 C 137.222656 201.566406 138.113281 201.527344 139.527344 201.488281 C 139.566406 201.488281 139.585938 201.488281 139.621094 201.488281 C 139.660156 201.488281 139.679688 201.488281 139.71875 201.488281 C 140.476562 201.46875 141.347656 201.449219 142.3125 201.449219 C 143.167969 201.449219 143.882812 200.8125 143.960938 199.980469 C 143.980469 199.804688 143.960938 199.632812 143.921875 199.476562 C 144.929688 199.4375 145.839844 199.398438 146.476562 199.398438 C 148.878906 199.707031 150.832031 200.039062 153.023438 200.503906 L 154.203125 200.773438 C 155.324219 201.042969 156.71875 201.371094 158.09375 201.953125 C 158.867188 202.300781 159.46875 202.648438 159.953125 203.152344 C 160.1875 203.402344 160.339844 203.867188 160.1875 204.273438 C 160.167969 204.371094 160.128906 204.46875 160.128906 204.5625 Z M 162.394531 200.945312 C 161.503906 200.019531 160.476562 199.457031 159.429688 198.992188 C 157.765625 198.277344 156.160156 197.890625 154.957031 197.621094 L 153.699219 197.328125 C 151.375 196.828125 149.304688 196.480469 146.75 196.148438 C 146.671875 196.148438 146.574219 196.128906 146.496094 196.128906 C 146.089844 196.148438 145.585938 196.167969 145.003906 196.1875 C 151.609375 188.335938 160.28125 177.367188 169.808594 164.851562 C 169.847656 164.8125 169.886719 164.753906 169.90625 164.695312 C 171.785156 161.5625 172.015625 160.925781 171.648438 160.054688 L 173.292969 158.179688 C 174.300781 157.054688 174.707031 156.726562 174.824219 156.648438 C 175.113281 156.515625 175.367188 156.28125 175.519531 155.992188 L 177.960938 151.699219 C 178.230469 151.214844 178.230469 150.652344 177.980469 150.171875 C 177.746094 149.6875 177.261719 149.339844 176.703125 149.28125 L 174.746094 149.027344 C 164.445312 146.804688 159.410156 145.644531 153.058594 144.15625 L 144.230469 142.085938 C 144.269531 141.910156 144.269531 141.738281 144.25 141.582031 L 146.089844 140.539062 C 147.308594 139.898438 148.277344 139.453125 148.976562 139.222656 C 149.441406 139.066406 149.789062 138.757812 149.960938 138.351562 C 151.433594 137.269531 156.351562 134.269531 159.101562 132.605469 L 160.632812 131.679688 C 161.386719 131.214844 161.636719 130.265625 161.191406 129.511719 C 161.171875 129.492188 161.171875 129.492188 161.171875 129.472656 C 162.042969 129.007812 162.839844 128.601562 163.554688 128.253906 L 168.316406 125.914062 L 174.550781 122.722656 C 174.960938 122.507812 175.230469 122.140625 175.347656 121.714844 L 177.4375 113.902344 C 178.113281 111.175781 178.773438 108.253906 179.414062 104.964844 C 179.488281 104.597656 179.433594 104.191406 179.238281 103.863281 C 179.101562 103.628906 178.871094 103.398438 178.617188 103.222656 C 178.695312 102.644531 178.734375 102.121094 178.792969 101.65625 C 178.988281 99.78125 179.160156 98.175781 180.457031 92.664062 L 184.660156 79.449219 C 184.738281 79.21875 184.757812 78.96875 184.699219 78.714844 C 184.601562 78.136719 184.136719 77.613281 183.574219 77.398438 C 183.535156 77.382812 183.480469 77.382812 183.441406 77.363281 L 182.414062 77.109375 C 182.335938 77.089844 182.257812 77.089844 182.199219 77.070312 C 181.832031 77.050781 181.621094 77.011719 181.523438 76.839844 C 181.425781 76.683594 181.289062 76.492188 181.078125 76.296875 C 180.921875 76.085938 180.730469 75.871094 180.574219 75.660156 C 180.804688 75.351562 181.136719 74.769531 180.804688 73.898438 C 180.769531 73.78125 180.710938 73.667969 180.652344 73.550781 C 180.652344 73.550781 179.839844 72.332031 178.96875 71.191406 C 178.132812 70.050781 177.261719 68.910156 177.261719 68.910156 C 177.222656 68.851562 177.1875 68.792969 177.128906 68.753906 C 176.46875 68.078125 175.8125 67.339844 175.132812 66.585938 C 174.6875 66.066406 174.203125 65.542969 173.679688 65 L 169.847656 61.015625 C 167.523438 58.871094 165.085938 56.664062 162.761719 55.234375 C 162.644531 54.902344 162.433594 54.59375 162.121094 54.382812 L 159.042969 52.234375 L 155.636719 50.105469 C 153.875 48.90625 151.917969 47.863281 150.039062 46.835938 C 149.402344 46.488281 148.761719 46.140625 148.105469 45.773438 C 146.246094 44.769531 144.347656 43.957031 142.664062 43.21875 C 142.042969 42.96875 141.441406 42.699219 140.84375 42.425781 C 138.769531 41.558594 136.855469 41.035156 135.578125 40.707031 L 135.382812 40.667969 C 132.75 39.488281 129.941406 38.675781 127.25 37.882812 C 126.359375 37.609375 125.488281 37.359375 124.519531 37.070312 C 123.242188 36.742188 121.925781 36.488281 120.628906 36.238281 C 120.027344 36.121094 119.410156 35.984375 118.789062 35.871094 L 118.128906 35.734375 C 116.445312 35.40625 114.683594 35.039062 112.921875 34.941406 L 107.152344 34.378906 C 105.777344 34.207031 104.421875 34.226562 103.125 34.246094 C 102.464844 34.246094 101.828125 34.265625 101.09375 34.246094 C 100.453125 34.265625 99.792969 34.246094 99.136719 34.246094 C 97.859375 34.246094 96.523438 34.246094 95.109375 34.339844 L 89.125 34.960938 C 80.878906 36.179688 73.230469 38.636719 66.375 42.253906 C 59.910156 45.792969 53.925781 50.550781 48.660156 56.296875 L 44.476562 60.183594 C 44.398438 60.242188 44.339844 60.320312 44.28125 60.398438 C 39.539062 66.742188 38.300781 69.992188 37.5625 71.925781 L 37.371094 72.488281 C 37.082031 73.320312 36.945312 73.996094 36.789062 74.691406 C 36.578125 75.679688 36.34375 76.800781 35.628906 78.734375 C 35.492188 79.003906 35.394531 79.121094 35.394531 79.140625 C 35.066406 79.335938 34.699219 79.585938 34.332031 80.1875 C 34.234375 80.320312 34.175781 80.457031 34.136719 80.609375 C 33.265625 83.824219 33.167969 84.265625 33.613281 84.964844 C 33.613281 84.964844 33.613281 84.984375 33.632812 85.003906 C 31.773438 91.675781 30.902344 99.21875 30.363281 104.035156 L 30.167969 105.5625 C 30.128906 105.875 30.1875 106.203125 30.34375 106.472656 L 31.097656 107.964844 L 31.910156 109.316406 C 32.164062 109.742188 32.550781 110.011719 33.035156 110.109375 C 33.109375 110.128906 33.167969 110.128906 33.226562 110.148438 C 33.246094 111.039062 33.304688 111.910156 33.363281 112.796875 C 33.34375 113.050781 33.324219 113.300781 33.304688 113.554688 C 32.703125 113.84375 32.316406 114.480469 32.394531 115.160156 C 32.472656 115.953125 32.53125 116.707031 32.589844 117.441406 C 32.703125 118.738281 32.800781 119.957031 32.976562 121.117188 L 33.75 125.429688 C 34.019531 127.015625 34.371094 128.3125 34.660156 129.355469 C 34.835938 130.015625 34.988281 130.613281 35.105469 131.175781 C 35.394531 132.683594 35.726562 133.921875 36.171875 135.390625 L 36.789062 137.714844 C 37.042969 138.699219 37.332031 139.761719 37.816406 140.90625 C 37.855469 140.980469 37.894531 141.058594 37.933594 141.136719 C 41.980469 147.597656 43.199219 148.585938 44.574219 149.359375 C 44.921875 149.550781 45.136719 149.667969 45.523438 150.09375 C 48.621094 154.308594 51.484375 158.566406 54.507812 163.515625 C 56.480469 166.535156 58.804688 170.035156 61.515625 173.652344 C 61.128906 174.503906 61.535156 175.898438 66.355469 182.433594 C 70.730469 188.160156 76.269531 195.316406 80.121094 199.84375 C 85.15625 205.996094 86.453125 206.90625 87.808594 207.871094 C 87.964844 207.96875 88.121094 208.085938 88.273438 208.199219 C 87.519531 209.285156 88.234375 210.328125 89.667969 212.417969 C 89.707031 212.476562 89.765625 212.535156 89.804688 212.589844 L 95.109375 218.394531 C 96.367188 219.535156 97.566406 220.5625 98.769531 221.585938 C 101.1875 223.65625 103.472656 225.609375 106.085938 228.261719 C 106.609375 228.898438 107.347656 229.789062 108.082031 230.679688 C 107.636719 231.527344 107.945312 232.554688 111.800781 237.796875 C 111.839844 237.855469 111.894531 237.929688 111.953125 237.96875 C 114.316406 240.367188 114.9375 241.007812 116.273438 242.148438 C 116.503906 242.34375 116.777344 242.476562 117.046875 242.515625 C 117.335938 242.574219 117.589844 242.574219 117.839844 242.515625 C 118.226562 242.980469 118.632812 243.484375 119.039062 243.964844 L 126.359375 252.574219 C 127.65625 254.042969 128.914062 255.476562 130.117188 256.753906 L 132.070312 258.824219 C 132.75 259.519531 133.367188 260.15625 133.832031 260.582031 L 138.304688 265.339844 C 138.558594 265.632812 139.003906 265.941406 139.390625 266.039062 C 139.855469 266.132812 140.359375 266.039062 140.746094 265.765625 C 141.035156 265.554688 141.269531 265.207031 141.386719 264.839844 L 142.429688 261.648438 C 143.222656 259.230469 143.921875 257.292969 144.597656 255.59375 C 145.742188 252.769531 146.59375 251.375 147.523438 249.847656 C 149.421875 246.789062 151.375 243.636719 155.539062 230.929688 C 155.75 230.289062 155.519531 229.574219 154.996094 229.167969 C 155.285156 228.222656 155.714844 226.886719 156.351562 225.046875 L 157.144531 222.785156 C 157.902344 220.601562 158.773438 218.105469 159.683594 215.785156 L 162.894531 207 C 163.148438 206.304688 163.304688 205.761719 163.398438 205.300781 C 163.902344 203.789062 163.496094 202.089844 162.394531 200.945312 " fill-opacity="1" fill-rule="nonzero"/></g><g clip-path="url(#a54bd89a41)"><path fill="#1d2128" d="M 283.929688 146.863281 C 283.773438 147.539062 283.582031 148.214844 283.425781 148.894531 C 283.175781 149.589844 282.941406 150.285156 282.710938 150.984375 C 282.1875 152.570312 281.703125 154.058594 281.007812 155.527344 C 279.921875 158.410156 278.507812 160.636719 277.113281 162.761719 L 276.960938 163.035156 C 275.566406 165.472656 274.132812 167.984375 272.621094 170.113281 C 269.484375 174.949219 266.308594 177.773438 262.632812 181.0625 C 261.894531 181.699219 261.140625 182.378906 260.367188 183.074219 C 260.210938 183.226562 260.074219 183.402344 260 183.613281 L 259.960938 183.632812 C 259.746094 183.710938 259.574219 183.828125 259.398438 183.984375 L 257.34375 185.898438 C 257.054688 186.148438 256.824219 186.363281 256.609375 186.535156 C 256.222656 186.574219 255.835938 186.730469 255.546875 187.019531 C 247.277344 195.335938 237.265625 203.675781 225.785156 211.796875 C 224.140625 212.960938 222.492188 214.101562 220.710938 215.320312 C 220.578125 215.433594 220.441406 215.570312 220.34375 215.726562 C 219.820312 216.074219 219.28125 216.460938 218.796875 216.847656 C 218.503906 216.867188 218.234375 216.964844 217.980469 217.117188 C 216.355469 218.203125 214.730469 219.265625 213.101562 220.308594 C 212.40625 220.773438 211.902344 221.121094 211.652344 221.566406 C 211.359375 221.800781 211.128906 222.050781 210.972656 222.320312 C 210.507812 222.207031 210.023438 222.261719 209.617188 222.515625 C 205.6875 224.972656 201.601562 227.410156 197.476562 229.789062 C 197.398438 229.828125 197.304688 229.882812 197.226562 229.960938 L 196.257812 230.773438 C 196.238281 230.792969 196.21875 230.792969 196.21875 230.8125 C 195.890625 230.792969 195.578125 230.871094 195.289062 231.027344 C 193.703125 231.933594 192.132812 232.804688 190.605469 233.636719 C 190.527344 233.675781 190.449219 233.734375 190.371094 233.792969 L 189.714844 234.3125 C 189.695312 234.351562 189.65625 234.371094 189.617188 234.410156 C 189.34375 234.410156 189.074219 234.488281 188.824219 234.625 C 178.484375 240.234375 169.886719 244.335938 165.007812 246.578125 L 178.910156 219.789062 C 179.003906 219.632812 179.042969 219.515625 179.0625 219.363281 L 179.179688 219.207031 C 179.238281 219.128906 179.296875 219.050781 179.355469 218.957031 L 181.832031 214.160156 C 181.890625 214.042969 181.949219 213.886719 181.96875 213.753906 L 182.105469 213.597656 C 182.160156 213.519531 182.21875 213.441406 182.257812 213.347656 L 182.878906 212.128906 C 182.9375 212.03125 182.976562 211.933594 183.015625 211.835938 C 183.03125 211.742188 183.070312 211.605469 183.128906 211.410156 L 183.671875 210.445312 C 184 209.863281 183.925781 209.167969 183.496094 208.644531 C 182.976562 208.027344 182.664062 207.640625 182.335938 207.425781 C 182.277344 207.195312 182.160156 206.980469 182.007812 206.789062 L 180.769531 205.355469 C 180.613281 205.164062 180.417969 205.027344 180.226562 204.929688 C 180.148438 204.816406 180.089844 204.699219 180.050781 204.621094 C 179.953125 204.429688 179.820312 204.273438 179.664062 204.136719 L 179.394531 203.886719 C 177.941406 202.109375 177.515625 201.585938 177.070312 201.371094 C 177.03125 201.101562 176.914062 200.832031 176.703125 200.597656 L 175.519531 199.207031 C 175.367188 199.011719 175.152344 198.859375 174.941406 198.761719 C 174.824219 198.585938 174.746094 198.433594 174.6875 198.316406 C 174.628906 198.179688 174.53125 198.066406 174.457031 197.949219 L 170.503906 193.34375 L 181.308594 181.640625 C 181.523438 181.429688 181.640625 181.160156 181.695312 180.886719 C 181.96875 180.808594 182.21875 180.65625 182.433594 180.421875 L 188.609375 173.730469 C 188.84375 173.480469 188.996094 173.148438 189.015625 172.820312 C 189.363281 172.742188 189.675781 172.589844 189.925781 172.320312 L 196.820312 164.832031 C 196.992188 164.660156 197.128906 164.425781 197.1875 164.195312 C 197.417969 164.117188 197.632812 163.960938 197.804688 163.789062 L 200.691406 160.65625 C 201.195312 160.09375 201.253906 159.261719 200.808594 158.644531 C 200.496094 158.21875 200.035156 157.964844 199.53125 157.945312 L 200.050781 157.347656 C 200.109375 157.753906 200.34375 158.140625 200.710938 158.410156 C 201.40625 158.914062 202.375 158.835938 202.957031 158.199219 L 204.699219 156.320312 C 205.300781 155.664062 205.261719 154.675781 204.601562 154.058594 C 203.945312 153.4375 202.9375 153.4375 202.28125 154.039062 C 202.085938 154.214844 201.851562 154.445312 201.582031 154.695312 C 201.601562 154.445312 201.542969 154.175781 201.425781 153.941406 C 201.214844 153.496094 200.828125 153.167969 200.363281 153.050781 C 200.035156 152.957031 199.78125 152.898438 199.53125 152.839844 L 198.714844 152.683594 L 193.625 150.769531 C 189.441406 149.164062 185.570312 147.539062 180.960938 145.488281 L 175.230469 143.265625 L 165.394531 139.105469 L 169.246094 135.199219 C 171.359375 133.109375 172.054688 132.414062 173.003906 131.503906 L 173.46875 131.058594 C 174.378906 130.1875 175.054688 129.648438 175.636719 129.242188 C 176.296875 129.53125 177.070312 129.414062 177.574219 128.875 L 177.824219 128.601562 C 178.097656 128.3125 178.230469 127.945312 178.25 127.578125 C 178.792969 127.210938 179.414062 126.746094 180.148438 126.105469 C 180.207031 126.070312 180.246094 126.03125 180.285156 125.992188 L 182.472656 123.667969 L 183.460938 122.800781 C 183.535156 122.722656 183.574219 122.703125 183.613281 122.664062 C 183.691406 122.625 183.75 122.585938 183.847656 122.507812 C 184.097656 122.316406 184.3125 122.007812 184.40625 121.695312 C 184.445312 121.5625 184.484375 121.40625 184.484375 121.25 L 184.851562 117.789062 C 184.851562 117.710938 184.851562 117.617188 184.851562 117.558594 C 184.851562 116.839844 184.816406 116.570312 184.777344 116.359375 C 184.757812 116.28125 184.757812 116.203125 184.757812 116.011719 C 184.949219 115.640625 185.066406 115.140625 185.222656 114.289062 C 185.261719 114.171875 185.296875 114.054688 185.316406 113.921875 L 186.265625 106.320312 C 186.460938 105.507812 186.613281 104.714844 186.789062 103.921875 C 187.195312 102.042969 187.757812 99.492188 188.164062 98.929688 C 188.414062 98.542969 188.492188 98.019531 188.398438 97.574219 C 188.378906 97.535156 188.359375 97.480469 188.339844 97.421875 C 188.339844 97.363281 188.320312 97.304688 188.300781 97.246094 L 188.066406 96.28125 C 188.320312 95.117188 188.550781 94.015625 188.765625 92.894531 C 188.785156 92.796875 188.785156 92.679688 188.785156 92.566406 C 188.765625 91.851562 188.804688 90.785156 189.230469 88.425781 C 189.34375 88.269531 189.460938 88.078125 189.558594 87.847656 C 189.578125 87.789062 189.65625 87.535156 189.675781 87.496094 C 189.695312 87.421875 189.714844 87.363281 189.714844 87.304688 L 190.894531 80.4375 C 191.261719 80.03125 191.941406 79.566406 192.386719 79.277344 C 192.65625 79.082031 192.886719 78.929688 193.0625 78.792969 C 193.296875 78.617188 193.449219 78.40625 193.546875 78.175781 C 193.605469 78.136719 193.644531 78.097656 193.683594 78.058594 C 193.761719 78 193.816406 77.960938 193.875 77.882812 L 194.167969 77.710938 C 194.574219 77.417969 194.882812 77.246094 195.230469 77.050781 C 196.878906 76.007812 197.574219 75.425781 198.234375 74.867188 L 198.640625 74.519531 C 198.929688 74.304688 199.257812 74.035156 199.722656 73.726562 C 200.382812 73.746094 201.136719 73.433594 202.707031 72.816406 C 203.441406 72.527344 204.292969 72.175781 205.183594 71.847656 C 205.414062 71.769531 205.589844 71.65625 205.765625 71.519531 C 206.382812 71.328125 206.945312 71.210938 207.390625 71.09375 L 208.628906 70.765625 C 208.824219 70.707031 209.015625 70.628906 209.171875 70.496094 C 209.289062 70.417969 209.460938 70.320312 209.617188 70.203125 C 209.925781 70.011719 210.257812 69.816406 210.507812 69.566406 C 212.132812 68.984375 212.949219 68.792969 213.335938 68.714844 C 213.78125 68.945312 214.398438 69.042969 215.503906 68.832031 C 215.792969 68.773438 216.066406 68.65625 216.296875 68.484375 L 217.90625 68.039062 C 218.058594 68 218.195312 67.921875 218.351562 67.84375 C 218.425781 67.824219 218.503906 67.804688 218.582031 67.804688 L 220.152344 67.515625 C 220.597656 67.417969 220.964844 67.167969 221.214844 66.820312 C 221.796875 66.761719 222.53125 66.664062 223.441406 66.546875 L 224.273438 66.433594 C 224.429688 66.546875 224.644531 66.625 224.894531 66.664062 C 225.496094 66.800781 226.578125 66.839844 231.050781 66.644531 C 231.457031 66.625 231.828125 66.472656 232.097656 66.199219 C 232.15625 66.21875 232.195312 66.21875 232.253906 66.21875 C 234.574219 66.375 234.769531 66.472656 235.078125 66.566406 C 235.292969 66.992188 235.679688 67.324219 236.183594 67.4375 C 236.203125 67.4375 236.355469 67.476562 236.375 67.476562 C 236.898438 67.59375 237.578125 67.671875 238.699219 67.804688 C 239.28125 67.863281 239.976562 67.941406 240.808594 68.039062 C 240.867188 68.039062 240.925781 68.058594 240.984375 68.058594 C 243.519531 68.097656 244.78125 68.117188 245.339844 67.378906 C 246.078125 67.496094 246.773438 67.632812 247.472656 67.765625 C 250.066406 68.328125 252 69.023438 254.191406 69.855469 C 254.789062 70.03125 255.351562 70.222656 255.835938 70.378906 C 255.953125 70.417969 256.046875 70.457031 256.144531 70.496094 C 256.300781 70.648438 256.511719 70.785156 256.726562 70.863281 C 256.765625 70.882812 256.804688 70.902344 256.84375 70.921875 C 256.785156 71.617188 257.191406 72.3125 257.90625 72.582031 C 267.277344 76.296875 274.328125 82.214844 278.914062 90.207031 C 279.300781 90.882812 279.691406 91.597656 280.058594 92.332031 C 280.40625 93.050781 281.21875 93.417969 281.992188 93.222656 C 282.417969 93.105469 282.789062 92.855469 283 92.507812 C 284.257812 95.292969 285.207031 97.980469 285.90625 101.636719 L 285.710938 102.585938 C 285.652344 102.855469 285.671875 103.128906 285.75 103.378906 L 286.175781 104.695312 L 286.679688 107.074219 C 286.890625 108.351562 287.085938 109.570312 287.261719 110.804688 C 287.300781 111.117188 287.433594 111.40625 287.628906 111.636719 L 287.648438 112.410156 C 287.800781 115.796875 287.898438 118.738281 287.472656 122.894531 C 287.375 123.089844 287.320312 123.320312 287.300781 123.535156 L 287.222656 126.4375 L 287.027344 128.699219 C 286.96875 128.855469 286.929688 128.988281 286.910156 129.164062 L 286.214844 134.910156 L 285.035156 141.832031 C 284.820312 143.457031 284.375 145.199219 283.929688 146.863281 Z M 288.34375 142.355469 L 289.527344 135.410156 L 290.125 130.535156 C 290.222656 130.402344 290.28125 130.246094 290.320312 130.074219 C 290.359375 129.878906 290.359375 129.703125 290.339844 129.53125 L 290.570312 126.648438 L 290.648438 124.039062 C 290.707031 123.902344 290.746094 123.746094 290.765625 123.574219 C 291.269531 119.027344 291.152344 115.777344 290.996094 112.335938 L 290.957031 110.941406 C 290.9375 110.632812 290.84375 110.324219 290.667969 110.070312 C 290.609375 109.992188 290.550781 109.917969 290.492188 109.859375 C 290.339844 108.773438 290.164062 107.691406 289.992188 106.570312 L 289.621094 104.636719 C 289.621094 104.558594 289.601562 104.5 289.582031 104.441406 L 289.082031 102.855469 L 289.253906 102.003906 C 289.292969 101.8125 289.292969 101.597656 289.253906 101.40625 C 288.210938 95.71875 286.5625 92.101562 284.355469 87.632812 C 284.21875 87.382812 284.046875 87.167969 283.8125 86.996094 C 283.292969 86.644531 282.789062 86.472656 282.285156 86.453125 C 282.265625 86.394531 282.226562 86.355469 282.207031 86.296875 C 281.78125 85.660156 281.316406 84.925781 280.832031 84.210938 C 279.4375 82.234375 278.820312 81.558594 278.390625 81.289062 C 276.320312 78.308594 273.203125 75.351562 269.3125 72.699219 C 268.867188 72.390625 268.324219 72.3125 267.820312 72.46875 C 266.601562 71.695312 266.273438 71.402344 266 71.132812 C 265.417969 70.609375 264.9375 70.222656 262.457031 68.890625 L 260.210938 67.84375 C 259.050781 67.339844 257.828125 66.917969 257.828125 66.917969 C 257.289062 66.703125 256.707031 66.800781 256.28125 67.109375 C 255.933594 66.992188 255.582031 66.878906 255.253906 66.78125 C 253.144531 65.988281 250.996094 65.214844 248.148438 64.59375 C 246.792969 64.304688 245.378906 64.074219 243.773438 63.859375 C 243.675781 63.859375 243.519531 63.859375 243.347656 63.878906 C 242.089844 63.6875 240.773438 63.492188 239.339844 63.335938 C 238.953125 63.300781 238.5625 63.394531 238.253906 63.609375 C 237.558594 63.335938 236.9375 63.222656 235.234375 62.96875 C 234.421875 62.855469 233.316406 62.699219 231.710938 62.429688 C 231.554688 62.410156 231.398438 62.410156 231.226562 62.429688 C 230.917969 62.46875 230.199219 62.542969 229.675781 62.96875 C 229.171875 62.988281 228.554688 63.007812 227.816406 63.027344 C 227.488281 63.027344 227.179688 63.144531 226.925781 63.316406 C 226.578125 63.046875 226.132812 62.910156 225.667969 62.96875 L 222.957031 63.316406 C 220.5 63.628906 219.472656 63.761719 218.621094 63.820312 C 217.246094 63.898438 216.21875 64.054688 212.734375 65.234375 C 212.464844 65.3125 212.230469 65.464844 212.058594 65.660156 C 211.03125 65.910156 209.539062 66.394531 207.199219 67.304688 C 206.847656 67.4375 206.578125 67.691406 206.382812 67.980469 C 205.863281 68.097656 205.261719 68.25 204.542969 68.464844 C 204.429688 68.484375 204.292969 68.539062 204.195312 68.597656 C 204.136719 68.636719 204.097656 68.65625 204.042969 68.695312 C 203.90625 68.636719 203.769531 68.617188 203.617188 68.617188 C 203.226562 68.503906 202.800781 68.503906 202.414062 68.675781 C 198.910156 70.183594 197.574219 71.152344 196.488281 72.003906 L 196.023438 72.410156 C 195.425781 72.914062 194.84375 73.394531 193.449219 74.265625 C 193.101562 74.460938 192.714844 74.691406 192.230469 75.019531 L 191.707031 75.371094 C 191.570312 75.445312 191.457031 75.5625 191.359375 75.679688 C 190.933594 75.988281 190.527344 76.335938 189.847656 76.917969 C 189.75 76.992188 189.695312 77.070312 189.617188 77.167969 C 188.996094 77.632812 188.320312 78.210938 187.875 78.910156 C 187.757812 79.082031 187.699219 79.277344 187.660156 79.46875 L 186.460938 86.433594 C 186.246094 86.664062 186.09375 86.9375 186.035156 87.246094 C 185.492188 90.109375 185.414062 91.464844 185.433594 92.429688 C 185.222656 93.570312 184.988281 94.710938 184.699219 95.894531 C 184.640625 96.144531 184.660156 96.394531 184.71875 96.648438 L 184.96875 97.652344 C 184.96875 97.710938 184.96875 97.769531 184.96875 97.828125 C 184.464844 98.949219 184.078125 100.652344 183.515625 103.222656 C 183.34375 103.996094 183.167969 104.828125 182.976562 105.640625 C 182.957031 105.699219 182.957031 105.757812 182.9375 105.796875 L 182.046875 112.972656 C 182.046875 112.972656 182.046875 112.992188 182.046875 112.992188 C 182.046875 113.011719 182.046875 113.011719 182.046875 113.03125 C 182.027344 113.070312 182.027344 113.109375 182.027344 113.148438 C 181.753906 113.398438 181.582031 113.746094 181.542969 114.132812 C 181.367188 115.914062 181.386719 116.242188 181.464844 116.765625 C 181.484375 116.898438 181.503906 117.074219 181.503906 117.480469 L 181.195312 120.382812 L 180.089844 121.347656 L 177.863281 123.707031 C 176.625 124.753906 175.851562 125.21875 175.015625 125.71875 C 173.972656 126.359375 172.886719 127.015625 171.085938 128.738281 L 170.621094 129.183594 C 169.671875 130.109375 168.957031 130.808594 166.828125 132.933594 L 161.308594 138.507812 C 160.921875 138.875 160.765625 139.414062 160.882812 139.9375 C 160.980469 140.460938 161.347656 140.90625 161.851562 141.117188 L 168.976562 144.175781 L 179.683594 148.46875 C 184.253906 150.519531 188.183594 152.164062 192.441406 153.789062 L 197.1875 155.566406 L 193.742188 159.550781 C 193.683594 159.609375 193.644531 159.667969 193.605469 159.746094 C 193.21875 160.34375 192.539062 161.023438 191.785156 161.796875 L 191.378906 162.203125 C 190.796875 162.78125 190.195312 163.421875 189.597656 164.136719 C 189.210938 164.601562 189.113281 165.21875 189.34375 165.742188 C 189.132812 165.933594 188.976562 166.089844 188.824219 166.207031 C 188.550781 166.4375 188.378906 166.765625 188.320312 167.097656 C 188.261719 167.210938 188.085938 167.539062 187.523438 168.410156 C 186.730469 169.089844 185.453125 170.382812 184.117188 171.757812 C 183.015625 172.898438 181.851562 174.078125 181.269531 174.582031 C 181.136719 174.699219 181.019531 174.851562 180.921875 175.007812 L 180.070312 175.859375 C 179.78125 176.167969 179.625 176.574219 179.625 176.980469 C 179.21875 177.386719 178.8125 177.792969 178.578125 177.96875 C 178.058594 178.355469 177.84375 179.011719 178 179.609375 C 177.863281 179.824219 177.746094 180.035156 177.667969 180.210938 C 177.050781 180.734375 176.855469 180.808594 176.625 180.90625 C 176.488281 180.964844 176.316406 181.042969 176.082031 181.179688 C 175.578125 181.234375 175.152344 181.546875 174.648438 182.027344 C 174.496094 182.105469 174.359375 182.222656 174.222656 182.359375 L 173.796875 182.839844 C 173.757812 182.878906 173.699219 182.9375 173.660156 183.015625 L 173.234375 183.441406 C 172.945312 183.730469 172.789062 184.117188 172.789062 184.484375 C 172.421875 184.871094 172.074219 185.203125 171.878906 185.355469 C 171.648438 185.53125 171.453125 185.78125 171.359375 186.03125 C 171.320312 186.089844 171.261719 186.148438 171.183594 186.207031 C 170.429688 186.207031 169.828125 186.730469 168.917969 187.503906 C 168.859375 187.5625 168.800781 187.621094 168.722656 187.695312 L 165.007812 192.164062 C 164.503906 192.785156 164.542969 193.671875 165.085938 194.273438 L 165.722656 194.96875 C 165.898438 195.164062 166.128906 195.296875 166.363281 195.394531 L 167.253906 196.535156 C 167.3125 196.769531 167.40625 197 167.5625 197.214844 L 168.394531 198.375 C 168.453125 198.453125 168.511719 198.527344 168.589844 198.605469 L 171.765625 202.667969 C 171.917969 202.84375 172.09375 202.996094 172.304688 203.113281 L 173.195312 203.597656 C 173.234375 203.65625 173.253906 203.714844 173.3125 203.75 L 177.089844 208.683594 C 177.207031 208.820312 177.339844 208.9375 177.496094 209.050781 C 177.554688 209.148438 177.613281 209.265625 177.667969 209.34375 C 177.726562 209.535156 177.804688 209.691406 177.902344 209.824219 L 173.914062 215.589844 C 173.699219 215.898438 173.605469 216.246094 173.640625 216.613281 C 173.546875 217.058594 172.984375 218.238281 172.597656 219.03125 L 171.394531 220.949219 C 171.203125 221.238281 171.105469 221.585938 171.144531 221.933594 C 171.027344 222.339844 170.542969 223.386719 170.195312 224.101562 C 169.730469 225.105469 169.1875 226.25 168.859375 227.234375 C 168.609375 228.007812 168.976562 228.839844 169.75 229.207031 C 169.886719 229.265625 170.042969 229.324219 170.175781 229.34375 L 159.835938 249.285156 C 159.527344 249.886719 159.625 250.640625 160.128906 251.144531 C 160.359375 251.394531 160.667969 251.550781 161 251.625 C 161.328125 251.683594 161.695312 251.664062 162.023438 251.511719 C 162.121094 251.472656 169.652344 248.261719 180.863281 242.535156 C 181 242.613281 181.15625 242.671875 181.289062 242.691406 C 181.640625 242.765625 182.140625 242.882812 184.214844 242.03125 C 184.273438 242.011719 184.3125 241.992188 184.371094 241.972656 L 184.890625 241.722656 C 185.144531 241.625 185.394531 241.511719 185.648438 241.394531 C 187.71875 240.445312 188.746094 239.730469 189.867188 238.976562 C 189.964844 238.917969 190.0625 238.839844 190.179688 238.78125 C 190.390625 238.761719 190.605469 238.726562 190.816406 238.648438 C 192.675781 237.875 194.03125 237.175781 195.191406 236.402344 L 195.40625 236.308594 C 195.65625 236.171875 196.023438 235.996094 196.335938 235.84375 C 196.703125 235.882812 197.070312 235.804688 197.378906 235.589844 C 198.773438 234.71875 199.570312 234.21875 199.9375 233.714844 C 200.808594 233.484375 201.96875 232.882812 203.90625 231.761719 C 204.253906 231.78125 204.601562 231.683594 204.914062 231.488281 C 206.171875 230.640625 206.964844 230.117188 207.371094 229.632812 C 207.777344 229.402344 208.164062 229.167969 208.535156 228.976562 C 208.667969 228.898438 208.824219 228.820312 208.941406 228.761719 C 209.210938 228.761719 209.480469 228.703125 209.734375 228.589844 L 212.308594 227.390625 C 212.484375 227.292969 212.636719 227.195312 212.773438 227.058594 C 212.929688 226.90625 213.257812 226.578125 213.414062 226.113281 L 215.464844 224.816406 C 216.375 224.390625 216.917969 224.121094 217.226562 223.8125 C 217.285156 223.773438 217.324219 223.753906 217.382812 223.714844 C 217.652344 223.714844 217.945312 223.65625 218.195312 223.519531 L 220.945312 222.109375 C 221.117188 222.011719 221.273438 221.894531 221.390625 221.761719 C 221.621094 221.507812 222.144531 220.949219 222.085938 220.15625 C 222.085938 220.15625 222.105469 220.136719 222.125 220.136719 C 224.992188 218.027344 226.054688 217.253906 226.347656 216.578125 L 226.445312 216.519531 C 227.003906 216.132812 227.238281 215.492188 227.121094 214.894531 C 227.335938 214.738281 227.566406 214.585938 227.78125 214.429688 C 238.894531 206.554688 248.652344 198.507812 256.824219 190.445312 C 257.460938 190.230469 258.179688 189.59375 259.667969 188.277344 L 259.6875 188.257812 C 259.921875 188.179688 260.132812 188.0625 260.308594 187.890625 C 260.308594 187.890625 261.042969 187.25 261.703125 186.574219 L 263.039062 185.277344 C 263.15625 185.164062 263.269531 185.027344 263.328125 184.871094 C 263.871094 184.390625 264.394531 183.925781 264.917969 183.460938 C 268.769531 180.035156 272.082031 177.078125 275.410156 171.933594 C 277 169.746094 278.46875 167.152344 279.902344 164.640625 L 280 164.464844 C 281.375 162.355469 282.941406 159.863281 284.105469 156.804688 C 284.820312 155.296875 285.382812 153.632812 285.90625 152.027344 C 286.136719 151.3125 286.371094 150.613281 286.621094 149.898438 C 286.640625 149.859375 286.660156 149.804688 286.679688 149.746094 C 286.835938 149.066406 287.007812 148.371094 287.203125 147.695312 C 287.648438 145.933594 288.113281 144.097656 288.34375 142.355469 " fill-opacity="1" fill-rule="nonzero"/></g><path fill="#ffffff" d="M 139.082031 64.402344 C 135.207031 62.429688 130.484375 61.847656 125.546875 62.136719 C 112.960938 59.972656 95.574219 62.875 88.488281 66.085938 C 74.140625 72.5625 69.007812 81.132812 66.511719 95.46875 C 70.808594 97.515625 75.203125 97.554688 78.902344 95.136719 C 77.449219 104.828125 72.726562 121.058594 88.15625 122.875 C 91.71875 110.1875 91.140625 97.671875 101.226562 88.40625 C 110.617188 79.78125 119.835938 80.398438 132.128906 80.03125 C 144.039062 79.664062 153.71875 71.886719 139.082031 64.402344 " fill-opacity="1" fill-rule="nonzero"/></svg>