<svg xmlns="http://www.w3.org/2000/svg" xmlns:xlink="http://www.w3.org/1999/xlink" width="400" zoomAndPan="magnify" viewBox="0 0 300 299.999988" height="400" preserveAspectRatio="xMidYMid meet" version="1.0"><path fill="#000000" d="M 86.875 141.800781 C 87.679688 142.9375 89.578125 142.972656 89.296875 145.195312 C 88.46875 147.113281 87.53125 148.921875 86.875 151.019531 C 99.316406 154.742188 115.292969 153.230469 126.550781 155.382812 C 125.558594 151.367188 124.667969 147.25 123.164062 143.742188 C 122.261719 143.277344 121.546875 145.195312 121.230469 143.742188 C 119.292969 137.824219 109.363281 142.855469 106.230469 138.40625 C 104.566406 132.871094 110.21875 130.875 111.554688 126.765625 C 109.640625 123.515625 108.546875 119.4375 105.75 117.066406 C 98.832031 124.683594 93.988281 134.375 86.875 141.800781 Z M 224.289062 95.242188 C 199.015625 99.5625 176.707031 107.433594 154.613281 115.128906 C 149.792969 116.804688 143.589844 118.515625 138.164062 120.945312 C 131.128906 124.097656 126.042969 130.910156 119.292969 128.707031 C 117.34375 131.652344 109.214844 131.15625 108.652344 136.949219 C 124.496094 140.820312 135.070312 133.511719 148.328125 129.191406 C 157.804688 126.105469 166.921875 122.507812 175.421875 119.492188 C 194.554688 112.699219 213.753906 109.742188 233 103.488281 C 234.390625 100.882812 237.210938 99.207031 235.902344 95.242188 C 231.347656 95.378906 227.257812 90.292969 224.289062 95.242188 Z M 113.007812 92.8125 C 109.535156 92.589844 107.074219 90.714844 103.8125 90.390625 C 87.964844 88.8125 79.542969 95.632812 73.332031 105.425781 C 73.578125 117.09375 63.792969 108.40625 59.296875 106.394531 C 45.648438 100.292969 27.734375 107.003906 21.074219 115.613281 C 10.386719 129.417969 7.800781 151.378906 17.199219 167.023438 C 24.222656 178.707031 35.578125 185.917969 49.617188 191.273438 C 63.617188 196.613281 77.460938 203.300781 92.199219 205.339844 C 102.414062 191.328125 107.917969 172.59375 116.394531 156.839844 C 108.101562 155.988281 98.328125 154.609375 90.261719 155.867188 C 91.199219 156.546875 93.222656 156.132812 92.683594 158.292969 C 91.527344 160.851562 89.128906 162.164062 86.875 163.628906 C 79.828125 159.195312 83.441406 151.953125 85.90625 145.195312 C 80.652344 144.855469 75.757812 133.933594 81.554688 129.191406 C 82.953125 130.214844 83.492188 132.101562 85.90625 132.101562 C 88.632812 129.265625 89.441406 126.640625 92.199219 122.886719 C 93.9375 120.523438 96.4375 118.785156 98.003906 116.582031 C 101.011719 112.351562 101.789062 108.292969 105.265625 106.882812 C 113.53125 103.519531 114.050781 121.769531 120.746094 123.371094 C 128.117188 113.347656 118.699219 98.996094 113.007812 92.8125 Z M 237.839844 103 C 248.429688 102.039062 254.222656 111.050781 264.449219 110.277344 C 264.355469 108.753906 262.535156 108.960938 263 106.882812 C 264.78125 105.757812 265.796875 103.863281 267.351562 102.515625 C 272.339844 102.332031 279.269531 101.226562 282.839844 98.152344 C 282.597656 96.449219 282.113281 94.992188 282.355469 92.8125 C 282.503906 91.589844 286.628906 90.003906 285.253906 90.390625 C 270.832031 95.222656 252.359375 97.039062 237.839844 103 Z M 238.804688 88.933594 C 236.042969 89.722656 233.214844 90.445312 230.582031 91.359375 C 234.289062 91.796875 240.257812 94.058594 239.289062 99.121094 C 240.972656 99.507812 241.152344 98.398438 242.679688 98.636719 C 242.230469 94.558594 240.566406 91.691406 238.804688 88.933594 Z M 270.742188 78.265625 C 270.800781 81.921875 272.097656 84.34375 272.675781 87.480469 C 271.816406 87.910156 271.449219 88.832031 269.773438 88.449219 C 268.894531 85.933594 269.496094 81.9375 268.320312 79.71875 C 265.222656 80.410156 263.746094 80.902344 260.09375 81.660156 C 259.644531 85.59375 264.640625 89.878906 261.546875 92.8125 C 257.992188 91.277344 259.867188 86.148438 257.679688 82.628906 C 255.277344 83.617188 252.179688 83.910156 249.933594 85.054688 C 250.242188 89.011719 253.71875 92.167969 252.835938 95.726562 C 247.660156 95.90625 249.925781 88.617188 247.515625 86.023438 C 245.292969 86.222656 243.828125 87.179688 241.710938 87.480469 C 242.378906 91.65625 245.464844 93.417969 245.582031 98.152344 C 258.023438 93.96875 274.191406 93.523438 284.289062 86.996094 C 284.890625 84.273438 285.550781 79.078125 282.839844 78.265625 C 282.753906 78.828125 282.070312 78.789062 281.386719 78.75 C 279.597656 80.980469 284.144531 87.175781 279.929688 87.480469 C 278.980469 81.476562 277.90625 72.65625 270.742188 78.265625 Z M 285.253906 76.324219 C 286.5 77.988281 286.546875 80.847656 287.671875 82.628906 C 287.914062 81.28125 287.910156 77.65625 287.195312 75.839844 C 286.347656 75.800781 285.683594 75.945312 285.253906 76.324219 Z M 252.835938 72.441406 C 249.992188 76.347656 246.894531 79.039062 240.742188 77.78125 C 237.164062 81.144531 233.246094 84.171875 231.0625 88.933594 C 246.519531 84.054688 262.304688 79.507812 277.03125 73.898438 C 273.859375 59.402344 260.136719 78.054688 252.835938 72.441406 Z M 283.800781 69.535156 C 299.964844 65.023438 295.914062 89.257812 290.09375 95.726562 C 289.722656 98.214844 290.933594 99.410156 290.09375 101.058594 C 285.128906 104.328125 280.390625 109.300781 272.191406 107.851562 C 270.859375 110.398438 270.449219 113.863281 269.773438 117.066406 C 258.359375 119.144531 248.292969 112.742188 240.257812 108.335938 C 203.335938 118.019531 163.027344 128.152344 130.421875 143.742188 C 130.832031 149.15625 133.542969 152.253906 133.8125 157.808594 C 131.273438 161.460938 128.03125 162.34375 122.195312 161.6875 C 112.328125 176.367188 108.800781 197.410156 97.523438 210.671875 C 90.285156 214.339844 85.320312 211.054688 77.683594 209.21875 C 73.332031 208.175781 68.597656 208.300781 64.621094 207.28125 C 61.351562 206.441406 57.582031 204.363281 53.972656 202.914062 C 35.277344 195.410156 17.117188 186.414062 8.976562 167.507812 C 6.664062 162.128906 3.804688 156.511719 3.171875 151.503906 C 0.015625 126.53125 13.335938 110.808594 31.71875 102.03125 C 42.507812 96.878906 55.09375 95.578125 68.007812 102.03125 C 74.859375 90.777344 90.269531 82.355469 107.199219 85.539062 C 114.761719 86.964844 120.144531 90.390625 124.132812 97.179688 C 127.402344 102.742188 129.257812 109.777344 128.488281 118.519531 C 139.675781 111.296875 152.519531 108.652344 165.746094 104.457031 C 174.238281 101.757812 181.738281 98.777344 191.386719 96.695312 C 200.628906 94.699219 209.90625 92.390625 219.449219 90.390625 C 221.128906 89.320312 222.386719 87.832031 224.289062 86.996094 C 227.851562 78.4375 235.5 73.980469 241.222656 67.59375 C 248.667969 68.65625 251.78125 60.964844 257.679688 66.140625 C 266.289062 61.207031 279.753906 59.085938 283.800781 69.535156 " fill-opacity="1" fill-rule="evenodd"/><path fill="#efe97f" d="M 277.03125 73.898438 C 262.304688 79.507812 246.519531 84.054688 231.0625 88.933594 C 233.246094 84.171875 237.164062 81.144531 240.742188 77.78125 C 246.894531 79.039062 249.992188 76.347656 252.835938 72.441406 C 260.136719 78.054688 273.859375 59.402344 277.03125 73.898438 " fill-opacity="1" fill-rule="evenodd"/><path fill="#c6ba87" d="M 287.195312 75.839844 C 287.910156 77.65625 287.914062 81.28125 287.671875 82.628906 C 286.546875 80.847656 286.5 77.988281 285.253906 76.324219 C 285.683594 75.945312 286.347656 75.800781 287.195312 75.839844 " fill-opacity="1" fill-rule="evenodd"/><path fill="#efe9cb" d="M 279.929688 87.480469 C 284.144531 87.175781 279.597656 80.980469 281.386719 78.75 C 282.070312 78.789062 282.753906 78.828125 282.839844 78.265625 C 285.550781 79.078125 284.890625 84.273438 284.289062 86.996094 C 274.191406 93.523438 258.023438 93.96875 245.582031 98.152344 C 245.464844 93.417969 242.378906 91.65625 241.710938 87.480469 C 243.828125 87.179688 245.292969 86.222656 247.515625 86.023438 C 249.925781 88.617188 247.660156 95.90625 252.835938 95.726562 C 253.71875 92.167969 250.242188 89.011719 249.933594 85.054688 C 252.179688 83.910156 255.277344 83.617188 257.679688 82.628906 C 259.867188 86.148438 257.992188 91.277344 261.546875 92.8125 C 264.640625 89.878906 259.644531 85.59375 260.09375 81.660156 C 263.746094 80.902344 265.222656 80.410156 268.320312 79.71875 C 269.496094 81.9375 268.894531 85.933594 269.773438 88.449219 C 271.449219 88.832031 271.816406 87.910156 272.675781 87.480469 C 272.097656 84.34375 270.800781 81.921875 270.742188 78.265625 C 277.90625 72.65625 278.980469 81.476562 279.929688 87.480469 " fill-opacity="1" fill-rule="evenodd"/><path fill="#000000" d="M 145.425781 95.726562 C 147.640625 95.085938 147.429688 94.890625 149.777344 94.757812 C 149.421875 93.011719 148.820312 91.511719 146.390625 91.84375 C 146.316406 93.386719 145.292969 93.976562 145.425781 95.726562 Z M 152.679688 96.695312 C 149 97.53125 145.480469 98.53125 143.003906 100.574219 C 142.304688 96.328125 142.601562 91.257812 145.910156 88.933594 C 150.003906 89.679688 152.933594 91.59375 152.679688 96.695312 " fill-opacity="1" fill-rule="evenodd"/><path fill="#efe9cb" d="M 242.679688 98.636719 C 241.152344 98.398438 240.972656 99.507812 239.289062 99.121094 C 240.257812 94.058594 234.289062 91.796875 230.582031 91.359375 C 233.214844 90.445312 236.042969 89.722656 238.804688 88.933594 C 240.566406 91.691406 242.230469 94.558594 242.679688 98.636719 " fill-opacity="1" fill-rule="evenodd"/><path fill="#ea2a2a" d="M 99.941406 165.566406 C 99.867188 166.773438 100.703125 167.070312 100.910156 167.996094 C 102.277344 168.394531 102.160156 167.3125 103.328125 167.507812 C 103.765625 164.5625 101.277344 164.289062 99.941406 165.566406 Z M 97.039062 168.964844 C 97.445312 166.785156 98.480469 165.238281 98.972656 163.144531 C 96.105469 157.785156 91.601562 168.9375 97.039062 168.964844 Z M 50.101562 153.925781 C 53.207031 154.125 53.394531 151.40625 53.488281 148.59375 C 53.003906 148.59375 52.523438 148.59375 52.039062 148.59375 C 51.554688 150.390625 49.285156 152.371094 50.101562 153.925781 Z M 47.683594 143.257812 C 49.03125 141.375 49.011719 138.121094 50.101562 135.980469 C 45.230469 134.683594 45.621094 141.601562 47.683594 143.257812 Z M 88.8125 113.183594 C 89.941406 113.183594 91.070312 113.183594 92.199219 113.183594 C 92.007812 111.4375 91.414062 110.09375 89.777344 109.789062 C 89.140625 110.601562 88.5 111.414062 88.8125 113.183594 Z M 93.167969 105.910156 C 93.167969 106.558594 93.167969 107.207031 93.167969 107.851562 C 94.691406 107.617188 94.261719 109.339844 96.070312 108.820312 C 97.03125 107.90625 96.308594 106.53125 96.070312 105.425781 C 94.878906 105.363281 93.738281 105.351562 93.167969 105.910156 Z M 120.746094 123.371094 C 114.050781 121.769531 113.53125 103.519531 105.265625 106.882812 C 101.789062 108.292969 101.011719 112.351562 98.003906 116.582031 C 96.4375 118.785156 93.9375 120.523438 92.199219 122.886719 C 89.441406 126.640625 88.632812 129.265625 85.90625 132.101562 C 83.492188 132.101562 82.953125 130.214844 81.554688 129.191406 C 75.757812 133.933594 80.652344 144.855469 85.90625 145.195312 C 83.441406 151.953125 79.828125 159.195312 86.875 163.628906 C 89.128906 162.164062 91.527344 160.851562 92.683594 158.292969 C 93.222656 156.132812 91.199219 156.546875 90.261719 155.867188 C 98.328125 154.609375 108.101562 155.988281 116.394531 156.839844 C 107.917969 172.59375 102.414062 191.328125 92.199219 205.339844 C 77.460938 203.300781 63.617188 196.613281 49.617188 191.273438 C 35.578125 185.917969 24.222656 178.707031 17.199219 167.023438 C 7.800781 151.378906 10.386719 129.417969 21.074219 115.613281 C 27.734375 107.003906 45.648438 100.292969 59.296875 106.394531 C 63.792969 108.40625 73.578125 117.09375 73.332031 105.425781 C 79.542969 95.632812 87.964844 88.8125 103.8125 90.390625 C 107.074219 90.714844 109.535156 92.589844 113.007812 92.8125 C 118.699219 98.996094 128.117188 113.347656 120.746094 123.371094 " fill-opacity="1" fill-rule="evenodd"/><path fill="#b70d0d" d="M 146.390625 91.84375 C 148.820312 91.511719 149.421875 93.011719 149.777344 94.757812 C 147.429688 94.890625 147.640625 95.085938 145.425781 95.726562 C 145.292969 93.976562 146.316406 93.386719 146.390625 91.84375 " fill-opacity="1" fill-rule="evenodd"/><path fill="#c6ba87" d="M 152.199219 120.460938 C 143.988281 123.386719 133.277344 126.53125 128.972656 131.132812 C 129.957031 131.273438 130.261719 132.105469 130.90625 132.585938 C 136.34375 129.113281 142.566406 125.371094 149.296875 122.886719 C 154.777344 120.863281 160.902344 120.152344 166.230469 117.550781 C 162.320312 114.53125 156.925781 118.777344 152.199219 120.460938 Z M 175.421875 110.277344 C 176.894531 114.074219 182.882812 109.933594 184.613281 109.304688 C 189.074219 107.691406 196.351562 107.914062 198.164062 103.96875 C 190.082031 105.570312 182.667969 107.84375 175.421875 110.277344 Z M 200.582031 108.335938 C 205.648438 109.421875 212.957031 106.824219 216.550781 103.488281 C 216.445312 103.109375 216.539062 102.53125 216.0625 102.515625 C 211.742188 106.007812 204.453125 105.417969 200.582031 108.335938 Z M 221.875 99.121094 C 223.871094 100.039062 229.289062 98.984375 227.675781 96.210938 C 224.519531 95.953125 222.492188 96.832031 221.875 99.121094 Z M 235.902344 95.242188 C 237.210938 99.207031 234.390625 100.882812 233 103.488281 C 213.753906 109.742188 194.554688 112.699219 175.421875 119.492188 C 166.921875 122.507812 157.804688 126.105469 148.328125 129.191406 C 135.070312 133.511719 124.496094 140.820312 108.652344 136.949219 C 109.214844 131.15625 117.34375 131.652344 119.292969 128.707031 C 126.042969 130.910156 131.128906 124.097656 138.164062 120.945312 C 143.589844 118.515625 149.792969 116.804688 154.613281 115.128906 C 176.707031 107.433594 199.015625 99.5625 224.289062 95.242188 C 227.257812 90.292969 231.347656 95.378906 235.902344 95.242188 " fill-opacity="1" fill-rule="evenodd"/><path fill="#000000" d="M 227.675781 96.210938 C 229.289062 98.984375 223.871094 100.039062 221.875 99.121094 C 222.492188 96.832031 224.519531 95.953125 227.675781 96.210938 " fill-opacity="1" fill-rule="evenodd"/><path fill="#000000" d="M 216.0625 102.515625 C 216.539062 102.53125 216.445312 103.109375 216.550781 103.488281 C 212.957031 106.824219 205.648438 109.421875 200.582031 108.335938 C 204.453125 105.417969 211.742188 106.007812 216.0625 102.515625 " fill-opacity="1" fill-rule="evenodd"/><path fill="#000000" d="M 198.164062 103.96875 C 196.351562 107.914062 189.074219 107.691406 184.613281 109.304688 C 182.882812 109.933594 176.894531 114.074219 175.421875 110.277344 C 182.667969 107.84375 190.082031 105.570312 198.164062 103.96875 " fill-opacity="1" fill-rule="evenodd"/><path fill="#000000" d="M 96.070312 105.425781 C 96.308594 106.53125 97.03125 107.90625 96.070312 108.820312 C 94.261719 109.339844 94.691406 107.617188 93.167969 107.851562 C 93.167969 107.207031 93.167969 106.558594 93.167969 105.910156 C 93.738281 105.351562 94.878906 105.363281 96.070312 105.425781 " fill-opacity="1" fill-rule="evenodd"/><path fill="#000000" d="M 89.777344 109.789062 C 91.414062 110.09375 92.007812 111.4375 92.199219 113.183594 C 91.070312 113.183594 89.941406 113.183594 88.8125 113.183594 C 88.5 111.414062 89.140625 110.601562 89.777344 109.789062 " fill-opacity="1" fill-rule="evenodd"/><path fill="#000000" d="M 166.230469 117.550781 C 160.902344 120.152344 154.777344 120.863281 149.296875 122.886719 C 142.566406 125.371094 136.34375 129.113281 130.90625 132.585938 C 130.261719 132.105469 129.957031 131.273438 128.972656 131.132812 C 133.277344 126.53125 143.988281 123.386719 152.199219 120.460938 C 156.925781 118.777344 162.320312 114.53125 166.230469 117.550781 " fill-opacity="1" fill-rule="evenodd"/><path fill="#d3d1c5" d="M 101.875 148.59375 C 102.835938 147.933594 103.757812 147.246094 103.328125 145.195312 C 102.660156 145.21875 102.265625 144.964844 101.875 144.714844 C 100.875 146.386719 100.007812 147.277344 101.875 148.59375 Z M 97.039062 140.347656 C 97.953125 140.238281 98.105469 140.894531 98.972656 140.832031 C 99.691406 139.375 100.238281 137.96875 98.488281 136.949219 C 97.53125 137.609375 96.605469 138.296875 97.039062 140.347656 Z M 105.75 117.066406 C 108.546875 119.4375 109.640625 123.515625 111.554688 126.765625 C 110.21875 130.875 104.566406 132.871094 106.230469 138.40625 C 109.363281 142.855469 119.292969 137.824219 121.230469 143.742188 C 121.546875 145.195312 122.261719 143.277344 123.164062 143.742188 C 124.667969 147.25 125.558594 151.367188 126.550781 155.382812 C 115.292969 153.230469 99.316406 154.742188 86.875 151.019531 C 87.53125 148.921875 88.46875 147.113281 89.296875 145.195312 C 89.578125 142.972656 87.679688 142.9375 86.875 141.800781 C 93.988281 134.375 98.832031 124.683594 105.75 117.066406 " fill-opacity="1" fill-rule="evenodd"/><path fill="#000000" d="M 50.101562 135.980469 C 49.011719 138.121094 49.03125 141.375 47.683594 143.257812 C 45.621094 141.601562 45.230469 134.683594 50.101562 135.980469 " fill-opacity="1" fill-rule="evenodd"/><path fill="#000000" d="M 98.488281 136.949219 C 100.238281 137.96875 99.691406 139.375 98.972656 140.832031 C 98.105469 140.894531 97.953125 140.238281 97.039062 140.347656 C 96.605469 138.296875 97.53125 137.609375 98.488281 136.949219 " fill-opacity="1" fill-rule="evenodd"/><path fill="#000000" d="M 101.875 144.714844 C 102.265625 144.964844 102.660156 145.21875 103.328125 145.195312 C 103.757812 147.246094 102.835938 147.933594 101.875 148.59375 C 100.007812 147.277344 100.875 146.386719 101.875 144.714844 " fill-opacity="1" fill-rule="evenodd"/><path fill="#000000" d="M 52.039062 148.59375 C 52.523438 148.59375 53.003906 148.59375 53.488281 148.59375 C 53.394531 151.40625 53.207031 154.125 50.101562 153.925781 C 49.285156 152.371094 51.554688 150.390625 52.039062 148.59375 " fill-opacity="1" fill-rule="evenodd"/><path fill="#000000" d="M 143.003906 159.265625 C 144.695312 159.34375 146.101562 159.132812 146.875 158.292969 C 145.859375 157.210938 145.261719 155.703125 143.003906 155.867188 C 142.3125 156.515625 142.3125 158.617188 143.003906 159.265625 Z M 149.777344 160.71875 C 147.304688 161.996094 141.339844 162.890625 139.617188 160.71875 C 138.050781 150.320312 150.382812 152.925781 149.777344 160.71875 " fill-opacity="1" fill-rule="evenodd"/><path fill="#b70d0d" d="M 143.003906 155.867188 C 145.261719 155.703125 145.859375 157.210938 146.875 158.292969 C 146.101562 159.132812 144.695312 159.34375 143.003906 159.265625 C 142.3125 158.617188 142.3125 156.515625 143.003906 155.867188 " fill-opacity="1" fill-rule="evenodd"/><path fill="#000000" d="M 98.972656 163.144531 C 98.480469 165.238281 97.445312 166.785156 97.039062 168.964844 C 91.601562 168.9375 96.105469 157.785156 98.972656 163.144531 " fill-opacity="1" fill-rule="evenodd"/><path fill="#000000" d="M 103.328125 167.507812 C 102.160156 167.3125 102.277344 168.394531 100.910156 167.996094 C 100.703125 167.070312 99.867188 166.773438 99.941406 165.566406 C 101.277344 164.289062 103.765625 164.5625 103.328125 167.507812 " fill-opacity="1" fill-rule="evenodd"/><path fill="#efe97f" d="M 285.253906 90.390625 C 286.628906 90.003906 282.503906 91.589844 282.355469 92.8125 C 282.113281 94.992188 282.597656 96.449219 282.839844 98.152344 C 279.269531 101.226562 272.339844 102.332031 267.351562 102.515625 C 265.796875 103.863281 264.78125 105.757812 263 106.882812 C 262.535156 108.960938 264.355469 108.753906 264.449219 110.277344 C 254.222656 111.050781 248.429688 102.039062 237.839844 103 C 252.359375 97.039062 270.832031 95.222656 285.253906 90.390625 " fill-opacity="1" fill-rule="evenodd"/></svg>