<svg xmlns="http://www.w3.org/2000/svg" xmlns:xlink="http://www.w3.org/1999/xlink" width="100" zoomAndPan="magnify" viewBox="0 0 75 74.999997" height="100" preserveAspectRatio="xMidYMid meet" version="1.0"><defs><clipPath id="b0df0a466a"><path d="M 1 9 L 74 9 L 74 69.890625 L 1 69.890625 Z M 1 9 " clip-rule="nonzero"/></clipPath></defs><g clip-path="url(#b0df0a466a)"><path fill="#da2841" d="M 61.28125 10.246094 C 43.347656 5.421875 37.511719 23.636719 37.511719 23.636719 C 37.511719 23.636719 31.671875 5.421875 13.738281 10.246094 C -3.351562 14.847656 -7.429688 50.535156 35.164062 68.914062 C 36.660156 69.558594 38.359375 69.558594 39.855469 68.914062 C 82.449219 50.535156 78.371094 14.847656 61.28125 10.246094 Z M 61.28125 10.246094 " fill-opacity="1" fill-rule="nonzero"/></g><path fill="#ffffff" d="M 20.390625 48.054688 C 21.175781 48.8125 21.199219 50.0625 20.441406 50.847656 C 20.054688 51.246094 19.539062 51.449219 19.019531 51.449219 C 18.527344 51.449219 18.03125 51.265625 17.648438 50.894531 C 9.929688 43.445312 8.035156 35.929688 7.804688 30.9375 C 7.550781 25.449219 9.191406 21.722656 9.261719 21.566406 C 9.707031 20.574219 10.878906 20.128906 11.871094 20.574219 C 12.863281 21.019531 13.308594 22.183594 12.867188 23.179688 C 12.84375 23.230469 11.503906 26.367188 11.757812 30.953125 C 12.097656 37.101562 15.003906 42.855469 20.390625 48.054688 Z M 23.363281 51.074219 C 22.226562 51.074219 21.300781 52 21.300781 53.136719 C 21.300781 54.277344 22.226562 55.203125 23.363281 55.203125 C 24.503906 55.203125 25.429688 54.277344 25.429688 53.136719 C 25.429688 52 24.503906 51.074219 23.363281 51.074219 Z M 23.363281 51.074219 " fill-opacity="1" fill-rule="nonzero"/></svg>