<svg xmlns="http://www.w3.org/2000/svg" xmlns:xlink="http://www.w3.org/1999/xlink" width="100" zoomAndPan="magnify" viewBox="0 0 75 74.999997" height="100" preserveAspectRatio="xMidYMid meet" version="1.0"><defs><clipPath id="a550315439"><path d="M 3.617188 10 L 70 10 L 70 68 L 3.617188 68 Z M 3.617188 10 " clip-rule="nonzero"/></clipPath><clipPath id="b619b8d5c2"><path d="M 3.617188 10 L 70 10 L 70 68 L 3.617188 68 Z M 3.617188 10 " clip-rule="nonzero"/></clipPath></defs><g clip-path="url(#a550315439)"><path fill="#000000" d="M 18.894531 51.007812 C 22.441406 54.175781 25.925781 57.457031 29.785156 60.25 C 31.164062 61.25 37.078125 64.867188 36.398438 66.996094 C 36.167969 67.722656 37.300781 68.214844 37.640625 67.523438 C 39.238281 64.238281 41.761719 61.636719 44.417969 59.183594 C 47.320312 56.503906 50.285156 53.90625 53.164062 51.199219 C 57.910156 46.742188 63.621094 42.953125 67.199219 37.414062 C 74.886719 25.53125 64.054688 11.324219 51.117188 10.824219 C 46.84375 10.878906 43.289062 12.539062 40.644531 15.917969 C 39.789062 17.011719 38.949219 18.113281 38.109375 19.222656 C 37.703125 19.75 37.140625 20.347656 36.691406 20.972656 C 32 14.550781 24.5 8.792969 16.167969 10.265625 C 7.941406 11.726562 3.632812 20.210938 3.960938 27.933594 C 4.378906 37.621094 12.160156 44.996094 18.894531 51.007812 " fill-opacity="1" fill-rule="nonzero"/></g><path fill="#ff0d0d" d="M 16.894531 44.953125 C 16.980469 44.855469 15.757812 43.910156 14.109375 42.140625 C 13.902344 41.910156 13.691406 41.679688 13.464844 41.429688 C 13.246094 41.1875 13.042969 40.910156 12.8125 40.632812 C 12.347656 40.089844 11.914062 39.460938 11.449219 38.8125 C 10.558594 37.476562 9.65625 35.957031 8.9375 34.261719 C 8.226562 32.5625 7.75 30.867188 7.46875 29.296875 C 7.382812 28.503906 7.25 27.757812 7.253906 27.042969 C 7.242188 26.695312 7.214844 26.351562 7.21875 26.023438 C 7.242188 25.691406 7.261719 25.378906 7.277344 25.074219 C 7.28125 24.464844 7.402344 23.933594 7.464844 23.457031 C 7.503906 23.21875 7.527344 22.992188 7.5625 22.789062 C 7.613281 22.589844 7.65625 22.40625 7.699219 22.242188 C 7.855469 21.578125 7.917969 21.199219 7.871094 21.179688 C 7.820312 21.160156 7.660156 21.511719 7.414062 22.160156 C 7.355469 22.320312 7.285156 22.503906 7.210938 22.703125 C 7.152344 22.902344 7.105469 23.128906 7.050781 23.371094 C 6.941406 23.855469 6.785156 24.398438 6.742188 25.019531 C 6.707031 25.332031 6.671875 25.660156 6.632812 25.996094 C 6.617188 26.335938 6.625 26.695312 6.621094 27.0625 C 6.589844 27.796875 6.707031 28.578125 6.777344 29.398438 C 7.03125 31.03125 7.5 32.800781 8.234375 34.558594 C 8.980469 36.3125 9.929688 37.871094 10.871094 39.214844 C 11.367188 39.871094 11.832031 40.5 12.328125 41.039062 C 12.574219 41.3125 12.792969 41.582031 13.035156 41.828125 C 13.269531 42.066406 13.503906 42.296875 13.722656 42.511719 C 14.152344 42.957031 14.597656 43.3125 14.972656 43.632812 C 15.164062 43.792969 15.339844 43.941406 15.5 44.070312 C 15.671875 44.191406 15.828125 44.304688 15.972656 44.40625 C 16.535156 44.796875 16.863281 44.996094 16.894531 44.953125 Z M 41.292969 20.414062 C 42.359375 19.242188 42.921875 18.425781 42.84375 18.363281 C 42.757812 18.292969 42.066406 18.972656 40.910156 20.035156 C 40.335938 20.574219 39.640625 21.203125 38.898438 21.953125 C 38.175781 22.683594 37.390625 23.515625 36.714844 24.515625 C 35.28125 22.949219 33.910156 21.609375 32.808594 20.71875 C 31.621094 19.789062 30.828125 19.308594 30.773438 19.378906 C 30.699219 19.464844 31.378906 20.09375 32.46875 21.125 C 33.523438 22.15625 34.9375 23.65625 36.464844 25.378906 L 36.789062 25.738281 L 37.070312 25.324219 L 37.296875 25.007812 C 37.945312 24.039062 38.710938 23.199219 39.402344 22.4375 C 40.117188 21.675781 40.753906 20.992188 41.292969 20.414062 Z M 41.609375 57.730469 C 43.460938 55.273438 44.820312 53.183594 44.648438 53.066406 C 44.476562 52.949219 42.847656 54.824219 41.011719 57.261719 C 39.113281 59.671875 37.710938 61.726562 37.878906 61.855469 C 38.046875 61.984375 39.71875 60.140625 41.609375 57.730469 Z M 65.523438 32.148438 C 66.257812 29.667969 66.1875 27.121094 65.59375 24.976562 C 65.019531 22.816406 63.921875 21.066406 62.925781 19.765625 C 61.925781 18.402344 60.753906 17.597656 59.90625 17.21875 C 59.691406 17.125 59.503906 17.03125 59.332031 16.976562 C 59.160156 16.925781 59.015625 16.878906 58.894531 16.851562 C 58.660156 16.78125 58.53125 16.761719 58.523438 16.785156 C 58.515625 16.8125 58.628906 16.878906 58.839844 16.988281 C 58.949219 17.042969 59.082031 17.105469 59.242188 17.183594 C 59.402344 17.261719 59.570312 17.371094 59.765625 17.480469 C 60.546875 17.929688 61.589844 18.738281 62.484375 20.082031 C 62.722656 20.402344 62.949219 20.769531 63.191406 21.148438 C 63.410156 21.527344 63.65625 21.914062 63.859375 22.339844 C 64.289062 23.183594 64.65625 24.128906 64.914062 25.152344 C 65.441406 27.199219 65.488281 29.59375 64.792969 31.933594 C 64.679688 32.3125 64.5625 32.664062 64.414062 33.035156 C 64.335938 33.21875 64.261719 33.398438 64.183594 33.582031 C 64.117188 33.742188 64.015625 33.917969 63.933594 34.082031 C 63.605469 34.757812 63.167969 35.359375 62.722656 35.941406 C 61.816406 37.089844 60.824219 38.132812 60.058594 39.242188 C 59.195312 40.339844 58.507812 41.398438 57.863281 42.304688 C 57.226562 43.226562 56.597656 43.96875 56.046875 44.542969 C 55.476562 45.09375 55.007812 45.507812 54.640625 45.753906 C 54.285156 46.011719 54.105469 46.160156 54.125 46.195312 C 54.144531 46.226562 54.359375 46.132812 54.746094 45.925781 C 55.140625 45.746094 55.675781 45.367188 56.3125 44.828125 C 56.921875 44.269531 57.617188 43.539062 58.300781 42.628906 C 58.992188 41.730469 59.71875 40.691406 60.585938 39.644531 L 60.59375 39.636719 L 60.601562 39.621094 C 61.351562 38.585938 62.34375 37.578125 63.300781 36.394531 C 63.765625 35.796875 64.242188 35.15625 64.605469 34.425781 C 64.695312 34.246094 64.796875 34.074219 64.882812 33.875 C 64.957031 33.691406 65.035156 33.511719 65.113281 33.328125 C 65.261719 32.957031 65.40625 32.546875 65.523438 32.148438 Z M 67.066406 22.621094 C 70.421875 29.097656 67.464844 35.902344 62.800781 40.761719 C 60.945312 42.703125 58.828125 44.382812 56.785156 46.113281 C 54.179688 48.328125 51.71875 50.710938 49.222656 53.050781 C 45.117188 56.890625 40.304688 60.375 37.355469 65.242188 C 36.75 64.195312 35.671875 63.265625 34.953125 62.609375 C 32.84375 60.675781 30.417969 59.125 28.1875 57.335938 C 24.296875 54.203125 20.613281 50.78125 16.910156 47.433594 C 13.46875 44.324219 10.382812 40.808594 8.082031 36.773438 C 3.757812 29.183594 4.277344 18.386719 12.148438 13.289062 C 21.011719 7.546875 31.222656 15.324219 36.175781 22.578125 C 36.511719 23.0625 37.230469 22.992188 37.414062 22.414062 C 37.589844 21.882812 38.363281 21.125 38.726562 20.632812 C 39.5625 19.519531 40.410156 18.414062 41.265625 17.316406 C 43.804688 14.023438 46.878906 12.230469 51.117188 12.175781 C 57.921875 12.441406 63.976562 16.644531 67.066406 22.621094 " fill-opacity="1" fill-rule="nonzero"/><g clip-path="url(#b619b8d5c2)"><path fill="#000000" d="M 62.800781 40.761719 C 67.464844 35.902344 70.421875 29.097656 67.066406 22.621094 C 63.976562 16.644531 57.921875 12.441406 51.117188 12.175781 C 46.878906 12.230469 43.804688 14.023438 41.265625 17.316406 C 40.410156 18.414062 39.5625 19.519531 38.726562 20.632812 C 38.363281 21.125 37.589844 21.882812 37.414062 22.414062 C 37.230469 22.992188 36.511719 23.0625 36.175781 22.578125 C 31.222656 15.324219 21.011719 7.546875 12.148438 13.289062 C 4.277344 18.386719 3.757812 29.183594 8.082031 36.773438 C 10.382812 40.808594 13.46875 44.324219 16.910156 47.433594 C 20.613281 50.78125 24.296875 54.203125 28.1875 57.335938 C 30.417969 59.125 32.84375 60.675781 34.953125 62.609375 C 35.671875 63.265625 36.75 64.195312 37.355469 65.242188 C 40.304688 60.375 45.117188 56.890625 49.222656 53.050781 C 51.71875 50.710938 54.179688 48.328125 56.785156 46.113281 C 58.828125 44.382812 60.945312 42.703125 62.800781 40.761719 Z M 51.117188 10.824219 C 64.054688 11.324219 74.886719 25.53125 67.199219 37.414062 C 63.621094 42.953125 57.910156 46.742188 53.164062 51.199219 C 50.285156 53.90625 47.320312 56.503906 44.417969 59.183594 C 41.761719 61.636719 39.238281 64.238281 37.640625 67.523438 C 37.300781 68.214844 36.167969 67.722656 36.398438 66.996094 C 37.078125 64.867188 31.164062 61.25 29.785156 60.25 C 25.925781 57.457031 22.441406 54.175781 18.894531 51.007812 C 12.160156 44.996094 4.378906 37.621094 3.960938 27.933594 C 3.632812 20.210938 7.941406 11.726562 16.167969 10.265625 C 24.5 8.792969 32 14.550781 36.691406 20.972656 C 37.140625 20.347656 37.703125 19.75 38.109375 19.222656 C 38.949219 18.113281 39.789062 17.011719 40.644531 15.917969 C 43.289062 12.539062 46.84375 10.878906 51.117188 10.824219 " fill-opacity="1" fill-rule="nonzero"/></g><path fill="#000000" d="M 65.59375 24.976562 C 66.1875 27.121094 66.257812 29.667969 65.523438 32.148438 C 65.40625 32.546875 65.261719 32.957031 65.113281 33.328125 C 65.035156 33.511719 64.957031 33.691406 64.882812 33.875 C 64.796875 34.074219 64.695312 34.246094 64.605469 34.425781 C 64.242188 35.15625 63.765625 35.796875 63.300781 36.394531 C 62.34375 37.578125 61.351562 38.585938 60.601562 39.621094 L 60.59375 39.636719 L 60.585938 39.644531 C 59.71875 40.691406 58.992188 41.730469 58.300781 42.628906 C 57.617188 43.539062 56.921875 44.269531 56.3125 44.828125 C 55.675781 45.367188 55.140625 45.746094 54.746094 45.925781 C 54.359375 46.132812 54.144531 46.226562 54.125 46.195312 C 54.105469 46.160156 54.285156 46.011719 54.640625 45.753906 C 55.007812 45.507812 55.476562 45.09375 56.046875 44.542969 C 56.597656 43.96875 57.226562 43.226562 57.863281 42.304688 C 58.507812 41.398438 59.195312 40.339844 60.058594 39.242188 C 60.824219 38.132812 61.816406 37.089844 62.722656 35.941406 C 63.167969 35.359375 63.605469 34.757812 63.933594 34.082031 C 64.015625 33.917969 64.117188 33.742188 64.183594 33.582031 C 64.261719 33.398438 64.335938 33.21875 64.414062 33.035156 C 64.5625 32.664062 64.679688 32.3125 64.792969 31.933594 C 65.488281 29.59375 65.441406 27.199219 64.914062 25.152344 C 64.65625 24.128906 64.289062 23.183594 63.859375 22.339844 C 63.65625 21.914062 63.410156 21.527344 63.191406 21.148438 C 62.949219 20.769531 62.722656 20.402344 62.484375 20.082031 C 61.589844 18.738281 60.546875 17.929688 59.765625 17.480469 C 59.570312 17.371094 59.402344 17.261719 59.242188 17.183594 C 59.082031 17.105469 58.949219 17.042969 58.839844 16.988281 C 58.628906 16.878906 58.515625 16.8125 58.523438 16.785156 C 58.53125 16.761719 58.660156 16.78125 58.894531 16.851562 C 59.015625 16.878906 59.160156 16.925781 59.332031 16.976562 C 59.503906 17.03125 59.691406 17.125 59.90625 17.21875 C 60.753906 17.597656 61.925781 18.402344 62.925781 19.765625 C 63.921875 21.066406 65.019531 22.816406 65.59375 24.976562 " fill-opacity="1" fill-rule="nonzero"/><path fill="#000000" d="M 44.648438 53.066406 C 44.820312 53.183594 43.460938 55.273438 41.609375 57.730469 C 39.71875 60.140625 38.046875 61.984375 37.878906 61.855469 C 37.710938 61.726562 39.113281 59.671875 41.011719 57.261719 C 42.847656 54.824219 44.476562 52.949219 44.648438 53.066406 " fill-opacity="1" fill-rule="nonzero"/><path fill="#000000" d="M 42.84375 18.363281 C 42.921875 18.425781 42.359375 19.242188 41.292969 20.414062 C 40.753906 20.992188 40.117188 21.675781 39.402344 22.4375 C 38.710938 23.199219 37.945312 24.039062 37.296875 25.007812 L 37.070312 25.324219 L 36.789062 25.738281 L 36.464844 25.378906 C 34.9375 23.65625 33.523438 22.15625 32.46875 21.125 C 31.378906 20.09375 30.699219 19.464844 30.773438 19.378906 C 30.828125 19.308594 31.621094 19.789062 32.808594 20.71875 C 33.910156 21.609375 35.28125 22.949219 36.714844 24.515625 C 37.390625 23.515625 38.175781 22.683594 38.898438 21.953125 C 39.640625 21.203125 40.335938 20.574219 40.910156 20.035156 C 42.066406 18.972656 42.757812 18.292969 42.84375 18.363281 " fill-opacity="1" fill-rule="nonzero"/><path fill="#000000" d="M 14.109375 42.140625 C 15.757812 43.910156 16.980469 44.855469 16.894531 44.953125 C 16.863281 44.996094 16.535156 44.796875 15.972656 44.40625 C 15.828125 44.304688 15.671875 44.191406 15.5 44.070312 C 15.339844 43.941406 15.164062 43.792969 14.972656 43.632812 C 14.597656 43.3125 14.152344 42.957031 13.722656 42.511719 C 13.503906 42.296875 13.269531 42.066406 13.035156 41.828125 C 12.792969 41.582031 12.574219 41.3125 12.328125 41.039062 C 11.832031 40.5 11.367188 39.871094 10.871094 39.214844 C 9.929688 37.871094 8.980469 36.3125 8.234375 34.558594 C 7.5 32.800781 7.03125 31.03125 6.777344 29.398438 C 6.707031 28.578125 6.589844 27.796875 6.621094 27.0625 C 6.625 26.695312 6.617188 26.335938 6.632812 25.996094 C 6.671875 25.660156 6.707031 25.332031 6.742188 25.019531 C 6.785156 24.398438 6.941406 23.855469 7.050781 23.371094 C 7.105469 23.128906 7.152344 22.902344 7.210938 22.703125 C 7.285156 22.503906 7.355469 22.320312 7.414062 22.160156 C 7.660156 21.511719 7.820312 21.160156 7.871094 21.179688 C 7.917969 21.199219 7.855469 21.578125 7.699219 22.242188 C 7.65625 22.40625 7.613281 22.589844 7.5625 22.789062 C 7.527344 22.992188 7.503906 23.21875 7.464844 23.457031 C 7.402344 23.933594 7.28125 24.464844 7.277344 25.074219 C 7.261719 25.378906 7.242188 25.691406 7.21875 26.023438 C 7.214844 26.351562 7.242188 26.695312 7.253906 27.042969 C 7.25 27.757812 7.382812 28.503906 7.46875 29.296875 C 7.75 30.867188 8.226562 32.5625 8.9375 34.261719 C 9.65625 35.957031 10.558594 37.476562 11.449219 38.8125 C 11.914062 39.460938 12.347656 40.089844 12.8125 40.632812 C 13.042969 40.910156 13.246094 41.1875 13.464844 41.429688 C 13.691406 41.679688 13.902344 41.910156 14.109375 42.140625 " fill-opacity="1" fill-rule="nonzero"/></svg>