<svg xmlns="http://www.w3.org/2000/svg" xmlns:xlink="http://www.w3.org/1999/xlink" width="400" zoomAndPan="magnify" viewBox="0 0 300 299.999988" height="400" preserveAspectRatio="xMidYMid meet" version="1.0"><defs><clipPath id="346e112481"><path d="M 259.039062 124.671875 L 269.820312 124.671875 L 269.820312 138.277344 L 259.039062 138.277344 Z M 259.039062 124.671875 " clip-rule="nonzero"/></clipPath><clipPath id="3373746bcc"><path d="M 29.824219 8.070312 L 250.160156 8.070312 L 250.160156 282.570312 L 29.824219 282.570312 Z M 29.824219 8.070312 " clip-rule="nonzero"/></clipPath></defs><path fill="#ff3600" d="M 266.875 128.660156 C 267.378906 130.527344 267.867188 134.265625 265.976562 135.285156 C 263.3125 134.339844 263.734375 130.300781 262.671875 127.753906 C 264.152344 126.898438 265.75 128.1875 266.875 128.660156 " fill-opacity="1" fill-rule="nonzero"/><g clip-path="url(#346e112481)"><path fill="#1c1c1c" d="M 262.667969 127.757812 C 263.734375 130.300781 263.3125 134.339844 265.976562 135.285156 C 267.867188 134.269531 267.378906 130.527344 266.875 128.660156 C 265.75 128.1875 264.152344 126.898438 262.667969 127.757812 Z M 268.378906 126.550781 C 271.390625 129.660156 269.671875 141.523438 263.269531 137.394531 C 260.574219 135.660156 262.015625 130.078125 259.0625 128.058594 C 260.804688 123.214844 266.382812 124.496094 268.378906 126.550781 " fill-opacity="1" fill-rule="nonzero"/></g><path fill="#ff3600" d="M 251.550781 173.234375 C 250.507812 173.476562 250.394531 172.789062 249.445312 172.933594 C 248.675781 171.265625 248.480469 169.175781 249.144531 167.515625 C 250.984375 168.382812 252.460938 169.613281 252.453125 172.332031 C 252.019531 172.5 251.71875 172.800781 251.550781 173.234375 " fill-opacity="1" fill-rule="nonzero"/><path fill="#1c1c1c" d="M 249.445312 172.933594 C 250.394531 172.789062 250.507812 173.480469 251.550781 173.234375 C 251.71875 172.800781 252.019531 172.503906 252.453125 172.332031 C 252.457031 169.613281 250.984375 168.382812 249.144531 167.515625 C 248.480469 169.175781 248.675781 171.269531 249.445312 172.933594 Z M 250.347656 162.695312 C 250.113281 166.363281 255.371094 167.988281 255.15625 172.03125 C 255.019531 174.5625 252.496094 176.585938 248.242188 175.347656 C 244.992188 173.039062 246.101562 165.5 247.945312 162.394531 C 248.808594 162.429688 249.910156 162.230469 250.347656 162.695312 " fill-opacity="1" fill-rule="nonzero"/><path fill="#ff3600" d="M 223.902344 116.3125 C 229.988281 111.773438 241.015625 116.644531 241.933594 124.441406 C 241.589844 125.40625 239.613281 124.726562 239.527344 125.949219 C 240.042969 127.992188 242.148438 126.699219 243.738281 126.550781 C 248.496094 129.015625 249.632812 136.941406 245.238281 140.40625 C 243.71875 140.613281 243.460938 139.378906 242.234375 140.105469 C 242.863281 142.542969 244.035156 142.703125 243.738281 144.621094 C 243.230469 147.878906 234.191406 152.785156 229.910156 150.347656 C 228.742188 149.679688 226.78125 146.988281 227.207031 145.222656 C 227.640625 143.417969 230.027344 143.910156 231.113281 142.214844 C 214.378906 147.71875 203.195312 161.605469 189.339844 171.128906 C 184.5625 174.410156 180.855469 178.507812 176.71875 182.273438 C 189.835938 163.890625 204.65625 147.222656 221.796875 132.875 C 221.578125 130.871094 224.074219 130.269531 225.101562 128.660156 C 223.542969 129.105469 223.054688 130.625 221.496094 131.070312 C 218.183594 127.007812 219.941406 119.261719 223.902344 116.3125 " fill-opacity="1" fill-rule="nonzero"/><path fill="#b22f2f" d="M 235.921875 214.199219 C 245.59375 232.652344 232.796875 253.773438 219.390625 261.484375 C 215.8125 263.546875 211.476562 264.585938 207.371094 266.304688 C 202.773438 268.226562 198.613281 270.703125 193.847656 272.027344 C 184.023438 274.753906 173.476562 277.460938 162.589844 278.652344 C 153.285156 279.675781 142.386719 279.777344 133.742188 278.050781 C 136.035156 275.648438 139.539062 275.730469 142.757812 274.738281 C 147.65625 273.230469 152.859375 270.585938 158.683594 269.015625 C 167.796875 266.554688 177.632812 263.136719 187.234375 260.882812 C 197.371094 258.503906 207.445312 255.230469 214.285156 251.246094 C 218.351562 248.875 223.457031 244.910156 226.003906 241.304688 C 227.742188 238.84375 229.316406 235.125 231.414062 231.667969 C 234.378906 226.78125 236.105469 221.902344 235.921875 214.199219 " fill-opacity="1" fill-rule="nonzero"/><path fill="#ea2a2a" d="M 228.710938 200.644531 C 232.460938 204.960938 234.757812 210.8125 234.121094 218.414062 C 233.496094 225.835938 229.898438 231.488281 226.304688 237.390625 C 223.148438 242.574219 217.214844 247.765625 212.480469 250.34375 C 199.648438 257.324219 183.070312 258.824219 168 264.195312 C 158.980469 267.410156 150.023438 270.265625 140.050781 273.230469 C 137.027344 274.132812 132.199219 276.640625 131.035156 275.941406 C 129.644531 275.105469 127.863281 271.261719 125.925781 268.109375 C 117.597656 254.566406 109.476562 242.332031 102.484375 227.449219 C 98.785156 219.574219 95.082031 212.121094 95.574219 201.847656 C 95.914062 194.703125 99.34375 185.574219 102.785156 181.667969 C 104.632812 179.578125 107.265625 178.730469 108.796875 176.550781 C 110.300781 176.289062 110.898438 176.289062 112.402344 176.550781 C 114.945312 183.335938 116.308594 191.308594 120.816406 196.128906 C 118.492188 198.714844 115.304688 200.441406 114.507812 204.5625 C 116.355469 203.390625 117.496094 200.652344 119.617188 198.835938 C 121.546875 197.183594 124.273438 196.480469 125.925781 194.621094 C 125.660156 193.160156 124.820312 194.140625 123.820312 194.320312 C 123.171875 187.441406 120.410156 182.679688 119.617188 175.949219 C 123.375 174.660156 128.601562 174.390625 132.839844 174.441406 C 134.089844 178.324219 133.65625 190.546875 137.046875 192.511719 C 138.414062 193.304688 141.136719 192.097656 143.058594 192.210938 C 146.800781 192.433594 149.460938 194.640625 152.371094 196.429688 C 152.234375 192.53125 146.941406 191.242188 142.757812 190.402344 C 142.507812 184.53125 141.136719 179.78125 140.652344 174.140625 C 145.046875 173.304688 147.488281 174.085938 151.171875 175.042969 C 151.4375 179.296875 152.441406 182.808594 152.074219 187.695312 C 149.460938 186.886719 146.855469 183.234375 143.355469 185.285156 C 147.625 184.902344 150.511719 190.253906 153.574219 190.402344 C 155.390625 190.492188 157.132812 188.769531 159.285156 188.296875 C 159.433594 183.796875 159.132812 178.601562 158.683594 175.648438 C 160.535156 178.308594 164.316406 179.035156 167.101562 180.765625 C 166.363281 183.707031 167.34375 186.1875 166.5 188.296875 C 166.003906 189.527344 164.675781 189.777344 163.792969 190.707031 C 161.558594 193.0625 160.480469 196.28125 159.585938 199.742188 C 162.234375 198.265625 162.457031 193.570312 165.296875 191.308594 C 167.289062 189.71875 169.976562 189.414062 172.207031 187.996094 C 172.804688 193.363281 169.226562 196.226562 169.203125 200.644531 C 171.265625 201.179688 171.8125 199.179688 173.109375 198.234375 C 179.273438 193.753906 188.238281 190.40625 198.054688 190.402344 C 209.300781 190.402344 222.863281 193.921875 228.710938 200.644531 " fill-opacity="1" fill-rule="nonzero"/><path fill="#dddddd" d="M 171.609375 136.492188 C 175.605469 141.070312 175.132812 151.417969 175.214844 156.972656 C 175.265625 160.535156 175.164062 164.140625 174.914062 168.117188 C 174.34375 177.117188 176.351562 186.394531 168.300781 187.394531 C 168.585938 177.34375 169.828125 158.425781 163.792969 150.347656 C 160.535156 150.09375 158.234375 150.796875 155.980469 151.550781 C 155 162.078125 157.558594 174.230469 157.480469 187.089844 C 156.511719 187.523438 155.253906 187.667969 154.175781 187.996094 C 153.9375 180.554688 152.945312 171.742188 151.472656 163.597656 C 150.691406 159.28125 150.269531 152.273438 147.261719 151.550781 C 143.535156 150.65625 138.683594 154.105469 136.445312 156.070312 C 137.03125 168.332031 140.191406 178.015625 140.652344 190.402344 L 137.949219 190.402344 C 136.71875 187.210938 136.066406 183.777344 135.507812 180 C 135.246094 178.210938 135.003906 176.34375 134.730469 174.390625 C 134.636719 173.738281 134.542969 173.074219 134.445312 172.40625 C 134.410156 172.179688 134.375 171.957031 134.34375 171.730469 C 133.609375 166.941406 132.617188 156.125 128.628906 155.164062 C 127.773438 154.957031 125.355469 155.484375 124.421875 155.765625 C 121.417969 156.683594 115.566406 159.109375 115.105469 162.394531 C 114.605469 165.996094 116.4375 172.109375 117.511719 176.851562 C 119.023438 183.523438 121.261719 187.367188 121.71875 194.019531 C 117.761719 188.808594 115.988281 181.90625 114.207031 173.539062 C 112.597656 165.980469 110.496094 161.085938 109.996094 153.054688 C 109.878906 151.097656 109.222656 148.429688 109.996094 146.734375 C 111.269531 143.953125 116.914062 142.742188 120.519531 141.007812 C 124.285156 139.195312 127.921875 135.445312 125.925781 129.863281 C 128.625 129.886719 130.5625 130.277344 131.9375 130.464844 C 132.632812 127.957031 126.859375 127.832031 125.324219 128.359375 C 125.050781 127.226562 124.644531 126.230469 124.421875 125.046875 C 126.328125 124.847656 129.140625 125.558594 130.132812 124.445312 C 129.078125 123.085938 126.179688 123.441406 123.820312 123.539062 C 118.582031 109.714844 111.285156 97.953125 103.386719 86.792969 C 104.542969 85.144531 106.386719 84.179688 106.992188 81.976562 C 105.109375 81.597656 103.886719 84.480469 101.882812 84.988281 C 101.503906 84.0625 100.859375 83.402344 100.382812 82.578125 C 100.324219 80.738281 103.355469 80.644531 102.484375 78.960938 C 101.101562 78.089844 100.234375 80.3125 98.878906 80.46875 C 92.191406 72.054688 86.839844 63.414062 79.34375 53.0625 C 73.695312 45.257812 66.570312 38.089844 65.21875 27.761719 C 64.625 23.214844 65.058594 17.1875 67.023438 14.507812 C 69.492188 11.136719 77.054688 9.757812 82.050781 11.796875 C 85.980469 13.402344 91.746094 18.421875 94.972656 21.4375 C 99.074219 25.273438 101.777344 30.308594 104.886719 34.085938 C 104.109375 35.3125 101.949219 35.15625 102.183594 37.398438 C 103.488281 38.289062 104.210938 36.023438 105.492188 35.894531 C 106.894531 36.59375 107.617188 37.980469 108.195312 39.507812 C 106.335938 40.554688 104.148438 41.273438 103.6875 43.722656 C 106.335938 43.769531 106.675781 41.496094 108.796875 41.011719 C 109.851562 42.121094 110.78125 43.328125 111.636719 44.605469 C 111.777344 44.816406 111.917969 45.035156 112.054688 45.25 C 112.101562 45.320312 112.148438 45.394531 112.191406 45.46875 C 112.285156 45.609375 112.375 45.757812 112.464844 45.90625 C 112.507812 45.976562 112.554688 46.050781 112.597656 46.125 C 112.730469 46.347656 112.863281 46.570312 112.996094 46.792969 C 113.082031 46.941406 113.167969 47.089844 113.253906 47.242188 C 113.683594 47.996094 114.101562 48.757812 114.511719 49.535156 C 114.59375 49.691406 114.675781 49.84375 114.757812 50 C 115.167969 50.777344 115.574219 51.5625 115.988281 52.347656 C 116.152344 52.660156 116.316406 52.976562 116.484375 53.289062 C 116.738281 53.761719 116.992188 54.230469 117.25 54.699219 C 117.335938 54.855469 117.425781 55.015625 117.511719 55.167969 C 122.921875 64.796875 127.332031 75.613281 131.335938 87.097656 C 133.839844 94.269531 136.171875 102.121094 136.445312 109.683594 C 136.542969 110.589844 138.097656 110.039062 138.246094 110.890625 C 140.65625 116.609375 142.328125 123.0625 143.355469 130.164062 C 145.253906 130.273438 146.800781 131.390625 148.167969 131.671875 C 156.269531 133.351562 166.046875 130.117188 171.609375 136.492188 " fill-opacity="1" fill-rule="nonzero"/><path fill="#1c1c1c" d="M 116.484375 53.289062 C 116.738281 53.761719 116.992188 54.234375 117.25 54.699219 C 116.992188 54.234375 116.738281 53.761719 116.484375 53.289062 " fill-opacity="1" fill-rule="nonzero"/><path fill="#1c1c1c" d="M 115.988281 52.347656 C 116.152344 52.660156 116.320312 52.976562 116.484375 53.289062 C 116.316406 52.976562 116.152344 52.660156 115.988281 52.347656 " fill-opacity="1" fill-rule="nonzero"/><path fill="#1c1c1c" d="M 114.757812 50 C 115.167969 50.777344 115.574219 51.5625 115.988281 52.347656 C 115.574219 51.5625 115.167969 50.777344 114.757812 50 " fill-opacity="1" fill-rule="nonzero"/><path fill="#1c1c1c" d="M 113.253906 47.242188 C 113.683594 47.992188 114.101562 48.757812 114.511719 49.53125 C 114.101562 48.757812 113.683594 47.992188 113.253906 47.242188 " fill-opacity="1" fill-rule="nonzero"/><path fill="#1c1c1c" d="M 112.996094 46.792969 C 113.082031 46.941406 113.167969 47.089844 113.253906 47.242188 C 113.167969 47.089844 113.082031 46.941406 112.996094 46.792969 " fill-opacity="1" fill-rule="nonzero"/><path fill="#1c1c1c" d="M 112.597656 46.125 C 112.734375 46.347656 112.863281 46.566406 112.996094 46.792969 C 112.863281 46.566406 112.730469 46.347656 112.597656 46.125 " fill-opacity="1" fill-rule="nonzero"/><path fill="#1c1c1c" d="M 112.191406 45.46875 C 112.285156 45.613281 112.375 45.757812 112.464844 45.90625 C 112.375 45.757812 112.285156 45.613281 112.191406 45.46875 " fill-opacity="1" fill-rule="nonzero"/><path fill="#1c1c1c" d="M 111.636719 44.605469 C 111.777344 44.820312 111.917969 45.035156 112.054688 45.25 C 111.917969 45.035156 111.777344 44.820312 111.636719 44.605469 " fill-opacity="1" fill-rule="nonzero"/><path fill="#1c1c1c" d="M 76.335938 175.945312 C 76.484375 178.949219 80.6875 179.226562 81.148438 176.851562 C 81.480469 175.144531 79.246094 173.703125 77.539062 174.140625 C 78.648438 175.074219 76.238281 175.023438 76.335938 175.945312 Z M 75.738281 171.730469 C 80.371094 170.863281 84.824219 173.867188 83.550781 178.355469 C 82.292969 182.792969 73.875 180.949219 73.632812 176.546875 C 73.507812 174.285156 74.964844 174.757812 75.136719 172.332031 C 75.269531 172.0625 75.402344 171.792969 75.738281 171.730469 " fill-opacity="1" fill-rule="nonzero"/><path fill="#ff3600" d="M 81.148438 176.851562 C 80.6875 179.226562 76.484375 178.949219 76.335938 175.945312 C 76.238281 175.023438 78.648438 175.074219 77.539062 174.140625 C 79.246094 173.703125 81.480469 175.144531 81.148438 176.851562 " fill-opacity="1" fill-rule="nonzero"/><g clip-path="url(#3373746bcc)"><path fill="#1c1c1c" d="M 35.464844 126.851562 C 36.441406 127.566406 38.238281 125.636719 38.773438 127.457031 C 35.699219 129.273438 32.273438 131.902344 32.160156 136.492188 C 32.054688 140.710938 35.496094 144.71875 40.875 141.914062 C 41.441406 140.671875 41.3125 138.738281 42.980469 138.597656 C 43.675781 141.59375 43.394531 145.597656 46.585938 146.429688 C 51.246094 147.644531 56.019531 143.601562 56.804688 139.503906 C 57.132812 138.15625 55.253906 137.460938 55.902344 136.792969 C 57.863281 136.894531 58.644531 139.589844 58.007812 141.308594 C 68.019531 150.449219 79.003906 158.617188 89.5625 167.214844 C 89.332031 166.5 88.96875 165.132812 89.5625 164.503906 C 93.503906 163.664062 96.355469 167.941406 98.878906 170.222656 C 101.574219 172.664062 103.558594 175.035156 105.792969 176.550781 C 107.175781 174.742188 109.683594 174.519531 112.101562 174.441406 C 108.492188 168.632812 102.953125 164.1875 98.277344 158.78125 C 93.84375 153.648438 88.9375 148.921875 83.550781 144.019531 C 76.5625 137.660156 68.652344 128.609375 59.507812 123.839844 C 57.296875 122.6875 51.332031 119.277344 49.289062 119.023438 C 45.1875 118.507812 43.6875 121.003906 41.175781 122.636719 C 39.464844 123.375 37.710938 122.203125 36.667969 123.539062 C 36.636719 123.578125 36.609375 123.617188 36.585938 123.652344 C 36.574219 123.671875 36.558594 123.691406 36.550781 123.707031 C 36.515625 123.761719 36.488281 123.816406 36.464844 123.863281 C 36.453125 123.886719 36.445312 123.90625 36.4375 123.929688 C 36.425781 123.957031 36.417969 123.984375 36.410156 124.011719 C 36.40625 124.03125 36.402344 124.054688 36.398438 124.074219 C 36.332031 124.464844 36.664062 124.664062 36.90625 124.875 C 36.929688 124.894531 36.949219 124.914062 36.972656 124.933594 C 37.15625 125.113281 37.25 125.3125 36.96875 125.648438 C 35.960938 126.21875 35.871094 124.171875 35.769531 125.648438 C 35.320312 125.703125 35.492188 126.375 35.464844 126.851562 Z M 169.203125 200.644531 C 169.222656 196.226562 172.804688 193.363281 172.207031 187.996094 C 169.976562 189.414062 167.289062 189.71875 165.296875 191.308594 C 162.457031 193.570312 162.234375 198.265625 159.585938 199.742188 C 160.480469 196.28125 161.558594 193.0625 163.792969 190.707031 C 164.675781 189.777344 166.003906 189.527344 166.5 188.296875 C 167.34375 186.1875 166.359375 183.707031 167.097656 180.765625 C 164.316406 179.035156 160.535156 178.308594 158.683594 175.648438 C 159.132812 178.601562 159.433594 183.796875 159.285156 188.296875 C 157.132812 188.769531 155.390625 190.492188 153.574219 190.402344 C 150.511719 190.253906 147.625 184.902344 143.355469 185.285156 C 146.855469 183.234375 149.460938 186.886719 152.074219 187.695312 C 152.441406 182.808594 151.433594 179.296875 151.171875 175.042969 C 147.488281 174.085938 145.046875 173.304688 140.652344 174.140625 C 141.136719 179.78125 142.507812 184.53125 142.757812 190.402344 C 146.941406 191.242188 152.234375 192.53125 152.371094 196.429688 C 149.460938 194.640625 146.800781 192.433594 143.058594 192.210938 C 141.136719 192.097656 138.414062 193.304688 137.046875 192.511719 C 133.65625 190.546875 134.089844 178.324219 132.839844 174.441406 C 128.601562 174.390625 123.375 174.664062 119.613281 175.949219 C 120.410156 182.679688 123.171875 187.441406 123.820312 194.320312 C 124.820312 194.140625 125.660156 193.160156 125.925781 194.621094 C 124.273438 196.480469 121.546875 197.183594 119.613281 198.835938 C 117.496094 200.652344 116.355469 203.390625 114.507812 204.5625 C 115.304688 200.441406 118.492188 198.714844 120.816406 196.128906 C 116.308594 191.308594 114.945312 183.339844 112.402344 176.550781 C 110.898438 176.289062 110.300781 176.289062 108.796875 176.550781 C 107.265625 178.730469 104.632812 179.578125 102.785156 181.667969 C 99.34375 185.574219 95.914062 194.703125 95.574219 201.847656 C 95.082031 212.121094 98.785156 219.574219 102.484375 227.449219 C 109.476562 242.332031 117.59375 254.566406 125.925781 268.113281 C 127.863281 271.261719 129.644531 275.105469 131.035156 275.941406 C 132.199219 276.640625 137.027344 274.132812 140.050781 273.230469 C 150.023438 270.265625 158.980469 267.414062 168 264.195312 C 183.070312 258.824219 199.648438 257.324219 212.480469 250.34375 C 217.214844 247.765625 223.144531 242.574219 226.304688 237.390625 C 229.898438 231.488281 233.496094 225.835938 234.121094 218.414062 C 234.757812 210.8125 232.460938 204.960938 228.710938 200.644531 C 222.863281 193.921875 209.300781 190.402344 198.054688 190.402344 C 188.238281 190.40625 179.273438 193.753906 173.109375 198.234375 C 171.8125 199.179688 171.261719 201.179688 169.203125 200.644531 Z M 163.792969 150.347656 C 169.828125 158.425781 168.585938 177.34375 168.300781 187.394531 C 176.351562 186.394531 174.34375 177.117188 174.914062 168.117188 C 175.164062 164.140625 175.265625 160.535156 175.214844 156.972656 C 175.132812 151.417969 175.605469 141.070312 171.609375 136.492188 C 166.046875 130.117188 156.269531 133.351562 148.167969 131.671875 C 146.800781 131.390625 145.253906 130.273438 143.355469 130.164062 C 142.328125 123.0625 140.65625 116.609375 138.25 110.890625 C 138.097656 110.039062 136.542969 110.589844 136.445312 109.683594 C 136.171875 102.121094 133.839844 94.269531 131.335938 87.097656 C 127.332031 75.613281 122.921875 64.792969 117.511719 55.167969 C 117.425781 55.011719 117.335938 54.855469 117.25 54.703125 C 116.992188 54.230469 116.738281 53.761719 116.484375 53.289062 C 116.320312 52.976562 116.152344 52.660156 115.988281 52.347656 C 115.574219 51.5625 115.167969 50.777344 114.757812 50 C 114.675781 49.84375 114.59375 49.691406 114.511719 49.535156 C 114.101562 48.757812 113.683594 47.992188 113.253906 47.242188 C 113.167969 47.089844 113.082031 46.941406 112.996094 46.792969 C 112.863281 46.570312 112.734375 46.347656 112.597656 46.125 C 112.554688 46.050781 112.507812 45.976562 112.464844 45.902344 C 112.375 45.757812 112.285156 45.609375 112.191406 45.464844 C 112.148438 45.394531 112.101562 45.324219 112.054688 45.25 C 111.917969 45.035156 111.777344 44.816406 111.636719 44.605469 C 110.78125 43.328125 109.851562 42.117188 108.796875 41.015625 C 106.675781 41.496094 106.335938 43.769531 103.6875 43.722656 C 104.148438 41.273438 106.335938 40.554688 108.195312 39.507812 C 107.617188 37.980469 106.894531 36.59375 105.492188 35.890625 C 104.210938 36.023438 103.488281 38.289062 102.183594 37.398438 C 101.949219 35.15625 104.109375 35.3125 104.886719 34.085938 C 101.777344 30.308594 99.074219 25.273438 94.972656 21.4375 C 91.746094 18.421875 85.980469 13.402344 82.050781 11.796875 C 77.054688 9.757812 69.492188 11.136719 67.023438 14.507812 C 65.058594 17.191406 64.625 23.214844 65.21875 27.761719 C 66.570312 38.089844 73.695312 45.261719 79.34375 53.0625 C 86.839844 63.414062 92.191406 72.054688 98.878906 80.46875 C 100.234375 80.3125 101.101562 78.089844 102.484375 78.964844 C 103.355469 80.644531 100.324219 80.738281 100.382812 82.578125 C 100.859375 83.402344 101.503906 84.066406 101.882812 84.988281 C 103.886719 84.480469 105.109375 81.597656 106.992188 81.976562 C 106.386719 84.179688 104.542969 85.144531 103.386719 86.792969 C 111.285156 97.953125 118.582031 109.714844 123.820312 123.539062 C 126.179688 123.441406 129.078125 123.085938 130.132812 124.445312 C 129.140625 125.558594 126.328125 124.847656 124.421875 125.046875 C 124.644531 126.230469 125.050781 127.226562 125.324219 128.359375 C 126.859375 127.832031 132.632812 127.957031 131.9375 130.464844 C 130.5625 130.277344 128.625 129.886719 125.925781 129.863281 C 127.921875 135.445312 124.285156 139.195312 120.519531 141.007812 C 116.914062 142.742188 111.269531 143.953125 109.996094 146.734375 C 109.222656 148.429688 109.878906 151.097656 109.996094 153.054688 C 110.496094 161.085938 112.597656 165.980469 114.207031 173.539062 C 115.988281 181.90625 117.761719 188.808594 121.71875 194.019531 C 121.261719 187.367188 119.027344 183.523438 117.511719 176.851562 C 116.4375 172.109375 114.605469 165.996094 115.105469 162.394531 C 115.566406 159.109375 121.417969 156.683594 124.421875 155.765625 C 125.355469 155.484375 127.773438 154.957031 128.628906 155.164062 C 132.617188 156.125 133.609375 166.941406 134.34375 171.730469 C 134.375 171.957031 134.410156 172.179688 134.445312 172.40625 C 134.542969 173.074219 134.636719 173.738281 134.730469 174.390625 C 135.003906 176.34375 135.246094 178.210938 135.507812 180 C 136.066406 183.777344 136.71875 187.210938 137.949219 190.402344 L 140.652344 190.402344 C 140.191406 178.015625 137.03125 168.332031 136.445312 156.070312 C 138.683594 154.105469 143.535156 150.65625 147.261719 151.550781 C 150.269531 152.273438 150.691406 159.28125 151.472656 163.597656 C 152.945312 171.742188 153.9375 180.554688 154.175781 187.996094 C 155.253906 187.667969 156.511719 187.523438 157.480469 187.089844 C 157.558594 174.230469 155 162.078125 155.980469 151.550781 C 158.234375 150.796875 160.535156 150.09375 163.792969 150.347656 Z M 231.113281 142.214844 C 230.027344 143.910156 227.640625 143.417969 227.207031 145.226562 C 226.78125 146.988281 228.742188 149.679688 229.910156 150.347656 C 234.191406 152.785156 243.230469 147.878906 243.734375 144.621094 C 244.035156 142.707031 242.863281 142.542969 242.230469 140.105469 C 243.460938 139.378906 243.71875 140.617188 245.238281 140.40625 C 249.632812 136.941406 248.496094 129.015625 243.734375 126.550781 C 242.144531 126.699219 240.042969 127.992188 239.527344 125.949219 C 239.613281 124.730469 241.589844 125.40625 241.929688 124.445312 C 241.015625 116.648438 229.988281 111.777344 223.902344 116.3125 C 219.941406 119.261719 218.183594 127.007812 221.496094 131.070312 C 223.054688 130.625 223.542969 129.105469 225.101562 128.660156 C 224.074219 130.269531 221.578125 130.871094 221.796875 132.875 C 204.65625 147.222656 189.832031 163.894531 176.71875 182.273438 C 180.855469 178.507812 184.5625 174.410156 189.339844 171.128906 C 203.195312 161.605469 214.378906 147.71875 231.113281 142.214844 Z M 244.335938 124.140625 C 250.660156 126.511719 252.648438 139.386719 246.140625 143.117188 C 245.949219 144.03125 246.523438 145.710938 245.839844 146.128906 C 242.96875 152.789062 227.578125 157.707031 225.101562 147.335938 C 219.566406 150.347656 214.667969 154.105469 209.773438 157.875 C 204.859375 161.660156 200.6875 166.078125 195.949219 169.921875 C 193.277344 172.09375 189.910156 173.453125 187.234375 175.648438 C 183.480469 178.722656 181.105469 183.230469 177.015625 186.1875 C 177.03125 188.8125 176.523438 190.914062 176.113281 193.117188 C 195.246094 182.636719 233.1875 187.988281 236.523438 210.582031 C 239.105469 212.808594 241.042969 217.257812 241.628906 221.125 C 244.515625 240.039062 233.84375 256.035156 221.195312 263.59375 C 217.855469 265.589844 213.429688 266.792969 209.476562 268.414062 C 204.964844 270.261719 200.65625 272.882812 195.648438 274.4375 C 193.144531 275.214844 190.359375 275.746094 187.835938 276.546875 C 180.867188 278.75 172.007812 280.65625 163.191406 281.664062 C 156.875 282.390625 150.511719 281.8125 143.957031 281.964844 C 142.519531 282 141.117188 282.59375 139.75 282.570312 C 128.359375 282.378906 125.695312 272.53125 120.816406 265.097656 C 117.710938 260.363281 114.832031 255.210938 112.402344 251.246094 C 106.40625 241.457031 100.726562 231.644531 96.777344 222.03125 C 90.789062 207.464844 92.285156 187.738281 102.785156 178.054688 C 100.230469 174.289062 96.460938 171.742188 93.46875 168.417969 C 93.683594 175.476562 85.71875 167.359375 82.949219 165.105469 C 75.378906 158.941406 69.257812 154.03125 61.613281 147.636719 C 60.273438 146.515625 57.828125 144.023438 57.703125 144.019531 C 56.835938 143.984375 53.792969 147.417969 52.597656 147.9375 C 47.402344 150.191406 43.769531 148.652344 41.175781 144.320312 C 30.769531 149.792969 26.046875 133.007812 33.363281 128.359375 C 31.691406 125.453125 34.394531 123.472656 34.566406 121.128906 C 35.609375 120.269531 37.285156 120.042969 39.375 120.226562 C 42.335938 118.765625 44.203125 116.335938 48.089844 116.3125 C 51.242188 116.292969 54.90625 119.015625 58.007812 120.527344 C 67.140625 124.984375 74.773438 132.648438 81.75 138.597656 C 92.589844 147.847656 100.199219 158.78125 109.398438 166.914062 C 108.71875 163.917969 107.699219 160.65625 107.292969 156.972656 C 106.890625 153.320312 105.769531 148.820312 106.992188 145.828125 C 109.175781 140.503906 121.246094 139.945312 123.820312 134.382812 C 115.859375 103.96875 94.824219 79.542969 77.539062 55.167969 C 72.046875 47.421875 64.089844 39.003906 62.816406 28.0625 C 61.734375 18.785156 63.992188 11.34375 70.328125 9.085938 C 77.601562 6.496094 83.671875 9.316406 88.359375 12.398438 C 95.378906 17.019531 100.417969 23.507812 105.492188 30.773438 C 119.429688 50.734375 132.289062 75.542969 138.847656 103.359375 C 139.160156 104.679688 139.039062 106.277344 139.449219 107.578125 C 140.015625 109.351562 141.78125 110.863281 142.457031 112.695312 C 144.183594 117.394531 144.703125 122.605469 145.761719 128.058594 C 159.042969 129.515625 173.414062 128.382812 176.71875 140.105469 C 177.488281 142.84375 178.0625 148.171875 178.21875 151.851562 C 178.5625 159.792969 177.726562 169.164062 177.316406 177.152344 C 184 169.929688 189.519531 161.007812 196.851562 153.660156 C 204.140625 146.351562 211.835938 139.335938 219.089844 132.273438 C 215.109375 126.660156 217.253906 118.589844 221.496094 114.804688 C 228.972656 108.136719 243.46875 115.167969 244.335938 124.140625 Z M 219.390625 261.484375 C 232.796875 253.773438 245.59375 232.652344 235.921875 214.199219 C 236.105469 221.902344 234.378906 226.78125 231.414062 231.667969 C 229.316406 235.125 227.742188 238.84375 226.003906 241.304688 C 223.457031 244.910156 218.351562 248.875 214.28125 251.246094 C 207.445312 255.230469 197.371094 258.503906 187.234375 260.882812 C 177.632812 263.136719 167.796875 266.554688 158.683594 269.015625 C 152.859375 270.585938 147.65625 273.230469 142.757812 274.738281 C 139.539062 275.730469 136.035156 275.648438 133.742188 278.050781 C 142.386719 279.777344 153.285156 279.675781 162.589844 278.652344 C 173.476562 277.460938 184.023438 274.753906 193.847656 272.027344 C 198.613281 270.703125 202.773438 268.226562 207.371094 266.304688 C 211.476562 264.585938 215.8125 263.546875 219.390625 261.484375 Z M 165.898438 175.042969 C 165.785156 169.210938 165.605469 152.566406 161.089844 153.054688 C 155.105469 153.703125 159.773438 167.964844 158.683594 172.332031 C 161.667969 172.65625 163.933594 173.699219 165.898438 175.042969 Z M 149.066406 170.527344 C 148.496094 166.601562 147.523438 150.734375 140.351562 156.070312 C 139.320312 160.242188 140.128906 166.628906 141.253906 170.527344 C 144.050781 170.445312 146.519531 171.222656 149.066406 170.527344 Z M 130.734375 171.429688 C 129.535156 167.113281 128.027344 163.097656 126.828125 158.78125 C 119 157.707031 117.65625 167.632812 121.117188 172.632812 C 123.261719 171.101562 127.351562 170.828125 130.734375 171.429688 " fill-opacity="1" fill-rule="nonzero"/></g><path fill="#ff3600" d="M 36.667969 123.539062 C 37.710938 122.203125 39.464844 123.375 41.175781 122.636719 C 43.6875 121.007812 45.1875 118.507812 49.289062 119.023438 C 51.332031 119.277344 57.296875 122.6875 59.507812 123.839844 C 68.652344 128.609375 76.5625 137.664062 83.550781 144.019531 C 88.9375 148.921875 93.84375 153.648438 98.277344 158.78125 C 102.953125 164.1875 108.492188 168.632812 112.101562 174.441406 C 109.679688 174.519531 107.175781 174.746094 105.792969 176.550781 C 103.558594 175.035156 101.574219 172.664062 98.878906 170.222656 C 96.355469 167.941406 93.5 163.664062 89.5625 164.503906 C 88.96875 165.132812 89.332031 166.5 89.5625 167.214844 C 79.003906 158.617188 68.019531 150.449219 58.007812 141.308594 C 58.644531 139.589844 57.863281 136.894531 55.902344 136.792969 C 55.253906 137.460938 57.132812 138.15625 56.804688 139.503906 C 56.019531 143.601562 51.246094 147.644531 46.585938 146.429688 C 43.394531 145.597656 43.675781 141.59375 42.980469 138.597656 C 41.3125 138.738281 41.441406 140.671875 40.875 141.914062 C 35.496094 144.71875 32.054688 140.710938 32.160156 136.492188 C 32.273438 131.902344 35.699219 129.273438 38.773438 127.457031 C 38.238281 125.636719 36.441406 127.566406 35.464844 126.851562 C 35.492188 126.375 35.320312 125.703125 35.769531 125.648438 C 35.871094 124.171875 35.960938 126.21875 36.96875 125.648438 C 37.25 125.3125 37.15625 125.113281 36.972656 124.933594 C 36.949219 124.914062 36.929688 124.894531 36.90625 124.875 C 36.664062 124.664062 36.332031 124.464844 36.398438 124.074219 C 36.402344 124.054688 36.40625 124.035156 36.410156 124.011719 C 36.417969 123.984375 36.425781 123.957031 36.4375 123.929688 C 36.445312 123.910156 36.453125 123.886719 36.464844 123.863281 C 36.488281 123.816406 36.515625 123.761719 36.550781 123.707031 C 36.558594 123.691406 36.574219 123.671875 36.585938 123.652344 C 36.609375 123.617188 36.636719 123.578125 36.667969 123.539062 " fill-opacity="1" fill-rule="nonzero"/></svg>