<svg xmlns="http://www.w3.org/2000/svg" xmlns:xlink="http://www.w3.org/1999/xlink" width="400" zoomAndPan="magnify" viewBox="0 0 300 299.999988" height="400" preserveAspectRatio="xMidYMid meet" version="1.0"><defs><clipPath id="c04000dd85"><path d="M 5 42 L 239 42 L 239 269.832031 L 5 269.832031 Z M 5 42 " clip-rule="nonzero"/></clipPath></defs><path fill="#cf3c08" d="M 173.128906 48.402344 C 169.546875 48.523438 166.257812 48.796875 163.175781 49.230469 C 138.445312 52.597656 128.035156 64.921875 116.710938 82.898438 C 100.949219 68.640625 87.605469 59.5625 62.894531 62.925781 C 59.792969 63.363281 56.542969 63.964844 53.046875 64.796875 C 31.957031 69.785156 9.890625 92.75 12.035156 130.613281 L 13.742188 143.0625 C 21.445312 178.558594 54.648438 219.105469 141.523438 263.722656 C 213.183594 197.367188 234.1875 149.464844 232.105469 113.199219 L 230.398438 100.75 C 222.238281 63.738281 194.800781 47.570312 173.128906 48.402344 Z M 173.128906 48.402344 " fill-opacity="1" fill-rule="nonzero"/><path fill="#9b2d06" d="M 231.335938 112.535156 L 229.523438 100.105469 C 221.03125 63.136719 193.46875 47.214844 171.792969 48.277344 C 168.566406 48.402344 165.589844 48.691406 162.78125 49.066406 C 182.078125 52.765625 202.75 68.996094 209.894531 100.085938 L 211.703125 112.511719 C 214.054688 147.574219 194.902344 193.707031 129.429688 257.300781 C 133.550781 259.484375 137.796875 261.6875 142.191406 263.890625 C 213.183594 196.910156 233.75 148.796875 231.335938 112.535156 Z M 231.335938 112.535156 " fill-opacity="1" fill-rule="nonzero"/><g clip-path="url(#c04000dd85)"><path fill="#262626" d="M 238.058594 112.847656 L 238.039062 112.722656 C 238.039062 112.679688 238.039062 112.660156 238.019531 112.617188 C 238.019531 112.554688 237.996094 112.449219 237.996094 112.347656 L 236.289062 99.917969 L 236.289062 99.878906 C 236.269531 99.710938 236.25 99.585938 236.226562 99.441406 C 232.230469 81.113281 223.339844 65.960938 210.601562 55.652344 C 199.523438 46.695312 185.765625 41.832031 172.855469 42.332031 C 169.191406 42.457031 165.757812 42.746094 162.300781 43.207031 C 150.496094 44.804688 140.816406 48.527344 132.738281 54.53125 C 125.121094 60.203125 119.6875 67.3125 115.398438 73.714844 C 109.527344 68.726562 102.40625 63.34375 93.515625 59.933594 C 84.105469 56.296875 73.800781 55.34375 62 56.941406 C 58.605469 57.421875 55.191406 58.0625 51.589844 58.9375 C 39.035156 61.910156 27.066406 70.285156 18.820312 81.902344 C 9.304688 95.285156 4.851562 112.265625 5.914062 130.988281 L 5.933594 131.15625 C 5.933594 131.175781 5.933594 131.195312 5.933594 131.21875 C 5.933594 131.28125 5.953125 131.382812 5.953125 131.488281 L 7.660156 143.914062 L 7.765625 144.371094 C 9.929688 154.242188 13.886719 164.136719 19.488281 173.714844 C 25.523438 184.023438 33.644531 194.3125 43.636719 204.285156 C 54.316406 214.96875 67.371094 225.628906 82.523438 236.0625 C 98.578125 247.097656 117.5 258.238281 138.714844 269.148438 C 139.546875 269.585938 140.503906 269.832031 141.503906 269.832031 C 143.066406 269.832031 144.542969 269.230469 145.605469 268.191406 C 163.195312 251.917969 178.394531 236.125 190.800781 221.222656 C 202.605469 207.09375 212.328125 193.273438 219.675781 180.199219 C 226.589844 167.960938 231.648438 155.863281 234.707031 144.269531 C 237.519531 133.460938 238.644531 122.90625 238.058594 112.847656 Z M 224.382812 101.832031 L 226.007812 113.78125 C 226.484375 122.570312 225.464844 131.757812 222.964844 141.191406 C 220.261719 151.644531 215.574219 162.785156 209.121094 174.257812 C 195.089844 199.214844 171.960938 226.855469 140.441406 256.410156 C 102.179688 236.414062 72.492188 215.988281 52.214844 195.726562 C 42.886719 186.371094 35.414062 176.9375 29.957031 167.585938 C 25.046875 159.191406 21.589844 150.585938 19.695312 142.023438 L 18.050781 130.03125 C 17.175781 114.175781 20.882812 99.941406 28.75 88.882812 C 35.328125 79.617188 44.675781 72.984375 54.460938 70.679688 C 57.605469 69.929688 60.644531 69.347656 63.707031 68.933594 C 74.261719 67.5 82.835938 68.457031 90.75 71.863281 C 98.265625 75.105469 104.925781 80.425781 112.628906 87.386719 C 113.960938 88.59375 115.730469 89.152344 117.519531 88.90625 C 119.289062 88.65625 120.894531 87.617188 121.808594 86.121094 C 127.367188 77.308594 132.363281 70.410156 138.695312 65.277344 C 145.375 59.851562 153.414062 56.652344 163.96875 55.195312 C 167.070312 54.78125 170.109375 54.511719 173.253906 54.425781 L 173.316406 54.425781 C 183.328125 54.011719 194.152344 57.898438 202.9375 65.046875 C 213.535156 73.609375 220.925781 86.328125 224.382812 101.832031 Z M 224.382812 101.832031 " fill-opacity="1" fill-rule="nonzero"/></g><path fill="#742205" d="M 183.847656 100.375 C 171.296875 88.34375 148.351562 102.972656 163.195312 119.164062 C 169.027344 125.503906 163.925781 136.289062 166.609375 142.523438 C 170.523438 151.542969 163.695312 166.070312 171.273438 170.683594 C 175.085938 172.988281 178.207031 156.257812 179.683594 152.871094 C 177.875 160.9375 183.996094 165.921875 181.140625 175.441406 C 178.976562 182.652344 185.828125 192.316406 188.054688 177.8125 C 189.21875 170.203125 190.863281 163.074219 191.28125 158.296875 C 192.113281 149.070312 192.46875 138.386719 192.445312 137.429688 C 192.488281 139.488281 197.214844 155.988281 201.773438 138.511719 C 205.375 124.796875 195.796875 110.207031 183.847656 100.375 Z M 183.847656 100.375 " fill-opacity="1" fill-rule="nonzero"/><path fill="#ffffff" d="M 173.597656 105.375 L 235.449219 78.828125 L 246.730469 105.023438 L 184.878906 131.566406 Z M 173.597656 105.375 " fill-opacity="1" fill-rule="nonzero"/><path fill="#d9d9d9" d="M 224.945312 101.6875 L 229.753906 111.058594 L 184.203125 130.96875 L 179.957031 121.367188 Z M 224.945312 101.6875 " fill-opacity="1" fill-rule="nonzero"/><path fill="#262626" d="M 252.277344 102.664062 L 240.996094 76.476562 C 240.351562 74.980469 239.183594 73.839844 237.664062 73.234375 C 236.164062 72.632812 234.519531 72.652344 233 73.296875 L 171.171875 99.835938 C 169.671875 100.480469 168.527344 101.6875 167.921875 103.183594 C 167.320312 104.679688 167.359375 106.320312 167.984375 107.773438 L 179.269531 133.960938 C 179.894531 135.4375 181.078125 136.578125 182.601562 137.203125 L 182.621094 137.222656 C 183.347656 137.492188 184.097656 137.640625 184.847656 137.640625 C 185.703125 137.640625 186.511719 137.472656 187.242188 137.160156 L 249.074219 110.621094 C 250.550781 110 251.695312 108.8125 252.320312 107.296875 C 252.925781 105.800781 252.925781 104.160156 252.277344 102.664062 Z M 238.746094 101.894531 L 188.035156 123.652344 L 181.539062 108.566406 L 232.25 86.804688 Z M 238.746094 101.894531 " fill-opacity="1" fill-rule="nonzero"/><path fill="#858585" d="M 280.53125 93.894531 L 219.300781 120.222656 L 206.167969 88.90625 L 268.246094 62.617188 C 276.90625 59.226562 286.671875 63.488281 290.066406 72.113281 C 293.457031 80.777344 289.191406 90.503906 280.53125 93.894531 Z M 280.53125 93.894531 " fill-opacity="1" fill-rule="nonzero"/><path fill="#4d4d4d" d="M 209.664062 110.476562 L 276.15625 82.484375 C 282.800781 79.675781 286.710938 73.070312 286.359375 66.273438 C 286.773438 66.960938 287.148438 67.6875 287.484375 68.433594 C 291.0625 76.933594 289.230469 88.988281 280.71875 92.5625 L 214.203125 120.554688 Z M 209.664062 110.476562 " fill-opacity="1" fill-rule="nonzero"/><path fill="#262626" d="M 295.6875 69.929688 C 293.4375 64.214844 289.105469 59.746094 283.527344 57.335938 C 277.925781 54.882812 271.722656 54.78125 266.019531 57.003906 L 265.976562 57.023438 C 265.957031 57.023438 265.914062 57.046875 265.851562 57.066406 L 203.792969 83.355469 C 200.753906 84.644531 199.316406 88.199219 200.566406 91.253906 L 213.703125 122.570312 C 214.347656 124.066406 215.511719 125.230469 217.035156 125.8125 C 217.761719 126.105469 218.53125 126.269531 219.300781 126.269531 C 220.136719 126.269531 220.949219 126.105469 221.675781 125.8125 L 282.820312 99.503906 C 294.476562 94.890625 300.246094 81.632812 295.6875 69.929688 Z M 278.324219 88.238281 L 278.113281 88.34375 L 222.550781 112.242188 L 214.117188 92.105469 L 270.558594 68.183594 C 273.222656 67.167969 276.136719 67.25 278.738281 68.351562 C 281.382812 69.515625 283.402344 71.59375 284.445312 74.253906 C 286.589844 79.824219 283.859375 86.078125 278.324219 88.238281 Z M 278.324219 88.238281 " fill-opacity="1" fill-rule="nonzero"/></svg>