<svg xmlns="http://www.w3.org/2000/svg" xmlns:xlink="http://www.w3.org/1999/xlink" width="400" zoomAndPan="magnify" viewBox="0 0 300 299.999988" height="400" preserveAspectRatio="xMidYMid meet" version="1.0"><defs><clipPath id="d64c0170c5"><path d="M 68 81 L 241 81 L 241 250.414062 L 68 250.414062 Z M 68 81 " clip-rule="nonzero"/></clipPath><clipPath id="7ede53d8b9"><path d="M 11 68.164062 L 93 68.164062 L 93 129 L 11 129 Z M 11 68.164062 " clip-rule="nonzero"/></clipPath></defs><path fill="#cf3c08" d="M 191.699219 85.898438 C 189.042969 86.003906 186.617188 86.238281 184.339844 86.578125 C 166.042969 89.257812 158.429688 98.472656 150.167969 111.894531 C 138.40625 101.417969 128.460938 94.773438 110.179688 97.449219 C 107.882812 97.789062 105.476562 98.257812 102.910156 98.902344 C 87.324219 102.75 71.144531 119.960938 72.996094 148.042969 L 74.339844 157.257812 C 80.300781 183.542969 105.152344 213.402344 169.777344 245.921875 C 222.367188 196.191406 237.59375 160.492188 235.800781 133.578125 L 234.453125 124.363281 C 228.167969 96.929688 207.753906 85.105469 191.699219 85.898438 Z M 191.699219 85.898438 " fill-opacity="1" fill-rule="nonzero"/><path fill="#9b2d06" d="M 235.871094 133.992188 L 234.523438 124.777344 C 228.242188 97.339844 207.824219 85.519531 191.773438 86.308594 C 189.382812 86.398438 187.175781 86.617188 185.09375 86.902344 C 199.386719 89.652344 214.683594 101.6875 219.980469 124.777344 L 221.328125 133.992188 C 223.070312 160.007812 208.882812 194.25 160.402344 241.449219 C 163.457031 243.066406 166.597656 244.699219 169.847656 246.335938 C 222.441406 196.605469 237.667969 160.90625 235.871094 133.992188 Z M 235.871094 133.992188 " fill-opacity="1" fill-rule="nonzero"/><path fill="#742205" d="M 103.808594 115.988281 C 115.496094 104.5625 136.523438 118.773438 122.695312 134.191406 C 117.273438 140.226562 121.871094 150.59375 119.339844 156.558594 C 115.675781 165.164062 121.835938 179.160156 114.796875 183.488281 C 111.277344 185.664062 108.527344 169.582031 107.199219 166.347656 C 108.816406 174.109375 103.125 178.816406 105.65625 187.964844 C 107.578125 194.898438 101.167969 204.097656 99.265625 190.171875 C 98.257812 182.878906 96.804688 176.015625 96.464844 171.453125 C 95.796875 162.613281 95.527344 152.371094 95.566406 151.457031 C 95.492188 153.433594 91.003906 169.207031 86.945312 152.40625 C 83.75 139.167969 92.710938 125.296875 103.808594 115.988281 Z M 103.808594 115.988281 " fill-opacity="1" fill-rule="nonzero"/><g clip-path="url(#d64c0170c5)"><path fill="#262626" d="M 240.289062 133.273438 L 240.269531 133.183594 C 240.269531 133.148438 240.269531 133.128906 240.253906 133.113281 C 240.253906 133.058594 240.234375 132.984375 240.21875 132.894531 L 238.871094 123.679688 C 238.851562 123.554688 238.835938 123.464844 238.816406 123.355469 L 238.816406 123.339844 C 235.691406 109.753906 229.03125 98.582031 219.515625 91.015625 C 211.253906 84.441406 201.039062 80.9375 191.484375 81.386719 C 188.71875 81.496094 186.152344 81.726562 183.675781 82.105469 C 174.929688 83.382812 167.800781 86.203125 161.859375 90.730469 C 156.273438 94.988281 152.304688 100.289062 149.144531 105.066406 C 144.765625 101.402344 139.449219 97.449219 132.859375 94.96875 C 125.875 92.347656 118.226562 91.683594 109.5 92.976562 C 106.769531 93.386719 104.253906 93.890625 101.8125 94.519531 C 92.53125 96.820312 83.730469 103.125 77.71875 111.804688 C 70.785156 121.792969 67.589844 134.421875 68.503906 148.328125 L 68.523438 148.417969 C 68.523438 148.457031 68.523438 148.472656 68.542969 148.492188 C 68.542969 148.546875 68.558594 148.617188 68.558594 148.6875 L 69.90625 157.886719 L 69.976562 158.230469 C 71.628906 165.542969 74.609375 172.835938 78.847656 179.914062 C 83.355469 187.476562 89.425781 195.058594 96.929688 202.445312 C 104.902344 210.296875 114.671875 218.144531 125.945312 225.765625 C 137.851562 233.8125 151.910156 241.953125 167.785156 249.945312 C 168.429688 250.253906 169.09375 250.414062 169.792969 250.414062 C 170.945312 250.414062 172.074219 249.964844 172.863281 249.175781 C 185.757812 236.992188 196.90625 225.152344 206.011719 213.996094 C 214.683594 203.378906 221.792969 193.066406 227.128906 183.328125 C 232.191406 174.128906 235.855469 165.109375 238.007812 156.558594 C 240 148.597656 240.773438 140.765625 240.289062 133.273438 Z M 229.316406 154.402344 C 227.34375 162.199219 223.96875 170.5 219.28125 179.035156 C 209.082031 197.628906 192.167969 218.308594 169.003906 240.476562 C 140.453125 225.871094 118.332031 210.925781 103.230469 196.046875 C 96.300781 189.21875 90.699219 182.25 86.550781 175.316406 C 82.835938 169.082031 80.230469 162.71875 78.777344 156.414062 L 77.5 147.558594 C 76.746094 135.789062 79.386719 125.207031 85.132812 116.941406 C 89.945312 110.023438 96.839844 105.03125 104.039062 103.253906 C 106.285156 102.675781 108.527344 102.226562 110.863281 101.886719 C 118.621094 100.738281 124.996094 101.382812 130.902344 103.878906 C 136.488281 106.253906 141.460938 110.152344 147.207031 115.253906 C 148.210938 116.132812 149.523438 116.527344 150.851562 116.332031 C 152.160156 116.132812 153.3125 115.359375 154.011719 114.246094 C 158.035156 107.726562 161.660156 102.570312 166.363281 98.671875 C 171.300781 94.59375 177.226562 92.167969 185.019531 91.015625 C 187.121094 90.695312 189.3125 90.496094 191.898438 90.386719 L 191.953125 90.386719 C 199.347656 90.027344 207.375 92.8125 213.964844 98.058594 C 221.832031 104.328125 227.398438 113.707031 230.054688 125.1875 L 231.347656 134.046875 C 231.777344 140.53125 231.078125 147.378906 229.316406 154.402344 Z M 229.316406 154.402344 " fill-opacity="1" fill-rule="nonzero"/></g><path fill="#742205" d="M 202.347656 117.785156 C 192.957031 108.949219 176.078125 119.960938 187.175781 131.871094 C 191.519531 136.542969 187.839844 144.574219 189.867188 149.191406 C 192.8125 155.855469 187.875 166.691406 193.515625 170.050781 C 196.351562 171.738281 198.542969 159.289062 199.617188 156.773438 C 198.324219 162.773438 202.90625 166.421875 200.859375 173.5 C 199.3125 178.871094 204.449219 185.988281 205.992188 175.207031 C 206.800781 169.566406 207.96875 164.246094 208.238281 160.707031 C 208.777344 153.863281 208.972656 145.941406 208.957031 145.222656 C 209.011719 146.75 212.617188 158.964844 215.867188 145.957031 C 218.453125 135.753906 211.253906 125.007812 202.347656 117.785156 Z M 202.347656 117.785156 " fill-opacity="1" fill-rule="nonzero"/><path fill="#ffffff" d="M 192.894531 123.894531 L 237.886719 103.148438 L 246.6875 122.257812 L 201.695312 143.003906 Z M 192.894531 123.894531 " fill-opacity="1" fill-rule="nonzero"/><path fill="#d9d9d9" d="M 233.070312 120.015625 L 236.714844 126.914062 L 203.210938 142.148438 L 199.960938 135.070312 Z M 233.070312 120.015625 " fill-opacity="1" fill-rule="nonzero"/><path fill="#262626" d="M 250.46875 120.519531 L 241.671875 101.402344 C 241.1875 100.394531 240.359375 99.621094 239.320312 99.246094 C 238.277344 98.851562 237.128906 98.902344 236.121094 99.351562 L 191.125 120.105469 C 189.042969 121.054688 188.128906 123.554688 189.097656 125.636719 L 197.894531 144.753906 C 198.378906 145.761719 199.207031 146.53125 200.230469 146.910156 L 200.246094 146.910156 C 200.714844 147.070312 201.199219 147.160156 201.683594 147.160156 C 202.257812 147.160156 202.851562 147.035156 203.445312 146.765625 L 248.441406 126.035156 C 250.523438 125.097656 251.4375 122.621094 250.46875 120.519531 Z M 241.132812 120.210938 L 203.730469 137.460938 L 198.433594 125.945312 L 235.835938 108.695312 Z M 241.132812 120.210938 " fill-opacity="1" fill-rule="nonzero"/><path fill="#858585" d="M 278.175781 109.808594 L 229.640625 132.195312 L 219.28125 109.683594 L 267.816406 87.296875 C 274.027344 84.421875 281.390625 87.152344 284.246094 93.371094 C 287.097656 99.585938 284.371094 106.953125 278.175781 109.808594 Z M 278.175781 109.808594 " fill-opacity="1" fill-rule="nonzero"/><path fill="#4d4d4d" d="M 226.785156 123.714844 L 275.464844 101.671875 C 280.332031 99.460938 283.09375 94.484375 282.699219 89.4375 C 283.023438 89.9375 283.3125 90.460938 283.5625 91.015625 C 286.382812 97.25 283.617188 104.597656 277.386719 107.421875 L 228.707031 129.464844 Z M 226.785156 123.714844 " fill-opacity="1" fill-rule="nonzero"/><path fill="#262626" d="M 288.035156 91.609375 C 284.207031 83.308594 274.332031 79.679688 266.054688 83.507812 L 217.519531 105.894531 C 215.4375 106.84375 214.523438 109.34375 215.492188 111.425781 L 225.835938 133.957031 C 226.320312 134.960938 227.144531 135.734375 228.167969 136.113281 L 228.1875 136.113281 C 228.652344 136.273438 229.136719 136.363281 229.621094 136.363281 C 230.234375 136.363281 230.824219 136.238281 231.382812 135.988281 L 279.917969 113.601562 C 288.210938 109.792969 291.859375 99.929688 288.035156 91.609375 Z M 276.414062 106.019531 L 231.671875 126.644531 L 224.8125 111.730469 L 269.558594 91.089844 C 273.667969 89.183594 278.550781 91 280.457031 95.09375 C 282.324219 99.226562 280.507812 104.113281 276.414062 106.019531 Z M 276.414062 106.019531 " fill-opacity="1" fill-rule="nonzero"/><path fill="#ffffff" d="M 57.898438 112.773438 L 67.542969 91.835938 L 116.839844 114.566406 L 107.199219 135.503906 Z M 57.898438 112.773438 " fill-opacity="1" fill-rule="nonzero"/><path fill="#d9d9d9" d="M 75.921875 111.210938 L 71.917969 118.757812 L 108.601562 135.5 L 112.175781 127.738281 Z M 75.921875 111.210938 " fill-opacity="1" fill-rule="nonzero"/><path fill="#262626" d="M 121.042969 113.007812 C 120.632812 111.894531 119.789062 110.976562 118.710938 110.492188 L 69.421875 87.765625 C 68.34375 87.261719 67.125 87.226562 65.992188 87.640625 C 64.859375 88.050781 63.980469 88.878906 63.476562 89.976562 L 53.835938 110.90625 C 53.332031 111.984375 53.296875 113.207031 53.710938 114.335938 C 54.125 115.449219 54.96875 116.367188 56.042969 116.851562 L 105.332031 139.578125 L 105.351562 139.597656 C 105.960938 139.867188 106.589844 139.992188 107.21875 139.992188 C 108.976562 139.992188 110.574219 138.96875 111.277344 137.386719 L 120.902344 116.4375 C 121.402344 115.359375 121.457031 114.140625 121.042969 113.007812 Z M 110.898438 116.746094 L 105.011719 129.519531 L 63.855469 110.5625 L 69.726562 97.789062 Z M 110.898438 116.746094 " fill-opacity="1" fill-rule="nonzero"/><path fill="#858585" d="M 23.382812 99.121094 L 76.550781 123.625 L 87.914062 98.957031 L 34.730469 74.453125 C 27.925781 71.308594 19.863281 74.289062 16.722656 81.097656 C 13.597656 87.910156 16.578125 95.976562 23.382812 99.121094 Z M 23.382812 99.121094 " fill-opacity="1" fill-rule="nonzero"/><path fill="#4d4d4d" d="M 79.226562 113.007812 L 25.699219 89.273438 C 20.347656 86.902344 17.277344 81.457031 17.65625 75.925781 C 17.3125 76.480469 16.992188 77.058594 16.722656 77.667969 C 13.6875 84.511719 16.792969 92.542969 23.632812 95.582031 L 76.925781 120.015625 Z M 79.226562 113.007812 " fill-opacity="1" fill-rule="nonzero"/><g clip-path="url(#7ede53d8b9)"><path fill="#262626" d="M 92.152344 97.394531 C 91.742188 96.28125 90.898438 95.363281 89.820312 94.878906 L 36.632812 70.375 C 32.253906 68.363281 27.351562 68.164062 22.808594 69.835938 C 18.285156 71.503906 14.675781 74.847656 12.644531 79.230469 C 8.496094 88.269531 12.464844 99.011719 21.496094 103.199219 L 74.648438 127.722656 L 74.664062 127.738281 C 75.273438 128.007812 75.902344 128.136719 76.53125 128.136719 C 78.292969 128.136719 79.871094 127.128906 80.625 125.511719 L 91.992188 100.84375 C 92.511719 99.75 92.566406 98.527344 92.152344 97.394531 Z M 20.796875 82.96875 C 22.339844 79.644531 25.644531 77.6875 29.074219 77.6875 C 30.351562 77.6875 31.625 77.957031 32.863281 78.511719 L 81.972656 101.132812 L 74.359375 117.644531 L 25.269531 95.042969 C 20.726562 92.9375 18.714844 87.53125 20.796875 82.96875 Z M 20.796875 82.96875 " fill-opacity="1" fill-rule="nonzero"/></g><path fill="#742205" d="M 144.601562 153.414062 C 151.710938 146.585938 165.738281 153.613281 157.40625 162.757812 C 154.136719 166.332031 157.457031 171.917969 156.039062 175.332031 C 153.992188 180.273438 158.445312 187.785156 154.082031 190.496094 C 151.890625 191.863281 149.558594 183.023438 148.589844 181.28125 C 149.898438 185.519531 146.414062 188.375 148.375 193.351562 C 149.863281 197.125 146.058594 202.496094 144.351562 194.84375 C 143.453125 190.835938 142.269531 187.082031 141.875 184.550781 C 141.117188 179.664062 140.597656 173.984375 140.582031 173.464844 C 140.617188 174.558594 138.28125 183.523438 135.066406 174.34375 C 132.535156 167.140625 137.816406 159.054688 144.601562 153.414062 Z M 144.601562 153.414062 " fill-opacity="1" fill-rule="nonzero"/><path fill="#ffffff" d="M 94.78125 170.621094 L 97.101562 147.6875 L 151.105469 153.15625 L 148.785156 176.089844 Z M 94.78125 170.621094 " fill-opacity="1" fill-rule="nonzero"/><path fill="#d9d9d9" d="M 110.378906 163.851562 L 109.15625 172.3125 L 149.34375 175.675781 L 150.097656 167.15625 Z M 110.378906 163.851562 " fill-opacity="1" fill-rule="nonzero"/><path fill="#262626" d="M 151.585938 148.6875 L 97.574219 143.226562 C 96.375 143.121094 95.207031 143.460938 94.289062 144.214844 C 93.339844 144.988281 92.765625 146.066406 92.65625 147.25 L 90.339844 170.175781 C 90.214844 171.363281 90.574219 172.546875 91.328125 173.464844 C 92.082031 174.398438 93.160156 174.972656 94.363281 175.082031 L 148.335938 180.5625 C 148.515625 180.578125 148.660156 180.578125 148.804688 180.578125 C 149.828125 180.578125 150.851562 180.21875 151.660156 179.554688 C 152.609375 178.78125 153.183594 177.703125 153.292969 176.519531 L 155.609375 153.59375 C 155.84375 151.148438 154.046875 148.941406 151.585938 148.6875 Z M 146.199219 157.1875 L 144.78125 171.183594 L 99.695312 166.617188 L 101.113281 152.625 Z M 146.199219 157.1875 " fill-opacity="1" fill-rule="nonzero"/><path fill="#858585" d="M 57.695312 168.953125 L 115.945312 174.847656 L 118.675781 147.828125 L 60.425781 141.933594 C 52.972656 141.179688 46.3125 146.621094 45.558594 154.078125 C 44.804688 161.535156 50.246094 168.199219 57.695312 168.953125 Z M 57.695312 168.953125 " fill-opacity="1" fill-rule="nonzero"/><path fill="#4d4d4d" d="M 115.925781 164.355469 L 57.695312 158.246094 C 51.859375 157.636719 47.28125 153.414062 45.933594 148.023438 C 45.773438 148.652344 45.664062 149.300781 45.59375 149.980469 C 44.820312 157.4375 50.246094 165.863281 57.695312 166.65625 L 113.898438 172.546875 Z M 115.925781 164.355469 " fill-opacity="1" fill-rule="nonzero"/><path fill="#262626" d="M 122.15625 144.988281 C 121.402344 144.054688 120.324219 143.480469 119.125 143.371094 L 60.875 137.460938 C 50.964844 136.453125 42.09375 143.710938 41.085938 153.628906 C 40.621094 158.445312 42.019531 163.152344 45.074219 166.871094 C 48.109375 170.609375 52.433594 172.941406 57.246094 173.429688 L 115.476562 179.320312 C 115.65625 179.339844 115.800781 179.339844 115.945312 179.339844 C 116.988281 179.339844 117.992188 178.980469 118.765625 178.332031 C 119.714844 177.5625 120.289062 176.484375 120.398438 175.296875 L 123.128906 148.277344 C 123.253906 147.070312 122.910156 145.902344 122.15625 144.988281 Z M 113.753906 151.851562 L 111.921875 169.941406 L 58.144531 164.5 C 53.171875 163.996094 49.527344 159.523438 50.027344 154.546875 C 50.28125 152.136719 51.449219 149.964844 53.332031 148.417969 C 55.21875 146.875 57.570312 146.171875 59.996094 146.425781 Z M 113.753906 151.851562 " fill-opacity="1" fill-rule="nonzero"/></svg>