<svg xmlns="http://www.w3.org/2000/svg" xmlns:xlink="http://www.w3.org/1999/xlink" width="200" zoomAndPan="magnify" viewBox="0 0 150 89.999999" height="120" preserveAspectRatio="xMidYMid meet" version="1.0"><defs><clipPath id="d070117a0a"><path d="M 13.539062 62 L 132 62 L 132 85.421875 L 13.539062 85.421875 Z M 13.539062 62 " clip-rule="nonzero"/></clipPath><clipPath id="10029072da"><path d="M 31 3.671875 L 104 3.671875 L 104 71 L 31 71 Z M 31 3.671875 " clip-rule="nonzero"/></clipPath></defs><path fill="#ef1c6e" d="M 87.878906 63.308594 C 89.410156 63.359375 91 63.414062 92.566406 63.429688 L 92.710938 63.433594 L 92.691406 63.285156 C 92.578125 62.390625 92.449219 61.496094 92.328125 60.613281 L 92.3125 60.503906 L 92.203125 60.5 C 86.753906 60.300781 81.273438 60.457031 75.910156 60.972656 L 75.808594 60.980469 L 75.792969 61.078125 C 75.6875 61.738281 75.59375 62.457031 75.503906 63.332031 L 75.488281 63.488281 L 75.644531 63.472656 C 79.714844 63.050781 83.863281 63.183594 87.878906 63.308594 " fill-opacity="1" fill-rule="nonzero"/><path fill="#ef1c6e" d="M 114.457031 63.585938 C 114.679688 63.542969 114.90625 63.503906 115.128906 63.464844 C 117.09375 63.105469 118.660156 62.691406 120.0625 62.152344 L 120.414062 62.019531 L 120.054688 61.910156 C 119.714844 61.8125 119.289062 61.777344 118.890625 61.820312 C 118.832031 61.820312 118.769531 61.820312 118.699219 61.8125 C 118.679688 61.8125 118.660156 61.8125 118.636719 61.820312 C 117.132812 61.789062 115.671875 62.097656 114.261719 62.402344 C 113.789062 62.507812 113.316406 62.605469 112.835938 62.703125 C 112.628906 62.738281 112.421875 62.777344 112.210938 62.8125 C 111.308594 62.976562 110.371094 63.144531 109.519531 63.503906 L 109.191406 63.640625 L 109.53125 63.742188 C 110.113281 63.921875 110.714844 63.988281 111.316406 63.988281 C 112.359375 63.988281 113.417969 63.785156 114.457031 63.585938 " fill-opacity="1" fill-rule="nonzero"/><path fill="#ef1c6e" d="M 75.292969 64.910156 L 75.28125 65.007812 C 75.261719 65.167969 75.242188 65.320312 75.214844 65.472656 L 75.164062 65.746094 C 74.894531 67.152344 74.613281 68.605469 74.582031 70.066406 L 74.578125 70.113281 L 74.609375 70.148438 C 74.757812 70.335938 74.859375 70.488281 74.949219 70.648438 L 74.988281 70.714844 L 75.058594 70.714844 C 76.683594 70.722656 78.363281 70.773438 79.988281 70.816406 C 81.859375 70.867188 83.761719 70.917969 85.660156 70.917969 C 88.023438 70.917969 90.375 70.839844 92.671875 70.578125 L 92.757812 70.566406 L 92.78125 70.480469 C 92.792969 70.445312 92.804688 70.40625 92.820312 70.371094 L 92.839844 70.324219 L 92.847656 70.25 C 93.078125 68.707031 93.089844 67.070312 92.886719 64.953125 L 92.875 64.839844 L 92.761719 64.839844 C 91.144531 64.820312 89.496094 64.765625 87.902344 64.714844 C 83.800781 64.585938 79.5625 64.449219 75.394531 64.902344 L 75.292969 64.910156 " fill-opacity="1" fill-rule="nonzero"/><path fill="#ef1c6e" d="M 108.871094 68.445312 L 108.871094 68.527344 L 108.945312 68.5625 C 109.238281 68.699219 109.515625 68.882812 109.804688 69.078125 C 109.925781 69.160156 110.054688 69.242188 110.183594 69.328125 L 110.234375 69.355469 L 110.289062 69.339844 C 112.40625 68.695312 114.699219 68.464844 116.917969 68.242188 C 118.085938 68.125 119.292969 68.007812 120.457031 67.824219 L 120.546875 67.8125 L 120.558594 67.722656 C 120.769531 66.351562 120.742188 64.945312 120.714844 63.589844 L 120.710938 63.414062 L 120.542969 63.476562 C 118.144531 64.375 115.6875 64.800781 113.816406 65.074219 C 112.066406 65.335938 110.609375 65.5 109.109375 65.058594 L 108.9375 65.003906 L 108.945312 65.1875 C 108.988281 65.917969 108.949219 66.667969 108.914062 67.394531 C 108.898438 67.746094 108.878906 68.097656 108.871094 68.445312 " fill-opacity="1" fill-rule="nonzero"/><path fill="#ef1c6e" d="M 124.632812 62.621094 C 124.671875 62.96875 124.710938 63.316406 124.742188 63.667969 L 124.75 63.761719 L 124.84375 63.78125 C 124.976562 63.804688 125.113281 63.832031 125.253906 63.859375 C 125.761719 63.96875 126.308594 64.078125 126.789062 64.078125 C 127.144531 64.078125 127.46875 64.015625 127.714844 63.839844 C 128.046875 63.601562 128.140625 63.101562 128.21875 62.660156 C 128.253906 62.464844 128.285156 62.277344 128.339844 62.132812 C 128.429688 61.878906 128.542969 61.640625 128.664062 61.386719 L 128.742188 61.222656 L 128.757812 61.167969 C 128.757812 61.152344 128.753906 61.136719 128.75 61.101562 L 128.769531 60.910156 C 129.003906 58.40625 129.269531 55.566406 126.769531 54.128906 L 126.664062 54.074219 L 126.597656 54.167969 C 125.671875 55.539062 124.992188 56.960938 124.683594 58.179688 C 124.300781 59.667969 124.46875 61.167969 124.632812 62.621094 " fill-opacity="1" fill-rule="nonzero"/><path fill="#ef1c6e" d="M 99.171875 11.554688 C 95.097656 11.554688 91.335938 12.089844 87.992188 13.144531 C 80.917969 15.351562 74.921875 19.226562 70.644531 24.339844 C 59.726562 37.398438 57.847656 57.519531 57.703125 68.347656 L 57.699219 68.476562 L 57.824219 68.480469 C 60.355469 68.527344 62.910156 68.800781 65.378906 69.066406 C 67.890625 69.335938 70.488281 69.617188 73.066406 69.65625 L 73.1875 69.660156 L 73.191406 69.535156 C 73.265625 68.21875 73.519531 66.882812 73.738281 65.707031 C 73.902344 64.835938 74.007812 63.941406 74.105469 63.078125 C 74.210938 62.195312 74.316406 61.285156 74.488281 60.398438 C 74.515625 60.257812 74.566406 60.152344 74.652344 60.0625 L 74.671875 60.035156 C 74.742188 59.898438 74.914062 59.664062 75.261719 59.628906 C 80.921875 59.050781 86.773438 58.875 92.648438 59.105469 C 92.734375 59.113281 92.804688 59.125 92.863281 59.148438 L 92.894531 59.15625 C 93.191406 59.183594 93.558594 59.371094 93.617188 59.828125 C 93.675781 60.261719 93.738281 60.695312 93.792969 61.128906 C 94.175781 63.9375 94.570312 66.84375 94.296875 69.738281 L 94.285156 69.871094 L 94.414062 69.878906 C 95.050781 69.914062 95.707031 69.964844 96.339844 70.015625 C 97.574219 70.113281 98.828125 70.214844 100.070312 70.214844 C 101.179688 70.214844 102.28125 70.136719 103.34375 69.902344 C 103.605469 69.84375 103.871094 69.78125 104.132812 69.726562 C 105.226562 69.476562 106.265625 69.238281 107.347656 69.128906 L 107.464844 69.117188 L 107.464844 69.003906 C 107.464844 68.976562 107.46875 68.945312 107.476562 68.917969 L 107.46875 68.808594 C 107.457031 68.773438 107.453125 68.757812 107.457031 68.726562 C 107.460938 68.285156 107.488281 67.824219 107.515625 67.378906 C 107.585938 66.191406 107.664062 64.964844 107.304688 63.800781 C 107.164062 63.359375 107.457031 63.132812 107.585938 63.058594 L 107.628906 63.023438 C 107.683594 62.949219 107.742188 62.882812 107.808594 62.832031 C 108.992188 61.988281 110.46875 61.714844 111.890625 61.449219 C 112.25 61.386719 112.609375 61.320312 112.960938 61.242188 C 113.191406 61.191406 113.425781 61.144531 113.65625 61.09375 C 115.335938 60.722656 116.941406 60.382812 118.617188 60.402344 C 118.671875 60.410156 118.730469 60.414062 118.773438 60.421875 L 118.796875 60.425781 L 118.898438 60.402344 C 120.078125 60.296875 121.53125 60.734375 122.011719 61.785156 C 122.089844 61.953125 122.113281 62.140625 122.078125 62.304688 L 122.070312 62.335938 L 122.089844 62.414062 C 122.101562 62.445312 122.109375 62.472656 122.109375 62.496094 L 122.128906 64.722656 L 122.320312 64.613281 C 122.578125 64.457031 122.847656 64.320312 123.105469 64.191406 L 123.359375 64.0625 L 123.351562 63.980469 C 123.316406 63.488281 123.265625 62.992188 123.21875 62.511719 C 123.023438 60.675781 122.839844 58.945312 123.539062 57.21875 C 124.191406 55.617188 124.882812 54.277344 125.652344 53.128906 L 125.6875 53.074219 L 125.664062 53.011719 C 125.621094 52.894531 125.597656 52.769531 125.597656 52.632812 C 125.929688 38.941406 121.066406 26.0625 112.253906 17.289062 C 110.746094 15.796875 109.476562 14.609375 108.246094 13.539062 C 107.558594 13.113281 106.925781 12.828125 106.25 12.636719 C 103.722656 11.917969 101.460938 11.5625 99.339844 11.554688 C 99.285156 11.554688 99.226562 11.554688 99.171875 11.554688 " fill-opacity="1" fill-rule="nonzero"/><path fill="#ef1c6e" d="M 112.503906 73.324219 C 105.921875 74.332031 98.941406 75.453125 92.234375 77.1875 L 91.722656 77.316406 L 92.238281 77.433594 C 95.734375 78.203125 99.632812 78.671875 104.5 78.910156 C 105.078125 78.9375 105.679688 78.984375 106.261719 79.03125 C 107.203125 79.105469 108.164062 79.179688 109.109375 79.179688 C 109.546875 79.179688 109.984375 79.164062 110.410156 79.125 C 112.230469 78.949219 113.507812 78.152344 114.3125 76.683594 L 114.324219 76.65625 C 114.605469 75.617188 114.84375 74.558594 115.074219 73.53125 L 115.203125 72.96875 L 115.027344 72.992188 C 114.132812 73.089844 113.285156 73.203125 112.503906 73.324219 " fill-opacity="1" fill-rule="nonzero"/><g clip-path="url(#d070117a0a)"><path fill="#ef1c6e" d="M 131.628906 63.113281 C 131.460938 62.496094 130.925781 62.132812 130.050781 62.039062 L 129.953125 62.03125 L 129.917969 62.117188 C 129.730469 62.566406 129.582031 62.949219 129.476562 63.351562 C 129.28125 64.070312 129.015625 64.777344 128.425781 65.058594 C 127.496094 65.5 126.585938 65.375 125.628906 65.238281 C 125.234375 65.1875 124.835938 65.132812 124.421875 65.117188 L 124.398438 65.113281 L 124.375 65.125 C 124.335938 65.136719 124.3125 65.152344 124.277344 65.175781 C 124.15625 65.234375 124.03125 65.300781 123.90625 65.359375 C 123.316406 65.640625 122.714844 65.929688 122.257812 66.363281 C 122.21875 66.390625 122.1875 66.421875 122.144531 66.445312 L 122.085938 66.480469 L 122.082031 66.550781 C 122.039062 67.34375 121.949219 68.035156 121.820312 68.667969 C 121.734375 69.097656 121.386719 69.191406 121.101562 69.148438 L 121.078125 69.144531 L 121.058594 69.148438 C 119.828125 69.351562 118.53125 69.476562 117.28125 69.601562 C 114.945312 69.832031 112.523438 70.074219 110.328125 70.796875 C 110.035156 70.894531 109.839844 70.792969 109.726562 70.6875 L 109.671875 70.660156 C 109.660156 70.65625 109.648438 70.648438 109.632812 70.644531 L 109.621094 70.640625 C 109.515625 70.574219 109.398438 70.484375 109.273438 70.386719 L 109.199219 70.332031 L 109.125 70.378906 C 109.019531 70.445312 108.90625 70.472656 108.761719 70.472656 C 107.429688 70.460938 106.148438 70.734375 104.902344 71.003906 C 103.816406 71.242188 102.699219 71.484375 101.570312 71.523438 C 99.761719 71.574219 97.929688 71.472656 96.160156 71.371094 C 95.484375 71.335938 94.808594 71.296875 94.128906 71.265625 L 94.035156 71.261719 L 94.003906 71.355469 C 93.910156 71.644531 93.671875 71.835938 93.386719 71.847656 L 93.332031 71.863281 C 93.25 71.90625 93.164062 71.9375 93.078125 71.945312 C 88.851562 72.476562 84.390625 72.347656 80.082031 72.226562 C 78.230469 72.175781 76.320312 72.117188 74.472656 72.117188 C 74.039062 72.117188 73.847656 71.808594 73.816406 71.519531 L 73.804688 71.476562 C 73.753906 71.371094 73.691406 71.273438 73.632812 71.175781 L 73.578125 71.078125 L 73.507812 71.078125 C 70.78125 71.066406 68.035156 70.765625 65.378906 70.472656 C 62.714844 70.179688 59.957031 69.878906 57.21875 69.867188 L 57.152344 69.867188 L 57.117188 69.917969 C 57.085938 69.957031 57.042969 69.996094 56.988281 70.035156 C 56.808594 70.152344 56.628906 70.273438 56.449219 70.394531 C 55.546875 71.003906 54.621094 71.628906 53.621094 72.101562 C 53.511719 72.160156 53.394531 72.1875 53.269531 72.175781 L 53.253906 72.171875 L 53.238281 72.175781 C 53.113281 72.203125 53.007812 72.203125 52.894531 72.179688 C 50.289062 71.570312 47.652344 70.875 45.101562 70.207031 C 43.785156 69.859375 42.460938 69.511719 41.140625 69.179688 C 40.234375 68.945312 39.324219 68.679688 38.4375 68.425781 C 36.730469 67.929688 34.960938 67.414062 33.171875 67.117188 C 32.972656 67.085938 32.691406 67.074219 32.375 67.058594 C 31.605469 67.027344 30.550781 66.984375 30.21875 66.5625 C 29.863281 66.109375 30.0625 65.683594 30.292969 65.191406 C 30.4375 64.882812 30.582031 64.5625 30.582031 64.230469 C 30.582031 64.171875 30.582031 64.117188 30.59375 64.054688 L 30.605469 63.9375 L 30.484375 63.917969 C 29.972656 63.839844 29.425781 63.769531 28.714844 63.695312 L 28.664062 63.691406 L 28.625 63.71875 C 24.863281 66.332031 20.46875 69.351562 15.898438 72.132812 C 15.792969 72.203125 15.675781 72.269531 15.558594 72.339844 C 14.679688 72.863281 13.582031 73.507812 13.613281 74.3125 C 13.636719 74.835938 14.117188 75.324219 15.085938 75.800781 C 16.328125 76.414062 17.582031 76.890625 19.03125 77.296875 L 19.617188 77.464844 C 22.085938 78.164062 24.640625 78.890625 27.1875 79.519531 C 32.8125 80.898438 38.828125 82.101562 46.695312 83.398438 C 47.886719 83.59375 49.109375 83.835938 50.402344 84.089844 C 53.664062 84.730469 57.226562 85.433594 60.640625 85.433594 C 62.363281 85.433594 64.054688 85.253906 65.648438 84.800781 C 67.5 84.273438 69.203125 83.394531 70.851562 82.539062 C 71.988281 81.953125 73.167969 81.339844 74.386719 80.851562 C 77.238281 79.722656 80.144531 78.828125 82.355469 78.171875 L 83.574219 77.808594 C 88.6875 76.289062 93.980469 74.71875 99.335938 73.691406 C 104.964844 72.609375 111.09375 71.621094 118.070312 70.664062 L 118.566406 70.597656 C 121.0625 70.253906 123.644531 69.902344 126.023438 68.960938 C 127.382812 68.425781 128.601562 67.921875 129.632812 67.15625 C 130.542969 66.484375 131.992188 64.4375 131.628906 63.113281 " fill-opacity="1" fill-rule="nonzero"/></g><path fill="#ef1c6e" d="M 108.699219 80.527344 L 107.796875 80.480469 C 101.59375 80.15625 95.179688 79.828125 89.054688 78.089844 L 89.023438 78.078125 L 88.601562 78.195312 C 88.203125 78.3125 87.800781 78.425781 87.402344 78.554688 C 87.328125 78.574219 87.253906 78.597656 87.179688 78.617188 C 87.097656 78.640625 87.015625 78.664062 86.941406 78.6875 L 86.601562 78.800781 L 86.933594 78.929688 C 94.917969 82.105469 103.777344 82.105469 111.59375 82.105469 L 111.671875 82.105469 L 111.707031 82.035156 C 111.96875 81.550781 112.242188 81.070312 112.515625 80.589844 L 112.914062 79.890625 L 112.585938 80.023438 C 111.503906 80.445312 110.234375 80.609375 108.699219 80.527344 " fill-opacity="1" fill-rule="nonzero"/><g clip-path="url(#10029072da)"><path fill="#ef1c6e" d="M 32.0625 64.652344 C 32.390625 65.671875 33.21875 65.796875 34.175781 65.933594 C 34.492188 65.980469 34.816406 66.03125 35.167969 66.113281 C 36.332031 66.382812 37.503906 66.714844 38.636719 67.039062 C 39.578125 67.304688 40.554688 67.582031 41.523438 67.824219 C 43.164062 68.230469 44.832031 68.667969 46.445312 69.089844 C 48.164062 69.539062 49.941406 70.003906 51.695312 70.433594 L 51.832031 70.46875 L 51.851562 70.332031 C 52.328125 66.96875 52.726562 63.53125 53.113281 60.207031 C 53.933594 53.164062 54.773438 45.882812 56.421875 38.878906 C 58.117188 31.621094 60.871094 23.40625 68.394531 17.515625 C 73.558594 13.460938 80.484375 10.863281 89.566406 9.582031 C 93.25 9.058594 97.574219 8.65625 101.738281 9.644531 C 102.257812 9.773438 102.804688 9.890625 103.351562 10.007812 L 103.984375 10.144531 L 103.453125 9.78125 C 102.683594 9.253906 101.882812 8.742188 100.984375 8.214844 C 98.632812 7.527344 95.632812 7.273438 91.21875 7.390625 C 87.449219 7.496094 83.371094 7.714844 79.066406 8.546875 C 74.042969 9.527344 70.394531 10.726562 67.582031 12.328125 C 67.207031 12.570312 66.839844 12.8125 66.472656 13.054688 L 66.191406 13.238281 L 65.917969 13.460938 C 65.769531 13.601562 65.605469 13.742188 65.441406 13.875 L 65.410156 13.902344 C 65.25 14.046875 65.074219 14.191406 64.902344 14.335938 C 64.824219 14.410156 64.714844 14.523438 64.613281 14.632812 L 64.464844 14.789062 C 64.316406 14.953125 64.164062 15.109375 64.015625 15.265625 C 63.875 15.417969 63.734375 15.5625 63.59375 15.714844 C 63.382812 15.945312 63.171875 16.167969 62.957031 16.386719 C 62.601562 16.753906 62.265625 17.105469 61.960938 17.476562 C 61.476562 18.089844 61.019531 18.664062 60.578125 19.222656 C 59.90625 20.015625 59.347656 20.828125 58.851562 21.546875 C 58.667969 21.8125 58.488281 22.074219 58.3125 22.320312 C 58.109375 22.605469 57.917969 22.878906 57.734375 23.144531 L 57.40625 23.613281 L 57.199219 23.9375 C 57.015625 24.222656 56.84375 24.488281 56.6875 24.734375 C 56.234375 25.429688 55.925781 25.882812 55.71875 26.179688 C 55.875 25.855469 56.121094 25.363281 56.511719 24.632812 L 56.796875 24.105469 C 56.90625 23.902344 57.023438 23.6875 57.144531 23.460938 C 57.332031 23.132812 57.542969 22.796875 57.769531 22.433594 L 57.96875 22.109375 C 58.117188 21.875 58.269531 21.632812 58.425781 21.382812 C 58.902344 20.613281 59.441406 19.738281 60.121094 18.878906 L 60.5625 18.285156 C 60.855469 17.886719 61.152344 17.480469 61.460938 17.0625 C 61.765625 16.664062 62.109375 16.285156 62.476562 15.886719 C 62.675781 15.667969 62.878906 15.445312 63.074219 15.21875 L 63.476562 14.777344 C 63.632812 14.601562 63.789062 14.429688 63.945312 14.261719 C 64.007812 14.191406 64.066406 14.128906 64.125 14.0625 C 64.207031 13.972656 64.296875 13.871094 64.410156 13.761719 C 64.539062 13.640625 64.671875 13.527344 64.808594 13.40625 L 64.902344 13.320312 C 65.027344 13.21875 65.136719 13.117188 65.253906 13.007812 C 65.464844 12.820312 65.675781 12.617188 65.957031 12.445312 C 66.175781 12.292969 66.402344 12.140625 66.621094 11.984375 C 66.804688 11.863281 66.988281 11.734375 67.160156 11.617188 C 68.71875 10.691406 70.523438 9.90625 72.675781 9.210938 C 73.6875 8.882812 74.738281 8.601562 75.714844 8.34375 L 75.972656 8.28125 C 76.410156 8.179688 76.847656 8.074219 77.28125 7.964844 C 77.605469 7.894531 77.90625 7.839844 78.210938 7.777344 C 78.4375 7.734375 78.664062 7.695312 78.894531 7.648438 C 79.226562 7.589844 79.558594 7.523438 79.886719 7.464844 L 80.488281 7.351562 C 80.878906 7.289062 81.277344 7.238281 81.664062 7.191406 L 82.101562 7.136719 C 82.632812 7.0625 83.171875 6.996094 83.691406 6.933594 C 84.035156 6.898438 84.378906 6.875 84.71875 6.847656 C 84.898438 6.835938 85.078125 6.824219 85.257812 6.808594 C 86.292969 6.726562 87.300781 6.652344 88.289062 6.640625 L 89.0625 6.613281 C 89.804688 6.589844 90.507812 6.566406 91.203125 6.566406 C 93.90625 6.542969 96.125 6.660156 98.007812 6.941406 L 98.875 7.070312 L 98.078125 6.703125 C 97.152344 6.269531 96.207031 5.875 95.261719 5.539062 C 92.191406 4.445312 88.828125 3.808594 85.25 3.640625 C 85.148438 3.644531 85.054688 3.648438 84.957031 3.65625 C 84.863281 3.660156 84.769531 3.664062 84.667969 3.667969 C 84.144531 3.703125 83.601562 3.734375 83.039062 3.765625 C 82.308594 3.808594 81.546875 3.851562 80.757812 3.910156 C 79.667969 3.988281 78.023438 4.132812 76.390625 4.511719 C 76.042969 4.574219 75.695312 4.675781 75.328125 4.789062 L 74.671875 4.988281 L 74.101562 5.214844 C 73.617188 5.402344 73.128906 5.59375 72.632812 5.789062 L 71.753906 6.132812 C 70.957031 6.449219 70.144531 6.765625 69.316406 7.089844 L 68.949219 7.25 C 68.25 7.550781 67.542969 7.863281 66.832031 8.164062 C 63.46875 9.507812 60.433594 11.097656 57.816406 12.894531 C 57.6875 12.984375 57.554688 13.074219 57.421875 13.15625 C 57.230469 13.285156 57.039062 13.40625 56.847656 13.546875 C 56.675781 13.675781 56.507812 13.808594 56.335938 13.933594 L 55.941406 14.238281 C 55.738281 14.394531 55.527344 14.554688 55.324219 14.710938 C 54.925781 15.003906 54.550781 15.28125 54.234375 15.570312 L 53.9375 15.820312 C 53.769531 15.957031 53.609375 16.085938 53.453125 16.226562 C 53.332031 16.34375 53.214844 16.453125 53.097656 16.566406 C 52.976562 16.679688 52.855469 16.789062 52.742188 16.902344 C 52.425781 17.1875 52.144531 17.488281 51.871094 17.785156 C 51.726562 17.9375 51.585938 18.09375 51.4375 18.242188 C 50.367188 19.40625 49.476562 20.492188 48.757812 21.367188 C 48.390625 21.808594 48.0625 22.207031 47.765625 22.546875 C 47.320312 23.078125 47.015625 23.417969 46.808594 23.632812 C 46.972656 23.375 47.222656 22.992188 47.609375 22.421875 L 47.816406 22.128906 C 48.5625 21.039062 49.589844 19.554688 51 17.863281 C 51.144531 17.710938 51.277344 17.550781 51.421875 17.386719 C 51.6875 17.078125 51.964844 16.753906 52.28125 16.449219 L 52.519531 16.203125 C 52.675781 16.042969 52.832031 15.886719 52.980469 15.730469 C 53.246094 15.5 53.507812 15.261719 53.769531 15.019531 C 54.125 14.6875 54.484375 14.40625 54.867188 14.105469 C 55.0625 13.949219 55.265625 13.792969 55.46875 13.625 C 55.714844 13.425781 55.964844 13.226562 56.21875 13.027344 L 56.359375 12.914062 C 56.546875 12.78125 56.746094 12.640625 56.941406 12.503906 C 57.074219 12.414062 57.199219 12.324219 57.332031 12.230469 C 58.75 11.199219 60.359375 10.277344 61.597656 9.589844 C 62.371094 9.195312 63.164062 8.808594 63.980469 8.398438 L 64.148438 8.328125 C 64.910156 7.996094 65.683594 7.664062 66.476562 7.324219 L 67.210938 7.011719 C 67.796875 6.757812 68.382812 6.503906 68.957031 6.261719 C 69.546875 6.023438 70.136719 5.796875 70.714844 5.578125 C 70.953125 5.488281 71.191406 5.394531 71.433594 5.304688 C 71.605469 5.238281 71.765625 5.175781 71.9375 5.113281 L 71.871094 4.867188 C 59.128906 7.628906 48.832031 14.210938 42.871094 23.390625 C 37.761719 31.261719 35.199219 40.152344 33.535156 47.019531 C 32.871094 49.757812 32.664062 52.726562 32.464844 55.605469 C 32.421875 56.222656 32.378906 56.839844 32.332031 57.445312 C 32.285156 58.0625 32.207031 58.6875 32.125 59.339844 C 31.925781 60.953125 31.722656 62.617188 31.953125 64.183594 C 31.980469 64.359375 32.019531 64.511719 32.0625 64.652344 " fill-opacity="1" fill-rule="nonzero"/></g><path fill="#ef1c6e" d="M 29.453125 59.269531 C 29.472656 60.265625 29.488281 61.261719 29.492188 62.265625 L 29.492188 62.375 L 29.605469 62.386719 C 29.902344 62.421875 30.199219 62.46875 30.496094 62.507812 L 30.636719 62.527344 L 30.640625 62.386719 C 30.722656 60.191406 30.867188 57.945312 31.070312 55.707031 L 31.097656 55.394531 L 30.863281 55.601562 C 30.371094 56.03125 29.929688 56.347656 29.484375 56.589844 L 29.417969 56.625 L 29.417969 56.699219 C 29.425781 57.558594 29.4375 58.414062 29.453125 59.269531 " fill-opacity="1" fill-rule="nonzero"/><path fill="#ef1c6e" d="M 71.625 21.222656 C 76.433594 16.582031 82.179688 13.246094 88.242188 11.582031 L 88.320312 11.5625 L 88.34375 11.449219 C 88.34375 11.429688 88.347656 11.410156 88.351562 11.394531 L 88.480469 11.132812 L 88.234375 11.171875 C 87.429688 11.308594 86.769531 11.429688 86.167969 11.550781 C 77.449219 13.339844 71.058594 16.394531 66.632812 20.890625 C 60.179688 27.421875 58.167969 36.300781 56.789062 44.113281 C 55.820312 49.585938 55.148438 55.191406 54.496094 60.609375 C 54.101562 63.847656 53.703125 67.203125 53.242188 70.484375 L 53.207031 70.738281 L 53.425781 70.617188 C 54.300781 70.148438 55.140625 69.582031 55.945312 69.035156 L 56.285156 68.804688 L 56.285156 68.742188 C 56.394531 59.085938 57.8125 49.9375 60.496094 41.542969 C 62.6875 34.691406 65.722656 26.917969 71.625 21.222656 " fill-opacity="1" fill-rule="nonzero"/></svg>