<svg xmlns="http://www.w3.org/2000/svg" xmlns:xlink="http://www.w3.org/1999/xlink" width="200" zoomAndPan="magnify" viewBox="0 0 150 89.999999" height="120" preserveAspectRatio="xMidYMid meet" version="1.0"><defs><clipPath id="d27bd0d22b"><path d="M 67 1.5 L 82 1.5 L 82 42 L 67 42 Z M 67 1.5 " clip-rule="nonzero"/></clipPath><clipPath id="2a2623d22b"><path d="M 33 74 L 119 74 L 119 86.25 L 33 86.25 Z M 33 74 " clip-rule="nonzero"/></clipPath><clipPath id="6b8e630562"><path d="M 10.074219 20 L 139.824219 20 L 139.824219 82 L 10.074219 82 Z M 10.074219 20 " clip-rule="nonzero"/></clipPath></defs><g clip-path="url(#d27bd0d22b)"><path fill="#ef1c6e" d="M 74.980469 20.09375 L 75.542969 20.09375 C 75.609375 21.5 75.621094 23.234375 75.539062 25.164062 C 75.515625 25.550781 75.488281 25.945312 75.457031 26.351562 C 75.210938 26.980469 74.976562 27.605469 74.753906 28.210938 C 74.707031 27.988281 74.652344 27.773438 74.59375 27.550781 C 74.640625 26.777344 74.691406 25.964844 74.730469 25.125 C 74.796875 23.667969 74.878906 21.757812 74.980469 20.09375 Z M 75.621094 37.734375 C 75.632812 37.746094 75.648438 37.757812 75.664062 37.773438 C 75.648438 37.765625 75.632812 37.761719 75.621094 37.757812 C 75.621094 37.75 75.621094 37.742188 75.621094 37.734375 Z M 71.597656 24.636719 C 74.058594 28.515625 73.726562 32.769531 72.621094 37.203125 C 72.003906 37.5 71.1875 37.601562 70.675781 37.8125 C 69.933594 38.121094 69.394531 38.703125 69.511719 39.558594 C 69.617188 40.335938 70.273438 40.914062 71.054688 40.898438 C 71.351562 40.886719 71.625 40.78125 71.890625 40.652344 C 72.074219 40.648438 72.265625 40.648438 72.453125 40.648438 C 73.691406 40.625 74.882812 40.621094 76.066406 40.710938 C 76.261719 40.746094 76.46875 40.78125 76.683594 40.808594 C 77.410156 40.898438 77.792969 41.070312 78.394531 41.464844 C 78.640625 41.636719 78.957031 41.59375 79.210938 41.464844 C 80.3125 40.914062 79.921875 39.496094 79.335938 38.734375 C 78.953125 38.230469 78.484375 37.8125 77.976562 37.449219 C 77.75 37.285156 77.460938 37.136719 77.199219 36.96875 C 75.835938 34.457031 75.296875 31.96875 76.476562 28.800781 C 76.972656 27.453125 77.445312 25.660156 78.214844 24.195312 C 79.15625 23.257812 80.226562 22.640625 81.484375 22.308594 L 81.753906 22.238281 L 81.675781 21.96875 C 80.863281 19.21875 79.414062 16.71875 78.011719 14.304688 C 77.664062 13.699219 77.3125 13.089844 76.96875 12.472656 C 75.945312 9.390625 75.289062 6.167969 75.011719 2.851562 C 74.988281 2.417969 74.960938 1.988281 74.917969 1.554688 L 74.109375 1.613281 C 74.136719 2.046875 74.164062 2.476562 74.199219 2.90625 C 74.265625 4.273438 74.238281 5.648438 74.113281 6.996094 C 74.011719 8.066406 73.855469 9.121094 73.640625 10.171875 C 72.953125 11.582031 72.167969 12.957031 71.390625 14.296875 C 69.984375 16.714844 68.535156 19.214844 67.71875 21.96875 L 67.636719 22.238281 L 67.90625 22.308594 C 69.355469 22.691406 70.554688 23.453125 71.597656 24.636719 " fill-opacity="1" fill-rule="nonzero"/></g><g clip-path="url(#2a2623d22b)"><path fill="#ef1c6e" d="M 108.878906 76.632812 C 108.644531 76.582031 108.464844 76.539062 108.347656 76.515625 C 102.667969 75.160156 96.347656 74.589844 88.464844 74.71875 L 83.371094 74.8125 C 77.710938 74.914062 71.855469 75.023438 66.09375 75.054688 L 65.675781 75.058594 C 53.167969 75.117188 37.542969 76.003906 34.105469 79.914062 C 33.566406 80.523438 33.335938 81.199219 33.417969 81.917969 L 33.441406 82.089844 L 33.601562 82.144531 C 35.066406 82.648438 36.425781 83.015625 37.113281 83.1875 C 40.667969 84.097656 44.332031 84.46875 47.875 84.832031 C 48.871094 84.929688 49.863281 85.03125 50.859375 85.140625 C 58.09375 85.957031 65.261719 86.160156 72.113281 86.160156 C 74.023438 86.160156 75.914062 86.144531 77.769531 86.117188 C 86.140625 86.011719 94.332031 85.644531 102.109375 85.03125 L 102.78125 84.980469 C 107.945312 84.570312 113.796875 84.117188 118.574219 81.738281 L 118.691406 81.679688 L 118.71875 81.546875 C 118.742188 81.4375 118.769531 81.355469 118.8125 81.28125 C 118.957031 81.007812 118.964844 80.71875 118.835938 80.433594 C 118.117188 78.851562 112.808594 77.503906 108.878906 76.632812 " fill-opacity="1" fill-rule="nonzero"/></g><path fill="#ef1c6e" d="M 122.105469 65.804688 L 121.527344 65.824219 L 121.585938 66.40625 C 121.683594 67.324219 121.789062 68.242188 121.898438 69.160156 L 122.078125 70.640625 L 122.632812 70.554688 C 123.480469 70.417969 124.152344 70.023438 124.503906 69.4375 C 124.722656 69.078125 124.921875 68.484375 124.648438 67.664062 C 124.273438 66.492188 123.230469 65.761719 122.105469 65.804688 " fill-opacity="1" fill-rule="nonzero"/><path fill="#ef1c6e" d="M 27.515625 69.003906 C 27.625 68.097656 27.726562 67.195312 27.8125 66.289062 L 27.878906 65.644531 L 27.234375 65.691406 C 25.980469 65.785156 25.199219 66.460938 25.140625 67.492188 L 25.140625 67.496094 C 25.082031 68.652344 25.753906 69.394531 26.941406 69.484375 L 27.457031 69.519531 L 27.515625 69.003906 " fill-opacity="1" fill-rule="nonzero"/><path fill="#ef1c6e" d="M 43.65625 60.496094 L 43.605469 60.535156 C 42.863281 61.28125 42.195312 62.730469 42.378906 63.875 C 42.476562 64.492188 42.816406 64.960938 43.355469 65.230469 C 43.78125 65.445312 44.25 65.535156 44.722656 65.535156 C 45.65625 65.535156 46.605469 65.183594 47.269531 64.730469 C 48.707031 63.75 48.628906 62.476562 48.078125 61.613281 C 47.253906 60.316406 45.230469 59.539062 43.65625 60.496094 " fill-opacity="1" fill-rule="nonzero"/><path fill="#ef1c6e" d="M 73.960938 54.25 L 74.0625 54.328125 L 74.1875 54.300781 C 74.964844 54.125 75.742188 54.089844 76.511719 54.160156 L 76.648438 54.171875 L 76.738281 54.074219 C 77.242188 53.535156 77.464844 52.898438 77.398438 52.175781 C 77.265625 50.757812 76.058594 49.398438 74.972656 48.597656 L 74.726562 48.414062 L 74.402344 48.996094 C 73.421875 50.726562 72.203125 52.875 73.960938 54.25 " fill-opacity="1" fill-rule="nonzero"/><path fill="#ef1c6e" d="M 78.675781 56.832031 L 78.652344 56.8125 C 77.410156 56.039062 75.824219 55.804688 74.246094 56.183594 C 74.167969 56.222656 74.074219 56.25 73.910156 56.265625 C 72.304688 56.765625 71.109375 57.921875 70.640625 59.429688 C 70.199219 60.847656 70.285156 62.132812 70.894531 63.144531 C 71.488281 64.128906 72.539062 64.792969 73.945312 65.054688 C 74.417969 65.140625 75.113281 65.234375 75.875 65.234375 C 77.40625 65.234375 79.191406 64.847656 79.910156 63.214844 C 80.769531 61.257812 80.476562 58.222656 78.675781 56.832031 " fill-opacity="1" fill-rule="nonzero"/><path fill="#ef1c6e" d="M 103.105469 65.230469 C 103.53125 65.445312 104 65.535156 104.472656 65.535156 C 105.410156 65.535156 106.355469 65.183594 107.023438 64.730469 C 108.457031 63.75 108.382812 62.476562 107.828125 61.613281 C 107.003906 60.316406 104.980469 59.539062 103.355469 60.535156 C 102.613281 61.28125 101.949219 62.730469 102.128906 63.875 C 102.226562 64.492188 102.566406 64.960938 103.105469 65.230469 " fill-opacity="1" fill-rule="nonzero"/><g clip-path="url(#6b8e630562)"><path fill="#ef1c6e" d="M 81.304688 64.519531 C 79.421875 67.324219 75.203125 67.722656 72.207031 66.488281 C 70.539062 65.804688 69.273438 64.476562 68.734375 62.84375 C 68.1875 61.1875 68.40625 59.398438 69.355469 57.808594 C 69.96875 56.773438 70.828125 55.894531 71.84375 55.257812 L 72.09375 55.101562 L 71.910156 54.863281 C 70.496094 53.003906 71.671875 50.570312 72.8125 48.207031 C 73.074219 47.671875 73.328125 47.144531 73.546875 46.636719 C 73.675781 46.335938 73.96875 46.230469 74.265625 46.230469 C 74.46875 46.230469 74.671875 46.277344 74.824219 46.34375 C 76.609375 47.117188 78.191406 48.820312 78.851562 50.691406 C 79.183594 51.632812 79.429688 53.046875 78.703125 54.429688 L 78.578125 54.679688 L 78.832031 54.804688 C 78.972656 54.867188 79.109375 54.953125 79.253906 55.03125 L 79.316406 55.0625 C 79.394531 55.085938 79.46875 55.128906 79.566406 55.203125 C 79.65625 55.257812 79.726562 55.320312 79.8125 55.417969 C 82.078125 57.398438 83.191406 61.714844 81.304688 64.519531 Z M 102.167969 59.101562 L 102.167969 59.105469 L 102.253906 59.046875 C 102.304688 59 102.34375 58.964844 102.390625 58.929688 C 104.578125 57.476562 107.808594 58.148438 109.304688 60.367188 C 109.96875 61.355469 110.203125 62.507812 109.960938 63.613281 C 109.710938 64.742188 108.992188 65.714844 107.941406 66.34375 C 105.957031 67.53125 103.117188 67.921875 101.527344 66.371094 C 100.695312 65.550781 100.265625 64.382812 100.308594 63.070312 C 100.367188 61.542969 101.082031 60.023438 102.167969 59.101562 Z M 50.210938 63.613281 C 49.960938 64.742188 49.242188 65.714844 48.191406 66.34375 C 46.207031 67.53125 43.371094 67.921875 41.785156 66.371094 C 40.945312 65.554688 40.515625 64.382812 40.5625 63.070312 C 40.617188 61.542969 41.328125 60.023438 42.417969 59.105469 L 42.507812 59.042969 C 42.554688 59 42.601562 58.964844 42.640625 58.929688 C 43.429688 58.40625 44.347656 58.160156 45.277344 58.160156 C 46.929688 58.160156 48.597656 58.949219 49.558594 60.367188 C 50.222656 61.355469 50.453125 62.507812 50.210938 63.613281 Z M 139.394531 21.097656 C 137.429688 23.445312 135.25 25.636719 132.917969 27.609375 C 132.378906 28.0625 131.878906 28.488281 131.410156 28.886719 C 129.824219 30.230469 128.609375 31.257812 127.566406 32.046875 C 126.09375 32.53125 124.597656 32.769531 123.046875 33.011719 C 121.902344 33.1875 120.71875 33.375 119.535156 33.667969 L 119.253906 33.738281 L 119.34375 34.011719 C 119.503906 34.53125 119.6875 35.089844 119.882812 35.675781 C 121.589844 40.871094 124.175781 48.714844 119.179688 51.535156 C 115.566406 53.570312 112.699219 52.699219 110.929688 51.609375 C 107.632812 49.574219 105.453125 45.15625 105.632812 40.863281 C 105.644531 40.570312 105.75 40.332031 105.945312 40.167969 C 106.164062 39.988281 106.496094 39.90625 106.839844 39.960938 C 108.015625 40.117188 109.003906 39.675781 109.644531 38.707031 C 110.375 37.59375 110.519531 35.929688 109.964844 35.003906 C 109.707031 34.566406 109.316406 34.347656 108.859375 34.390625 C 108.144531 34.453125 108.035156 33.878906 108.019531 33.699219 C 107.964844 33.1875 108.261719 32.601562 108.914062 32.53125 C 109.515625 32.460938 109.953125 32.050781 110.148438 31.359375 C 110.46875 30.222656 110.09375 28.460938 109.417969 27.929688 C 108.203125 26.972656 107.039062 27.433594 106.410156 28.113281 C 105.617188 28.980469 105.363281 30.535156 106.449219 31.71875 C 106.707031 32 106.785156 32.363281 106.648438 32.703125 C 106.507812 33.050781 106.179688 33.285156 105.785156 33.308594 C 104.554688 33.378906 103.394531 34.082031 102.964844 35.007812 C 102.730469 35.515625 102.597656 36.308594 103.300781 37.253906 L 103.429688 37.417969 C 103.742188 37.839844 104.039062 38.234375 104.226562 38.699219 C 104.5625 39.484375 104.8125 40.648438 104.117188 41.726562 C 102.386719 44.414062 99.5 46.6875 96.390625 47.804688 C 93.183594 48.960938 82.402344 52.039062 78.195312 43.039062 L 78.140625 42.921875 L 78.015625 42.890625 C 76.128906 42.425781 74.289062 42.464844 72.339844 42.503906 L 71.441406 42.519531 L 71.367188 42.679688 C 70.175781 45.433594 68.179688 47.375 65.425781 48.457031 C 61.765625 49.886719 57.023438 49.601562 52.746094 47.695312 C 49.777344 46.375 46.058594 44.234375 45.1875 41.503906 C 44.785156 40.257812 44.671875 39.363281 45.261719 38.453125 C 45.738281 37.722656 46.78125 35.871094 46.125 34.558594 C 45.746094 33.804688 44.902344 33.382812 43.613281 33.308594 C 43.222656 33.285156 42.890625 33.050781 42.753906 32.703125 C 42.617188 32.367188 42.691406 32 42.949219 31.71875 C 43.609375 31 43.800781 30.039062 43.472656 29.070312 C 43.144531 28.117188 42.386719 27.386719 41.585938 27.253906 C 40.960938 27.144531 40.378906 27.40625 39.9375 27.976562 C 39.523438 28.503906 38.785156 30.445312 39.277344 31.644531 C 39.484375 32.15625 39.894531 32.460938 40.5 32.535156 L 40.550781 32.527344 C 41.097656 32.636719 41.328125 33.089844 41.359375 33.449219 C 41.386719 33.769531 41.265625 34.175781 40.855469 34.335938 L 40.644531 34.417969 C 39.917969 34.695312 39.292969 34.933594 39.136719 36.046875 C 38.976562 37.089844 39.390625 38.28125 40.175781 39.082031 C 40.847656 39.769531 41.699219 40.082031 42.5625 39.957031 C 42.914062 39.910156 43.230469 39.984375 43.449219 40.164062 C 43.644531 40.328125 43.753906 40.570312 43.765625 40.863281 C 43.941406 45.046875 42.894531 47.886719 40.273438 50.363281 C 37.410156 53.082031 32.660156 53.425781 29.695312 51.128906 C 25.472656 47.863281 27.789062 40.898438 29.320312 36.285156 L 29.453125 35.871094 L 29.023438 35.929688 C 28.992188 35.933594 28.957031 35.9375 28.921875 35.949219 L 28.835938 35.964844 C 25.90625 36.488281 23.550781 35.710938 22.671875 35.355469 C 21.859375 35.003906 21.359375 34.746094 21.042969 34.511719 C 21.328125 34.597656 21.683594 34.683594 22.089844 34.78125 C 22.304688 34.839844 22.539062 34.894531 22.785156 34.957031 C 24.175781 35.289062 26.332031 35.589844 28.683594 35.167969 C 29.011719 35.132812 29.3125 35.050781 29.625 34.964844 L 29.765625 34.925781 L 29.808594 34.789062 C 29.878906 34.582031 29.945312 34.378906 30.007812 34.179688 L 30.148438 33.746094 L 29.867188 33.675781 C 28.730469 33.410156 27.582031 33.242188 26.472656 33.085938 C 25.816406 32.996094 25.171875 32.902344 24.535156 32.792969 C 20.8125 31.300781 17.652344 29.171875 15.148438 26.441406 C 13.84375 25.019531 12.789062 23.523438 12.015625 22.4375 C 11.078125 21.105469 10.824219 20.746094 10.480469 20.949219 C 10.101562 21.164062 10.277344 21.574219 11.664062 24.738281 C 11.917969 25.324219 12.210938 25.988281 12.53125 26.734375 C 13.824219 29.707031 14.414062 31.199219 14.808594 32.191406 C 15.203125 33.179688 15.367188 33.589844 15.792969 34.375 C 17.121094 36.8125 18.9375 39.058594 21.195312 41.078125 C 21.402344 41.429688 21.59375 41.765625 21.808594 42.113281 C 24.511719 46.511719 26.984375 50.886719 27.5625 55.972656 L 27.632812 56.363281 L 27.984375 56.167969 C 28.148438 56.078125 28.3125 55.988281 28.46875 55.914062 C 28.765625 55.789062 29.054688 55.664062 29.335938 55.542969 C 29.875 55.304688 30.386719 55.082031 30.886719 54.914062 L 33.144531 54.210938 C 33.527344 54.121094 33.910156 54.035156 34.273438 53.949219 L 35.226562 53.726562 C 37.652344 53.230469 39.574219 52.980469 41.117188 52.773438 L 41.480469 52.726562 C 42.378906 52.617188 43.546875 52.476562 44.425781 52.390625 C 43.785156 52.5625 42.847656 52.777344 41.53125 53.03125 C 41.089844 53.121094 40.605469 53.210938 40.089844 53.308594 C 38.800781 53.558594 37.195312 53.863281 35.34375 54.285156 L 33.761719 54.679688 L 31.113281 55.507812 C 30.632812 55.679688 30.164062 55.886719 29.671875 56.105469 C 29.382812 56.230469 29.085938 56.363281 28.769531 56.496094 C 28.320312 56.710938 27.894531 56.960938 27.414062 57.242188 L 27.359375 57.285156 C 26.632812 58.019531 25.835938 59.578125 26.304688 60.464844 C 26.480469 60.808594 26.921875 61.179688 27.984375 60.988281 C 28.054688 60.976562 28.125 60.96875 28.191406 60.96875 L 28.273438 60.96875 L 28.34375 60.921875 C 29.402344 60.207031 30.613281 59.585938 32.039062 59.019531 C 33.585938 58.421875 35.070312 57.992188 36.324219 57.652344 C 39.523438 56.757812 41.734375 56.167969 43.703125 55.679688 L 44.453125 55.519531 C 45.316406 55.339844 46.140625 55.160156 46.914062 55.011719 L 47.265625 54.964844 C 48.167969 54.84375 49.023438 54.730469 49.816406 54.621094 C 51.578125 54.5 53.109375 54.441406 54.460938 54.382812 L 54.585938 54.378906 C 55.875 54.296875 56.949219 54.34375 57.902344 54.382812 L 58.046875 54.386719 C 59.035156 54.429688 59.792969 54.476562 60.367188 54.539062 C 60.917969 54.589844 61.273438 54.640625 61.5 54.6875 C 61.273438 54.742188 60.921875 54.8125 60.371094 54.886719 C 59.78125 54.964844 59.007812 55.046875 58.074219 55.125 C 57.839844 55.148438 57.589844 55.164062 57.332031 55.179688 C 56.539062 55.242188 55.644531 55.308594 54.644531 55.445312 L 49.972656 55.96875 L 47.300781 56.429688 L 46.25 56.675781 C 45.5625 56.84375 44.84375 57.011719 44.085938 57.191406 C 42.382812 57.664062 40.515625 58.203125 38.488281 58.789062 L 36.785156 59.285156 C 35.492188 59.648438 34.097656 60.070312 32.660156 60.636719 C 31.488281 61.101562 30.503906 61.59375 29.65625 62.132812 L 29.488281 62.238281 L 29.539062 62.429688 C 29.554688 62.507812 29.578125 62.589844 29.578125 62.683594 C 29.605469 64.738281 29.351562 66.8125 29.113281 68.820312 C 28.953125 70.140625 28.785156 71.507812 28.703125 72.863281 L 28.667969 73.386719 L 29.113281 73.113281 C 30.734375 72.117188 32.402344 71.542969 33.515625 71.195312 C 35.117188 70.722656 36.832031 70.339844 38.914062 70 C 40.652344 69.730469 42.253906 69.5 43.800781 69.292969 C 44.316406 69.246094 44.832031 69.1875 45.332031 69.132812 C 46.371094 69.019531 47.347656 68.910156 48.296875 68.890625 C 50.835938 68.742188 53.128906 68.75 55.148438 68.761719 L 55.832031 68.765625 C 58.1875 68.78125 60.175781 68.828125 61.644531 68.863281 C 67.175781 69.003906 69.335938 69.207031 70.175781 69.355469 C 69.320312 69.519531 67.117188 69.738281 61.667969 69.933594 C 60.769531 69.964844 59.796875 69.992188 58.742188 70.027344 L 55.859375 70.121094 C 55.324219 70.136719 54.777344 70.15625 54.214844 70.171875 C 52.46875 70.222656 50.5 70.28125 48.410156 70.449219 C 47.492188 70.480469 46.585938 70.601562 45.621094 70.722656 C 45.109375 70.789062 44.589844 70.855469 44.046875 70.914062 C 42.40625 71.152344 40.777344 71.410156 39.203125 71.675781 C 37.207031 72.015625 35.558594 72.390625 34.019531 72.855469 C 32.019531 73.476562 30.425781 74.238281 29.117188 75.226562 C 27.84375 76.015625 27.230469 76.859375 27.285156 77.734375 C 27.359375 78.921875 28.617188 80.046875 31.128906 81.183594 L 31.472656 81.335938 L 31.511719 80.964844 C 32.097656 75.613281 43.453125 72.980469 65.28125 73.191406 C 65.867188 73.195312 66.332031 73.203125 66.703125 73.199219 C 70.277344 73.195312 73.941406 73.0625 77.480469 72.9375 C 85.410156 72.664062 93.609375 72.375 101.503906 73.40625 C 107.898438 74.230469 112.960938 75.375 116.980469 76.90625 C 119.070312 77.703125 120.332031 78.671875 120.722656 79.773438 L 120.8125 80.007812 L 121.054688 79.945312 C 121.136719 79.925781 121.222656 79.902344 121.300781 79.890625 C 121.351562 79.886719 121.390625 79.878906 121.492188 79.859375 L 121.566406 79.847656 L 121.988281 79.515625 C 122.101562 79.421875 122.226562 79.355469 122.363281 79.3125 L 122.480469 79.277344 L 122.535156 79.164062 C 123.097656 77.890625 121.167969 75.65625 120.257812 75.214844 C 120.132812 75.148438 120.019531 75.066406 119.933594 74.949219 L 119.730469 74.828125 C 119.605469 74.769531 119.484375 74.714844 119.355469 74.652344 C 119.066406 74.507812 118.769531 74.359375 118.476562 74.214844 C 118.046875 73.996094 117.625 73.789062 117.230469 73.601562 C 117.027344 73.507812 116.824219 73.410156 116.625 73.308594 C 116.160156 73.082031 115.675781 72.84375 115.210938 72.695312 C 115.011719 72.625 114.820312 72.546875 114.628906 72.46875 C 114.191406 72.292969 113.738281 72.105469 113.253906 72.023438 C 112.773438 71.910156 112.3125 71.792969 111.855469 71.675781 C 111.015625 71.460938 110.222656 71.253906 109.417969 71.097656 L 108.296875 70.890625 C 107.46875 70.734375 106.664062 70.582031 105.890625 70.433594 C 104.546875 70.226562 103.289062 70.027344 102.113281 69.839844 C 99.40625 69.410156 97.066406 69.039062 95.195312 68.800781 C 93.886719 68.59375 92.777344 68.445312 91.84375 68.320312 C 90.859375 68.191406 90.082031 68.089844 89.480469 67.96875 C 88.929688 67.867188 88.578125 67.78125 88.355469 67.71875 C 88.582031 67.683594 88.945312 67.644531 89.503906 67.621094 C 90.730469 67.578125 92.59375 67.519531 95.304688 67.730469 C 97.957031 67.871094 101.285156 68.261719 106.125 68.890625 L 106.992188 69.035156 C 107.871094 69.179688 108.789062 69.332031 109.742188 69.496094 C 110.566406 69.640625 111.410156 69.839844 112.308594 70.058594 C 112.773438 70.171875 113.253906 70.28125 113.746094 70.390625 C 114.203125 70.472656 114.679688 70.65625 115.175781 70.847656 C 115.402344 70.9375 115.632812 71.027344 115.867188 71.105469 C 116.375 71.277344 116.832031 71.496094 117.320312 71.734375 C 117.539062 71.839844 117.757812 71.945312 117.980469 72.046875 C 118.402344 72.242188 118.804688 72.441406 119.210938 72.640625 C 119.503906 72.789062 119.804688 72.9375 120.105469 73.082031 C 120.183594 73.121094 120.257812 73.160156 120.347656 73.1875 L 120.722656 73.308594 L 120.703125 72.910156 C 120.617188 71.53125 120.449219 70.140625 120.289062 68.796875 C 120.042969 66.800781 119.796875 64.730469 119.824219 62.679688 C 119.824219 62.648438 119.832031 62.621094 119.835938 62.585938 L 119.867188 62.386719 L 119.691406 62.292969 C 117.007812 60.917969 114.492188 59.765625 112.195312 58.871094 C 111.921875 58.773438 111.652344 58.667969 111.390625 58.566406 C 110.964844 58.394531 110.523438 58.226562 110.085938 58.097656 C 109.824219 58.019531 109.566406 57.945312 109.3125 57.867188 C 108.898438 57.742188 108.492188 57.617188 108.074219 57.515625 L 106.105469 57.074219 C 105.464844 56.964844 104.839844 56.863281 104.222656 56.757812 C 100.152344 56.175781 96.738281 56.046875 93.992188 55.941406 C 93.417969 55.921875 92.867188 55.898438 92.347656 55.878906 C 87.355469 55.703125 85.414062 55.492188 84.667969 55.34375 C 85.417969 55.191406 87.355469 54.976562 92.347656 54.804688 L 92.460938 54.796875 C 93.957031 54.761719 95.648438 54.714844 97.613281 54.757812 C 99.804688 54.773438 102.101562 54.925781 104.429688 55.207031 C 105.078125 55.304688 105.730469 55.402344 106.394531 55.496094 L 108.464844 55.917969 C 108.957031 56.035156 109.460938 56.179688 109.96875 56.328125 L 110.621094 56.515625 C 111.085938 56.644531 111.53125 56.8125 112 56.992188 C 112.265625 57.089844 112.527344 57.191406 112.796875 57.28125 C 115.363281 58.253906 118.085938 59.496094 120.894531 60.964844 L 120.972656 61.003906 L 121.066406 60.988281 C 121.191406 60.96875 121.300781 60.964844 121.410156 60.988281 C 122.179688 61.128906 122.71875 60.992188 123.015625 60.589844 C 123.519531 59.890625 123.015625 58.769531 122.78125 58.320312 L 122.726562 58.246094 C 122.207031 57.769531 121.636719 57.34375 121.023438 56.996094 C 120.136719 56.476562 119.144531 56.058594 117.992188 55.707031 L 112.359375 54.210938 C 110.679688 53.738281 109.183594 53.320312 107.839844 52.9375 C 107.183594 52.800781 106.5625 52.671875 106 52.5625 C 105.601562 52.46875 105.226562 52.429688 104.859375 52.390625 C 104.679688 52.375 104.503906 52.359375 104.320312 52.332031 C 102.488281 52.164062 101.261719 52.019531 100.4375 51.898438 C 101.664062 51.917969 103.28125 51.984375 104.351562 52.027344 C 104.527344 52.039062 104.710938 52.050781 104.890625 52.0625 C 105.261719 52.078125 105.632812 52.09375 106.03125 52.175781 C 106.539062 52.257812 107.066406 52.34375 107.636719 52.441406 L 107.96875 52.5 C 108.859375 52.726562 109.824219 52.980469 110.875 53.25 L 112.523438 53.679688 C 114.214844 54.101562 116.097656 54.574219 118.171875 55.097656 C 119.339844 55.441406 120.375 55.875 121.335938 56.417969 L 121.605469 56.566406 L 121.722656 56.289062 C 121.742188 56.238281 121.757812 56.203125 121.78125 56.171875 L 121.824219 56.113281 L 121.828125 56.042969 C 122.457031 50.308594 125.542969 45.382812 128.265625 41.03125 C 129.746094 38.660156 131.109375 36.273438 132.378906 33.839844 C 133.417969 32.605469 134.394531 31.3125 135.28125 29.964844 C 137.070312 27.246094 138.53125 24.308594 139.625 21.230469 L 139.878906 20.515625 L 139.394531 21.097656 " fill-opacity="1" fill-rule="nonzero"/></g></svg>