<svg xmlns="http://www.w3.org/2000/svg" xmlns:xlink="http://www.w3.org/1999/xlink" width="40" zoomAndPan="magnify" viewBox="0 0 30 30.000001" height="40" preserveAspectRatio="xMidYMid meet" version="1.0"><defs><clipPath id="051148ae30"><path d="M 0.742188 5 L 5 5 L 5 8 L 0.742188 8 Z M 0.742188 5 " clip-rule="nonzero"/></clipPath><clipPath id="33aecc31aa"><path d="M 5.851562 5.765625 L 29.050781 5.765625 L 29.050781 28.28125 L 5.851562 28.28125 Z M 5.851562 5.765625 " clip-rule="nonzero"/></clipPath></defs><path fill="#e62d80" d="M 13.027344 6.277344 C 13.175781 6.277344 13.324219 6.238281 13.457031 6.160156 L 15.367188 5.058594 C 15.777344 4.820312 15.917969 4.292969 15.683594 3.882812 C 15.445312 3.472656 14.917969 3.332031 14.507812 3.570312 L 12.597656 4.671875 C 12.1875 4.910156 12.046875 5.433594 12.28125 5.847656 C 12.441406 6.121094 12.730469 6.277344 13.027344 6.277344 " fill-opacity="1" fill-rule="nonzero"/><path fill="#e62d80" d="M 2.867188 12.273438 L 4.777344 11.171875 C 5.1875 10.933594 5.328125 10.410156 5.089844 9.996094 C 4.855469 9.585938 4.328125 9.445312 3.917969 9.683594 L 2.007812 10.785156 C 1.597656 11.023438 1.453125 11.546875 1.691406 11.960938 C 1.851562 12.234375 2.140625 12.390625 2.4375 12.390625 C 2.582031 12.390625 2.730469 12.351562 2.867188 12.273438 " fill-opacity="1" fill-rule="nonzero"/><path fill="#e62d80" d="M 5.4375 4.011719 C 5.59375 4.289062 5.882812 4.441406 6.183594 4.441406 C 6.328125 4.441406 6.476562 4.402344 6.609375 4.324219 C 7.023438 4.089844 7.164062 3.5625 6.925781 3.152344 L 5.824219 1.242188 C 5.585938 0.832031 5.0625 0.691406 4.648438 0.925781 C 4.238281 1.164062 4.097656 1.691406 4.332031 2.101562 L 5.4375 4.011719 " fill-opacity="1" fill-rule="nonzero"/><g clip-path="url(#051148ae30)"><path fill="#e62d80" d="M 3.847656 7.484375 C 4.226562 7.484375 4.574219 7.230469 4.675781 6.847656 C 4.800781 6.386719 4.527344 5.917969 4.066406 5.792969 L 1.9375 5.222656 C 1.480469 5.101562 1.007812 5.371094 0.886719 5.832031 C 0.761719 6.289062 1.035156 6.761719 1.492188 6.886719 L 3.625 7.457031 C 3.699219 7.476562 3.773438 7.484375 3.847656 7.484375 " fill-opacity="1" fill-rule="nonzero"/></g><path fill="#e62d80" d="M 9.761719 3.910156 C 9.835938 3.929688 9.910156 3.941406 9.984375 3.941406 C 10.363281 3.941406 10.710938 3.6875 10.816406 3.304688 L 11.386719 1.171875 C 11.507812 0.714844 11.238281 0.242188 10.777344 0.121094 C 10.320312 -0.00390625 9.847656 0.269531 9.722656 0.726562 L 9.152344 2.859375 C 9.03125 3.316406 9.304688 3.789062 9.761719 3.910156 " fill-opacity="1" fill-rule="nonzero"/><g clip-path="url(#33aecc31aa)"><path fill="#e62d80" d="M 27.300781 21.203125 C 26.878906 22.769531 25.875 24.078125 24.472656 24.890625 L 23.046875 25.714844 C 21.933594 26.355469 20.703125 26.640625 19.496094 26.539062 C 18.425781 26.453125 17.40625 26.085938 16.527344 25.472656 L 7.664062 19.554688 C 7.582031 19.5 7.558594 19.390625 7.609375 19.304688 C 8.042969 18.570312 8.976562 18.308594 9.730469 18.710938 C 11.378906 19.597656 12.8125 20.386719 13.066406 20.539062 C 13.472656 20.785156 14.003906 20.652344 14.246094 20.246094 C 14.417969 19.960938 14.40625 19.621094 14.246094 19.355469 C 14.226562 19.28125 14.199219 19.207031 14.15625 19.132812 L 8.242188 8.886719 C 7.984375 8.441406 8.113281 7.886719 8.527344 7.648438 C 8.945312 7.40625 9.488281 7.574219 9.746094 8.019531 L 14.769531 16.71875 C 15.007812 17.132812 15.535156 17.273438 15.945312 17.035156 C 16.355469 16.796875 16.496094 16.273438 16.261719 15.859375 L 16.15625 15.679688 C 16.136719 15.609375 16.109375 15.539062 16.070312 15.472656 L 15.21875 13.996094 C 14.960938 13.550781 15.089844 12.996094 15.503906 12.753906 C 15.921875 12.515625 16.464844 12.683594 16.722656 13.125 L 18.066406 15.453125 C 18.304688 15.863281 18.828125 16.003906 19.242188 15.765625 C 19.652344 15.53125 19.792969 15.003906 19.554688 14.59375 L 19.484375 14.472656 C 19.46875 14.402344 19.441406 14.332031 19.402344 14.269531 L 18.617188 12.910156 C 18.363281 12.464844 18.492188 11.910156 18.90625 11.671875 C 19.320312 11.429688 19.867188 11.597656 20.125 12.042969 L 21.296875 14.074219 C 21.535156 14.488281 22.0625 14.628906 22.472656 14.390625 C 22.882812 14.152344 23.023438 13.628906 22.789062 13.214844 L 21.972656 11.804688 C 21.992188 11.742188 22.007812 11.675781 22.015625 11.609375 C 22.046875 11.328125 22.199219 11.089844 22.429688 10.953125 C 22.847656 10.714844 23.390625 10.882812 23.648438 11.324219 L 26.695312 16.601562 C 27.503906 18.003906 27.71875 19.640625 27.300781 21.203125 Z M 25.136719 10.464844 C 24.40625 9.199219 22.808594 8.75 21.570312 9.464844 C 21.230469 9.660156 20.945312 9.933594 20.730469 10.257812 C 19.933594 9.75 18.902344 9.6875 18.046875 10.179688 C 17.617188 10.429688 17.285156 10.785156 17.070312 11.195312 C 16.316406 10.828125 15.410156 10.824219 14.644531 11.265625 C 14.371094 11.421875 14.136719 11.625 13.949219 11.855469 L 11.234375 7.15625 C 10.503906 5.890625 8.90625 5.445312 7.667969 6.15625 C 6.433594 6.871094 6.019531 8.480469 6.75 9.746094 L 11.28125 17.59375 C 11.039062 17.464844 10.792969 17.328125 10.542969 17.195312 C 8.972656 16.351562 7.03125 16.894531 6.125 18.433594 C 5.613281 19.300781 5.867188 20.421875 6.707031 20.984375 L 15.558594 26.894531 C 16.667969 27.667969 17.980469 28.140625 19.351562 28.253906 C 19.558594 28.273438 19.765625 28.28125 19.972656 28.28125 C 21.328125 28.28125 22.675781 27.914062 23.90625 27.203125 L 25.332031 26.378906 C 27.132812 25.339844 28.421875 23.660156 28.960938 21.648438 C 29.5 19.640625 29.222656 17.542969 28.183594 15.738281 L 25.136719 10.464844 " fill-opacity="1" fill-rule="nonzero"/></g></svg>