<svg xmlns="http://www.w3.org/2000/svg" xmlns:xlink="http://www.w3.org/1999/xlink" width="100" zoomAndPan="magnify" viewBox="0 0 75 74.999997" height="100" preserveAspectRatio="xMidYMid meet" version="1.0"><defs><clipPath id="9278e2f385"><path d="M 0 1.550781 L 75 1.550781 L 75 73.550781 L 0 73.550781 Z M 0 1.550781 " clip-rule="nonzero"/></clipPath></defs><g clip-path="url(#9278e2f385)"><path fill="#fad02b" d="M 51.308594 58.191406 C 47.863281 67.035156 39.246094 73.34375 29.132812 73.34375 C 15.996094 73.34375 5.332031 62.746094 5.332031 49.609375 C 5.332031 36.472656 15.996094 25.808594 29.132812 25.808594 C 30.011719 25.808594 30.824219 25.839844 31.667969 25.9375 C 23.152344 28.117188 16.84375 35.855469 16.84375 45.054688 C 16.84375 55.949219 25.65625 64.792969 36.578125 64.792969 C 42.433594 64.792969 47.699219 62.257812 51.308594 58.191406 Z M 45.324219 46.355469 L 47.277344 43.789062 L 50.496094 43.917969 L 48.640625 41.285156 L 49.78125 38.261719 L 46.691406 39.203125 L 44.15625 37.1875 L 44.089844 40.40625 L 41.390625 42.195312 L 44.449219 43.234375 Z M 66.363281 63.589844 L 64.996094 65.085938 L 63.015625 64.792969 L 63.988281 66.546875 L 63.175781 68.335938 L 65.128906 67.945312 L 66.558594 69.34375 L 66.785156 67.363281 L 68.542969 66.417969 L 66.71875 65.574219 Z M 60.542969 54.386719 L 59.859375 53.609375 L 59.664062 54.617188 L 58.722656 55.039062 L 59.632812 55.527344 L 59.699219 56.535156 L 60.445312 55.851562 L 61.453125 56.078125 L 61.03125 55.136719 L 61.550781 54.257812 Z M 55.957031 25.773438 L 55.371094 24.117188 L 54.398438 25.578125 L 52.640625 25.613281 L 53.746094 26.976562 L 53.195312 28.667969 L 54.851562 28.050781 L 56.316406 29.058594 L 56.25 27.304688 L 57.648438 26.230469 Z M 83.238281 62.484375 L 82.003906 62.648438 L 81.191406 61.703125 L 80.960938 62.90625 L 79.824219 63.394531 L 80.898438 64.011719 L 81.027344 65.28125 L 81.9375 64.433594 L 83.140625 64.695312 L 82.621094 63.558594 Z M 51.40625 69.441406 L 50.820312 67.785156 L 49.84375 69.246094 L 48.089844 69.28125 L 49.164062 70.644531 L 48.640625 72.335938 L 50.300781 71.71875 L 51.765625 72.726562 L 51.699219 70.972656 L 53.097656 69.898438 Z M 63.664062 30.585938 L 65.128906 30.132812 L 66.363281 31.074219 L 66.363281 29.515625 L 67.664062 28.636719 L 66.199219 28.148438 L 65.777344 26.652344 L 64.867188 27.886719 L 63.304688 27.824219 L 64.21875 29.089844 Z M 67.695312 43.269531 L 65.972656 41.316406 L 65.484375 43.886719 L 63.078125 44.925781 L 65.355469 46.195312 L 65.613281 48.796875 L 67.535156 47.007812 L 70.070312 47.558594 L 68.964844 45.1875 L 70.296875 42.941406 Z M 1.300781 30.878906 L 1.527344 32.277344 L 2.210938 31.074219 L 3.578125 31.105469 L 2.570312 30.261719 L 3.054688 29.351562 L 1.984375 29.742188 L 1.105469 28.992188 L 1.234375 30 L 0 30.457031 Z M 4.03125 61.214844 L 2.632812 61.929688 L 1.332031 61.019531 L 1.332031 61.054688 L 1.753906 62.550781 L 0.617188 63.65625 L 2.113281 63.492188 L 2.472656 64.597656 L 3.023438 63.394531 L 4.355469 63.265625 L 3.414062 62.582031 Z M 46.007812 20.898438 L 46.234375 22.261719 L 46.234375 22.230469 L 46.917969 21.058594 L 48.285156 21.09375 L 47.277344 20.246094 L 47.765625 19.335938 L 46.691406 19.726562 L 45.8125 18.980469 L 45.945312 19.988281 L 44.707031 20.441406 Z M 17.785156 19.566406 L 19.445312 18.945312 L 20.875 19.953125 L 20.808594 18.199219 L 22.207031 17.125 L 20.515625 16.671875 L 19.933594 15.011719 L 18.957031 16.476562 L 17.199219 16.507812 L 18.304688 17.875 Z M 31.929688 9.128906 L 33.847656 7.339844 L 36.382812 7.890625 L 35.277344 5.519531 L 36.613281 3.273438 L 34.011719 3.601562 L 32.289062 1.648438 L 31.800781 4.21875 L 29.394531 5.257812 L 31.667969 6.527344 Z M 31.929688 9.128906 " fill-opacity="1" fill-rule="nonzero"/></g></svg>