<svg xmlns="http://www.w3.org/2000/svg" xmlns:xlink="http://www.w3.org/1999/xlink" width="400" zoomAndPan="magnify" viewBox="0 0 300 299.999988" height="400" preserveAspectRatio="xMidYMid meet" version="1.0"><defs><clipPath id="b6400b04d5"><path d="M 30 98 L 79 98 L 79 124 L 30 124 Z M 30 98 " clip-rule="nonzero"/></clipPath><clipPath id="465bbc0f1b"><path d="M 155 214 L 175 214 L 175 269.703125 L 155 269.703125 Z M 155 214 " clip-rule="nonzero"/></clipPath></defs><path fill="#ebc634" d="M 181.566406 121.453125 C 181.300781 121.613281 181.039062 121.773438 180.777344 121.933594 C 181.605469 123.253906 182.429688 124.578125 183.257812 125.902344 C 183.515625 125.746094 183.773438 125.589844 184.027344 125.433594 C 183.207031 124.105469 182.386719 122.78125 181.566406 121.453125 Z M 103.796875 168.566406 C 104.097656 168.398438 104.402344 168.222656 104.703125 168.050781 C 104.273438 165.824219 103.847656 163.59375 103.421875 161.367188 C 103.121094 161.433594 102.824219 161.496094 102.523438 161.5625 C 102.949219 163.898438 103.375 166.234375 103.796875 168.566406 Z M 184.648438 127.78125 C 184.269531 127.890625 184.035156 128.238281 184.074219 128.613281 C 184.339844 131.238281 184.601562 133.863281 187.695312 135.683594 L 185.613281 128.316406 C 185.496094 127.90625 185.0625 127.664062 184.648438 127.78125 Z M 168.5 143.773438 C 162.894531 142.84375 159.398438 145.039062 156.421875 148.496094 C 154.910156 150.253906 154.847656 151.914062 155.914062 153.925781 C 158.933594 159.625 166.621094 164 172.984375 163.5625 C 176.179688 163.339844 178.519531 161.859375 179.703125 158.90625 C 182.828125 151.109375 184.738281 143.4375 182.058594 134.765625 C 180.246094 128.90625 178.363281 123.882812 173.613281 119.59375 C 168.949219 115.382812 163.863281 114 157.988281 113.671875 C 150.734375 113.273438 144.347656 115.773438 137.746094 118.417969 C 128.5 122.128906 122.871094 128.160156 121.644531 138.089844 C 120.789062 145.011719 119.878906 151.929688 119.230469 158.875 C 118.574219 165.859375 121.453125 172.261719 123.082031 178.851562 C 123.765625 181.625 125.039062 184.261719 126.117188 186.929688 C 128.09375 191.8125 130.515625 196.402344 134.558594 199.988281 C 135.671875 200.980469 136.476562 202.324219 137.421875 203.507812 C 137.15625 203.859375 136.894531 204.210938 136.632812 204.5625 C 135.039062 203.636719 133.332031 202.867188 131.875 201.765625 C 124.695312 196.320312 117.585938 190.777344 110.445312 185.277344 C 105.03125 181.105469 102.171875 175.21875 100.34375 168.960938 C 97.648438 159.75 97.546875 150.136719 97.25 140.628906 C 96.945312 130.824219 100.332031 121.710938 104.609375 113.203125 C 106.683594 109.074219 110.898438 105.792969 114.683594 102.804688 C 120.355469 98.324219 127.261719 95.914062 133.933594 93.351562 C 144.035156 89.472656 154.5 90.117188 164.855469 92.253906 C 169.417969 93.195312 174.078125 94.40625 178.234375 96.433594 C 184.972656 99.71875 191.21875 103.785156 195.921875 110.011719 C 202.046875 118.121094 206.992188 126.792969 210.09375 136.4375 C 213.351562 146.59375 214.359375 157.15625 211.25 167.324219 C 209.292969 173.722656 206.804688 180.515625 200.527344 184.660156 C 197.84375 186.429688 195.601562 188.917969 192.835938 190.519531 C 184.789062 195.167969 176.140625 196.078125 167.167969 193.722656 C 163.84375 192.847656 160.558594 191.84375 157.253906 190.894531 C 154.839844 190.195312 152.539062 189.550781 150.949219 187.164062 C 150.160156 185.980469 148.273438 185.503906 146.847656 184.773438 C 143.945312 183.28125 141.566406 181.523438 140.605469 178.042969 C 138.617188 170.847656 134.359375 164.332031 134.144531 156.589844 C 133.914062 148.355469 136.769531 141.007812 140.804688 134.066406 C 142.269531 131.539062 144.390625 129.589844 147.664062 129.390625 C 150.875 129.199219 154.0625 128.679688 157.269531 128.53125 C 158.253906 128.484375 159.449219 128.957031 160.25 129.578125 C 164.59375 132.96875 167.308594 137.367188 168.5 143.773438 " fill-opacity="1" fill-rule="nonzero"/><path fill="#ebc634" d="M 223.785156 119.757812 C 221.636719 116.015625 219.78125 112.785156 218.019531 109.722656 C 218.402344 108.875 218.511719 108.277344 218.863281 107.910156 C 222.375 104.238281 226.457031 101.148438 229.410156 96.878906 C 230.820312 94.839844 233.25 94.0625 235.851562 93.425781 C 238.683594 92.730469 241.214844 90.765625 243.828125 89.273438 C 244.714844 88.765625 245.410156 87.519531 246.265625 87.441406 C 251.429688 86.976562 256.613281 86.609375 261.789062 86.589844 C 262.597656 86.589844 263.964844 88.449219 264.128906 89.585938 C 264.914062 95.042969 263.644531 100.449219 259.402344 103.785156 C 249.878906 111.273438 239.566406 117.582031 227.378906 119.984375 C 226.683594 120.121094 225.953125 120.136719 225.242188 120.097656 C 224.714844 120.066406 224.195312 119.855469 223.785156 119.757812 " fill-opacity="1" fill-rule="nonzero"/><path fill="#ebc634" d="M 178.078125 26.117188 C 179.902344 28.871094 181.328125 30.480469 182.117188 32.359375 C 183.128906 34.761719 184.035156 37.347656 184.261719 39.914062 C 185.148438 49.78125 182.839844 59.28125 180.492188 68.757812 C 180.097656 70.332031 179.679688 71.90625 179.183594 73.449219 C 177.609375 78.328125 176.257812 79.179688 170.957031 78.746094 C 170.238281 78.6875 169.472656 78.507812 168.796875 78.675781 C 163.25 80.027344 162.160156 77.863281 161.460938 72.761719 C 160.800781 67.96875 160.832031 63.039062 160.988281 58.183594 C 161.226562 50.664062 165.183594 44.433594 168.949219 38.300781 C 171.542969 34.074219 174.894531 30.308594 178.078125 26.117188 " fill-opacity="1" fill-rule="nonzero"/><path fill="#ebc634" d="M 192.425781 209.433594 C 196.460938 206.585938 199.089844 207.035156 202.667969 209.609375 C 210.011719 214.898438 215.203125 221.390625 218.035156 229.90625 C 219.964844 235.710938 222.199219 241.429688 223.875 247.304688 C 224.914062 250.9375 224.246094 251.566406 220.722656 252.894531 C 218.429688 253.757812 215.84375 255.765625 213.949219 255.242188 C 211.984375 254.699219 210.78125 251.636719 209.085938 249.828125 C 206.519531 247.09375 203.140625 244.890625 201.289062 241.761719 C 195.414062 231.851562 191.867188 221.160156 192.425781 209.433594 " fill-opacity="1" fill-rule="nonzero"/><path fill="#ebc634" d="M 224.398438 154.597656 C 225.09375 152.511719 225.816406 151.183594 225.953125 149.796875 C 226.457031 144.523438 229.984375 142.355469 234.527344 141.429688 C 244.851562 139.324219 255.082031 139.949219 264.941406 143.648438 C 267.683594 144.679688 270.140625 146.792969 272.347656 148.820312 C 274.503906 150.804688 273.960938 153.84375 271.464844 155.808594 C 266.691406 159.570312 261.398438 161.96875 255.207031 162.449219 C 246.78125 163.105469 238.570312 162.558594 230.867188 158.808594 C 228.535156 157.671875 226.480469 155.972656 224.398438 154.597656 " fill-opacity="1" fill-rule="nonzero"/><path fill="#ebc634" d="M 116.449219 31.597656 C 121.847656 33.847656 126.222656 36.921875 129.546875 41.21875 C 132.179688 44.613281 134.320312 48.390625 136.679688 51.996094 C 141.03125 58.660156 141.980469 66.097656 141.21875 73.761719 C 140.957031 76.402344 139.597656 78.933594 138.523438 82.167969 C 136.769531 81.460938 134.582031 81.042969 132.984375 79.851562 C 119.5 69.804688 113.070312 56.105469 112.554688 39.484375 C 112.523438 38.53125 112.972656 37.472656 113.472656 36.621094 C 113.980469 35.738281 114.921875 35.113281 115.480469 34.253906 C 115.921875 33.570312 116.066406 32.695312 116.449219 31.597656 " fill-opacity="1" fill-rule="nonzero"/><path fill="#ebc634" d="M 218.191406 186.710938 C 220.71875 184.566406 222.910156 182.265625 225.53125 180.660156 C 226.765625 179.902344 229.019531 179.960938 230.457031 180.535156 C 239.394531 184.101562 246.980469 189.53125 253.796875 196.457031 C 257.722656 200.445312 259.625 204.804688 260.804688 209.902344 C 261.355469 212.285156 260.675781 213.703125 258.222656 214.253906 C 251.734375 215.71875 245.441406 214.585938 240.074219 211.132812 C 231.183594 205.410156 224.03125 197.785156 218.832031 188.472656 C 218.492188 187.867188 218.347656 187.15625 218.191406 186.710938 " fill-opacity="1" fill-rule="nonzero"/><path fill="#ebc634" d="M 193.738281 83.3125 C 194.535156 80.972656 194.84375 79.113281 195.738281 77.613281 C 198.320312 73.304688 200.914062 68.964844 203.929688 64.957031 C 207.277344 60.5 211.011719 56.320312 214.742188 52.167969 C 216.710938 49.976562 219.046875 48.191406 222.257812 50.21875 C 222.53125 50.390625 222.96875 50.289062 223.316406 50.378906 C 230.671875 52.226562 231.753906 54.457031 227.796875 61.25 C 224.085938 67.621094 220.027344 73.808594 215.824219 79.871094 C 212.371094 84.851562 208.554688 89.582031 204.761719 94.316406 C 202.960938 96.566406 200.699219 96.890625 199.363281 94.726562 C 197.078125 91.035156 195.472656 86.925781 193.738281 83.3125 " fill-opacity="1" fill-rule="nonzero"/><path fill="#ebc634" d="M 68.488281 229.140625 C 63.320312 229.363281 62.492188 228.125 62.910156 224.21875 C 63.277344 220.78125 64.761719 218.273438 67.085938 215.859375 C 72.203125 210.550781 76.929688 204.855469 82.191406 199.703125 C 84.71875 197.234375 88.089844 195.617188 91.109375 193.65625 C 93.246094 192.269531 95.234375 192.773438 97.046875 194.339844 C 98.527344 195.621094 100.101562 196.835938 101.398438 198.292969 C 103.566406 200.742188 102.75 203.734375 101.347656 205.847656 C 98.089844 210.765625 94.777344 215.867188 90.511719 219.851562 C 84.164062 225.773438 76.027344 228.40625 68.488281 229.140625 " fill-opacity="1" fill-rule="nonzero"/><g clip-path="url(#b6400b04d5)"><path fill="#ebc634" d="M 29.996094 105.277344 C 35.5 98.878906 41.21875 96.929688 48.421875 99.964844 C 54.582031 102.5625 60.980469 104.597656 67.070312 107.328125 C 70.148438 108.710938 72.792969 111.0625 75.609375 113.007812 C 76.199219 113.414062 76.761719 113.910156 77.199219 114.476562 C 80.15625 118.292969 78.25 123.59375 73.527344 123.859375 C 60.542969 124.582031 48.25 122.515625 38.152344 113.410156 C 35.375 110.910156 32.847656 108.132812 29.996094 105.277344 " fill-opacity="1" fill-rule="nonzero"/></g><g clip-path="url(#465bbc0f1b)"><path fill="#ebc634" d="M 164.585938 269.472656 C 162.039062 265.722656 159.761719 261.945312 158.953125 257.375 C 158.488281 254.730469 157.609375 252.15625 156.828125 249.570312 C 153.457031 238.34375 155.933594 228.292969 162.847656 219.09375 C 163.984375 217.585938 164.992188 215.988281 166.253906 214.148438 C 171.296875 218.085938 173.566406 223.042969 173.972656 228.683594 C 174.308594 233.320312 174.023438 238.027344 173.640625 242.675781 C 173.042969 249.984375 173.011719 257.359375 170.371094 264.421875 C 169.28125 267.328125 167.703125 268.878906 164.585938 269.472656 " fill-opacity="1" fill-rule="nonzero"/></g><path fill="#ebc634" d="M 111.078125 265.640625 C 110.492188 263.828125 109.609375 262.070312 109.378906 260.230469 C 108.078125 249.964844 109.761719 240.160156 114.335938 230.863281 C 114.652344 230.21875 114.957031 229.5625 115.308594 228.933594 C 119.804688 220.878906 120.769531 218.425781 132.074219 221.6875 C 134.25 232.953125 130.886719 243.34375 126.09375 253.292969 C 123.34375 259.003906 117.3125 263.398438 111.078125 265.640625 " fill-opacity="1" fill-rule="nonzero"/><path fill="#ebc634" d="M 75.808594 50.191406 C 77.40625 50.558594 78.992188 50.464844 79.910156 51.199219 C 88.113281 57.773438 95.820312 64.78125 98.953125 75.363281 C 100.878906 81.847656 100.691406 88.402344 99.523438 94.960938 C 99.085938 97.417969 97.730469 98.148438 95.699219 96.808594 C 93.007812 95.035156 90.003906 93.300781 88.136719 90.800781 C 84.171875 85.492188 80.234375 79.992188 77.4375 74.03125 C 74.015625 66.738281 73.894531 58.777344 75.808594 50.191406 " fill-opacity="1" fill-rule="nonzero"/><path fill="#ebc634" d="M 33.25 172.59375 C 34.921875 170.609375 35.792969 169.011719 37.128906 168.078125 C 46.648438 161.417969 57.4375 158.15625 68.832031 156.625 C 71.636719 156.253906 74.460938 156.019531 77.199219 155.730469 C 78.722656 159.84375 78.667969 163.394531 77.816406 167.089844 C 77.25 169.546875 76.371094 171.132812 73.859375 172.296875 C 67.265625 175.34375 60.648438 178.183594 53.296875 178.546875 C 50.875 178.667969 48.296875 178.386719 46 177.644531 C 41.933594 176.332031 38.035156 174.523438 33.25 172.59375 " fill-opacity="1" fill-rule="nonzero"/></svg>