<svg xmlns="http://www.w3.org/2000/svg" xmlns:xlink="http://www.w3.org/1999/xlink" width="400" zoomAndPan="magnify" viewBox="0 0 300 299.999988" height="400" preserveAspectRatio="xMidYMid meet" version="1.0"><defs><clipPath id="3b519d46ed"><path d="M 140 241 L 146 241 L 146 285.75 L 140 285.75 Z M 140 241 " clip-rule="nonzero"/></clipPath><clipPath id="083e27ecd5"><path d="M 241 140 L 285.75 140 L 285.75 146 L 241 146 Z M 241 140 " clip-rule="nonzero"/></clipPath></defs><path fill="#fbc810" d="M 55.371094 142.871094 C 55.371094 94.570312 94.519531 55.417969 142.820312 55.417969 C 191.117188 55.417969 230.273438 94.570312 230.273438 142.871094 C 230.273438 191.167969 191.117188 230.320312 142.820312 230.320312 C 94.519531 230.320312 55.371094 191.167969 55.371094 142.871094 " fill-opacity="1" fill-rule="nonzero"/><path fill="#f7dff1" d="M 142.820312 230.320312 C 142.796875 230.320312 142.78125 230.320312 142.753906 230.320312 C 142.777344 230.320312 142.796875 230.320312 142.820312 230.320312 C 191.117188 230.320312 230.273438 191.167969 230.273438 142.871094 C 230.273438 191.167969 191.117188 230.320312 142.820312 230.320312 M 142.738281 230.320312 C 142.722656 230.320312 142.703125 230.320312 142.6875 230.320312 C 142.710938 230.320312 142.722656 230.320312 142.738281 230.320312 M 142.671875 230.320312 C 142.648438 230.320312 142.632812 230.320312 142.613281 230.320312 C 142.632812 230.320312 142.648438 230.320312 142.671875 230.320312 M 142.605469 230.320312 C 142.589844 230.320312 142.5625 230.320312 142.546875 230.320312 C 142.5625 230.320312 142.585938 230.320312 142.605469 230.320312 M 142.523438 230.320312 C 142.507812 230.320312 142.492188 230.320312 142.476562 230.320312 C 142.496094 230.320312 142.507812 230.320312 142.523438 230.320312 M 142.457031 230.320312 C 142.441406 230.320312 142.425781 230.320312 142.402344 230.320312 C 142.425781 230.320312 142.441406 230.320312 142.457031 230.320312 M 142.394531 230.320312 C 142.375 230.320312 142.347656 230.320312 142.332031 230.320312 C 142.347656 230.320312 142.371094 230.320312 142.394531 230.320312 M 142.3125 230.320312 C 142.292969 230.320312 142.285156 230.320312 142.265625 230.320312 C 142.285156 230.320312 142.292969 230.320312 142.3125 230.320312 M 142.238281 230.320312 C 142.230469 230.320312 142.210938 230.320312 142.203125 230.320312 C 142.21875 230.320312 142.230469 230.320312 142.238281 230.320312 M 142.179688 230.320312 C 142.15625 230.320312 142.140625 230.320312 142.121094 230.320312 C 142.136719 230.320312 142.164062 230.320312 142.179688 230.320312 M 142.097656 230.320312 C 142.082031 230.320312 142.070312 230.320312 142.054688 230.320312 C 142.070312 230.320312 142.082031 230.320312 142.097656 230.320312 M 142.027344 230.316406 C 142.015625 230.316406 142.003906 230.316406 141.992188 230.316406 C 142.003906 230.316406 142.015625 230.316406 142.027344 230.316406 M 141.964844 230.316406 C 141.945312 230.316406 141.929688 230.316406 141.910156 230.316406 C 141.929688 230.316406 141.945312 230.316406 141.964844 230.316406 M 141.878906 230.316406 C 141.867188 230.316406 141.855469 230.316406 141.847656 230.316406 C 141.855469 230.316406 141.867188 230.316406 141.878906 230.316406 M 141.8125 230.316406 C 141.800781 230.316406 141.792969 230.316406 141.785156 230.316406 C 141.792969 230.316406 141.800781 230.316406 141.8125 230.316406 M 141.746094 230.316406 C 141.742188 230.316406 141.738281 230.316406 141.726562 230.316406 C 141.738281 230.316406 141.742188 230.316406 141.746094 230.316406 M 141.65625 230.316406 C 141.644531 230.316406 141.644531 230.316406 141.632812 230.316406 C 141.636719 230.316406 141.648438 230.316406 141.65625 230.316406 M 141.59375 230.316406 C 141.589844 230.316406 141.578125 230.316406 141.574219 230.316406 C 141.578125 230.316406 141.589844 230.316406 141.59375 230.316406 M 141.535156 230.308594 C 141.527344 230.308594 141.523438 230.308594 141.519531 230.308594 C 141.523438 230.308594 141.527344 230.308594 141.535156 230.308594 M 141.375 230.308594 C 141.371094 230.308594 141.371094 230.308594 141.363281 230.308594 C 141.371094 230.308594 141.371094 230.308594 141.375 230.308594 M 230.273438 142.871094 C 230.273438 142.851562 230.273438 142.828125 230.273438 142.804688 C 230.273438 142.828125 230.273438 142.84375 230.273438 142.871094 M 230.273438 142.789062 C 230.273438 142.769531 230.273438 142.757812 230.273438 142.742188 C 230.273438 142.757812 230.273438 142.773438 230.273438 142.789062 M 230.273438 142.722656 C 230.273438 142.703125 230.273438 142.679688 230.273438 142.660156 C 230.273438 142.679688 230.273438 142.703125 230.273438 142.722656 M 230.273438 142.640625 C 230.273438 142.632812 230.273438 142.609375 230.273438 142.597656 C 230.273438 142.613281 230.273438 142.625 230.273438 142.640625 M 230.273438 142.570312 C 230.273438 142.558594 230.273438 142.550781 230.273438 142.539062 C 230.273438 142.550781 230.273438 142.558594 230.273438 142.570312 M 230.273438 142.496094 C 230.273438 142.476562 230.273438 142.472656 230.273438 142.457031 C 230.273438 142.46875 230.273438 142.484375 230.273438 142.496094 M 230.269531 142.417969 C 230.269531 142.414062 230.269531 142.40625 230.269531 142.402344 C 230.269531 142.40625 230.269531 142.414062 230.269531 142.417969 " fill-opacity="1" fill-rule="nonzero"/><path fill="#f1ae0d" d="M 142.820312 230.320312 C 142.796875 230.320312 142.777344 230.320312 142.753906 230.320312 C 142.753906 230.320312 142.742188 230.320312 142.738281 230.320312 C 142.722656 230.320312 142.710938 230.320312 142.6875 230.320312 C 142.683594 230.320312 142.675781 230.320312 142.671875 230.320312 C 142.648438 230.320312 142.632812 230.320312 142.613281 230.320312 C 142.613281 230.320312 142.613281 230.320312 142.605469 230.320312 C 142.585938 230.320312 142.5625 230.320312 142.546875 230.320312 C 142.539062 230.320312 142.53125 230.320312 142.523438 230.320312 C 142.507812 230.320312 142.496094 230.320312 142.476562 230.320312 C 142.46875 230.320312 142.464844 230.320312 142.457031 230.320312 C 142.441406 230.320312 142.425781 230.320312 142.402344 230.320312 C 142.402344 230.320312 142.398438 230.320312 142.394531 230.320312 C 142.371094 230.320312 142.347656 230.320312 142.332031 230.320312 C 142.320312 230.320312 142.316406 230.320312 142.3125 230.320312 C 142.292969 230.320312 142.285156 230.320312 142.265625 230.320312 C 142.261719 230.320312 142.25 230.320312 142.238281 230.320312 C 142.230469 230.320312 142.21875 230.320312 142.203125 230.320312 C 142.195312 230.320312 142.183594 230.320312 142.179688 230.320312 C 142.164062 230.320312 142.136719 230.320312 142.121094 230.320312 C 142.109375 230.320312 142.101562 230.320312 142.097656 230.320312 C 142.082031 230.320312 142.070312 230.320312 142.054688 230.320312 C 142.046875 230.316406 142.039062 230.316406 142.027344 230.316406 C 142.015625 230.316406 142.003906 230.316406 141.992188 230.316406 C 141.984375 230.316406 141.972656 230.316406 141.964844 230.316406 C 141.945312 230.316406 141.929688 230.316406 141.910156 230.316406 C 141.902344 230.316406 141.890625 230.316406 141.878906 230.316406 C 141.867188 230.316406 141.855469 230.316406 141.847656 230.316406 C 141.835938 230.316406 141.824219 230.316406 141.8125 230.316406 C 141.800781 230.316406 141.792969 230.316406 141.785156 230.316406 C 141.769531 230.316406 141.757812 230.316406 141.746094 230.316406 C 141.742188 230.316406 141.738281 230.316406 141.726562 230.316406 C 141.699219 230.316406 141.675781 230.316406 141.65625 230.316406 C 141.648438 230.316406 141.636719 230.316406 141.632812 230.316406 C 141.621094 230.316406 141.609375 230.316406 141.59375 230.316406 C 141.589844 230.316406 141.578125 230.316406 141.574219 230.316406 C 141.5625 230.308594 141.550781 230.308594 141.535156 230.308594 C 141.527344 230.308594 141.523438 230.308594 141.519531 230.308594 C 141.472656 230.308594 141.417969 230.308594 141.375 230.308594 C 141.371094 230.308594 141.371094 230.308594 141.363281 230.308594 C 141.347656 230.308594 141.332031 230.308594 141.316406 230.308594 C 105.226562 229.699219 74.480469 207.21875 61.710938 175.558594 C 77.285156 199.644531 104.359375 215.601562 135.175781 215.601562 C 183.476562 215.601562 222.625 176.445312 222.625 128.144531 C 222.625 116.585938 220.363281 105.558594 216.285156 95.457031 C 225.042969 108.996094 230.179688 125.09375 230.269531 142.402344 C 230.269531 142.40625 230.269531 142.414062 230.269531 142.417969 C 230.269531 142.429688 230.273438 142.445312 230.273438 142.457031 C 230.273438 142.472656 230.273438 142.476562 230.273438 142.496094 C 230.273438 142.511719 230.273438 142.523438 230.273438 142.539062 C 230.273438 142.550781 230.273438 142.558594 230.273438 142.570312 C 230.273438 142.582031 230.273438 142.59375 230.273438 142.597656 C 230.273438 142.609375 230.273438 142.632812 230.273438 142.640625 C 230.273438 142.648438 230.273438 142.652344 230.273438 142.660156 C 230.273438 142.679688 230.273438 142.703125 230.273438 142.722656 C 230.273438 142.730469 230.273438 142.734375 230.273438 142.742188 C 230.273438 142.757812 230.273438 142.769531 230.273438 142.789062 C 230.273438 142.796875 230.273438 142.800781 230.273438 142.804688 C 230.273438 142.828125 230.273438 142.851562 230.273438 142.871094 C 230.273438 191.167969 191.117188 230.320312 142.820312 230.320312 " fill-opacity="1" fill-rule="nonzero"/><path fill="#5c363c" d="M 180.078125 107.882812 C 178.585938 107.882812 177.382812 109.085938 177.382812 110.578125 L 177.382812 110.652344 C 177.382812 113.375 175.164062 115.59375 172.289062 115.59375 C 169.566406 115.59375 167.351562 113.375 167.351562 110.652344 L 167.351562 110.578125 C 167.351562 109.085938 166.144531 107.882812 164.65625 107.882812 C 163.164062 107.882812 161.960938 109.085938 161.960938 110.578125 L 161.960938 110.652344 C 161.960938 116.347656 166.59375 120.980469 172.441406 120.980469 C 178.136719 120.980469 182.773438 116.347656 182.773438 110.652344 L 182.773438 110.578125 C 182.773438 109.085938 181.5625 107.882812 180.078125 107.882812 " fill-opacity="1" fill-rule="nonzero"/><path fill="#5c363c" d="M 109.960938 107.882812 C 108.46875 107.882812 107.265625 109.085938 107.265625 110.578125 L 107.265625 110.652344 C 107.265625 113.375 105.054688 115.59375 102.171875 115.59375 C 99.449219 115.59375 97.234375 113.375 97.234375 110.652344 L 97.234375 110.578125 C 97.234375 109.085938 96.035156 107.882812 94.542969 107.882812 C 93.054688 107.882812 91.847656 109.085938 91.847656 110.578125 L 91.847656 110.652344 C 91.847656 116.347656 96.480469 120.980469 102.332031 120.980469 C 108.027344 120.980469 112.65625 116.347656 112.65625 110.652344 L 112.65625 110.578125 C 112.65625 109.085938 111.449219 107.882812 109.960938 107.882812 " fill-opacity="1" fill-rule="nonzero"/><path fill="#f1ae0d" d="M 96.671875 135.222656 C 90.453125 135.222656 85.414062 132.402344 85.414062 128.933594 C 85.414062 125.449219 90.453125 122.636719 96.671875 122.636719 C 102.886719 122.636719 107.929688 125.449219 107.929688 128.933594 C 107.929688 132.402344 102.886719 135.222656 96.671875 135.222656 " fill-opacity="1" fill-rule="nonzero"/><path fill="#f1ae0d" d="M 175.429688 135.222656 C 169.210938 135.222656 164.171875 132.402344 164.171875 128.933594 C 164.171875 125.449219 169.210938 122.636719 175.429688 122.636719 C 181.644531 122.636719 186.691406 125.449219 186.691406 128.933594 C 186.691406 132.402344 181.644531 135.222656 175.429688 135.222656 " fill-opacity="1" fill-rule="nonzero"/><path fill="#5c363c" d="M 135.253906 144.375 C 134.203125 144.375 133.175781 144.222656 132.203125 143.921875 C 128.132812 142.746094 124.484375 139.15625 121.707031 133.550781 C 121.183594 132.492188 120.699219 131.359375 120.253906 130.191406 C 119.714844 128.769531 120.433594 127.179688 121.855469 126.640625 C 123.273438 126.105469 124.867188 126.824219 125.402344 128.242188 C 125.78125 129.25 126.195312 130.21875 126.644531 131.113281 C 128.683594 135.230469 131.214844 137.910156 133.777344 138.644531 C 134.636719 138.910156 135.5 138.929688 136.3125 138.753906 C 136.714844 138.671875 137.050781 138.570312 137.378906 138.433594 C 140.21875 137.246094 142.984375 133.671875 144.960938 128.625 C 145.519531 127.210938 147.117188 126.515625 148.53125 127.074219 C 149.945312 127.625 150.640625 129.226562 150.089844 130.636719 C 147.488281 137.246094 143.832031 141.695312 139.507812 143.511719 C 138.84375 143.789062 138.152344 143.996094 137.445312 144.144531 C 136.761719 144.292969 136.015625 144.375 135.253906 144.375 " fill-opacity="1" fill-rule="nonzero"/><path fill="#fbc810" d="M 142.820312 43.769531 C 141.300781 43.769531 140.070312 42.53125 140.070312 41.011719 L 140.070312 2.753906 C 140.070312 1.230469 141.300781 0 142.820312 0 C 144.339844 0 145.574219 1.230469 145.574219 2.753906 L 145.574219 41.011719 C 145.574219 42.53125 144.339844 43.769531 142.820312 43.769531 " fill-opacity="1" fill-rule="nonzero"/><path fill="#fbc810" d="M 91.894531 57.414062 C 90.945312 57.414062 90.019531 56.921875 89.511719 56.039062 L 70.378906 22.898438 C 69.621094 21.585938 70.070312 19.902344 71.386719 19.144531 C 72.703125 18.378906 74.386719 18.832031 75.148438 20.148438 L 94.277344 53.285156 C 95.039062 54.601562 94.585938 56.285156 93.273438 57.046875 C 92.835938 57.292969 92.367188 57.414062 91.894531 57.414062 " fill-opacity="1" fill-rule="nonzero"/><path fill="#fbc810" d="M 54.609375 94.699219 C 54.144531 94.699219 53.671875 94.578125 53.238281 94.324219 L 20.101562 75.195312 C 18.785156 74.433594 18.335938 72.75 19.089844 71.433594 C 19.851562 70.117188 21.535156 69.667969 22.851562 70.425781 L 55.988281 89.558594 C 57.304688 90.320312 57.753906 92.003906 57 93.320312 C 56.492188 94.199219 55.5625 94.699219 54.609375 94.699219 " fill-opacity="1" fill-rule="nonzero"/><path fill="#fbc810" d="M 40.964844 145.621094 L 2.703125 145.621094 C 1.183594 145.621094 -0.046875 144.390625 -0.046875 142.871094 C -0.046875 141.351562 1.183594 140.117188 2.703125 140.117188 L 40.964844 140.117188 C 42.484375 140.117188 43.722656 141.351562 43.722656 142.871094 C 43.722656 144.390625 42.484375 145.621094 40.964844 145.621094 " fill-opacity="1" fill-rule="nonzero"/><path fill="#fbc810" d="M 21.480469 215.683594 C 20.527344 215.683594 19.597656 215.183594 19.089844 214.304688 C 18.335938 212.988281 18.785156 211.304688 20.101562 210.542969 L 53.238281 191.414062 C 54.550781 190.652344 56.234375 191.101562 57 192.417969 C 57.753906 193.734375 57.304688 195.417969 55.988281 196.179688 L 22.851562 215.3125 C 22.417969 215.5625 21.945312 215.683594 21.480469 215.683594 " fill-opacity="1" fill-rule="nonzero"/><path fill="#fbc810" d="M 72.757812 266.964844 C 72.292969 266.964844 71.816406 266.847656 71.386719 266.59375 C 70.070312 265.835938 69.621094 264.15625 70.378906 262.839844 L 89.511719 229.699219 C 90.273438 228.386719 91.957031 227.933594 93.273438 228.699219 C 94.585938 229.453125 95.039062 231.136719 94.277344 232.453125 L 75.148438 265.589844 C 74.636719 266.46875 73.710938 266.964844 72.757812 266.964844 " fill-opacity="1" fill-rule="nonzero"/><g clip-path="url(#3b519d46ed)"><path fill="#fbc810" d="M 142.820312 285.738281 C 141.300781 285.738281 140.070312 284.507812 140.070312 282.988281 L 140.070312 244.722656 C 140.070312 243.199219 141.300781 241.96875 142.820312 241.96875 C 144.339844 241.96875 145.574219 243.199219 145.574219 244.722656 L 145.574219 282.988281 C 145.574219 284.507812 144.339844 285.738281 142.820312 285.738281 " fill-opacity="1" fill-rule="nonzero"/></g><path fill="#fbc810" d="M 212.878906 266.964844 C 211.933594 266.964844 211.003906 266.476562 210.496094 265.589844 L 191.363281 232.453125 C 190.605469 231.136719 191.054688 229.453125 192.371094 228.699219 C 193.683594 227.933594 195.371094 228.386719 196.132812 229.699219 L 215.261719 262.839844 C 216.023438 264.15625 215.570312 265.835938 214.257812 266.59375 C 213.820312 266.847656 213.351562 266.964844 212.878906 266.964844 " fill-opacity="1" fill-rule="nonzero"/><path fill="#fbc810" d="M 264.164062 215.683594 C 263.695312 215.683594 263.222656 215.5625 262.792969 215.3125 L 229.652344 196.179688 C 228.332031 195.417969 227.886719 193.734375 228.644531 192.417969 C 229.40625 191.101562 231.089844 190.652344 232.40625 191.414062 L 265.542969 210.542969 C 266.859375 211.304688 267.308594 212.988281 266.546875 214.304688 C 266.039062 215.183594 265.117188 215.683594 264.164062 215.683594 " fill-opacity="1" fill-rule="nonzero"/><g clip-path="url(#083e27ecd5)"><path fill="#fbc810" d="M 282.9375 145.621094 L 244.671875 145.621094 C 243.152344 145.621094 241.921875 144.390625 241.921875 142.871094 C 241.921875 141.351562 243.152344 140.117188 244.671875 140.117188 L 282.9375 140.117188 C 284.457031 140.117188 285.691406 141.351562 285.691406 142.871094 C 285.691406 144.390625 284.457031 145.621094 282.9375 145.621094 " fill-opacity="1" fill-rule="nonzero"/></g><path fill="#fbc810" d="M 231.027344 94.699219 C 230.082031 94.699219 229.152344 94.199219 228.644531 93.320312 C 227.886719 92.003906 228.332031 90.320312 229.652344 89.558594 L 262.792969 70.425781 C 264.105469 69.667969 265.789062 70.117188 266.546875 71.433594 C 267.308594 72.75 266.859375 74.433594 265.542969 75.195312 L 232.40625 94.324219 C 231.96875 94.578125 231.5 94.699219 231.027344 94.699219 " fill-opacity="1" fill-rule="nonzero"/><path fill="#fbc810" d="M 193.75 57.414062 C 193.277344 57.414062 192.804688 57.292969 192.371094 57.046875 C 191.054688 56.285156 190.605469 54.601562 191.363281 53.285156 L 210.496094 20.148438 C 211.257812 18.832031 212.941406 18.378906 214.257812 19.144531 C 215.570312 19.902344 216.023438 21.585938 215.261719 22.898438 L 196.132812 56.039062 C 195.625 56.921875 194.695312 57.414062 193.75 57.414062 " fill-opacity="1" fill-rule="nonzero"/></svg>