<svg xmlns="http://www.w3.org/2000/svg" xmlns:xlink="http://www.w3.org/1999/xlink" width="100" zoomAndPan="magnify" viewBox="0 0 75 74.999997" height="100" preserveAspectRatio="xMidYMid meet" version="1.0"><defs><clipPath id="ebbdda36f5"><path d="M 5.734375 7.5 L 67.234375 7.5 L 67.234375 70.5 L 5.734375 70.5 Z M 5.734375 7.5 " clip-rule="nonzero"/></clipPath></defs><g clip-path="url(#ebbdda36f5)"><path fill="#f9943b" d="M 65.804688 48.421875 L 8.902344 48.421875 C 9.316406 49.367188 9.789062 49.5625 11.117188 49.585938 C 11.621094 49.59375 12.238281 49.605469 12.886719 49.625 C 14.285156 49.65625 15.867188 49.695312 16.929688 49.675781 C 21.28125 49.585938 24.53125 49.707031 28.289062 49.863281 C 29.894531 49.921875 31.550781 49.996094 33.414062 50.046875 C 37.828125 50.171875 42.3125 50.058594 46.65625 49.933594 C 49.566406 49.851562 52.582031 49.769531 55.554688 49.769531 C 57.253906 49.769531 58.980469 49.738281 60.648438 49.71875 C 61.832031 49.695312 63.003906 49.6875 64.1875 49.675781 C 64.351562 49.667969 64.519531 49.667969 64.683594 49.675781 C 65.054688 49.6875 65.339844 49.996094 65.332031 50.367188 C 65.320312 50.738281 65.023438 51.035156 64.660156 51.035156 C 64.519531 51.035156 64.375 51.035156 64.230469 51.035156 C 63.644531 51.066406 63.035156 51.1875 62.398438 51.332031 C 62.214844 51.375 62.039062 51.40625 61.851562 51.445312 C 62.429688 51.445312 63.003906 51.445312 63.582031 51.425781 C 63.929688 51.414062 64.21875 51.664062 64.269531 51.992188 C 64.324219 52.332031 64.117188 52.648438 63.796875 52.753906 C 62.6875 53.082031 62.273438 53.132812 61.769531 53.195312 C 61.667969 53.207031 61.542969 53.226562 61.421875 53.246094 C 59.96875 53.453125 58.539062 53.628906 57.128906 53.792969 C 57.335938 53.800781 57.542969 53.824219 57.746094 53.832031 C 59.238281 53.9375 60.773438 54.039062 62.367188 54.132812 C 62.65625 54.152344 62.890625 54.335938 62.972656 54.617188 C 63.058594 54.882812 62.964844 55.179688 62.738281 55.355469 C 62.101562 55.839844 61.257812 55.921875 60.578125 55.984375 C 60.464844 55.996094 60.339844 56.003906 60.238281 56.015625 C 57.210938 56.375 55.070312 56.457031 52.097656 56.570312 L 49.894531 56.652344 C 43.671875 56.898438 37.972656 57.117188 32.09375 57.167969 C 34.90625 57.289062 37.867188 57.402344 41.027344 57.527344 C 42.859375 57.597656 44.382812 57.621094 45.851562 57.640625 C 47.714844 57.671875 49.484375 57.703125 51.757812 57.816406 C 52.3125 57.847656 53.015625 57.824219 53.765625 57.804688 C 55.667969 57.753906 57.828125 57.691406 59.148438 58.351562 C 59.402344 58.472656 59.546875 58.753906 59.515625 59.03125 C 59.484375 59.308594 59.28125 59.542969 59.003906 59.617188 C 55.011719 60.613281 50.421875 60.613281 46.367188 60.625 C 45.75 60.625 45.144531 60.625 44.546875 60.625 C 37.117188 60.675781 29.871094 60.480469 23.019531 60.046875 C 21.550781 59.957031 20.015625 60.046875 18.503906 60.171875 C 18.792969 60.183594 19.058594 60.191406 19.273438 60.191406 C 19.613281 60.203125 19.914062 60.203125 20.148438 60.222656 C 24.191406 60.492188 28.328125 60.574219 32.332031 60.65625 C 34.824219 60.707031 37.40625 60.757812 39.945312 60.851562 C 46.480469 61.097656 51.882812 61.191406 56.925781 61.148438 C 57.273438 61.148438 57.550781 61.394531 57.601562 61.734375 C 57.644531 62.074219 57.4375 62.394531 57.097656 62.476562 C 55.207031 62.96875 53.15625 63.113281 51.171875 63.257812 C 50.277344 63.320312 49.421875 63.382812 48.589844 63.476562 C 44.402344 63.925781 40.5625 64.125 36.871094 64.0625 L 35.355469 64.039062 C 33.113281 64 30.800781 63.957031 28.515625 63.988281 C 27.824219 64 27.136719 64.019531 26.445312 64.039062 C 29.378906 64.195312 32.332031 64.289062 35.203125 64.378906 C 36.089844 64.410156 36.984375 64.433594 37.867188 64.460938 C 43.003906 64.628906 47.507812 64.699219 51.636719 64.667969 C 51.636719 64.667969 51.636719 64.667969 51.644531 64.667969 C 51.984375 64.667969 52.273438 64.914062 52.3125 65.253906 C 52.355469 65.59375 52.140625 65.914062 51.808594 65.996094 C 49.957031 66.480469 47.953125 66.59375 46.015625 66.695312 C 45.285156 66.738281 44.597656 66.777344 43.917969 66.828125 C 40.253906 67.136719 37.621094 67.167969 34.390625 67.148438 C 34.402344 67.148438 34.402344 67.148438 34.410156 67.148438 L 35.964844 67.273438 C 38.445312 67.476562 39.574219 67.570312 42.085938 67.46875 C 42.816406 67.4375 42.816406 67.4375 45.964844 67.332031 C 46.171875 67.332031 46.367188 67.414062 46.5 67.558594 C 46.632812 67.714844 46.695312 67.917969 46.664062 68.117188 C 46.410156 69.710938 42.941406 70.554688 36.632812 70.574219 C 36.480469 70.574219 36.335938 70.574219 36.191406 70.574219 C 34.636719 70.574219 33.472656 70.554688 32.527344 70.542969 C 31.160156 70.523438 30.335938 70.511719 29.554688 70.574219 C 29.183594 70.605469 28.855469 70.328125 28.824219 69.957031 C 28.792969 69.585938 29.070312 69.257812 29.441406 69.226562 C 30.285156 69.15625 31.136719 69.164062 32.546875 69.195312 C 33.578125 69.214844 34.851562 69.238281 36.621094 69.226562 C 39.523438 69.214844 41.46875 69.03125 42.765625 68.804688 C 42.539062 68.816406 42.375 68.816406 42.128906 68.824219 C 39.535156 68.929688 38.300781 68.824219 35.839844 68.628906 L 34.289062 68.507812 C 30.605469 68.207031 27.125 67.929688 22.96875 67.210938 C 22.628906 67.148438 22.382812 66.839844 22.414062 66.5 C 22.433594 66.148438 22.722656 65.882812 23.0625 65.863281 C 26.242188 65.738281 30.695312 65.757812 33.074219 65.78125 C 34.554688 65.789062 35.890625 65.800781 37.210938 65.789062 C 36.519531 65.769531 35.839844 65.75 35.152344 65.726562 C 31.292969 65.613281 27.289062 65.492188 23.371094 65.203125 C 23.144531 65.183594 22.898438 65.183594 22.628906 65.171875 C 21.589844 65.140625 20.417969 65.109375 19.511719 64.535156 C 19.222656 64.347656 19.109375 63.96875 19.273438 63.660156 C 19.769531 62.691406 20.910156 62.765625 21.601562 62.804688 C 21.734375 62.816406 21.859375 62.828125 21.980469 62.828125 C 23.144531 62.828125 24.335938 62.773438 25.480469 62.734375 C 26.46875 62.691406 27.484375 62.652344 28.496094 62.640625 C 30.789062 62.621094 33.125 62.652344 35.378906 62.691406 L 36.890625 62.722656 C 39.71875 62.773438 42.632812 62.660156 45.730469 62.40625 C 43.878906 62.351562 41.941406 62.292969 39.894531 62.21875 C 37.375 62.125 34.800781 62.074219 32.3125 62.023438 C 28.296875 61.941406 24.140625 61.871094 20.066406 61.59375 C 19.863281 61.582031 19.582031 61.570312 19.253906 61.5625 C 17.03125 61.507812 14.972656 61.375 14.140625 60.214844 C 13.996094 60.019531 13.976562 59.75 14.078125 59.523438 C 14.179688 59.296875 14.40625 59.152344 14.65625 59.132812 C 15.46875 59.082031 16.300781 59.007812 17.113281 58.9375 C 19.089844 58.761719 21.128906 58.578125 23.113281 58.699219 C 29.933594 59.121094 37.148438 59.316406 44.546875 59.265625 C 45.144531 59.265625 45.761719 59.265625 46.378906 59.265625 C 48.207031 59.265625 50.070312 59.265625 51.902344 59.183594 C 51.839844 59.183594 51.769531 59.183594 51.707031 59.175781 C 49.453125 59.0625 47.703125 59.039062 45.84375 59.007812 C 44.359375 58.988281 42.828125 58.957031 40.984375 58.894531 C 29.460938 58.464844 20.5625 58.019531 12.15625 57.488281 C 11.816406 57.464844 11.546875 57.199219 11.515625 56.859375 C 11.496094 56.519531 11.722656 56.222656 12.050781 56.148438 C 14.273438 55.695312 18.648438 55.601562 21.035156 55.6875 C 31.222656 56.035156 39.855469 55.707031 49.84375 55.304688 L 52.046875 55.222656 C 53.355469 55.171875 54.507812 55.128906 55.636719 55.058594 C 52.972656 54.882812 50.347656 54.738281 47.488281 54.738281 C 43.96875 54.738281 40.390625 54.976562 36.910156 55.203125 C 33.207031 55.449219 29.390625 55.695312 25.613281 55.664062 C 24.296875 55.65625 22.980469 55.644531 21.660156 55.625 C 19.871094 55.601562 18.019531 55.582031 16.199219 55.574219 C 15.777344 55.574219 15.324219 55.59375 14.839844 55.601562 C 13.523438 55.65625 12.042969 55.707031 10.816406 55.378906 C 10.734375 55.355469 10.664062 55.355469 10.582031 55.347656 C 10.160156 55.324219 9.683594 55.210938 9.4375 54.472656 C 9.324219 54.140625 9.488281 53.78125 9.796875 53.636719 C 10.898438 53.132812 12.535156 53.269531 13.984375 53.378906 C 14.511719 53.421875 15.003906 53.464844 15.386719 53.464844 C 15.417969 53.464844 15.4375 53.464844 15.457031 53.464844 C 17.9375 53.464844 20.457031 53.535156 22.886719 53.605469 C 25.035156 53.667969 27.269531 53.742188 29.453125 53.75 C 31.539062 53.761719 33.667969 53.628906 35.726562 53.492188 C 37.867188 53.351562 40.089844 53.207031 42.28125 53.238281 C 45.988281 53.277344 49.90625 53.113281 53.992188 52.742188 C 53.753906 52.753906 53.507812 52.773438 53.261719 52.792969 C 47.273438 53.257812 41.273438 53.289062 35.355469 53.175781 C 34.082031 53.183594 32.796875 53.214844 31.539062 53.238281 C 28.894531 53.289062 26.167969 53.339844 23.460938 53.277344 C 21.238281 53.226562 19.078125 53.050781 16.980469 52.886719 C 14.519531 52.691406 11.980469 52.484375 9.398438 52.484375 C 9.027344 52.484375 8.71875 52.175781 8.71875 51.804688 C 8.71875 51.4375 9.027344 51.128906 9.398438 51.128906 C 14.707031 51.128906 20.046875 51.3125 25.222656 51.496094 C 28.578125 51.621094 31.972656 51.734375 35.386719 51.804688 C 35.53125 51.804688 35.6875 51.804688 35.832031 51.804688 C 38.9375 51.785156 41.933594 51.582031 45.03125 51.34375 C 41.203125 51.445312 37.28125 51.519531 33.414062 51.40625 C 31.539062 51.355469 29.882812 51.28125 28.277344 51.21875 C 24.542969 51.066406 21.3125 50.941406 17 51.035156 C 15.910156 51.054688 14.304688 51.015625 12.886719 50.984375 C 12.246094 50.960938 11.640625 50.953125 11.136719 50.941406 C 9.046875 50.910156 8.171875 50.316406 7.492188 48.421875 L 7.460938 48.421875 C 6.332031 45.273438 5.746094 41.886719 5.746094 38.367188 C 5.746094 21.320312 19.5625 7.5 36.613281 7.5 C 53.664062 7.5 67.480469 21.320312 67.480469 38.367188 C 67.480469 41.886719 66.894531 45.273438 65.804688 48.421875 Z M 65.804688 48.421875 " fill-opacity="1" fill-rule="nonzero"/></g></svg>