<svg xmlns="http://www.w3.org/2000/svg" xmlns:xlink="http://www.w3.org/1999/xlink" width="400" zoomAndPan="magnify" viewBox="0 0 300 299.999988" height="400" preserveAspectRatio="xMidYMid meet" version="1.0"><defs><clipPath id="26d3a50201"><path d="M 145 53.925781 L 155 53.925781 L 155 106 L 145 106 Z M 145 53.925781 " clip-rule="nonzero"/></clipPath><clipPath id="0dd7140ebf"><path d="M 13.238281 203 L 286.988281 203 L 286.988281 212 L 13.238281 212 Z M 13.238281 203 " clip-rule="nonzero"/></clipPath><clipPath id="4b517c740c"><path d="M 115 237 L 185 237 L 185 245.925781 L 115 245.925781 Z M 115 237 " clip-rule="nonzero"/></clipPath><clipPath id="a2259db842"><path d="M 13.238281 94 L 40 94 L 40 121 L 13.238281 121 Z M 13.238281 94 " clip-rule="nonzero"/></clipPath><clipPath id="60bfb1f2e3"><path d="M 261 94 L 286.988281 94 L 286.988281 121 L 261 121 Z M 261 94 " clip-rule="nonzero"/></clipPath></defs><path fill="#ebc634" d="M 77.464844 194.726562 L 222.761719 194.726562 C 225.113281 194.726562 227.035156 192.804688 227.035156 190.457031 C 227.035156 148.003906 192.421875 113.660156 150.113281 113.660156 C 107.804688 113.660156 73.191406 148.003906 73.191406 190.457031 C 73.191406 192.804688 75.113281 194.726562 77.464844 194.726562 Z M 176.179688 152.058594 C 191.992188 153.339844 202.675781 171.472656 201.394531 186.40625 C 201.179688 188.539062 199.257812 190.246094 197.121094 190.246094 L 196.695312 190.246094 C 194.34375 190.03125 192.632812 188.113281 192.847656 185.550781 C 193.703125 173.605469 185.15625 161.230469 175.539062 160.378906 C 173.191406 160.164062 171.480469 158.03125 171.695312 155.683594 C 171.695312 153.550781 173.832031 151.84375 176.179688 152.058594 Z M 176.179688 152.058594 " fill-opacity="1" fill-rule="nonzero"/><path fill="#ebc634" d="M 280.238281 148.21875 C 279.597656 146.085938 277.035156 144.804688 274.898438 145.445312 L 234.300781 158.671875 C 231.949219 159.3125 230.882812 161.871094 231.523438 164.003906 C 232.164062 165.710938 233.871094 166.992188 235.582031 166.992188 C 236.011719 166.992188 236.4375 166.992188 236.863281 166.777344 L 277.460938 153.550781 C 279.8125 152.910156 280.882812 150.566406 280.238281 148.21875 Z M 280.238281 148.21875 " fill-opacity="1" fill-rule="nonzero"/><path fill="#ebc634" d="M 230.453125 79.953125 C 228.53125 78.671875 225.96875 78.886719 224.472656 80.804688 L 199.472656 115.363281 C 198.191406 117.285156 198.402344 119.84375 200.328125 121.339844 C 201.179688 121.976562 202.035156 122.191406 202.890625 122.191406 C 204.171875 122.191406 205.453125 121.550781 206.308594 120.484375 L 231.523438 85.925781 C 232.804688 84.003906 232.378906 81.445312 230.453125 79.953125 Z M 230.453125 79.953125 " fill-opacity="1" fill-rule="nonzero"/><path fill="#ebc634" d="M 93.917969 120.484375 C 94.773438 121.550781 96.054688 122.191406 97.335938 122.191406 C 98.191406 122.191406 99.046875 121.976562 99.898438 121.339844 C 101.824219 119.84375 102.25 117.285156 100.753906 115.363281 L 75.753906 81.019531 C 74.472656 79.097656 71.695312 78.671875 69.773438 80.164062 C 67.847656 81.660156 67.421875 84.21875 68.917969 86.136719 Z M 93.917969 120.484375 " fill-opacity="1" fill-rule="nonzero"/><path fill="#ebc634" d="M 68.703125 164.003906 C 69.34375 161.660156 68.277344 159.3125 65.925781 158.671875 L 25.328125 145.445312 C 23.191406 144.804688 20.628906 145.871094 19.988281 148.21875 C 19.347656 150.566406 20.414062 152.910156 22.765625 153.550781 L 63.363281 166.777344 C 63.789062 166.992188 64.21875 166.992188 64.644531 166.992188 C 66.566406 166.992188 68.277344 165.925781 68.703125 164.003906 Z M 68.703125 164.003906 " fill-opacity="1" fill-rule="nonzero"/><g clip-path="url(#26d3a50201)"><path fill="#ebc634" d="M 145.839844 58.191406 L 145.839844 100.859375 C 145.839844 103.203125 147.761719 105.125 150.113281 105.125 C 152.464844 105.125 154.386719 103.203125 154.386719 100.859375 L 154.386719 58.191406 C 154.386719 55.84375 152.464844 53.925781 150.113281 53.925781 C 147.761719 53.925781 145.839844 55.84375 145.839844 58.191406 Z M 145.839844 58.191406 " fill-opacity="1" fill-rule="nonzero"/></g><path fill="#ebc634" d="M 113.789062 78.886719 C 111.4375 79.523438 110.371094 82.085938 111.011719 84.21875 L 118.277344 106.617188 C 118.917969 108.324219 120.625 109.605469 122.335938 109.605469 C 122.761719 109.605469 123.191406 109.605469 123.617188 109.390625 C 125.96875 108.75 127.035156 106.191406 126.394531 104.058594 L 119.132812 81.660156 C 118.488281 79.3125 115.925781 78.246094 113.789062 78.886719 Z M 113.789062 78.886719 " fill-opacity="1" fill-rule="nonzero"/><path fill="#ebc634" d="M 77.464844 142.03125 C 78.746094 142.03125 80.027344 141.390625 80.882812 140.324219 C 82.164062 138.40625 81.953125 135.84375 80.027344 134.351562 L 61.011719 120.484375 C 59.089844 118.992188 56.523438 119.417969 55.027344 121.339844 C 53.746094 123.257812 53.960938 125.816406 55.882812 127.3125 L 74.902344 141.179688 C 75.753906 141.816406 76.609375 142.03125 77.464844 142.03125 Z M 77.464844 142.03125 " fill-opacity="1" fill-rule="nonzero"/><path fill="#ebc634" d="M 60.371094 186.191406 L 36.867188 186.191406 C 34.515625 186.191406 32.59375 188.113281 32.59375 190.457031 C 32.59375 192.804688 34.515625 194.726562 36.867188 194.726562 L 60.371094 194.726562 C 62.722656 194.726562 64.644531 192.804688 64.644531 190.457031 C 64.644531 188.113281 62.722656 186.191406 60.371094 186.191406 Z M 60.371094 186.191406 " fill-opacity="1" fill-rule="nonzero"/><path fill="#ebc634" d="M 239.855469 186.191406 C 237.503906 186.191406 235.582031 188.113281 235.582031 190.457031 C 235.582031 192.804688 237.503906 194.726562 239.855469 194.726562 L 263.359375 194.726562 C 265.710938 194.726562 267.632812 192.804688 267.632812 190.457031 C 267.632812 188.113281 265.710938 186.191406 263.359375 186.191406 Z M 239.855469 186.191406 " fill-opacity="1" fill-rule="nonzero"/><path fill="#ebc634" d="M 239.214844 120.484375 L 220.199219 134.351562 C 218.273438 135.632812 217.847656 138.40625 219.34375 140.324219 C 220.199219 141.390625 221.480469 142.03125 222.761719 142.03125 C 223.617188 142.03125 224.472656 141.816406 225.324219 141.179688 L 244.34375 127.3125 C 246.265625 126.03125 246.695312 123.257812 245.199219 121.339844 C 243.914062 119.632812 241.136719 119.203125 239.214844 120.484375 Z M 239.214844 120.484375 " fill-opacity="1" fill-rule="nonzero"/><path fill="#ebc634" d="M 186.4375 78.886719 C 184.300781 78.246094 181.738281 79.3125 181.097656 81.660156 L 173.832031 104.058594 C 173.191406 106.191406 174.257812 108.75 176.609375 109.390625 C 177.035156 109.605469 177.464844 109.605469 177.890625 109.605469 C 179.601562 109.605469 181.308594 108.539062 181.949219 106.617188 L 189.214844 84.21875 C 189.855469 82.085938 188.789062 79.523438 186.4375 78.886719 Z M 186.4375 78.886719 " fill-opacity="1" fill-rule="nonzero"/><g clip-path="url(#0dd7140ebf)"><path fill="#ebc634" d="M 282.589844 203.257812 L 17.636719 203.257812 C 15.285156 203.257812 13.363281 205.179688 13.363281 207.523438 C 13.363281 209.871094 15.285156 211.792969 17.636719 211.792969 L 282.589844 211.792969 C 284.941406 211.792969 286.863281 209.871094 286.863281 207.523438 C 286.863281 205.179688 284.941406 203.257812 282.589844 203.257812 Z M 282.589844 203.257812 " fill-opacity="1" fill-rule="nonzero"/></g><path fill="#ebc634" d="M 229.171875 224.589844 C 229.171875 222.246094 227.25 220.324219 224.898438 220.324219 L 75.328125 220.324219 C 72.976562 220.324219 71.054688 222.246094 71.054688 224.589844 C 71.054688 226.9375 72.976562 228.859375 75.328125 228.859375 L 224.898438 228.859375 C 227.25 228.859375 229.171875 226.9375 229.171875 224.589844 Z M 229.171875 224.589844 " fill-opacity="1" fill-rule="nonzero"/><g clip-path="url(#4b517c740c)"><path fill="#ebc634" d="M 184.300781 241.660156 C 184.300781 239.3125 182.378906 237.390625 180.027344 237.390625 L 120.199219 237.390625 C 117.847656 237.390625 115.925781 239.3125 115.925781 241.660156 C 115.925781 244.003906 117.847656 245.925781 120.199219 245.925781 L 180.027344 245.925781 C 182.378906 245.925781 184.300781 244.003906 184.300781 241.660156 Z M 184.300781 241.660156 " fill-opacity="1" fill-rule="nonzero"/></g><g clip-path="url(#a2259db842)"><path fill="#ebc634" d="M 39.003906 107.257812 C 39.003906 108.097656 38.921875 108.929688 38.757812 109.753906 C 38.59375 110.578125 38.351562 111.378906 38.027344 112.15625 C 37.707031 112.933594 37.3125 113.671875 36.84375 114.371094 C 36.375 115.070312 35.84375 115.714844 35.25 116.308594 C 34.652344 116.902344 34.007812 117.433594 33.304688 117.902344 C 32.605469 118.367188 31.867188 118.761719 31.089844 119.082031 C 30.3125 119.40625 29.511719 119.648438 28.683594 119.8125 C 27.859375 119.976562 27.023438 120.058594 26.183594 120.058594 C 25.339844 120.058594 24.507812 119.976562 23.683594 119.8125 C 22.855469 119.648438 22.054688 119.40625 21.277344 119.082031 C 20.5 118.761719 19.761719 118.367188 19.0625 117.902344 C 18.359375 117.433594 17.714844 116.902344 17.117188 116.308594 C 16.523438 115.714844 15.992188 115.070312 15.523438 114.371094 C 15.054688 113.671875 14.660156 112.933594 14.339844 112.15625 C 14.015625 111.378906 13.773438 110.578125 13.609375 109.753906 C 13.445312 108.929688 13.363281 108.097656 13.363281 107.257812 C 13.363281 106.417969 13.445312 105.585938 13.609375 104.761719 C 13.773438 103.9375 14.015625 103.136719 14.339844 102.359375 C 14.660156 101.582031 15.054688 100.847656 15.523438 100.148438 C 15.992188 99.449219 16.523438 98.800781 17.117188 98.207031 C 17.714844 97.613281 18.359375 97.082031 19.0625 96.617188 C 19.761719 96.148438 20.5 95.753906 21.277344 95.433594 C 22.054688 95.109375 22.855469 94.867188 23.683594 94.703125 C 24.507812 94.539062 25.339844 94.457031 26.183594 94.457031 C 27.023438 94.457031 27.859375 94.539062 28.683594 94.703125 C 29.511719 94.867188 30.3125 95.109375 31.089844 95.433594 C 31.867188 95.753906 32.605469 96.148438 33.304688 96.617188 C 34.007812 97.082031 34.652344 97.613281 35.25 98.207031 C 35.84375 98.800781 36.375 99.449219 36.84375 100.148438 C 37.3125 100.847656 37.707031 101.582031 38.027344 102.359375 C 38.351562 103.136719 38.59375 103.9375 38.757812 104.761719 C 38.921875 105.585938 39.003906 106.417969 39.003906 107.257812 Z M 39.003906 107.257812 " fill-opacity="1" fill-rule="nonzero"/></g><g clip-path="url(#60bfb1f2e3)"><path fill="#ebc634" d="M 286.863281 107.257812 C 286.863281 108.097656 286.78125 108.929688 286.617188 109.753906 C 286.453125 110.578125 286.210938 111.378906 285.886719 112.15625 C 285.566406 112.933594 285.171875 113.671875 284.703125 114.371094 C 284.234375 115.070312 283.703125 115.714844 283.109375 116.308594 C 282.511719 116.902344 281.867188 117.433594 281.167969 117.902344 C 280.464844 118.367188 279.726562 118.761719 278.949219 119.082031 C 278.171875 119.40625 277.371094 119.648438 276.542969 119.8125 C 275.71875 119.976562 274.886719 120.058594 274.042969 120.058594 C 273.203125 120.058594 272.367188 119.976562 271.542969 119.8125 C 270.714844 119.648438 269.914062 119.40625 269.136719 119.082031 C 268.359375 118.761719 267.621094 118.367188 266.921875 117.902344 C 266.222656 117.433594 265.574219 116.902344 264.976562 116.308594 C 264.382812 115.714844 263.851562 115.070312 263.382812 114.371094 C 262.917969 113.671875 262.519531 112.933594 262.199219 112.15625 C 261.875 111.378906 261.632812 110.578125 261.46875 109.753906 C 261.304688 108.929688 261.222656 108.097656 261.222656 107.257812 C 261.222656 106.417969 261.304688 105.585938 261.46875 104.761719 C 261.632812 103.9375 261.875 103.136719 262.199219 102.359375 C 262.519531 101.582031 262.917969 100.847656 263.382812 100.148438 C 263.851562 99.449219 264.382812 98.800781 264.976562 98.207031 C 265.574219 97.613281 266.222656 97.082031 266.921875 96.617188 C 267.621094 96.148438 268.359375 95.753906 269.136719 95.433594 C 269.914062 95.109375 270.714844 94.867188 271.542969 94.703125 C 272.367188 94.539062 273.203125 94.457031 274.042969 94.457031 C 274.886719 94.457031 275.71875 94.539062 276.542969 94.703125 C 277.371094 94.867188 278.171875 95.109375 278.949219 95.433594 C 279.726562 95.753906 280.464844 96.148438 281.167969 96.617188 C 281.867188 97.082031 282.511719 97.613281 283.109375 98.207031 C 283.703125 98.800781 284.234375 99.449219 284.703125 100.148438 C 285.171875 100.847656 285.566406 101.582031 285.886719 102.359375 C 286.210938 103.136719 286.453125 103.9375 286.617188 104.761719 C 286.78125 105.585938 286.863281 106.417969 286.863281 107.257812 Z M 286.863281 107.257812 " fill-opacity="1" fill-rule="nonzero"/></g></svg>