<svg xmlns="http://www.w3.org/2000/svg" xmlns:xlink="http://www.w3.org/1999/xlink" width="400" zoomAndPan="magnify" viewBox="0 0 300 299.999988" height="400" preserveAspectRatio="xMidYMid meet" version="1.0"><defs><clipPath id="8cae841c5e"><path d="M 0 132 L 249 132 L 249 256.5 L 0 256.5 Z M 0 132 " clip-rule="nonzero"/></clipPath></defs><path fill="#f8e55b" d="M 229.972656 205.171875 C 237.1875 197.425781 255.351562 177.734375 259.730469 167.417969 C 262.402344 161.125 264.28125 154.703125 265.511719 148.246094 C 246.875 159.175781 223.527344 161.511719 202.125 152.394531 C 166.199219 137.089844 149.460938 95.511719 164.738281 59.523438 C 168.308594 51.121094 173.351562 43.808594 179.378906 37.664062 C 141.140625 35.410156 103.902344 56.957031 88.054688 94.289062 C 83.757812 104.410156 81.007812 124.460938 80.382812 134.847656 " fill-opacity="1" fill-rule="nonzero"/><path fill="#565fa0" d="M 214.699219 189.523438 C 212.027344 189.523438 209.453125 189.929688 206.992188 190.632812 C 205.378906 169.679688 188.890625 153.203125 168.753906 153.203125 C 157.144531 153.203125 146.761719 158.703125 139.71875 167.351562 C 131.125 148.929688 113.292969 136.234375 92.628906 136.234375 C 64.148438 136.234375 41.015625 160.296875 40.125 190.316406 C 38.015625 189.808594 35.824219 189.523438 33.566406 189.523438 C 17.183594 189.523438 3.902344 203.628906 3.902344 221.035156 C 3.902344 238.4375 17.183594 252.546875 33.566406 252.546875 C 35.472656 252.546875 212.792969 252.546875 214.699219 252.546875 C 231.082031 252.546875 244.363281 238.4375 244.363281 221.035156 C 244.363281 203.628906 231.082031 189.523438 214.699219 189.523438 Z M 214.699219 189.523438 " fill-opacity="1" fill-rule="nonzero"/><g clip-path="url(#8cae841c5e)"><path fill="#1f212b" d="M 215.433594 256.601562 L 33.671875 256.601562 C 15.246094 256.601562 0.253906 240.78125 0.253906 221.332031 C 0.253906 200.765625 17.03125 184.101562 36.867188 186.226562 C 39.726562 155.828125 63.644531 132.585938 92.9375 132.585938 C 112.816406 132.585938 130.816406 143.414062 141.035156 161.171875 C 148.757812 153.769531 158.816406 149.613281 169.335938 149.613281 C 189.796875 149.613281 207.316406 165.46875 210.835938 186.40625 C 212.378906 186.171875 213.917969 186.050781 215.4375 186.050781 C 233.863281 186.050781 248.855469 201.875 248.855469 221.328125 C 248.855469 240.777344 233.855469 256.601562 215.433594 256.601562 Z M 33.671875 193.359375 C 19.269531 193.359375 7.550781 205.910156 7.550781 221.332031 C 7.550781 236.75 19.269531 249.296875 33.671875 249.296875 L 215.433594 249.296875 C 229.835938 249.296875 241.554688 236.746094 241.554688 221.332031 C 241.554688 203.550781 225.800781 189.441406 208.703125 194.335938 C 207.648438 194.628906 206.515625 194.445312 205.617188 193.820312 C 204.71875 193.191406 204.152344 192.195312 204.0625 191.105469 C 202.589844 171.933594 187.328125 156.921875 169.332031 156.921875 C 159.257812 156.921875 149.664062 161.605469 143.019531 169.773438 C 142.226562 170.746094 140.972656 171.234375 139.746094 171.085938 C 138.496094 170.933594 137.421875 170.148438 136.890625 169.011719 C 128.507812 151.050781 111.664062 139.894531 92.9375 139.894531 C 66.28125 139.894531 44.742188 162.171875 43.902344 190.617188 C 43.863281 191.722656 43.34375 192.742188 42.46875 193.417969 C 41.597656 194.082031 40.46875 194.320312 39.398438 194.066406 C 37.46875 193.59375 35.539062 193.359375 33.671875 193.359375 Z M 33.671875 193.359375 " fill-opacity="1" fill-rule="nonzero"/></g><path fill="#1f212b" d="M 148.9375 241.988281 L 134.347656 241.988281 C 133.339844 241.988281 132.523438 241.171875 132.523438 240.164062 C 132.523438 239.15625 133.339844 238.335938 134.347656 238.335938 L 148.9375 238.335938 C 149.941406 238.335938 150.757812 239.15625 150.757812 240.164062 C 150.757812 241.171875 149.945312 241.988281 148.9375 241.988281 Z M 127.054688 241.988281 L 123.40625 241.988281 C 122.398438 241.988281 121.582031 241.171875 121.582031 240.164062 C 121.582031 239.15625 122.398438 238.335938 123.40625 238.335938 L 127.054688 238.335938 C 128.058594 238.335938 128.875 239.15625 128.875 240.164062 C 128.875 241.171875 128.0625 241.988281 127.054688 241.988281 Z M 119.757812 241.988281 L 28.578125 241.988281 C 27.574219 241.988281 26.753906 241.171875 26.753906 240.164062 C 26.753906 239.15625 27.574219 238.335938 28.578125 238.335938 L 119.757812 238.335938 C 120.765625 238.335938 121.582031 239.15625 121.582031 240.164062 C 121.582031 241.171875 120.769531 241.988281 119.757812 241.988281 Z M 242.128906 196.667969 C 241.238281 196.667969 240.34375 196.34375 239.640625 195.683594 C 238.167969 194.308594 238.082031 191.996094 239.457031 190.523438 C 246.566406 182.886719 252.261719 174.101562 256.375 164.410156 C 257.855469 160.921875 259.121094 157.285156 260.160156 153.542969 C 241.269531 162.09375 220.007812 162.402344 200.695312 154.171875 C 182.425781 146.390625 168.269531 131.945312 160.84375 113.5 C 153.417969 95.058594 153.613281 74.816406 161.378906 56.515625 C 163.953125 50.453125 167.308594 44.792969 171.40625 39.613281 C 136.667969 40.578125 105.148438 61.765625 91.398438 94.140625 C 87.359375 103.660156 84.996094 113.671875 84.386719 123.886719 C 84.269531 125.90625 82.523438 127.367188 80.53125 127.316406 C 78.515625 127.195312 76.984375 125.460938 77.109375 123.449219 C 77.769531 112.398438 80.316406 101.574219 84.6875 91.277344 C 100.652344 53.679688 138.777344 29.964844 179.585938 32.4375 C 181.015625 32.515625 182.261719 33.429688 182.773438 34.769531 C 183.292969 36.105469 182.980469 37.621094 181.976562 38.644531 C 176.023438 44.714844 171.351562 51.6875 168.085938 59.378906 C 161.082031 75.886719 160.90625 94.136719 167.605469 110.769531 C 174.300781 127.40625 187.066406 140.429688 203.546875 147.453125 C 223.199219 155.828125 245.113281 154.390625 263.65625 143.511719 C 264.890625 142.789062 266.433594 142.851562 267.605469 143.683594 C 268.769531 144.511719 269.351562 145.941406 269.082031 147.351562 C 267.761719 154.289062 265.742188 160.988281 263.074219 167.269531 C 258.628906 177.746094 252.476562 187.25 244.785156 195.503906 C 244.074219 196.28125 243.105469 196.667969 242.128906 196.667969 Z M 242.128906 196.667969 " fill-opacity="1" fill-rule="nonzero"/><path fill="#f8e55b" d="M 43.820312 107.703125 L 48.144531 116.480469 L 57.816406 117.886719 L 50.820312 124.71875 L 52.472656 134.363281 L 43.820312 129.808594 L 35.171875 134.363281 L 36.824219 124.71875 L 29.828125 117.886719 L 39.5 116.480469 Z M 43.820312 107.703125 " fill-opacity="1" fill-rule="nonzero"/><path fill="#1f212b" d="M 35.171875 136.1875 C 34.792969 136.1875 34.417969 136.070312 34.101562 135.835938 C 33.539062 135.433594 33.257812 134.738281 33.375 134.050781 L 34.867188 125.351562 L 28.5625 119.191406 C 28.0625 118.703125 27.882812 117.976562 28.097656 117.316406 C 28.3125 116.652344 28.886719 116.171875 29.566406 116.070312 L 38.289062 114.800781 L 42.1875 106.886719 C 42.800781 105.644531 44.84375 105.644531 45.453125 106.886719 L 49.351562 114.800781 L 58.078125 116.070312 C 58.761719 116.167969 59.335938 116.652344 59.546875 117.316406 C 59.761719 117.976562 59.582031 118.703125 59.085938 119.191406 L 52.777344 125.351562 L 54.265625 134.054688 C 54.382812 134.742188 54.101562 135.433594 53.539062 135.835938 C 52.980469 136.246094 52.234375 136.300781 51.621094 135.976562 L 43.820312 131.871094 L 36.019531 135.980469 C 35.753906 136.121094 35.464844 136.1875 35.171875 136.1875 Z M 43.820312 127.980469 C 44.113281 127.980469 44.402344 128.050781 44.667969 128.191406 L 50.046875 131.023438 L 49.019531 125.019531 C 48.921875 124.429688 49.117188 123.824219 49.550781 123.40625 L 53.898438 119.160156 L 47.882812 118.289062 C 47.292969 118.199219 46.773438 117.828125 46.511719 117.289062 L 43.820312 111.828125 L 41.132812 117.285156 C 40.871094 117.824219 40.351562 118.195312 39.761719 118.285156 L 33.75 119.15625 L 38.097656 123.402344 C 38.527344 123.820312 38.726562 124.429688 38.628906 125.019531 L 37.597656 131.019531 L 42.976562 128.1875 C 43.238281 128.050781 43.527344 127.980469 43.820312 127.980469 Z M 43.820312 127.980469 " fill-opacity="1" fill-rule="nonzero"/><path fill="#f8e55b" d="M 170.457031 178.636719 L 174.785156 187.414062 L 184.453125 188.820312 L 177.457031 195.652344 L 179.105469 205.296875 L 170.457031 200.742188 L 161.808594 205.296875 L 163.460938 195.652344 L 156.46875 188.820312 L 166.136719 187.414062 Z M 170.457031 178.636719 " fill-opacity="1" fill-rule="nonzero"/><path fill="#1f212b" d="M 161.8125 207.121094 C 161.433594 207.121094 161.058594 207.007812 160.742188 206.773438 C 160.179688 206.367188 159.898438 205.671875 160.015625 204.988281 L 161.503906 196.289062 L 155.199219 190.125 C 154.695312 189.640625 154.519531 188.914062 154.730469 188.253906 C 154.945312 187.589844 155.519531 187.109375 156.199219 187.007812 L 164.925781 185.742188 L 168.824219 177.824219 C 169.4375 176.582031 171.484375 176.582031 172.089844 177.824219 L 175.992188 185.742188 L 184.710938 187.007812 C 185.398438 187.105469 185.96875 187.589844 186.179688 188.253906 C 186.394531 188.914062 186.21875 189.640625 185.71875 190.128906 L 179.410156 196.292969 L 180.902344 204.988281 C 181.019531 205.675781 180.738281 206.371094 180.175781 206.777344 C 179.617188 207.183594 178.871094 207.242188 178.257812 206.914062 L 170.457031 202.804688 L 162.65625 206.914062 C 162.394531 207.058594 162.105469 207.121094 161.8125 207.121094 Z M 160.382812 190.09375 L 164.730469 194.339844 C 165.164062 194.761719 165.359375 195.363281 165.261719 195.953125 L 164.234375 201.957031 L 169.617188 199.125 C 170.144531 198.847656 170.78125 198.847656 171.3125 199.125 L 176.691406 201.957031 L 175.664062 195.957031 C 175.5625 195.367188 175.757812 194.761719 176.191406 194.339844 L 180.539062 190.09375 L 174.527344 189.222656 C 173.9375 189.132812 173.417969 188.761719 173.15625 188.226562 L 170.46875 182.765625 L 167.78125 188.226562 C 167.519531 188.761719 167 189.132812 166.410156 189.222656 Z M 133.351562 65.105469 C 132.710938 65.105469 132.089844 64.765625 131.753906 64.164062 C 131.265625 63.28125 131.582031 62.171875 132.460938 61.675781 C 138.636719 58.246094 145.21875 56.660156 151.921875 56.929688 C 152.929688 56.972656 153.710938 57.824219 153.667969 58.832031 C 153.625 59.835938 152.785156 60.613281 151.769531 60.582031 C 145.691406 60.304688 139.808594 61.769531 134.230469 64.875 C 133.957031 65.03125 133.652344 65.105469 133.351562 65.105469 Z M 101.011719 122.21875 C 100.035156 122.21875 99.226562 121.449219 99.1875 120.464844 C 99.117188 118.628906 99.117188 116.765625 99.195312 114.882812 C 99.960938 96.535156 107.90625 79.761719 120.449219 70.007812 C 121.234375 69.386719 122.382812 69.523438 123.003906 70.328125 C 123.625 71.125 123.480469 72.269531 122.683594 72.890625 C 110.976562 81.992188 103.5625 97.75 102.84375 115.03125 C 102.765625 116.816406 102.765625 118.578125 102.835938 120.324219 C 102.875 121.328125 102.089844 122.179688 101.085938 122.222656 C 101.054688 122.21875 101.035156 122.21875 101.011719 122.21875 Z M 101.011719 122.21875 " fill-opacity="1" fill-rule="nonzero"/></svg>