<svg xmlns="http://www.w3.org/2000/svg" xmlns:xlink="http://www.w3.org/1999/xlink" width="400" zoomAndPan="magnify" viewBox="0 0 300 299.999988" height="400" preserveAspectRatio="xMidYMid meet" version="1.0"><defs><clipPath id="5aff24e47f"><path d="M 15.644531 18 L 290 18 L 290 281.449219 L 15.644531 281.449219 Z M 15.644531 18 " clip-rule="nonzero"/></clipPath></defs><g clip-path="url(#5aff24e47f)"><path fill="#534741" d="M 287.558594 78.6875 C 285.628906 70.144531 281.828125 61.511719 276.25 53.019531 C 264.6875 35.421875 245.78125 23.253906 224.382812 19.636719 C 202.660156 15.964844 180.417969 21.363281 163.355469 34.449219 L 163.359375 34.460938 C 162.804688 34.871094 160.78125 36.421875 152.566406 42.71875 C 152.292969 42.511719 151.96875 42.261719 151.605469 41.988281 C 151.480469 41.890625 151.355469 41.796875 151.222656 41.695312 C 150.882812 41.4375 150.515625 41.152344 150.132812 40.859375 C 148.921875 39.929688 147.539062 38.875 146.25 37.882812 C 146.109375 37.769531 145.964844 37.660156 145.820312 37.554688 C 145.171875 37.058594 144.554688 36.582031 144.011719 36.164062 C 143.515625 35.785156 143.082031 35.449219 142.730469 35.183594 C 142.675781 35.140625 142.621094 35.097656 142.566406 35.0625 C 142.347656 34.890625 142.164062 34.753906 142.03125 34.652344 C 142.011719 34.640625 141.996094 34.621094 141.976562 34.609375 C 141.964844 34.597656 141.953125 34.59375 141.941406 34.582031 C 141.933594 34.574219 141.929688 34.574219 141.921875 34.566406 C 141.832031 34.496094 141.78125 34.457031 141.773438 34.457031 C 140.644531 33.589844 139.480469 32.769531 138.3125 31.96875 C 137.78125 31.605469 137.253906 31.242188 136.710938 30.898438 C 136.609375 30.832031 136.507812 30.765625 136.402344 30.707031 C 136.164062 30.550781 135.910156 30.410156 135.671875 30.261719 C 135.039062 29.867188 134.40625 29.472656 133.769531 29.105469 C 132.980469 28.644531 132.1875 28.203125 131.386719 27.777344 C 130.734375 27.429688 130.078125 27.101562 129.421875 26.773438 C 129.191406 26.660156 128.960938 26.535156 128.730469 26.421875 C 127.589844 25.871094 126.429688 25.34375 125.261719 24.84375 C 124.847656 24.671875 124.433594 24.503906 124.015625 24.339844 C 123.128906 23.980469 122.246094 23.640625 121.351562 23.3125 C 120.914062 23.160156 120.484375 22.992188 120.050781 22.84375 C 118.550781 22.324219 117.027344 21.867188 115.496094 21.441406 C 115.023438 21.3125 114.558594 21.179688 114.085938 21.054688 C 113.890625 21 113.6875 20.953125 113.488281 20.898438 C 112.605469 20.679688 111.714844 20.472656 110.828125 20.28125 C 110.671875 20.25 110.515625 20.222656 110.367188 20.183594 C 109.566406 20.019531 108.761719 19.863281 107.949219 19.726562 C 106.277344 19.433594 104.589844 19.203125 102.890625 19.015625 C 102.46875 18.96875 102.042969 18.914062 101.621094 18.878906 C 101.5 18.867188 101.375 18.855469 101.257812 18.84375 C 100.335938 18.761719 99.417969 18.703125 98.492188 18.652344 C 98.277344 18.640625 98.0625 18.628906 97.847656 18.625 C 96.910156 18.582031 95.96875 18.546875 95.023438 18.539062 C 94.121094 18.527344 93.214844 18.539062 92.3125 18.5625 C 92.085938 18.570312 91.859375 18.578125 91.640625 18.582031 C 90.730469 18.613281 89.824219 18.648438 88.917969 18.707031 C 88.238281 18.75 87.554688 18.804688 86.875 18.867188 C 85.515625 18.992188 84.152344 19.148438 82.792969 19.34375 C 82.113281 19.441406 81.429688 19.546875 80.757812 19.660156 C 59.367188 23.253906 40.460938 35.421875 28.902344 53.027344 C 23.328125 61.511719 19.519531 70.152344 17.589844 78.6875 C 17.441406 79.339844 17.304688 79.992188 17.171875 80.65625 C 17.101562 81.007812 17.039062 81.363281 16.972656 81.722656 C 16.921875 82.027344 16.859375 82.328125 16.808594 82.632812 C 16.722656 83.117188 16.652344 83.597656 16.582031 84.082031 C 16.550781 84.265625 16.519531 84.445312 16.496094 84.628906 C 16.417969 85.179688 16.347656 85.726562 16.28125 86.28125 C 16.269531 86.398438 16.253906 86.519531 16.234375 86.636719 C 16.222656 86.757812 16.210938 86.875 16.199219 86.996094 C 16.144531 87.484375 16.089844 87.972656 16.042969 88.464844 C 16.039062 88.53125 16.03125 88.597656 16.023438 88.65625 C 16 88.917969 15.984375 89.1875 15.960938 89.449219 C 15.929688 89.824219 15.894531 90.199219 15.871094 90.574219 C 15.871094 90.613281 15.863281 90.652344 15.863281 90.6875 C 15.847656 90.914062 15.839844 91.148438 15.828125 91.375 C 15.804688 91.816406 15.773438 92.25 15.757812 92.691406 C 15.757812 92.703125 15.757812 92.714844 15.757812 92.726562 C 15.722656 93.507812 15.703125 94.289062 15.691406 95.070312 C 15.691406 95.105469 15.691406 95.140625 15.691406 95.167969 C 15.691406 95.378906 15.691406 95.59375 15.691406 95.800781 C 15.691406 95.800781 15.691406 95.808594 15.691406 95.808594 C 15.691406 95.855469 15.691406 95.902344 15.691406 95.949219 C 15.691406 96.46875 15.691406 96.988281 15.695312 97.503906 C 15.695312 97.527344 15.695312 97.554688 15.695312 97.578125 C 15.703125 97.785156 15.703125 97.992188 15.707031 98.203125 C 15.707031 98.214844 15.707031 98.21875 15.707031 98.230469 C 15.722656 98.644531 15.738281 99.054688 15.75 99.460938 C 15.757812 99.613281 15.761719 99.769531 15.769531 99.925781 C 15.769531 99.964844 15.769531 100.007812 15.773438 100.050781 C 15.78125 100.242188 15.792969 100.429688 15.796875 100.628906 C 15.796875 100.632812 15.796875 100.640625 15.796875 100.644531 C 15.839844 101.4375 15.886719 102.222656 15.953125 103.015625 C 15.953125 103.015625 15.953125 103.023438 15.953125 103.023438 C 16.007812 103.695312 16.074219 104.371094 16.140625 105.042969 C 16.140625 105.058594 16.140625 105.074219 16.144531 105.089844 C 16.214844 105.757812 16.292969 106.429688 16.382812 107.097656 C 16.382812 107.117188 16.390625 107.132812 16.390625 107.152344 C 16.472656 107.808594 16.570312 108.46875 16.671875 109.125 C 16.671875 109.125 16.671875 109.128906 16.671875 109.128906 C 16.671875 109.140625 16.675781 109.148438 16.675781 109.160156 C 16.675781 109.175781 16.683594 109.195312 16.683594 109.214844 C 16.734375 109.566406 16.800781 109.917969 16.859375 110.269531 C 16.910156 110.566406 16.957031 110.859375 17.011719 111.15625 C 17.011719 111.15625 17.011719 111.15625 17.011719 111.160156 C 17.015625 111.191406 17.023438 111.226562 17.027344 111.257812 C 17.039062 111.328125 17.050781 111.398438 17.0625 111.472656 C 17.308594 112.8125 17.59375 114.148438 17.910156 115.476562 C 17.941406 115.605469 17.976562 115.738281 18.007812 115.867188 C 18.097656 116.230469 18.1875 116.59375 18.277344 116.960938 C 18.339844 117.222656 18.414062 117.476562 18.480469 117.738281 C 18.773438 118.824219 19.082031 119.902344 19.417969 120.980469 C 19.457031 121.125 19.503906 121.265625 19.546875 121.410156 C 19.875 122.445312 20.226562 123.476562 20.597656 124.507812 C 20.65625 124.679688 20.71875 124.855469 20.785156 125.027344 C 20.902344 125.347656 21.027344 125.671875 21.148438 125.992188 C 21.148438 125.992188 21.148438 125.992188 21.148438 125.996094 C 21.242188 126.246094 21.339844 126.503906 21.433594 126.753906 C 22.023438 128.257812 22.65625 129.746094 23.339844 131.230469 C 23.34375 131.234375 23.34375 131.246094 23.351562 131.253906 C 23.464844 131.503906 23.578125 131.757812 23.695312 132.007812 C 23.816406 132.265625 23.941406 132.515625 24.0625 132.773438 C 24.214844 133.09375 24.371094 133.414062 24.527344 133.738281 C 24.695312 134.082031 24.867188 134.421875 25.046875 134.769531 C 25.511719 135.679688 25.996094 136.589844 26.496094 137.496094 C 26.632812 137.742188 26.765625 137.984375 26.902344 138.234375 C 27.011719 138.425781 27.117188 138.613281 27.226562 138.800781 C 27.445312 139.183594 27.667969 139.570312 27.894531 139.953125 C 28.085938 140.28125 28.28125 140.601562 28.476562 140.921875 C 28.628906 141.167969 28.769531 141.410156 28.921875 141.65625 C 30.214844 143.746094 31.601562 145.820312 33.082031 147.859375 C 33.082031 147.859375 33.082031 147.859375 33.082031 147.863281 C 33.121094 147.925781 33.164062 147.984375 33.210938 148.042969 C 33.535156 148.488281 33.871094 148.9375 34.199219 149.378906 C 34.746094 150.109375 35.308594 150.832031 35.875 151.558594 C 36.132812 151.886719 36.386719 152.214844 36.65625 152.535156 C 36.746094 152.648438 36.835938 152.757812 36.925781 152.871094 C 37.265625 153.285156 37.613281 153.703125 37.957031 154.121094 C 38 154.167969 38.042969 154.214844 38.078125 154.265625 C 38.652344 154.941406 39.234375 155.617188 39.828125 156.289062 C 39.945312 156.421875 40.058594 156.558594 40.179688 156.6875 C 40.78125 157.367188 41.390625 158.042969 42.019531 158.714844 C 42.628906 159.363281 43.242188 160.011719 43.867188 160.65625 C 44.023438 160.8125 44.171875 160.972656 44.328125 161.128906 C 44.960938 161.769531 45.601562 162.414062 46.257812 163.050781 C 46.238281 163.160156 46.222656 163.261719 46.203125 163.367188 C 45.296875 168.347656 44.53125 173.359375 43.921875 178.371094 C 43.738281 179.882812 43.5625 181.390625 43.410156 182.898438 C 42.894531 187.898438 44.191406 191.921875 47.265625 194.855469 C 49.660156 197.144531 52.667969 198.347656 55.96875 198.347656 C 59.484375 198.347656 63.074219 196.925781 66.070312 194.332031 C 66.433594 194.023438 66.78125 193.703125 67.121094 193.378906 C 67.574219 192.949219 68.011719 192.511719 68.429688 192.070312 C 68.710938 191.769531 68.984375 191.46875 69.253906 191.15625 C 69.304688 191.097656 69.355469 191.039062 69.40625 190.980469 C 69.699219 190.644531 69.980469 190.304688 70.253906 189.964844 C 70.488281 189.679688 70.710938 189.394531 70.929688 189.101562 C 71.011719 188.996094 71.097656 188.886719 71.179688 188.78125 C 71.191406 188.769531 71.203125 188.75 71.214844 188.738281 C 71.484375 188.375 71.746094 188.015625 72.003906 187.652344 C 72.566406 186.863281 73.097656 186.070312 73.597656 185.289062 C 81.972656 191.277344 90.964844 197.089844 100.515625 202.722656 C 100.636719 202.792969 100.753906 202.863281 100.878906 202.9375 C 104.109375 204.835938 107.40625 206.714844 110.765625 208.566406 L 110.367188 215.984375 L 107.953125 260.589844 L 101.15625 260.589844 C 95.394531 260.589844 90.707031 265.265625 90.707031 271.015625 C 90.707031 276.765625 95.394531 281.441406 101.15625 281.441406 L 117.851562 281.441406 C 123.40625 281.441406 127.984375 277.109375 128.28125 271.574219 L 130.585938 228.933594 L 131.117188 219.058594 C 132.039062 219.496094 132.9375 219.910156 133.835938 220.324219 C 134.054688 220.425781 134.269531 220.527344 134.492188 220.621094 C 136.9375 221.730469 139.328125 222.765625 141.671875 223.730469 C 142 223.867188 142.328125 224 142.65625 224.128906 C 142.65625 224.128906 142.65625 224.128906 142.664062 224.128906 C 143.195312 224.34375 143.730469 224.558594 144.257812 224.769531 C 144.351562 224.804688 144.441406 224.839844 144.539062 224.882812 C 145.3125 225.183594 146.085938 225.484375 146.847656 225.773438 C 148.6875 226.472656 150.621094 226.816406 152.550781 226.816406 C 154.484375 226.816406 156.414062 226.472656 158.25 225.773438 C 159.246094 225.398438 160.25 225.007812 161.253906 224.605469 C 161.640625 224.453125 162.035156 224.292969 162.421875 224.128906 C 163.027344 223.886719 163.628906 223.640625 164.238281 223.386719 C 164.359375 223.335938 164.484375 223.285156 164.601562 223.230469 C 165.445312 222.878906 166.292969 222.523438 167.144531 222.144531 C 167.152344 222.140625 167.164062 222.140625 167.167969 222.132812 C 168.996094 221.34375 170.851562 220.5 172.75 219.621094 C 172.757812 219.621094 172.761719 219.613281 172.769531 219.613281 C 172.875 219.558594 172.984375 219.511719 173.097656 219.464844 C 174 219.042969 174.90625 218.613281 175.824219 218.171875 C 176.078125 218.054688 176.328125 217.925781 176.578125 217.808594 C 177.457031 217.386719 178.339844 216.949219 179.234375 216.503906 C 180.332031 215.960938 181.445312 215.394531 182.570312 214.816406 L 185.863281 221.800781 L 192.023438 234.878906 C 191.652344 235.199219 191.316406 235.539062 191.011719 235.898438 C 190.882812 236.054688 190.746094 236.203125 190.625 236.355469 C 190.621094 236.367188 190.605469 236.378906 190.601562 236.390625 C 190.433594 236.617188 190.285156 236.855469 190.148438 237.101562 C 190.113281 237.160156 190.074219 237.226562 190.046875 237.292969 C 189.910156 237.554688 189.777344 237.824219 189.675781 238.109375 C 188.972656 240.03125 189.203125 242.191406 190.378906 244.691406 L 202.46875 270.355469 C 205.203125 276.15625 210.988281 279.601562 217.066406 279.601562 C 219.089844 279.601562 221.136719 279.21875 223.117188 278.414062 L 238.585938 272.148438 C 242.574219 270.53125 245.695312 267.464844 247.375 263.503906 C 249.050781 259.539062 249.082031 255.171875 247.464844 251.191406 C 247.285156 250.75 247.089844 250.328125 246.875 249.910156 C 246.777344 249.726562 246.671875 249.546875 246.570312 249.363281 C 246.429688 249.125 246.300781 248.882812 246.15625 248.648438 C 245.964844 248.351562 245.761719 248.066406 245.554688 247.777344 C 245.476562 247.671875 245.398438 247.550781 245.316406 247.445312 C 245.277344 247.398438 245.242188 247.347656 245.203125 247.300781 C 244.976562 247.011719 244.730469 246.730469 244.480469 246.457031 C 244.179688 246.128906 243.871094 245.816406 243.546875 245.515625 C 243.464844 245.4375 243.386719 245.347656 243.296875 245.269531 C 243.023438 245.027344 242.730469 244.792969 242.4375 244.566406 C 242.335938 244.488281 242.242188 244.398438 242.140625 244.328125 C 241.734375 244.03125 241.316406 243.75 240.878906 243.488281 C 240.46875 243.238281 240.039062 243.007812 239.597656 242.792969 C 239.457031 242.667969 239.296875 242.566406 239.113281 242.5 C 239.003906 242.464844 238.902344 242.441406 238.796875 242.421875 C 238.492188 242.292969 238.179688 242.179688 237.871094 242.070312 C 237.78125 242.039062 237.691406 242.011719 237.601562 241.980469 C 237.363281 241.902344 237.117188 241.828125 236.878906 241.761719 C 236.800781 241.738281 236.71875 241.714844 236.640625 241.695312 C 236.332031 241.613281 236.015625 241.539062 235.699219 241.476562 C 235.636719 241.460938 235.585938 241.457031 235.523438 241.445312 C 235.261719 241.398438 235 241.351562 234.730469 241.3125 C 234.636719 241.300781 234.539062 241.289062 234.449219 241.277344 C 234.1875 241.25 233.917969 241.21875 233.648438 241.199219 C 233.589844 241.195312 233.535156 241.1875 233.476562 241.1875 C 233.15625 241.171875 232.839844 241.160156 232.515625 241.160156 C 232.433594 241.160156 232.355469 241.164062 232.269531 241.164062 C 232.019531 241.171875 231.777344 241.175781 231.523438 241.195312 C 231.433594 241.199219 231.339844 241.207031 231.25 241.210938 C 230.5625 241.265625 229.878906 241.367188 229.203125 241.511719 C 229.128906 241.527344 229.058594 241.539062 228.988281 241.558594 C 228.605469 241.648438 228.230469 241.742188 227.851562 241.855469 C 227.839844 241.863281 227.835938 241.863281 227.824219 241.867188 C 227.597656 241.941406 227.371094 242.011719 227.148438 242.089844 C 226.921875 242.164062 226.695312 242.253906 226.46875 242.34375 L 225.148438 242.882812 L 219.5625 231.011719 C 218.367188 228.480469 216.851562 226.914062 214.917969 226.222656 C 214.492188 226.074219 214.0625 225.972656 213.621094 225.910156 C 213.589844 225.90625 213.566406 225.898438 213.539062 225.898438 C 213.324219 225.871094 213.101562 225.851562 212.882812 225.847656 C 212.851562 225.847656 212.820312 225.847656 212.785156 225.847656 C 212.648438 225.839844 212.503906 225.839844 212.367188 225.847656 C 212.34375 225.847656 212.3125 225.847656 212.285156 225.851562 C 211.835938 225.871094 211.382812 225.917969 210.921875 225.996094 L 203.496094 210.230469 L 200.953125 204.835938 C 202.289062 204.070312 203.617188 203.292969 204.929688 202.519531 C 205.019531 202.464844 205.109375 202.414062 205.199219 202.359375 C 206.445312 201.621094 207.679688 200.882812 208.910156 200.136719 C 208.957031 200.105469 209.007812 200.078125 209.054688 200.046875 C 213.125 197.574219 217.089844 195.066406 220.941406 192.527344 C 220.941406 192.527344 220.945312 192.523438 220.945312 192.523438 C 220.945312 192.523438 220.945312 192.523438 220.953125 192.523438 C 221.191406 192.359375 221.4375 192.207031 221.679688 192.046875 C 222.488281 191.507812 223.285156 190.972656 224.082031 190.4375 C 224.425781 190.203125 224.777344 189.964844 225.117188 189.734375 C 225.734375 189.316406 226.335938 188.898438 226.945312 188.476562 C 227.273438 188.25 227.613281 188.023438 227.941406 187.789062 L 237.703125 219.988281 C 239.398438 225.578125 243.171875 230.179688 248.328125 232.9375 C 251.511719 234.632812 255.082031 235.535156 258.644531 235.535156 C 258.980469 235.535156 259.320312 235.523438 259.679688 235.503906 L 267.195312 260.304688 C 267.0625 260.375 266.9375 260.457031 266.820312 260.542969 C 266.78125 260.566406 266.753906 260.589844 266.71875 260.613281 C 266.628906 260.679688 266.542969 260.742188 266.460938 260.808594 C 266.425781 260.839844 266.394531 260.863281 266.363281 260.894531 C 266.28125 260.96875 266.199219 261.046875 266.113281 261.125 C 266.089844 261.148438 266.066406 261.171875 266.042969 261.195312 C 265.832031 261.417969 265.640625 261.65625 265.476562 261.910156 C 265.457031 261.941406 265.4375 261.972656 265.421875 262.007812 C 265.324219 262.160156 265.242188 262.316406 265.164062 262.476562 C 265.160156 262.496094 265.148438 262.507812 265.140625 262.523438 C 265.027344 262.761719 264.9375 263.015625 264.867188 263.265625 C 264.859375 263.277344 264.859375 263.289062 264.859375 263.300781 C 264.824219 263.425781 264.792969 263.550781 264.769531 263.679688 C 264.765625 263.730469 264.757812 263.769531 264.746094 263.816406 C 264.730469 263.914062 264.71875 264.015625 264.710938 264.109375 C 264.703125 264.167969 264.699219 264.234375 264.699219 264.296875 C 264.675781 264.722656 264.699219 265.164062 264.792969 265.605469 L 266.5625 274.1875 C 266.84375 275.542969 267.691406 276.734375 268.882812 277.445312 C 269.660156 277.902344 270.539062 278.140625 271.425781 278.140625 C 271.910156 278.140625 272.394531 278.070312 272.859375 277.925781 L 282.566406 274.996094 C 283.898438 274.597656 285.007812 273.644531 285.605469 272.390625 C 286.207031 271.140625 286.25 269.679688 285.730469 268.394531 L 282.441406 260.277344 C 282.347656 260.046875 282.234375 259.828125 282.113281 259.617188 C 282.09375 259.582031 282.078125 259.550781 282.054688 259.515625 C 281.929688 259.320312 281.796875 259.128906 281.648438 258.957031 C 281.625 258.925781 281.59375 258.898438 281.570312 258.867188 C 281.480469 258.765625 281.386719 258.683594 281.289062 258.585938 C 280.835938 258.144531 280.316406 257.789062 279.738281 257.554688 C 279.535156 257.472656 279.324219 257.40625 279.109375 257.347656 C 279.039062 257.328125 278.960938 257.3125 278.882812 257.300781 C 278.722656 257.265625 278.5625 257.242188 278.398438 257.222656 C 278.328125 257.214844 278.257812 257.203125 278.183594 257.199219 C 277.953125 257.179688 277.71875 257.179688 277.480469 257.191406 L 269.964844 232.398438 C 273.34375 230.378906 276.101562 227.492188 277.980469 223.980469 C 280.746094 218.832031 281.332031 212.917969 279.636719 207.328125 L 276 195.335938 C 276 195.335938 276 195.328125 276 195.328125 C 276 195.328125 276 195.320312 276 195.320312 L 265.96875 162.105469 L 266.113281 162.0625 C 267.867188 161.53125 269.3125 160.351562 270.179688 158.738281 C 271.046875 157.125 271.230469 155.269531 270.699219 153.519531 C 270.632812 153.304688 270.5625 153.101562 270.476562 152.898438 C 270.40625 152.726562 270.324219 152.558594 270.238281 152.394531 C 270.238281 152.394531 270.238281 152.386719 270.238281 152.386719 C 270.226562 152.363281 270.222656 152.339844 270.210938 152.320312 C 270.203125 152.316406 270.203125 152.308594 270.199219 152.304688 C 270.019531 151.96875 269.816406 151.652344 269.589844 151.355469 C 269.566406 151.320312 269.539062 151.285156 269.515625 151.253906 C 270.058594 150.5625 270.589844 149.859375 271.109375 149.164062 C 271.273438 148.949219 271.425781 148.734375 271.589844 148.519531 C 271.964844 148.011719 272.328125 147.5 272.691406 146.988281 C 272.855469 146.761719 273.007812 146.542969 273.171875 146.316406 C 273.652344 145.617188 274.132812 144.921875 274.597656 144.21875 C 274.613281 144.1875 274.632812 144.164062 274.652344 144.132812 C 275.105469 143.445312 275.546875 142.753906 275.980469 142.054688 C 276.136719 141.804688 276.292969 141.554688 276.449219 141.296875 C 276.742188 140.820312 277.03125 140.339844 277.3125 139.855469 C 277.46875 139.589844 277.628906 139.328125 277.785156 139.058594 C 278.171875 138.378906 278.5625 137.699219 278.929688 137.019531 C 278.972656 136.9375 279.019531 136.859375 279.0625 136.777344 C 279.0625 136.777344 279.0625 136.777344 279.0625 136.769531 C 279.910156 135.203125 280.703125 133.628906 281.449219 132.039062 C 281.460938 132.015625 281.472656 131.996094 281.480469 131.972656 C 281.5 131.933594 281.523438 131.882812 281.539062 131.84375 C 281.878906 131.117188 282.207031 130.390625 282.523438 129.65625 C 282.585938 129.519531 282.644531 129.375 282.703125 129.238281 C 283.027344 128.488281 283.335938 127.730469 283.636719 126.976562 C 283.785156 126.59375 283.929688 126.207031 284.070312 125.824219 C 284.238281 125.382812 284.410156 124.949219 284.566406 124.507812 C 284.917969 123.53125 285.253906 122.554688 285.5625 121.570312 C 285.796875 120.839844 286.023438 120.109375 286.230469 119.371094 C 286.246094 119.324219 286.261719 119.277344 286.273438 119.230469 C 286.476562 118.527344 286.664062 117.816406 286.847656 117.113281 C 286.917969 116.835938 286.992188 116.546875 287.0625 116.269531 C 287.210938 115.679688 287.347656 115.082031 287.480469 114.492188 C 287.527344 114.265625 287.582031 114.046875 287.628906 113.820312 C 287.796875 113.039062 287.957031 112.257812 288.101562 111.476562 C 290.105469 100.484375 289.921875 89.152344 287.558594 78.6875 Z M 266.957031 204.652344 C 266.972656 204.515625 266.992188 204.378906 267.003906 204.246094 C 267.019531 204.050781 267.039062 203.859375 267.046875 203.664062 L 267.3125 203.582031 L 269.398438 210.449219 C 270.261719 213.296875 269.957031 216.3125 268.550781 218.933594 C 267.140625 221.554688 264.792969 223.476562 261.941406 224.339844 C 259.085938 225.203125 256.066406 224.898438 253.441406 223.492188 C 250.8125 222.085938 248.890625 219.746094 248.023438 216.898438 L 246.773438 212.757812 C 246.910156 212.820312 247.050781 212.882812 247.203125 212.929688 C 247.328125 212.96875 247.457031 213.007812 247.589844 213.042969 C 247.605469 213.046875 247.625 213.054688 247.644531 213.054688 C 247.667969 213.058594 247.695312 213.066406 247.722656 213.070312 C 247.847656 213.101562 247.972656 213.121094 248.097656 213.136719 C 248.132812 213.144531 248.164062 213.148438 248.199219 213.148438 C 248.355469 213.167969 248.507812 213.171875 248.671875 213.171875 C 249.304688 213.171875 249.941406 213.042969 250.542969 212.773438 C 251.039062 212.554688 251.503906 212.238281 251.933594 211.84375 C 252.199219 212.082031 252.496094 212.292969 252.832031 212.453125 C 253.894531 212.96875 255.171875 213.066406 256.628906 212.71875 C 257.058594 212.617188 257.625 212.457031 258.175781 212.113281 C 258.339844 212.003906 258.496094 211.886719 258.640625 211.761719 C 258.65625 211.742188 258.679688 211.726562 258.699219 211.714844 C 258.847656 211.582031 258.980469 211.445312 259.105469 211.300781 C 259.261719 211.273438 259.402344 211.21875 259.542969 211.140625 C 259.570312 211.125 259.59375 211.105469 259.625 211.085938 C 259.667969 211.058594 259.714844 211.027344 259.757812 211 C 259.785156 210.972656 259.808594 210.949219 259.839844 210.925781 C 259.871094 210.898438 259.898438 210.867188 259.929688 210.835938 C 259.941406 210.824219 259.953125 210.8125 259.964844 210.796875 C 260.011719 210.734375 260.058594 210.675781 260.097656 210.609375 C 260.109375 210.59375 260.121094 210.570312 260.132812 210.550781 C 260.210938 210.410156 260.269531 210.246094 260.292969 210.074219 C 260.292969 210.070312 260.292969 210.070312 260.292969 210.0625 C 260.539062 210.128906 260.792969 210.175781 261.050781 210.207031 C 261.136719 210.210938 261.21875 210.210938 261.300781 210.210938 C 261.476562 210.222656 261.648438 210.230469 261.828125 210.222656 C 262.054688 210.210938 262.28125 210.183594 262.507812 210.132812 C 262.53125 210.128906 262.5625 210.121094 262.585938 210.117188 C 262.820312 210.0625 263.050781 209.996094 263.273438 209.90625 C 264.90625 209.253906 266.203125 207.691406 266.742188 205.738281 C 266.832031 205.378906 266.902344 205.015625 266.957031 204.652344 Z M 241.660156 194.480469 C 241.589844 194.730469 241.523438 194.984375 241.464844 195.238281 L 237.195312 181.160156 C 238.558594 180.140625 239.90625 179.117188 241.230469 178.085938 C 242.550781 177.058594 243.859375 176.027344 245.140625 175 C 245.148438 175.566406 245.148438 176.136719 245.140625 176.71875 C 245.140625 176.773438 245.140625 176.828125 245.140625 176.882812 C 245.140625 176.882812 245.140625 176.886719 245.140625 176.886719 C 245.128906 178.074219 245.09375 179.289062 245.035156 180.511719 C 245.035156 180.550781 245.027344 180.585938 245.027344 180.628906 C 245.027344 180.628906 245.027344 180.636719 245.027344 180.636719 C 244.992188 181.351562 244.949219 182.070312 244.898438 182.785156 C 244.878906 183 244.867188 183.214844 244.847656 183.421875 C 244.808594 183.9375 244.765625 184.441406 244.71875 184.949219 C 244.695312 185.191406 244.671875 185.429688 244.644531 185.675781 C 244.597656 186.171875 244.542969 186.664062 244.484375 187.148438 C 244.460938 187.363281 244.4375 187.578125 244.40625 187.789062 C 244.324219 188.476562 244.226562 189.148438 244.132812 189.796875 C 243.949219 189.964844 243.773438 190.15625 243.609375 190.351562 C 243.554688 190.414062 243.511719 190.476562 243.457031 190.542969 C 243.34375 190.691406 243.230469 190.847656 243.125 191.015625 C 243.078125 191.089844 243.027344 191.167969 242.980469 191.246094 C 242.875 191.417969 242.777344 191.605469 242.675781 191.789062 C 242.640625 191.859375 242.597656 191.933594 242.570312 192.003906 C 242.445312 192.265625 242.316406 192.535156 242.203125 192.8125 C 242.199219 192.832031 242.1875 192.847656 242.179688 192.875 C 242.179688 192.875 242.179688 192.878906 242.179688 192.878906 C 241.988281 193.402344 241.816406 193.933594 241.660156 194.480469 Z M 241.660156 194.480469 " fill-opacity="1" fill-rule="nonzero"/></g><path fill="#ecebce" d="M 241.066406 267.261719 C 240.007812 268.15625 238.820312 268.894531 237.5 269.425781 L 222.03125 275.691406 C 221.867188 275.757812 221.691406 275.8125 221.519531 275.871094 C 227.871094 266.421875 231.847656 255.523438 233.066406 244.191406 C 234.324219 244.238281 235.578125 244.472656 236.789062 244.890625 C 235.632812 249.214844 235.949219 254.328125 237.757812 260.113281 C 238.402344 262.1875 239.191406 264.242188 240.089844 266.226562 C 240.335938 266.761719 240.695312 267.082031 241.066406 267.261719 Z M 227.621094 245.132812 L 226.96875 245.394531 C 222.484375 256.007812 214.71875 264.746094 205.628906 269.390625 C 205.550781 269.425781 205.472656 269.449219 205.394531 269.472656 C 207.742188 274.089844 212.5 276.765625 217.441406 276.632812 C 217.488281 276.484375 217.554688 276.335938 217.652344 276.199219 C 224.4375 266.851562 228.707031 255.875 230.03125 244.414062 C 229.214844 244.578125 228.410156 244.816406 227.621094 245.132812 Z M 223.460938 245.949219 C 223.304688 245.820312 223.171875 245.652344 223.078125 245.453125 L 221.195312 241.460938 C 215.894531 248.832031 208.503906 254.832031 200.195312 258.496094 L 204.125 266.832031 C 204.171875 266.804688 204.210938 266.769531 204.261719 266.742188 C 212.253906 262.664062 219.167969 255.148438 223.460938 245.949219 Z M 239.535156 246.1875 C 238.6875 249.851562 239.046875 254.226562 240.605469 259.21875 C 241.140625 260.945312 241.78125 262.65625 242.507812 264.320312 C 242.796875 264.460938 243.027344 264.683594 243.191406 264.957031 C 243.761719 264.164062 244.265625 263.304688 244.652344 262.375 C 246.019531 259.152344 246.042969 255.589844 244.722656 252.34375 C 243.679688 249.769531 241.863281 247.640625 239.535156 246.1875 Z M 219.476562 238.722656 C 219.5625 238.601562 219.65625 238.507812 219.765625 238.417969 L 216.886719 232.3125 C 216.636719 231.773438 216.367188 231.308594 216.085938 230.898438 C 210.046875 237.636719 203.023438 243.351562 195.210938 247.914062 L 198.921875 255.796875 C 207.15625 252.183594 214.4375 246.144531 219.476562 238.722656 Z M 213.769531 229.015625 C 213.40625 228.910156 213.019531 228.847656 212.605469 228.847656 C 210.4375 228.847656 207.601562 230.203125 204.414062 231.726562 C 203.835938 232 203.246094 232.289062 202.640625 232.566406 C 202.058594 232.839844 201.472656 233.109375 200.898438 233.371094 C 196.859375 235.230469 193.367188 236.832031 192.519531 239.167969 C 192.101562 240.3125 192.296875 241.71875 193.121094 243.464844 L 193.945312 245.210938 C 201.351562 240.847656 208.019531 235.410156 213.769531 229.015625 Z M 139.972656 36.816406 C 139.488281 36.445312 138.992188 36.09375 138.496094 35.734375 C 134.304688 42.816406 129.152344 49.253906 123.136719 54.878906 C 119.660156 58.128906 115.589844 61.390625 110.683594 64.855469 C 83.972656 83.710938 51.324219 95.234375 18.671875 97.355469 C 18.722656 101.394531 19.074219 105.460938 19.738281 109.480469 C 74.621094 108.480469 124.835938 82.617188 148.363281 43.253906 C 141.898438 38.292969 140.363281 37.113281 139.972656 36.816406 Z M 111.171875 33.871094 C 113.636719 31.195312 115.902344 28.300781 117.941406 25.261719 C 110.6875 22.894531 103.054688 21.628906 95.316406 21.515625 C 95.261719 21.824219 95.121094 22.121094 94.875 22.355469 C 76.816406 39.324219 54.484375 51.097656 30.261719 56.429688 C 26.363281 62.660156 23.457031 68.960938 21.589844 75.210938 C 46.652344 72.207031 71.078125 63.273438 92.332031 49.328125 C 100.273438 44.113281 106.253906 39.203125 111.171875 33.871094 Z M 121.09375 52.699219 C 126.957031 47.21875 131.976562 40.933594 136.042969 34.019531 C 135.671875 33.777344 135.316406 33.519531 134.945312 33.28125 C 130.507812 30.445312 125.78125 28.105469 120.855469 26.269531 C 118.621094 29.671875 116.117188 32.90625 113.371094 35.878906 C 108.285156 41.402344 102.121094 46.460938 93.972656 51.804688 C 72 66.238281 46.6875 75.394531 20.753906 78.308594 C 20.667969 78.652344 20.582031 79 20.503906 79.34375 C 19.40625 84.195312 18.800781 89.246094 18.683594 94.367188 C 50.726562 92.246094 82.75 80.921875 108.964844 62.417969 C 113.75 59.03125 117.722656 55.855469 121.09375 52.699219 Z M 84.488281 22.097656 C 83.414062 22.234375 82.332031 22.390625 81.257812 22.574219 C 61.4375 25.921875 43.851562 36.898438 32.652344 52.8125 C 54.523438 47.460938 74.714844 36.714844 91.351562 21.542969 C 89.074219 21.628906 86.78125 21.8125 84.488281 22.097656 Z M 244.210938 204.308594 C 244.214844 203.734375 244.234375 203.117188 244.265625 202.449219 L 243.703125 202.621094 Z M 282.996094 269.53125 L 279.707031 261.410156 C 279.398438 260.640625 278.664062 260.171875 277.878906 260.171875 C 277.6875 260.171875 277.492188 260.203125 277.300781 260.253906 L 269.117188 262.726562 C 268.132812 263.027344 267.539062 264.007812 267.75 265.023438 L 269.515625 273.601562 C 269.628906 274.148438 269.957031 274.613281 270.441406 274.902344 C 270.925781 275.1875 271.492188 275.257812 272.03125 275.097656 L 281.738281 272.164062 C 282.273438 272.003906 282.710938 271.636719 282.949219 271.128906 C 283.195312 270.621094 283.210938 270.054688 282.996094 269.53125 Z M 221.902344 172.121094 C 222.277344 172.121094 222.660156 172.066406 223.023438 171.953125 L 243.734375 165.703125 C 242.257812 163.660156 239.046875 161.742188 235.746094 160.019531 L 220.773438 164.535156 C 219.78125 164.832031 218.964844 165.5 218.472656 166.414062 C 217.984375 167.324219 217.882812 168.371094 218.183594 169.363281 C 218.675781 170.988281 220.207031 172.121094 221.902344 172.121094 Z M 267.839844 154.382812 C 267.539062 153.394531 266.871094 152.578125 265.957031 152.089844 C 265.386719 151.785156 264.765625 151.628906 264.132812 151.628906 C 263.753906 151.628906 263.375 151.683594 263.003906 151.796875 L 260.074219 152.683594 C 261.640625 154.691406 262.992188 156.988281 263.957031 159.601562 L 265.25 159.214844 C 266.238281 158.917969 267.058594 158.25 267.546875 157.339844 C 268.035156 156.421875 268.136719 155.371094 267.839844 154.382812 Z M 267.839844 154.382812 " fill-opacity="1" fill-rule="nonzero"/><path fill="#ffffff" d="M 211.347656 111.90625 C 205.847656 104.007812 198.457031 100.890625 191.402344 100.890625 C 186.804688 100.890625 182.34375 102.210938 178.644531 104.394531 C 169.480469 109.792969 163.355469 121.523438 170.316406 135.566406 C 173.199219 141.382812 179.0625 145.804688 185.617188 147.101562 C 193.113281 148.589844 200.546875 147.183594 205.996094 143.253906 C 210.917969 139.707031 213.929688 134.417969 214.730469 127.957031 C 215.496094 121.742188 214.324219 116.191406 211.347656 111.90625 Z M 203.644531 131.277344 C 201.808594 134.988281 198.160156 137.683594 194.085938 138.492188 C 185.394531 140.214844 177.152344 135.660156 176.023438 126.550781 C 175.523438 122.507812 176.375 119.109375 178.148438 116.558594 C 188.714844 101.390625 212.261719 113.910156 203.644531 131.277344 Z M 138.890625 111.914062 C 142.378906 116.917969 144.261719 125.449219 140.890625 131.402344 C 139.601562 133.671875 138.71875 134.058594 136.167969 133.5 C 134.582031 133.148438 133.003906 132.699219 131.191406 132.148438 C 131.363281 131.859375 131.53125 131.574219 131.679688 131.277344 C 140.292969 113.902344 116.742188 101.382812 106.1875 116.554688 C 104.664062 118.746094 103.824219 121.570312 103.9375 124.890625 C 103.070312 124.882812 102.183594 125.015625 101.273438 125.335938 C 101.15625 125.378906 101.03125 125.425781 100.910156 125.472656 C 100.617188 125.585938 100.320312 125.699219 100.140625 125.699219 C 100.140625 125.699219 100.132812 125.699219 100.132812 125.699219 C 99.847656 125.699219 99.425781 125.433594 98.96875 125.140625 C 98.703125 124.96875 98.421875 124.789062 98.105469 124.628906 C 97.082031 124.097656 95.96875 123.859375 94.828125 123.828125 C 94.808594 120.09375 95.714844 116.441406 97.476562 113.242188 C 101.441406 106.03125 108.484375 101.644531 116.8125 101.210938 C 125.519531 100.746094 133.976562 104.851562 138.890625 111.914062 Z M 138.890625 111.914062 " fill-opacity="1" fill-rule="nonzero"/><path fill="#c7daea" d="M 266.800781 232.136719 L 274.625 257.957031 L 270.054688 259.335938 L 262.226562 233.507812 C 262.035156 232.878906 261.453125 232.449219 260.800781 232.449219 C 260.746094 232.449219 260.691406 232.449219 260.644531 232.453125 C 259.894531 232.53125 259.273438 232.566406 258.6875 232.566406 C 255.605469 232.566406 252.53125 231.792969 249.78125 230.320312 C 245.328125 227.9375 242.066406 223.96875 240.597656 219.136719 L 226.886719 173.894531 L 231.457031 172.515625 L 245.171875 217.753906 C 246.265625 221.367188 248.707031 224.332031 252.03125 226.113281 C 254.113281 227.230469 256.394531 227.792969 258.695312 227.792969 C 260.066406 227.792969 261.453125 227.59375 262.804688 227.179688 C 266.425781 226.089844 269.398438 223.652344 271.183594 220.335938 C 272.96875 217.011719 273.347656 213.191406 272.25 209.582031 L 265.492188 187.285156 C 265.976562 182.285156 266.148438 177.070312 265.984375 172.4375 L 276.816406 208.199219 C 278.28125 213.023438 277.773438 218.136719 275.386719 222.582031 C 273.589844 225.929688 270.871094 228.621094 267.527344 230.375 C 266.902344 230.71875 266.589844 231.453125 266.800781 232.136719 Z M 102.273438 128.144531 C 102.171875 128.179688 102.074219 128.214844 101.972656 128.257812 C 101.484375 128.441406 100.878906 128.671875 100.164062 128.679688 C 100.152344 128.679688 100.140625 128.679688 100.128906 128.679688 C 98.976562 128.679688 98.082031 128.113281 97.363281 127.652344 C 97.148438 127.515625 96.941406 127.378906 96.71875 127.265625 C 96.121094 126.957031 95.398438 126.808594 94.613281 126.808594 C 92.683594 126.808594 90.34375 127.695312 88.457031 129.261719 C 86.25 131.097656 85.269531 133.320312 85.847656 135.199219 C 86.277344 136.589844 87.585938 137.734375 89.101562 138.058594 C 90.601562 138.375 92.308594 137.910156 93.5625 136.847656 C 94.132812 136.359375 94.625 135.675781 95.136719 134.945312 C 95.789062 134.03125 96.464844 133.078125 97.4375 132.332031 C 99.058594 131.085938 101.25 131.015625 103.011719 130.957031 C 103.410156 130.941406 103.792969 130.929688 104.15625 130.90625 C 105.296875 130.824219 107.769531 130.097656 108.742188 129.472656 C 108.664062 129.421875 108.574219 129.371094 108.460938 129.3125 C 106.59375 128.308594 104.386719 127.390625 102.273438 128.144531 Z M 102.273438 128.144531 " fill-opacity="1" fill-rule="nonzero"/><path fill="#ea2a2a" d="M 118.175781 222.515625 C 121.316406 224.726562 124.5625 227.003906 127.582031 229.535156 L 125.320312 271.4375 C 125.105469 275.390625 121.835938 278.488281 117.871094 278.488281 L 101.171875 278.488281 C 97.058594 278.488281 93.710938 275.144531 93.710938 271.039062 C 93.710938 266.933594 97.058594 263.59375 101.171875 263.59375 L 109.382812 263.59375 C 110.175781 263.59375 110.828125 262.972656 110.875 262.179688 L 113.207031 218.964844 C 114.863281 220.191406 116.539062 221.367188 118.175781 222.515625 Z M 196.300781 216.796875 C 193.992188 218.453125 191.617188 220.15625 189.164062 221.753906 L 194.554688 233.191406 C 196.070312 232.316406 197.808594 231.511719 199.652344 230.660156 C 200.21875 230.398438 200.792969 230.136719 201.371094 229.863281 C 201.96875 229.582031 202.554688 229.300781 203.125 229.027344 C 204.855469 228.207031 206.492188 227.425781 208.050781 226.839844 L 201.566406 213.082031 C 199.789062 214.300781 198.023438 215.5625 196.300781 216.796875 Z M 285.15625 110.929688 C 282.691406 124.367188 276.574219 137.390625 267.183594 149.378906 C 265.605469 148.597656 263.828125 148.4375 262.136719 148.949219 L 257.90625 150.222656 C 253.253906 145.46875 247.464844 142.550781 243.421875 140.519531 C 239.367188 138.480469 234.503906 139.265625 231.308594 142.472656 C 230.730469 143.054688 230.730469 143.996094 231.316406 144.582031 C 231.34375 144.613281 231.386719 144.636719 231.421875 144.664062 C 232.015625 145.148438 232.878906 145.125 233.429688 144.574219 C 235.710938 142.28125 239.191406 141.722656 242.078125 143.179688 C 247.964844 146.144531 257.820312 151.105469 261.296875 161.007812 C 262.214844 163.625 262.542969 166.246094 262.753906 168.472656 C 263.367188 175.175781 263.0625 184.101562 261.957031 191.769531 C 261.921875 192.003906 261.945312 192.242188 262.023438 192.460938 C 262.996094 195.339844 263.652344 198.320312 263.96875 201.296875 C 264.101562 202.53125 264.179688 203.832031 263.863281 204.96875 C 263.578125 206.015625 262.921875 206.855469 262.15625 207.160156 C 261.660156 207.363281 261.046875 207.285156 260.644531 207.023438 C 260.820312 204.824219 260.824219 202.613281 260.652344 200.421875 C 260.585938 199.601562 259.871094 199 259.046875 199.058594 C 258.222656 199.125 257.613281 199.839844 257.679688 200.660156 C 257.839844 202.6875 257.828125 204.71875 257.667969 206.742188 C 257.589844 206.90625 257.535156 207.082031 257.515625 207.273438 C 257.414062 208.554688 257.128906 209.277344 256.578125 209.628906 C 256.40625 209.734375 256.136719 209.804688 255.945312 209.855469 C 255.414062 209.980469 254.675781 210.070312 254.148438 209.8125 C 253.851562 209.664062 253.660156 209.328125 253.695312 209.191406 C 253.726562 209.085938 253.738281 208.976562 253.738281 208.878906 C 254.289062 206.296875 254.496094 203.664062 254.351562 201.023438 C 254.3125 200.203125 253.613281 199.5625 252.785156 199.617188 C 251.960938 199.660156 251.328125 200.363281 251.375 201.183594 C 251.503906 203.640625 251.300781 206.089844 250.769531 208.484375 C 250.4375 209.214844 249.882812 209.847656 249.332031 210.09375 C 248.800781 210.332031 248.125 210.253906 247.808594 209.933594 C 247.636719 209.71875 246.808594 208.214844 247.417969 199.730469 L 247.429688 199.59375 C 247.488281 198.773438 246.867188 198.0625 246.050781 198.003906 C 245.238281 197.9375 244.515625 198.5625 244.457031 199.378906 L 244.441406 199.515625 C 244.429688 199.652344 244.425781 199.785156 244.414062 199.921875 L 243.003906 200.328125 L 241.996094 200.613281 C 242.078125 199.785156 242.175781 198.925781 242.316406 198.074219 C 242.6875 195.851562 243.351562 193.652344 244.699219 191.992188 C 244.867188 192.097656 245.058594 192.175781 245.265625 192.210938 C 245.351562 192.222656 245.429688 192.230469 245.507812 192.230469 C 246.222656 192.230469 246.855469 191.710938 246.972656 190.980469 C 248.066406 184.292969 248.429688 175.804688 247.882812 169.851562 C 247.757812 168.460938 247.582031 167.03125 247.203125 165.949219 C 245.828125 162.039062 240.8125 159.246094 235.34375 156.492188 C 234.878906 156.253906 234.433594 155.972656 234.03125 155.644531 C 233.421875 155.15625 232.558594 155.230469 232.027344 155.78125 C 231.996094 155.8125 231.960938 155.84375 231.929688 155.878906 C 231.417969 156.523438 231.519531 157.457031 232.164062 157.96875 C 232.175781 157.976562 232.1875 157.988281 232.199219 157.992188 L 219.90625 161.707031 C 218.152344 162.234375 216.707031 163.414062 215.84375 165.03125 C 214.976562 166.644531 214.792969 168.5 215.324219 170.25 C 216.207031 173.164062 218.84375 175.117188 221.890625 175.117188 C 222.5625 175.117188 223.234375 175.015625 223.878906 174.820312 L 224.019531 174.777344 L 227.066406 184.816406 C 214.445312 193.648438 200.488281 202.109375 185.300781 210.109375 C 174.757812 215.664062 165.832031 219.773438 157.207031 223.039062 C 154.214844 224.171875 150.914062 224.171875 147.921875 223.039062 C 139.296875 219.769531 130.367188 215.664062 119.828125 210.109375 C 103.488281 201.5 88.570312 192.359375 75.210938 182.804688 C 75.652344 182.101562 76.089844 181.402344 76.535156 180.710938 C 78.273438 178.042969 80.117188 175.648438 82.035156 173.570312 C 86.976562 173.757812 91.867188 172.066406 95.640625 168.902344 C 96.640625 169.230469 97.804688 169.160156 98.855469 168.664062 C 99.90625 168.171875 100.796875 167.316406 101.585938 166.066406 C 102.933594 163.902344 103.421875 160.804688 102.105469 158.554688 C 103 157.433594 103.488281 155.972656 103.398438 154.542969 C 103.285156 152.726562 102.335938 150.878906 100.976562 149.832031 C 100.742188 149.652344 100.503906 149.496094 100.253906 149.371094 C 100.449219 148.753906 100.527344 148.085938 100.476562 147.417969 C 100.355469 145.808594 99.519531 144.332031 98.1875 143.359375 C 96.253906 141.953125 93.824219 142 92.046875 142.042969 L 87.550781 142.140625 C 80.128906 142.292969 75.9375 148.417969 72.238281 153.816406 L 71.71875 154.574219 C 70.683594 155.460938 69.675781 156.390625 68.691406 157.355469 C 68.734375 156.976562 68.75 156.59375 68.75 156.210938 C 68.746094 155.390625 68.082031 154.730469 67.257812 154.730469 C 67.257812 154.730469 67.253906 154.730469 67.253906 154.730469 C 66.90625 154.730469 66.597656 154.855469 66.34375 155.050781 C 65.992188 155.324219 65.765625 155.746094 65.765625 156.222656 C 65.765625 156.777344 65.707031 157.332031 65.585938 157.875 C 65.316406 159.078125 65.066406 160.28125 64.816406 161.492188 C 60.585938 166.019531 56.964844 171.082031 54.070312 176.566406 C 53.6875 177.292969 53.964844 178.191406 54.691406 178.578125 C 54.914062 178.699219 55.152344 178.753906 55.390625 178.753906 C 55.929688 178.753906 56.441406 178.460938 56.710938 177.960938 C 59.535156 172.628906 63.0625 167.699219 67.203125 163.308594 C 67.246094 163.273438 67.289062 163.238281 67.324219 163.195312 C 69.34375 160.847656 71.519531 158.667969 73.808594 156.71875 C 73.910156 156.636719 73.992188 156.539062 74.070312 156.433594 L 74.703125 155.507812 C 78.160156 150.46875 81.730469 145.25 87.617188 145.128906 L 92.109375 145.035156 C 93.867188 145 95.394531 145.027344 96.433594 145.777344 C 97.054688 146.230469 97.441406 146.917969 97.5 147.648438 C 97.53125 148.0625 97.441406 148.449219 97.269531 148.800781 C 94.605469 148.394531 91.460938 148.578125 88.605469 149.320312 C 87.808594 149.527344 87.328125 150.335938 87.539062 151.136719 C 87.710938 151.804688 88.320312 152.25 88.984375 152.25 C 89.109375 152.25 89.234375 152.230469 89.359375 152.203125 C 92.0625 151.5 95.035156 151.378906 97.414062 151.855469 C 97.574219 151.910156 97.734375 151.941406 97.90625 151.941406 C 98.097656 151.964844 98.285156 151.953125 98.460938 151.90625 C 98.648438 151.917969 98.875 151.980469 99.148438 152.195312 C 99.824219 152.714844 100.355469 153.789062 100.414062 154.742188 C 100.460938 155.46875 100.183594 156.222656 99.699219 156.777344 C 96.433594 156.230469 93.054688 156.445312 89.890625 157.445312 C 89.101562 157.695312 88.667969 158.53125 88.917969 159.316406 C 89.121094 159.953125 89.707031 160.359375 90.339844 160.359375 C 90.488281 160.359375 90.636719 160.335938 90.785156 160.289062 C 93.519531 159.421875 96.4375 159.238281 99.261719 159.726562 C 100.285156 160.871094 99.972656 163.003906 99.035156 164.507812 C 98.570312 165.25 98.074219 165.746094 97.566406 165.988281 C 97.351562 166.089844 97.113281 166.136719 96.894531 166.136719 C 96.945312 166.054688 97.007812 165.976562 97.058594 165.894531 C 97.496094 165.195312 97.28125 164.28125 96.582031 163.84375 C 95.882812 163.410156 94.964844 163.625 94.527344 164.320312 C 93.699219 165.648438 92.679688 166.839844 91.484375 167.859375 C 91.292969 168.019531 91.160156 168.222656 91.078125 168.4375 C 88.539062 169.84375 85.640625 170.621094 82.761719 170.625 C 82.53125 170.410156 82.238281 170.273438 81.921875 170.238281 C 81.460938 170.183594 81 170.34375 80.679688 170.679688 C 78.34375 173.078125 76.105469 175.917969 74.023438 179.109375 C 73.558594 179.824219 73.101562 180.546875 72.65625 181.273438 L 72.59375 181.367188 C 70.386719 184.894531 67.886719 188.886719 64.125 192.140625 C 61.671875 194.261719 58.773438 195.429688 55.976562 195.429688 C 53.457031 195.429688 51.164062 194.507812 49.335938 192.765625 C 46.96875 190.496094 45.96875 187.296875 46.386719 183.261719 C 47.367188 173.6875 48.925781 164.070312 51.015625 154.667969 C 51.902344 150.660156 55.898438 148.113281 59.914062 149.007812 C 60 149.027344 60.078125 149.042969 60.15625 149.066406 C 60.621094 149.1875 61.085938 149.066406 61.445312 148.792969 C 61.695312 148.597656 61.890625 148.328125 61.976562 147.996094 C 62.179688 147.199219 61.699219 146.386719 60.902344 146.183594 C 60.789062 146.15625 60.679688 146.128906 60.558594 146.105469 C 54.9375 144.863281 49.347656 148.417969 48.101562 154.03125 C 47.6875 155.871094 47.308594 157.730469 46.9375 159.589844 C 32.84375 145.398438 23.703125 129.285156 20.269531 112.496094 C 45.71875 111.941406 71.914062 105.710938 94.230469 94.871094 C 118.824219 82.917969 138.324219 65.746094 150.730469 45.132812 C 151.027344 45.359375 151.332031 45.597656 151.648438 45.835938 C 152.183594 46.246094 152.933594 46.246094 153.46875 45.835938 C 153.46875 45.835938 165.0625 36.945312 165.164062 36.867188 C 181.582031 24.230469 202.976562 19.042969 223.890625 22.574219 C 244.46875 26.046875 262.644531 37.742188 273.753906 54.660156 C 279.132812 62.847656 282.800781 71.152344 284.648438 79.34375 C 286.917969 89.421875 287.097656 100.339844 285.15625 110.929688 Z M 174.546875 83.660156 C 177.140625 86.792969 181.191406 88.632812 185.253906 88.632812 C 185.886719 88.632812 186.519531 88.585938 187.144531 88.496094 C 187.960938 88.378906 188.523438 87.621094 188.40625 86.808594 C 188.285156 85.992188 187.527344 85.433594 186.714844 85.554688 C 183.074219 86.082031 179.199219 84.601562 176.851562 81.765625 C 176.328125 81.125 175.382812 81.042969 174.75 81.566406 C 174.113281 82.085938 174.023438 83.027344 174.546875 83.660156 Z M 126.304688 90.34375 C 127.226562 90.488281 128.164062 90.558594 129.09375 90.558594 C 133.203125 90.558594 137.355469 89.199219 140.605469 86.722656 C 141.261719 86.21875 141.386719 85.285156 140.882812 84.636719 C 140.382812 83.980469 139.445312 83.855469 138.796875 84.355469 C 135.433594 86.910156 130.9375 88.054688 126.765625 87.398438 C 125.953125 87.273438 125.191406 87.828125 125.058594 88.640625 C 124.925781 89.449219 125.496094 90.21875 126.304688 90.34375 Z M 135.53125 136.40625 C 136.371094 136.589844 137.136719 136.6875 137.835938 136.6875 C 140.304688 136.6875 141.988281 135.5 143.488281 132.867188 C 147.457031 125.855469 145.34375 115.964844 141.34375 110.214844 C 135.839844 102.3125 126.378906 97.726562 116.660156 98.238281 C 107.28125 98.734375 99.335938 103.679688 94.863281 111.8125 C 92.796875 115.566406 91.757812 119.847656 91.84375 124.222656 C 89.871094 124.757812 87.992188 125.789062 86.554688 126.980469 C 83.382812 129.613281 82.058594 133.015625 83 136.085938 C 83.753906 138.523438 85.910156 140.441406 88.5 140.984375 C 89.019531 141.089844 89.542969 141.144531 90.074219 141.144531 C 92.007812 141.144531 93.957031 140.433594 95.496094 139.128906 C 96.363281 138.398438 96.980469 137.519531 97.578125 136.675781 C 98.128906 135.902344 98.640625 135.171875 99.257812 134.695312 C 99.769531 134.296875 100.550781 134.125 101.398438 134.035156 C 102.242188 134.078125 103.132812 134.042969 104.050781 133.941406 C 104.75 133.855469 105.441406 133.765625 106.140625 133.671875 C 106.890625 133.570312 107.644531 133.457031 108.398438 133.351562 C 112.511719 132.75 116.394531 132.183594 120.304688 132.582031 C 123.34375 132.890625 126.257812 133.773438 129.339844 134.707031 L 129.863281 134.871094 C 131.960938 135.5 133.714844 136.007812 135.53125 136.40625 Z M 171.050781 155.710938 C 160.53125 150.976562 147.65625 151.367188 137.441406 156.738281 C 136.710938 157.117188 136.429688 158.023438 136.8125 158.75 C 137.082031 159.257812 137.601562 159.546875 138.132812 159.546875 C 138.367188 159.546875 138.605469 159.496094 138.824219 159.375 C 148.238281 154.425781 160.113281 154.066406 169.8125 158.429688 C 170.566406 158.769531 171.449219 158.433594 171.789062 157.683594 C 172.136719 156.933594 171.800781 156.046875 171.050781 155.710938 Z M 213.792969 110.207031 C 209.273438 103.71875 203.113281 99.613281 195.980469 98.339844 C 189.582031 97.195312 182.882812 98.433594 177.121094 101.832031 C 166.769531 107.933594 159.828125 121.136719 167.636719 136.890625 C 170.972656 143.617188 177.472656 148.527344 185.027344 150.027344 C 187.179688 150.457031 189.324219 150.664062 191.4375 150.664062 C 197.480469 150.664062 203.203125 148.941406 207.742188 145.671875 C 213.347656 141.625 216.785156 135.632812 217.6875 128.328125 C 218.546875 121.367188 217.203125 115.101562 213.792969 110.207031 Z M 244.914062 170.101562 C 244.867188 169.578125 244.808594 169.027344 244.734375 168.511719 L 234.3125 171.65625 L 236.269531 178.125 C 239.265625 175.863281 242.179688 173.582031 245.003906 171.273438 C 244.980469 170.875 244.949219 170.480469 244.914062 170.101562 Z M 244.914062 170.101562 " fill-opacity="1" fill-rule="nonzero"/></svg>