<svg xmlns="http://www.w3.org/2000/svg" xmlns:xlink="http://www.w3.org/1999/xlink" width="40" zoomAndPan="magnify" viewBox="0 0 30 30.000001" height="40" preserveAspectRatio="xMidYMid meet" version="1.0"><defs><clipPath id="b4f4be6fe0"><path d="M 0.734375 1.960938 L 24 1.960938 L 24 23 L 0.734375 23 Z M 0.734375 1.960938 " clip-rule="nonzero"/></clipPath><clipPath id="5f4af76aa3"><path d="M 9 6 L 29.039062 6 L 29.039062 27.363281 L 9 27.363281 Z M 9 6 " clip-rule="nonzero"/></clipPath></defs><g clip-path="url(#b4f4be6fe0)"><path fill="#ffffff" d="M 23.011719 9.316406 C 23.011719 5.261719 19.71875 1.964844 15.671875 1.964844 L 8.074219 1.964844 C 4.027344 1.964844 0.734375 5.261719 0.734375 9.316406 L 0.734375 11.320312 C 0.734375 14.484375 2.742188 17.28125 5.730469 18.285156 L 6.023438 18.382812 L 5.871094 18.652344 C 5.472656 19.339844 4.929688 20.421875 4.214844 21.957031 C 4.128906 22.140625 4.167969 22.363281 4.308594 22.507812 C 4.453125 22.648438 4.679688 22.6875 4.855469 22.605469 L 13.460938 18.671875 L 15.671875 18.671875 C 19.71875 18.671875 23.011719 15.375 23.011719 11.320312 Z M 22.039062 11.320312 C 22.039062 14.835938 19.183594 17.695312 15.671875 17.695312 L 13.355469 17.695312 C 13.285156 17.695312 13.214844 17.710938 13.152344 17.742188 L 5.667969 21.164062 L 5.992188 20.519531 C 6.289062 19.933594 6.824219 18.894531 7.082031 18.558594 L 7.109375 18.523438 L 7.152344 18.496094 C 7.277344 18.417969 7.363281 18.289062 7.382812 18.140625 C 7.414062 17.882812 7.238281 17.644531 6.980469 17.601562 C 3.925781 17.066406 1.707031 14.425781 1.707031 11.320312 L 1.707031 9.316406 C 1.707031 5.800781 4.5625 2.941406 8.074219 2.941406 L 15.671875 2.941406 C 19.183594 2.941406 22.039062 5.800781 22.039062 9.316406 Z M 22.039062 11.320312 " fill-opacity="1" fill-rule="nonzero"/></g><path fill="#ffffff" d="M 6.132812 9.101562 C 5.371094 9.101562 4.75 9.722656 4.75 10.488281 C 4.75 11.25 5.371094 11.871094 6.132812 11.871094 C 6.898438 11.871094 7.519531 11.25 7.519531 10.488281 C 7.519531 9.722656 6.898438 9.101562 6.132812 9.101562 Z M 6.132812 9.101562 " fill-opacity="1" fill-rule="nonzero"/><path fill="#ffffff" d="M 17.613281 9.101562 C 16.847656 9.101562 16.230469 9.722656 16.230469 10.488281 C 16.230469 11.25 16.847656 11.871094 17.613281 11.871094 C 18.375 11.871094 18.996094 11.25 18.996094 10.488281 C 18.996094 9.722656 18.375 9.101562 17.613281 9.101562 Z M 17.613281 9.101562 " fill-opacity="1" fill-rule="nonzero"/><path fill="#ffffff" d="M 11.875 9.101562 C 11.109375 9.101562 10.488281 9.722656 10.488281 10.488281 C 10.488281 11.25 11.109375 11.871094 11.875 11.871094 C 12.636719 11.871094 13.257812 11.25 13.257812 10.488281 C 13.257812 9.722656 12.636719 9.101562 11.875 9.101562 Z M 11.875 9.101562 " fill-opacity="1" fill-rule="nonzero"/><g clip-path="url(#5f4af76aa3)"><path fill="#ffffff" d="M 10.601562 20.851562 L 9.597656 21.308594 C 10.878906 22.390625 12.527344 23.050781 14.328125 23.050781 L 16.539062 23.050781 L 25.144531 26.984375 C 25.320312 27.066406 25.546875 27.027344 25.691406 26.886719 C 25.832031 26.742188 25.871094 26.519531 25.785156 26.335938 C 25.070312 24.800781 24.527344 23.71875 24.128906 23.03125 L 23.976562 22.761719 L 24.269531 22.664062 C 27.257812 21.660156 29.265625 18.863281 29.265625 15.699219 L 29.265625 13.695312 C 29.265625 10.113281 26.691406 7.128906 23.296875 6.484375 C 23.425781 6.832031 23.53125 7.191406 23.613281 7.5625 C 23.617188 7.5625 23.617188 7.5625 23.621094 7.566406 C 23.617188 7.5625 23.617188 7.5625 23.613281 7.5625 C 23.738281 8.128906 23.808594 8.714844 23.808594 9.316406 L 23.808594 11.324219 C 23.808594 15.8125 20.15625 19.464844 15.671875 19.464844 L 13.632812 19.464844 M 22.617188 22.519531 L 22.617188 22.519531 " fill-opacity="1" fill-rule="nonzero"/></g></svg>