<svg xmlns="http://www.w3.org/2000/svg" xmlns:xlink="http://www.w3.org/1999/xlink" width="40" zoomAndPan="magnify" viewBox="0 0 30 30.000001" height="40" preserveAspectRatio="xMidYMid meet" version="1.0"><defs><clipPath id="8a6277bb60"><path d="M 5 8 L 29 8 L 29 26 L 5 26 Z M 5 8 " clip-rule="nonzero"/></clipPath><clipPath id="4618bb3e5f"><path d="M -4.460938 10.234375 L 8.371094 -2.597656 L 29.414062 18.445312 L 16.582031 31.277344 Z M -4.460938 10.234375 " clip-rule="nonzero"/></clipPath><clipPath id="ce5edeb36c"><path d="M -4.460938 10.234375 L 8.371094 -2.597656 L 29.414062 18.445312 L 16.582031 31.277344 Z M -4.460938 10.234375 " clip-rule="nonzero"/></clipPath><clipPath id="2b7b2c6a39"><path d="M 0.484375 4 L 13 4 L 13 16 L 0.484375 16 Z M 0.484375 4 " clip-rule="nonzero"/></clipPath><clipPath id="af29bf524c"><path d="M -4.460938 10.234375 L 8.371094 -2.597656 L 29.414062 18.445312 L 16.582031 31.277344 Z M -4.460938 10.234375 " clip-rule="nonzero"/></clipPath><clipPath id="c3e1f459be"><path d="M -4.460938 10.234375 L 8.371094 -2.597656 L 29.414062 18.445312 L 16.582031 31.277344 Z M -4.460938 10.234375 " clip-rule="nonzero"/></clipPath></defs><g clip-path="url(#8a6277bb60)"><g clip-path="url(#4618bb3e5f)"><g clip-path="url(#ce5edeb36c)"><path fill="#ff316f" d="M 21.519531 10.980469 C 21.1875 10.671875 20.847656 10.347656 20.792969 10.285156 L 19.019531 8.511719 L 18.972656 8.480469 C 18.007812 7.867188 17.425781 8.113281 17.113281 8.429688 C 17.078125 8.460938 17.046875 8.496094 17.015625 8.535156 C 16.722656 8.84375 16.605469 9.230469 16.65625 9.617188 L 16.222656 9.183594 C 15.679688 8.640625 14.757812 8.683594 14.164062 9.277344 C 13.730469 9.710938 13.589844 10.324219 13.757812 10.832031 L 12.804688 9.878906 C 12.265625 9.335938 11.34375 9.378906 10.75 9.972656 C 10.332031 10.390625 10.1875 10.976562 10.328125 11.472656 L 8.546875 9.691406 C 7.667969 8.8125 6.890625 8.734375 6.167969 9.457031 C 5.574219 10.050781 5.535156 10.972656 6.074219 11.515625 L 13.835938 19.195312 L 10.78125 17.828125 L 10.714844 17.796875 L 10.644531 17.789062 C 9.996094 17.695312 9.515625 17.832031 9.136719 18.210938 C 8.941406 18.402344 8.800781 18.632812 8.632812 18.910156 C 8.464844 19.1875 8.433594 19.53125 8.546875 19.875 C 8.695312 20.34375 9.089844 20.761719 9.574219 20.976562 L 15.359375 24.191406 L 15.449219 24.242188 L 15.550781 24.253906 L 20.390625 24.761719 L 22.394531 25.511719 L 22.703125 25.625 L 22.933594 25.390625 L 27.929688 20.3125 L 28.214844 20.023438 L 28 19.683594 L 24.179688 13.664062 L 24.171875 13.648438 L 24.160156 13.636719 C 23.832031 13.183594 22.722656 12.121094 21.519531 10.980469 Z M 21.519531 10.980469 " fill-opacity="1" fill-rule="nonzero"/></g></g></g><g clip-path="url(#2b7b2c6a39)"><g clip-path="url(#af29bf524c)"><g clip-path="url(#c3e1f459be)"><path fill="#ff316f" d="M 3.867188 14.878906 L 1.742188 14.957031 L 3.617188 13.082031 C 3.871094 13.390625 4.171875 13.671875 4.519531 13.90625 C 5.027344 14.253906 5.589844 14.484375 6.191406 14.59375 C 6.277344 14.609375 6.359375 14.582031 6.417969 14.523438 C 6.453125 14.488281 6.476562 14.441406 6.488281 14.390625 C 6.511719 14.253906 6.421875 14.121094 6.28125 14.09375 C 5.75 14 5.253906 13.792969 4.800781 13.488281 C 3.042969 12.289062 2.585938 9.882812 3.785156 8.125 C 4.363281 7.273438 5.242188 6.699219 6.253906 6.503906 C 7.269531 6.3125 8.296875 6.527344 9.148438 7.105469 C 9.695312 7.480469 10.140625 7.988281 10.433594 8.582031 C 10.496094 8.707031 10.648438 8.757812 10.773438 8.695312 C 10.898438 8.632812 10.949219 8.480469 10.886719 8.355469 C 10.617188 7.808594 10.230469 7.328125 9.761719 6.9375 L 11.65625 5.046875 L 11.578125 7.171875 L 12.082031 7.1875 L 12.195312 4.148438 L 9.152344 4.257812 L 9.171875 4.765625 L 11.296875 4.6875 L 9.347656 6.636719 C 8.402344 6.019531 7.273438 5.796875 6.160156 6.007812 C 5.371094 6.15625 4.65625 6.519531 4.070312 7.042969 L 2.128906 5.097656 L 4.253906 5.175781 L 4.269531 4.667969 L 1.230469 4.558594 L 1.339844 7.601562 L 1.847656 7.582031 L 1.769531 5.457031 L 3.714844 7.398438 C 3.589844 7.539062 3.472656 7.683594 3.367188 7.839844 C 2.347656 9.335938 2.386719 11.242188 3.3125 12.671875 L 1.382812 14.601562 L 1.460938 12.476562 L 0.953125 12.457031 L 0.84375 15.5 L 3.886719 15.386719 Z M 3.867188 14.878906 " fill-opacity="1" fill-rule="nonzero"/></g></g></g></svg>